<svg width="110" height="49" viewBox="0 0 110 49" fill="none" xmlns="http://www.w3.org/2000/svg">
<g clip-path="url(#clip0_7149_26895)">
<path fill-rule="evenodd" clip-rule="evenodd" d="M72.9665 30.4545V15H68.9129L55.0222 27.5757L41.0863 15H37.0332V30.4545H72.9665Z" fill="#151F26"/>
<path fill-rule="evenodd" clip-rule="evenodd" d="M37.0332 48.9993H46.0165V33.7266H37.0332V48.9993Z" fill="#151F26"/>
<path fill-rule="evenodd" clip-rule="evenodd" d="M63.9834 48.9993H72.9667V33.7266H63.9834V48.9993Z" fill="#151F26"/>
<path fill-rule="evenodd" clip-rule="evenodd" d="M48.4004 33.7266L54.9435 39.5447L61.4171 33.7266H48.4004Z" fill="#E01824"/>
<path fill-rule="evenodd" clip-rule="evenodd" d="M18.6091 33.728C17.9806 35.1582 16.5466 36.1576 14.8767 36.1576C12.6278 36.1576 10.8048 34.3447 10.8048 32.1082C10.8048 29.8717 12.6278 28.0588 14.8767 28.0588C16.5466 28.0588 17.9806 29.0582 18.6091 30.4884H29.7C28.9298 21.8117 21.5971 15 12.673 15H0V49H12.673C21.5228 49 28.8093 42.3014 29.6808 33.728H18.6091Z" fill="#151F26"/>
<path fill-rule="evenodd" clip-rule="evenodd" d="M80.2998 15V30.4884H91.4335C92.0605 29.0582 93.4913 28.0588 95.1568 28.0588C97.4012 28.0588 99.2195 29.8717 99.2195 32.1082C99.2195 34.3447 97.4012 36.1576 95.1568 36.1576C93.4913 36.1576 92.0605 35.1577 91.4335 33.728H80.2998V49H92.9435C102.359 49 110 41.3841 110 32.0003C110 22.6159 102.359 15 92.9435 15H80.2998Z" fill="#151F26"/>
<path fill-rule="evenodd" clip-rule="evenodd" d="M6.46952 4.46284H7.9126V7.29939C7.10499 8.16191 5.95096 8.59264 4.45158 8.59264C3.18821 8.59264 2.13052 8.18922 1.27853 7.38238C0.425455 6.57449 0 5.55438 0 4.31996C0 3.08553 0.434116 2.05702 1.30343 1.23442C2.17058 0.411825 3.22068 0 4.45158 0C5.68248 0 6.70552 0.34774 7.52179 1.04427L6.75099 2.1127C6.41647 1.8364 6.07979 1.64415 5.74202 1.53699C5.40317 1.42983 5.01019 1.37625 4.562 1.37625C3.69702 1.37625 2.97277 1.64835 2.38493 2.1894C1.79817 2.73149 1.50479 3.44378 1.50479 4.32626C1.50479 5.20769 1.78951 5.91578 2.36111 6.45052C2.93055 6.98421 3.62232 7.25106 4.43318 7.25106C5.24511 7.25106 5.92389 7.08087 6.46952 6.74048V4.46284Z" fill="#9EA3A7"/>
<path fill-rule="evenodd" clip-rule="evenodd" d="M15.2166 3.86926C15.51 3.62448 15.6572 3.23051 15.6572 2.68842C15.6572 2.14632 15.5067 1.77442 15.2047 1.57271C14.9027 1.371 14.3646 1.27014 13.5906 1.27014H11.7556V4.23696H13.5538C14.3689 4.23696 14.9232 4.11405 15.2166 3.86926ZM17.1371 2.69472C17.1371 4.06362 16.5211 4.92509 15.2902 5.28123L17.5279 8.29533H15.694L13.6512 5.50711H11.7556V8.29533H10.3125V0H13.4931C14.7966 0 15.7308 0.214317 16.2938 0.64085C16.8556 1.06843 17.1371 1.75341 17.1371 2.69472Z" fill="#9EA3A7"/>
<path fill-rule="evenodd" clip-rule="evenodd" d="M25.5533 2.16103C24.9698 1.57481 24.2553 1.28275 23.4076 1.28275C22.5589 1.28275 21.8433 1.57481 21.2609 2.16103C20.6784 2.7462 20.3861 3.45639 20.3861 4.29054C20.3861 5.12575 20.6784 5.83594 21.2609 6.42111C21.8433 7.00628 22.5589 7.29939 23.4076 7.29939C24.2553 7.29939 24.9698 7.00628 25.5533 6.42111C26.1368 5.83594 26.428 5.12575 26.428 4.29054C26.428 3.45639 26.1368 2.7462 25.5533 2.16103ZM26.611 7.35296C25.7471 8.17136 24.6786 8.58109 23.4076 8.58109C22.1356 8.58109 21.0671 8.17136 20.2032 7.35296C19.3382 6.53352 18.9062 5.51341 18.9062 4.29054C18.9062 3.06873 19.3382 2.04757 20.2032 1.22917C21.0671 0.409724 22.1356 0 23.4076 0C24.6786 0 25.7471 0.409724 26.611 1.22917C27.4749 2.04757 27.9068 3.06873 27.9068 4.29054C27.9068 5.51341 27.4749 6.53352 26.611 7.35296Z" fill="#9EA3A7"/>
<path fill-rule="evenodd" clip-rule="evenodd" d="M32.108 6.39589C32.4988 6.83923 33.0292 7.0609 33.6972 7.0609C34.3652 7.0609 34.8967 6.83923 35.2875 6.39589C35.6783 5.9536 35.8754 5.35162 35.8754 4.59206V0H37.3174V4.65194C37.3174 5.84644 36.9796 6.76674 36.303 7.41075C35.6253 8.0558 34.757 8.37832 33.6972 8.37832C32.6374 8.37832 31.7691 8.0558 31.0925 7.41075C30.4159 6.76674 30.0781 5.84644 30.0781 4.65194V0H31.5212V4.59206C31.5212 5.35162 31.7161 5.9536 32.108 6.39589Z" fill="#9EA3A7"/>
<path fill-rule="evenodd" clip-rule="evenodd" d="M44.2827 4.14766C44.5728 3.8514 44.7168 3.41647 44.7168 2.84285C44.7168 2.26924 44.5339 1.86372 44.1669 1.62629C43.7999 1.38886 43.225 1.27014 42.4423 1.27014H40.9743V4.59311H42.6502C43.4491 4.59311 43.9937 4.44498 44.2827 4.14766ZM45.3036 0.723845C45.899 1.20711 46.1967 1.95092 46.1967 2.95526C46.1967 3.95961 45.8936 4.69606 45.2863 5.16252C44.6779 5.63002 43.7468 5.86325 42.491 5.86325H40.9743V8.29533H39.5312V0H42.4672C43.7631 0 44.7092 0.241632 45.3036 0.723845Z" fill="#9EA3A7"/>
<path fill-rule="evenodd" clip-rule="evenodd" d="M54.129 0V1.31742H49.5681V3.51312H53.6646V4.7591H49.5681V6.97896H54.2762V8.29533H48.125V0H54.129Z" fill="#9EA3A7"/>
</g>
<defs>
<clipPath id="clip0_7149_26895">
<rect width="110" height="49" fill="white"/>
</clipPath>
</defs>
</svg>
