<svg width="102" height="30" viewBox="0 0 102 30" fill="none" xmlns="http://www.w3.org/2000/svg">
<g id="Logos">
<g id="Group">
<g id="Group_2">
<path id="Vector" d="M8.01528 10.9209H0.205375C0.0645502 10.9209 -0.0352006 11.0612 0.011741 11.1898L5.8325 27.2466L9.87534 19.0808L8.24412 11.1021C8.22065 10.9969 8.12677 10.9209 8.01528 10.9209Z" fill="#D32C2C"/>
<path id="Vector_2" d="M29.9967 0.820312H20.626C20.5439 0.820312 20.4676 0.867074 20.4265 0.943062L6.14453 29.3918H13.2268C13.3149 29.3918 13.4029 29.345 13.4439 29.269L30.2021 1.18272C30.296 1.0249 30.1845 0.820312 29.9967 0.820312Z" fill="#D32C2C"/>
</g>
<g id="Group_3">
<path id="Vector_3" d="M19.7659 24.5897L22.5002 19.6973H26.5959L23.797 24.7125C22.3653 27.2785 22.8171 28.3833 26.0913 28.3833C29.3654 28.3833 30.8089 27.8163 32.2406 25.2385L35.3212 19.6973H36.3656L33.2851 25.2385C31.3429 28.7106 29.4887 29.5406 24.4835 29.5406C19.4784 29.5406 17.8648 28.0033 19.7659 24.5956V24.5897Z" fill="#D32C2C"/>
<path id="Vector_4" d="M38.7811 19.6963H42.7829L37.8716 28.4875H45.5466L45.0361 29.4111H33.3594L38.7811 19.7021V19.6963Z" fill="#D32C2C"/>
<path id="Vector_5" d="M47.4385 24.039C49.4922 20.339 53.1712 19.5674 58.4404 19.5674C60.2242 19.5674 61.7557 19.7486 63.1111 20.0175L62.6593 20.8358C61.2921 20.678 59.7372 20.5435 58.2703 20.5435C55.09 20.5435 53.2416 21.28 51.4755 24.4248C49.721 27.5695 50.9239 28.569 54.0866 28.5807C55.5535 28.5807 56.9559 28.4521 58.4932 28.2885L58.0297 29.1068C56.3515 29.3698 54.9257 29.5393 53.1595 29.5393C47.9431 29.5393 45.3496 27.7624 47.4385 24.039Z" fill="#D32C2C"/>
<path id="Vector_6" d="M70.1725 19.6963H73.5641L74.3855 29.4052H70.3427L70.1608 26.921H62.9611L60.039 29.4052H58.6953L70.1667 19.6963H70.1725ZM64.0467 25.9974H70.0963L69.7442 21.1576L64.0525 25.9974H64.0467Z" fill="#D32C2C"/>
<path id="Vector_7" d="M81.2714 19.6963H85.2438L79.8162 29.4052H75.8438L81.2655 19.6963H81.2714Z" fill="#D32C2C"/>
<path id="Vector_8" d="M87.5366 22.1454L83.482 29.4052H82.4141L87.8417 19.6963H91.1687L96.2794 26.6287L100.146 19.6963H101.232L95.8041 29.4052H92.9524L87.5424 22.1454H87.5366Z" fill="#D32C2C"/>
</g>
</g>
</g>
</svg>
