<svg width="43" height="43" viewBox="0 0 43 43" fill="none" xmlns="http://www.w3.org/2000/svg">
<rect x="3" y="9" width="24" height="23" rx="5" fill="#E5E7EB"/>
<path d="M31.5 17L40 15V29L31.5 24V17Z" fill="#E5E7EB"/>
<path d="M22.6931 10.1045H8.35981C5.72112 10.1045 3.58203 12.2436 3.58203 14.8823V26.8267C3.58203 29.4654 5.72112 31.6045 8.35981 31.6045H22.6931C25.3318 31.6045 27.4709 29.4654 27.4709 26.8267V14.8823C27.4709 12.2436 25.3318 10.1045 22.6931 10.1045Z" stroke="#4B5563" stroke-width="3.58333" stroke-linecap="round" stroke-linejoin="round"/>
<path d="M32.248 25.6318L37.6868 28.3504C37.8689 28.4413 38.0712 28.4842 38.2745 28.4749C38.4778 28.4657 38.6754 28.4046 38.8485 28.2976C39.0216 28.1905 39.1645 28.041 39.2636 27.8632C39.3627 27.6855 39.4147 27.4853 39.4147 27.2818V14.4248C39.4149 14.2212 39.3629 14.021 39.2638 13.8431C39.1648 13.6653 39.0218 13.5158 38.8486 13.4089C38.6754 13.3019 38.4777 13.2411 38.2743 13.2321C38.071 13.2232 37.8687 13.2664 37.6868 13.3577L32.248 16.0763" stroke="#4B5563" stroke-width="3.58333" stroke-linecap="round" stroke-linejoin="round"/>
</svg>
