<svg width="25" height="25" viewBox="0 0 25 25" fill="none" xmlns="http://www.w3.org/2000/svg">
<rect x="9" y="13" width="7" height="11" fill="#CBCBCB"/>
<rect x="17" y="20" width="7" height="4" fill="#D9D9D9"/>
<rect x="1" y="17" width="7" height="7" fill="#9CA3AF"/>
<path d="M16.3342 24H8.66708M16.3342 24V13.2661C16.3342 13.0628 16.2534 12.8677 16.1096 12.724C15.9658 12.5802 15.7708 12.4994 15.5674 12.4994H9.43378C9.23044 12.4994 9.03542 12.5802 8.89164 12.724C8.74785 12.8677 8.66708 13.0628 8.66708 13.2661V24M16.3342 24H23.2345C23.4379 24 23.6329 23.9192 23.7767 23.7754C23.9205 23.6317 24.0012 23.4366 24.0012 23.2333V20.2942C24.0012 20.0909 23.9205 19.8959 23.7767 19.7521C23.6329 19.6083 23.4379 19.5275 23.2345 19.5275H17.1009C16.8975 19.5275 16.7025 19.6083 16.5587 19.7521C16.4149 19.8959 16.3342 20.0909 16.3342 20.2942V24ZM8.66708 24V17.7386C8.66708 17.5352 8.5863 17.3402 8.44251 17.1964C8.29873 17.0526 8.10371 16.9718 7.90037 16.9718H1.76671C1.56336 16.9718 1.36835 17.0526 1.22456 17.1964C1.08078 17.3402 1 17.5352 1 17.7386V23.2333C1 23.4366 1.08078 23.6317 1.22456 23.7754C1.36835 23.9192 1.56336 24 1.76671 24H8.66708ZM10.9749 3.69886L12.1364 1.23645C12.1678 1.16606 12.2189 1.10626 12.2835 1.0643C12.3481 1.02233 12.4236 1 12.5006 1C12.5777 1 12.6531 1.02233 12.7177 1.0643C12.7824 1.10626 12.8334 1.16606 12.8648 1.23645L14.0276 3.69886L16.6242 4.09627C16.9577 4.14739 17.0906 4.57674 16.8491 4.82209L14.9707 6.73886L15.4141 9.44533C15.4703 9.79291 15.1228 10.0587 14.8237 9.89386L12.5006 8.61601L10.1775 9.89386C9.87975 10.0574 9.5309 9.79291 9.58713 9.44533L10.0305 6.73886L8.1521 4.82209C7.90931 4.57674 8.04349 4.14739 8.37573 4.09627L10.9749 3.69886Z" stroke="#374151" stroke-width="1.25" stroke-linecap="round" stroke-linejoin="round"/>
</svg>
