<svg width="231" height="53" viewBox="0 0 231 53" fill="none" xmlns="http://www.w3.org/2000/svg">
<path d="M86.8556 16.078C86.5354 16.2972 86.288 16.6052 86.1444 16.9633L80.5881 29.6097C80.3881 30.1101 80.2047 30.5994 80.0325 31.0833C79.8602 31.5672 79.7769 31.8586 79.6324 32.3754C79.3601 31.4425 79.0374 30.5248 78.6656 29.6262L72.7593 16.9798C72.6087 16.6502 72.3868 16.3573 72.1092 16.122C71.7554 15.8532 71.3152 15.7204 70.8701 15.7481H65.625L76.7376 38.2918L71.059 50.5368H76.0264C76.5333 50.5754 77.039 50.4479 77.4654 50.1739C77.8104 49.8936 78.0764 49.53 78.2378 49.1182L93.3175 15.7316H87.9779C87.5762 15.7264 87.1831 15.8477 86.8556 16.078V16.078Z" fill="black"/>
<path d="M187.36 35.1398C187.015 34.8028 186.607 34.5341 186.16 34.348C185.704 34.15 185.213 34.0453 184.715 34.0401C184.198 34.0365 183.686 34.1376 183.21 34.337C182.75 34.5258 182.329 34.798 181.97 35.1398C181.622 35.475 181.349 35.8799 181.17 36.3275C180.787 37.2675 180.787 38.3181 181.17 39.2582C181.352 39.7011 181.624 40.1018 181.97 40.4348C182.321 40.7611 182.733 41.0169 183.182 41.1881C183.66 41.3814 184.171 41.4786 184.688 41.474C185.193 41.4759 185.693 41.3788 186.16 41.1881C186.609 41.0101 187.017 40.7446 187.36 40.4074C187.891 39.8792 188.251 39.2062 188.394 38.4745C188.536 37.7428 188.455 36.9857 188.16 36.3C187.97 35.8665 187.699 35.4727 187.36 35.1398Z" fill="black"/>
<path d="M173.999 4.34375H167.82V41.1339H173.999V4.34375Z" fill="black"/>
<path d="M230.197 6.79623C229.991 6.33251 229.697 5.91245 229.33 5.55908C228.959 5.20807 228.526 4.92676 228.053 4.72881C227.562 4.52514 227.035 4.42046 226.502 4.4209C225.983 4.4205 225.468 4.52529 224.991 4.72881C224.529 4.9261 224.109 5.20777 223.752 5.55908C223.395 5.91451 223.11 6.3345 222.913 6.79623C222.702 7.2804 222.596 7.80303 222.602 8.3303C222.596 8.84159 222.702 9.34806 222.913 9.81488C223.319 10.7326 224.061 11.4637 224.991 11.8603C225.468 12.0638 225.983 12.1686 226.502 12.1682C227.035 12.1687 227.562 12.064 228.053 11.8603C228.994 11.4643 229.753 10.735 230.181 9.81488C230.397 9.34964 230.508 8.84264 230.503 8.3303C230.513 7.80317 230.409 7.27996 230.197 6.79623V6.79623Z" fill="black"/>
<path d="M229.597 15.7305H223.418V41.1278H229.597V15.7305Z" fill="black"/>
<path d="M217.672 25.876C217.644 24.4134 217.367 21.6697 216.9 20.449C216.462 19.282 215.782 18.2183 214.905 17.3259C214.012 16.4543 212.942 15.7797 211.766 15.3465C210.161 14.8622 208.486 14.643 206.81 14.6976C204.711 14.7803 202.642 15.225 200.698 16.0118C197.425 17.3809 196.142 18.673 196.142 18.673L198.736 22.9233C201.107 21.1155 203.927 19.9756 206.899 19.6243C208.326 19.4868 210.282 19.9212 211.088 20.7239C212.51 22.1316 212.249 23.7206 212.349 24.6388C212.349 24.7708 212.388 25.3591 212.421 26.2114C212.238 26.1784 210.871 25.9365 210.393 25.8925C208.356 25.6259 206.294 25.5927 204.248 25.7935C196.292 26.8162 194.158 32.6996 195.914 36.7904C196.819 38.9898 198.747 40.5899 201.564 41.4036C205.087 42.4263 210.632 40.9638 212.772 37.8956C212.772 37.8956 213.066 39.4847 213.149 39.8971C213.19 40.1228 213.283 40.3359 213.422 40.5193C213.561 40.7027 213.742 40.8511 213.949 40.9528C214.4 41.1406 214.889 41.2216 215.377 41.1892L218.433 41.1342C218.001 37.9856 217.799 34.8103 217.828 31.6329C217.806 30.3023 217.672 25.876 217.672 25.876ZM211.505 33.9257C211.197 34.2378 210.872 34.5333 210.532 34.811C205.098 39.1108 201.048 37.0709 200.659 34.4426C200.342 32.3422 202.431 30.0438 206.365 29.6204C208.43 29.4437 210.509 29.566 212.538 29.9833C212.566 30.9236 212.594 31.8968 212.622 32.826L211.505 33.9257Z" fill="black"/>
<path d="M160.45 19.5418C159.683 18.3933 158.684 17.4142 157.516 16.6661C156.359 15.9456 155.056 15.4839 153.699 15.3135C152.181 15.0709 150.626 15.1935 149.165 15.6709C147.802 16.1625 146.523 16.8559 145.37 17.7273V4.34961H139.375V41.1343H143.264C143.616 41.1523 143.963 41.0557 144.253 40.8593C144.526 40.6236 144.707 40.3006 144.765 39.9466L145.042 38.2366L145.17 37.5658C145.448 37.9067 145.726 38.2366 146.02 38.5445C146.463 39.0025 146.955 39.4118 147.487 39.7651C148.039 40.1216 148.63 40.4149 149.249 40.6394C151.421 41.411 153.79 41.4516 155.988 40.7549C157.348 40.2816 158.571 39.487 159.55 38.44C160.589 37.3098 161.383 35.9813 161.883 34.5361C162.469 32.8807 162.782 31.1431 162.811 29.3896C162.889 27.5124 162.711 25.6335 162.284 23.8031C161.928 22.2879 161.307 20.8458 160.45 19.5418V19.5418ZM147.115 35.4873C146.331 35.086 145.948 34.4756 145.381 33.6619V21.8402C146.103 21.1364 146.941 20.5599 147.859 20.1357C160.489 15.6709 159.572 41.8271 147.104 35.4873H147.115Z" fill="black"/>
<path d="M63.3602 30.5885C62.9166 29.9059 62.3406 29.3172 61.6655 28.8564C61.5321 28.763 61.3932 28.6805 61.2543 28.5925C60.6416 28.184 59.9835 27.8464 59.293 27.5863C57.4872 26.9271 55.6428 26.3762 53.77 25.9368C52.927 25.7304 52.099 25.4677 51.2919 25.1505C50.6262 24.8994 50.0082 24.5387 49.4639 24.0838C49.2396 23.8924 49.0563 23.6586 48.9246 23.3961C48.7929 23.1336 48.7156 22.8477 48.6971 22.5552C48.7518 22.1664 48.8986 21.7958 49.1255 21.4738C49.3524 21.1518 49.6531 20.8874 50.0029 20.7022C51.3364 19.7785 54.4146 19.685 56.1148 20.0919C56.7621 20.2315 57.3989 20.4152 58.0206 20.6418C58.5762 20.8397 59.0485 21.0157 59.4652 21.1916C59.9896 21.4305 60.5875 21.4581 61.1321 21.2686C61.3327 21.1551 61.5039 20.997 61.6322 20.8067L63.1046 18.0575C61.8801 17.1116 60.5006 16.3807 59.0263 15.8966C55.5943 14.841 51.9261 14.7971 48.4693 15.7701C47.2124 16.1485 46.0356 16.7504 44.9967 17.5461C44.1287 18.2177 43.4306 19.0798 42.9575 20.0644C42.5138 21.0104 42.3007 22.0462 42.3352 23.0886V23.4735C42.338 24.4111 42.5767 25.3332 43.0297 26.1567C43.4586 26.8903 44.0378 27.5271 44.73 28.0262C45.0192 28.2262 45.3198 28.4098 45.6301 28.576C46.1044 28.863 46.6026 29.1095 47.1192 29.3128C48.0275 29.6754 48.9549 29.9892 49.8973 30.2531C50.8419 30.517 51.7809 30.7644 52.6754 30.9843C53.5247 31.1881 54.3583 31.4509 55.1702 31.7706C55.8408 32.0301 56.4611 32.4021 57.0038 32.8703C57.2378 33.0795 57.4265 33.3336 57.5583 33.6172C57.6901 33.9007 57.7623 34.2078 57.7705 34.5199C57.7381 34.8327 57.6516 35.1377 57.515 35.4216C57.2974 35.8635 56.9682 36.2423 56.5593 36.5213C55.3603 37.243 53.972 37.597 52.5699 37.5385C51.6012 37.5719 50.6326 37.472 49.6917 37.2416C48.5058 36.9085 47.3572 36.4572 46.2635 35.8945C45.9089 35.7169 45.5163 35.6264 45.1189 35.6305C44.7864 35.618 44.4554 35.682 44.1521 35.8175C43.8943 35.9493 43.6701 36.1373 43.4965 36.3673L42.0352 39.1551C42.6263 39.574 43.2528 39.942 43.9076 40.2547C44.7318 40.6525 45.5864 40.9852 46.4635 41.25C47.4039 41.5349 48.3639 41.7517 49.3361 41.8988C50.3457 42.048 51.3657 42.1179 52.3865 42.1077C54.121 42.1135 55.8475 41.8765 57.515 41.4039C58.8444 41.0243 60.0902 40.4014 61.1877 39.5674C62.1279 38.8349 62.8799 37.8929 63.3824 36.8182C63.8736 35.7323 64.1037 34.5484 64.0547 33.3597V33.0298C64.044 32.1697 63.8044 31.3277 63.3602 30.5885V30.5885Z" fill="black"/>
<path d="M129.831 16.4852C128.369 15.5975 126.684 15.1345 124.969 15.1491C123.296 15.1605 121.662 15.6493 120.263 16.5567C120.263 16.5567 119.657 16.9636 119.413 17.156C118.45 17.9623 117.595 18.8861 116.868 19.9052C115.068 14.5058 108.283 13.7305 104.088 17.156C103.568 17.5798 103.078 18.0391 102.622 18.5306L102.21 16.6282C102.106 16.2877 101.887 15.9928 101.59 15.7927C101.293 15.5926 100.935 15.4994 100.577 15.5285H96.6875V41.1348H103.038V22.3631C103.672 21.6405 104.423 21.0273 105.261 20.5486C106.961 19.5478 110.161 19.6578 111.373 21.0599C112.09 21.8462 112.628 23.1108 112.628 25.0188V41.1348H118.185V22.3631C118.819 21.6405 119.57 21.0273 120.407 20.5486C122.102 19.5478 125.308 19.6578 126.519 21.0599C127.236 21.8462 127.775 23.1108 127.775 25.0188V41.1348H134.204V26.8938C134.204 23.0944 133.765 21.1094 132.881 19.6633C132.147 18.3699 131.098 17.2777 129.831 16.4852V16.4852Z" fill="black"/>
<path opacity="0.64" d="M31.588 30.0165L12.0854 15.0167L2.05078 7.29688L7.98489 25.3373L12.5799 39.3199L16.9805 52.6866L31.5769 30.077L31.5991 30.044L31.588 30.0165Z" fill="black"/>
<path opacity="0.64" d="M31.5875 30.0161L18.0524 0L12.0849 15.0163L7.98438 25.3369L0 45.4392L12.5794 39.3194L31.5764 30.0765L31.5986 30.0435L31.5875 30.0161Z" fill="black"/>
</svg>
