<svg width="20" height="20" viewBox="0 0 20 20" fill="none" xmlns="http://www.w3.org/2000/svg">
<path d="M10 0.875H1.5L1 9.875L3 12.375L10 18.375L18.5 8.875L10 0.875Z" fill="#E5E7EB"/>
<path d="M18.5 9.875L16.9999 7.87491L10.5 14.375L10.0391 14.8194C9.6622 15.1828 9.06888 15.194 8.67857 14.8451L8 14.2386L1.49873 7.875L2.11416 11.194L4.93634 14.2386L9.37075 18.375L18.5 9.875Z" fill="#9CA3AF"/>
<path d="M5.56771 7.29167C6.43353 7.29167 7.13542 6.58978 7.13542 5.72396C7.13542 4.85814 6.43353 4.15625 5.56771 4.15625C4.70189 4.15625 4 4.85814 4 5.72396C4 6.58978 4.70189 7.29167 5.56771 7.29167Z" fill="#4B5563"/>
<path d="M11.1531 0.305209C11.0566 0.20829 10.9418 0.131428 10.8154 0.0790473C10.689 0.0266668 10.5535 -0.000197343 10.4167 1.09133e-06H1.04167C0.7654 1.09133e-06 0.500447 0.109748 0.305097 0.305098C0.109747 0.500449 0 0.765401 0 1.04167V10.4167C0 10.6938 0.109375 10.9583 0.305208 11.1531L8.63854 19.4865C8.73506 19.5835 8.84981 19.6606 8.9762 19.7131C9.10258 19.7657 9.23812 19.7927 9.375 19.7927C9.51188 19.7927 9.64742 19.7657 9.77381 19.7131C9.90019 19.6606 10.0149 19.5835 10.1115 19.4865L19.4865 10.1115C19.5833 10.0148 19.6601 9.90001 19.7125 9.77364C19.7649 9.64727 19.7919 9.51181 19.7919 9.375C19.7919 9.23819 19.7649 9.10273 19.7125 8.97636C19.6601 8.84999 19.5833 8.7352 19.4865 8.63854L11.1531 0.305209ZM10.0821 16.57C9.69158 16.9605 9.05842 16.9605 8.66789 16.57L2.37623 10.2783C2.18869 10.0908 2.08333 9.83642 2.08333 9.5712V3.08333C2.08333 2.53105 2.53105 2.08333 3.08333 2.08333H9.5712C9.83642 2.08333 10.0908 2.18869 10.2783 2.37623L16.57 8.66789C16.9605 9.05842 16.9605 9.69158 16.57 10.0821L10.0821 16.57Z" fill="#374151"/>
</svg>
