<svg width="524" height="535" viewBox="0 0 524 535" fill="none" xmlns="http://www.w3.org/2000/svg">
<rect width="524" height="535" fill="white"/>
<rect x="444.48" y="79" width="26" height="391" rx="13" fill="#B3B5B9"/>
<rect x="444.48" y="79" width="26" height="216" rx="13" fill="#090F1D"/>
<path d="M312.48 165C311.376 165 310.48 165.895 310.48 167C310.48 168.105 311.376 169 312.48 169L312.48 165ZM435.027 167L423.48 155.453L411.933 167L423.48 178.547L435.027 167ZM312.48 169L316.445 169L316.445 165L312.48 165L312.48 169ZM324.373 169L332.302 169L332.302 165L324.373 165L324.373 169ZM340.23 169L348.159 169L348.159 165L340.23 165L340.23 169ZM356.088 169L364.016 169L364.016 165L356.088 165L356.088 169ZM371.945 169L379.873 169L379.873 165L371.945 165L371.945 169ZM387.802 169L395.73 169L395.73 165L387.802 165L387.802 169ZM403.659 169L411.588 169L411.588 165L403.659 165L403.659 169ZM419.516 169L423.48 169L423.48 165L419.516 165L419.516 169Z" fill="#B3B5B9"/>
<rect x="88.4805" y="169" width="86" height="8" fill="#D9D9D9"/>
<rect x="53.4805" y="98" width="133" height="41" rx="20.5" fill="#090F1D"/>
<path d="M82.0417 125V112.4H86.3797C87.3757 112.4 88.1917 112.568 88.8277 112.904C89.4757 113.24 89.9557 113.696 90.2677 114.272C90.5797 114.836 90.7357 115.466 90.7357 116.162C90.7357 116.942 90.5257 117.65 90.1057 118.286C89.6977 118.922 89.0557 119.378 88.1797 119.654L90.8617 125H88.6477L86.1997 119.924H83.9497V125H82.0417ZM83.9497 118.484H86.2717C87.1357 118.484 87.7657 118.274 88.1617 117.854C88.5697 117.434 88.7737 116.888 88.7737 116.216C88.7737 115.544 88.5757 115.01 88.1797 114.614C87.7837 114.206 87.1417 114.002 86.2537 114.002H83.9497V118.484ZM96.5519 125.216C95.6759 125.216 94.8959 125.024 94.2119 124.64C93.5399 124.244 93.0119 123.698 92.6279 123.002C92.2439 122.306 92.0519 121.496 92.0519 120.572C92.0519 119.636 92.2379 118.814 92.6099 118.106C92.9939 117.398 93.5219 116.846 94.1939 116.45C94.8779 116.054 95.6699 115.856 96.5699 115.856C97.4459 115.856 98.2079 116.054 98.8559 116.45C99.5039 116.834 100.008 117.35 100.368 117.998C100.728 118.646 100.908 119.36 100.908 120.14C100.908 120.26 100.902 120.392 100.89 120.536C100.89 120.668 100.884 120.818 100.872 120.986H93.9239C93.9839 121.85 94.2659 122.51 94.7699 122.966C95.2859 123.41 95.8799 123.632 96.5519 123.632C97.0919 123.632 97.5419 123.512 97.9019 123.272C98.2739 123.02 98.5499 122.684 98.7299 122.264H100.638C100.398 123.104 99.9179 123.806 99.1979 124.37C98.4899 124.934 97.6079 125.216 96.5519 125.216ZM96.5519 117.422C95.9159 117.422 95.3519 117.614 94.8599 117.998C94.3679 118.37 94.0679 118.934 93.9599 119.69H98.9999C98.9639 118.994 98.7179 118.442 98.2619 118.034C97.8059 117.626 97.2359 117.422 96.5519 117.422ZM106.452 125.216C105.324 125.216 104.394 124.94 103.662 124.388C102.93 123.836 102.51 123.104 102.402 122.192H104.328C104.424 122.6 104.652 122.954 105.012 123.254C105.372 123.542 105.846 123.686 106.434 123.686C107.01 123.686 107.43 123.566 107.694 123.326C107.958 123.086 108.09 122.81 108.09 122.498C108.09 122.042 107.904 121.736 107.532 121.58C107.172 121.412 106.668 121.262 106.02 121.13C105.516 121.022 105.012 120.878 104.508 120.698C104.016 120.518 103.602 120.266 103.266 119.942C102.942 119.606 102.78 119.156 102.78 118.592C102.78 117.812 103.08 117.164 103.68 116.648C104.28 116.12 105.12 115.856 106.2 115.856C107.196 115.856 108 116.096 108.612 116.576C109.236 117.056 109.602 117.734 109.71 118.61H107.874C107.814 118.226 107.634 117.926 107.334 117.71C107.046 117.494 106.656 117.386 106.164 117.386C105.684 117.386 105.312 117.488 105.048 117.692C104.784 117.884 104.652 118.136 104.652 118.448C104.652 118.76 104.832 119.006 105.192 119.186C105.564 119.366 106.05 119.528 106.65 119.672C107.25 119.804 107.802 119.96 108.306 120.14C108.822 120.308 109.236 120.56 109.548 120.896C109.86 121.232 110.016 121.724 110.016 122.372C110.028 123.188 109.71 123.866 109.062 124.406C108.426 124.946 107.556 125.216 106.452 125.216ZM116.275 125.216C115.399 125.216 114.619 125.024 113.935 124.64C113.263 124.244 112.735 123.698 112.351 123.002C111.967 122.306 111.775 121.496 111.775 120.572C111.775 119.636 111.961 118.814 112.333 118.106C112.717 117.398 113.245 116.846 113.917 116.45C114.601 116.054 115.393 115.856 116.293 115.856C117.169 115.856 117.931 116.054 118.579 116.45C119.227 116.834 119.731 117.35 120.091 117.998C120.451 118.646 120.631 119.36 120.631 120.14C120.631 120.26 120.625 120.392 120.613 120.536C120.613 120.668 120.607 120.818 120.595 120.986H113.647C113.707 121.85 113.989 122.51 114.493 122.966C115.009 123.41 115.603 123.632 116.275 123.632C116.815 123.632 117.265 123.512 117.625 123.272C117.997 123.02 118.273 122.684 118.453 122.264H120.361C120.121 123.104 119.641 123.806 118.921 124.37C118.213 124.934 117.331 125.216 116.275 125.216ZM116.275 117.422C115.639 117.422 115.075 117.614 114.583 117.998C114.091 118.37 113.791 118.934 113.683 119.69H118.723C118.687 118.994 118.441 118.442 117.985 118.034C117.529 117.626 116.959 117.422 116.275 117.422ZM125.634 125.216C124.878 125.216 124.254 125.09 123.762 124.838C123.27 124.586 122.904 124.256 122.664 123.848C122.424 123.428 122.304 122.972 122.304 122.48C122.304 121.616 122.64 120.932 123.312 120.428C123.984 119.924 124.944 119.672 126.192 119.672H128.532V119.51C128.532 118.814 128.34 118.292 127.956 117.944C127.584 117.596 127.098 117.422 126.498 117.422C125.97 117.422 125.508 117.554 125.112 117.818C124.728 118.07 124.494 118.448 124.41 118.952H122.502C122.562 118.304 122.778 117.752 123.15 117.296C123.534 116.828 124.014 116.474 124.59 116.234C125.178 115.982 125.82 115.856 126.516 115.856C127.764 115.856 128.73 116.186 129.414 116.846C130.098 117.494 130.44 118.382 130.44 119.51V125H128.784L128.622 123.47C128.37 123.962 128.004 124.376 127.524 124.712C127.044 125.048 126.414 125.216 125.634 125.216ZM126.012 123.668C126.528 123.668 126.96 123.548 127.308 123.308C127.668 123.056 127.944 122.726 128.136 122.318C128.34 121.91 128.466 121.46 128.514 120.968H126.39C125.634 120.968 125.094 121.1 124.77 121.364C124.458 121.628 124.302 121.958 124.302 122.354C124.302 122.762 124.452 123.086 124.752 123.326C125.064 123.554 125.484 123.668 126.012 123.668ZM132.665 125V116.072H134.375L134.537 117.764C134.849 117.176 135.281 116.714 135.833 116.378C136.397 116.03 137.075 115.856 137.867 115.856V117.854H137.345C136.817 117.854 136.343 117.944 135.923 118.124C135.515 118.292 135.185 118.586 134.933 119.006C134.693 119.414 134.573 119.984 134.573 120.716V125H132.665ZM143.487 125.216C142.611 125.216 141.825 125.018 141.129 124.622C140.445 124.226 139.905 123.68 139.509 122.984C139.125 122.276 138.933 121.46 138.933 120.536C138.933 119.612 139.125 118.802 139.509 118.106C139.905 117.398 140.445 116.846 141.129 116.45C141.825 116.054 142.611 115.856 143.487 115.856C144.591 115.856 145.515 116.144 146.259 116.72C147.015 117.296 147.501 118.076 147.717 119.06H145.719C145.599 118.568 145.335 118.184 144.927 117.908C144.519 117.632 144.039 117.494 143.487 117.494C143.019 117.494 142.587 117.614 142.191 117.854C141.795 118.082 141.477 118.424 141.237 118.88C140.997 119.324 140.877 119.876 140.877 120.536C140.877 121.196 140.997 121.754 141.237 122.21C141.477 122.654 141.795 122.996 142.191 123.236C142.587 123.476 143.019 123.596 143.487 123.596C144.039 123.596 144.519 123.458 144.927 123.182C145.335 122.906 145.599 122.516 145.719 122.012H147.717C147.513 122.972 147.033 123.746 146.277 124.334C145.521 124.922 144.591 125.216 143.487 125.216ZM149.786 125V112.04H151.694V117.512C151.994 116.996 152.408 116.594 152.936 116.306C153.476 116.006 154.07 115.856 154.718 115.856C155.786 115.856 156.626 116.192 157.238 116.864C157.85 117.536 158.156 118.538 158.156 119.87V125H156.266V120.068C156.266 118.34 155.576 117.476 154.196 117.476C153.476 117.476 152.876 117.728 152.396 118.232C151.928 118.736 151.694 119.456 151.694 120.392V125H149.786Z" fill="white"/>
<rect x="53.4805" y="201" width="165" height="41" rx="20.5" fill="#090F1D"/>
<path d="M86.7704 228.216C85.8704 228.216 85.0544 228.042 84.3224 227.694C83.6024 227.334 83.0264 226.788 82.5944 226.056C82.1744 225.324 81.9644 224.394 81.9644 223.266V215.4H83.8724V223.284C83.8724 224.388 84.1364 225.198 84.6644 225.714C85.1924 226.23 85.9064 226.488 86.8064 226.488C87.6944 226.488 88.4024 226.23 88.9304 225.714C89.4584 225.198 89.7224 224.388 89.7224 223.284V215.4H91.6304V223.266C91.6304 224.394 91.4084 225.324 90.9644 226.056C90.5324 226.788 89.9444 227.334 89.2004 227.694C88.4684 228.042 87.6584 228.216 86.7704 228.216ZM94.0058 228V219.072H95.6978L95.8418 220.638C96.1178 220.086 96.5198 219.654 97.0478 219.342C97.5878 219.018 98.2058 218.856 98.9018 218.856C99.9818 218.856 100.828 219.192 101.44 219.864C102.064 220.536 102.376 221.538 102.376 222.87V228H100.486V223.068C100.486 221.34 99.7778 220.476 98.3618 220.476C97.6538 220.476 97.0658 220.728 96.5978 221.232C96.1418 221.736 95.9138 222.456 95.9138 223.392V228H94.0058ZM107.647 228.216C106.891 228.216 106.267 228.09 105.775 227.838C105.283 227.586 104.917 227.256 104.677 226.848C104.437 226.428 104.317 225.972 104.317 225.48C104.317 224.616 104.653 223.932 105.325 223.428C105.997 222.924 106.957 222.672 108.205 222.672H110.545V222.51C110.545 221.814 110.353 221.292 109.969 220.944C109.597 220.596 109.111 220.422 108.511 220.422C107.983 220.422 107.521 220.554 107.125 220.818C106.741 221.07 106.507 221.448 106.423 221.952H104.515C104.575 221.304 104.791 220.752 105.163 220.296C105.547 219.828 106.027 219.474 106.603 219.234C107.191 218.982 107.833 218.856 108.529 218.856C109.777 218.856 110.743 219.186 111.427 219.846C112.111 220.494 112.453 221.382 112.453 222.51V228H110.797L110.635 226.47C110.383 226.962 110.017 227.376 109.537 227.712C109.057 228.048 108.427 228.216 107.647 228.216ZM108.025 226.668C108.541 226.668 108.973 226.548 109.321 226.308C109.681 226.056 109.957 225.726 110.149 225.318C110.353 224.91 110.479 224.46 110.527 223.968H108.403C107.647 223.968 107.107 224.1 106.783 224.364C106.471 224.628 106.315 224.958 106.315 225.354C106.315 225.762 106.465 226.086 106.765 226.326C107.077 226.554 107.497 226.668 108.025 226.668ZM116.319 228L113.691 219.072H115.599L117.327 225.804L119.271 219.072H121.395L123.339 225.804L125.067 219.072H126.975L124.347 228H122.385L120.333 220.98L118.281 228H116.319ZM131.167 228.216C130.411 228.216 129.787 228.09 129.295 227.838C128.803 227.586 128.437 227.256 128.197 226.848C127.957 226.428 127.837 225.972 127.837 225.48C127.837 224.616 128.173 223.932 128.845 223.428C129.517 222.924 130.477 222.672 131.725 222.672H134.065V222.51C134.065 221.814 133.873 221.292 133.489 220.944C133.117 220.596 132.631 220.422 132.031 220.422C131.503 220.422 131.041 220.554 130.645 220.818C130.261 221.07 130.027 221.448 129.943 221.952H128.035C128.095 221.304 128.311 220.752 128.683 220.296C129.067 219.828 129.547 219.474 130.123 219.234C130.711 218.982 131.353 218.856 132.049 218.856C133.297 218.856 134.263 219.186 134.947 219.846C135.631 220.494 135.973 221.382 135.973 222.51V228H134.317L134.155 226.47C133.903 226.962 133.537 227.376 133.057 227.712C132.577 228.048 131.947 228.216 131.167 228.216ZM131.545 226.668C132.061 226.668 132.493 226.548 132.841 226.308C133.201 226.056 133.477 225.726 133.669 225.318C133.873 224.91 133.999 224.46 134.047 223.968H131.923C131.167 223.968 130.627 224.1 130.303 224.364C129.991 224.628 129.835 224.958 129.835 225.354C129.835 225.762 129.985 226.086 130.285 226.326C130.597 226.554 131.017 226.668 131.545 226.668ZM138.197 228V219.072H139.907L140.069 220.764C140.381 220.176 140.813 219.714 141.365 219.378C141.929 219.03 142.607 218.856 143.399 218.856V220.854H142.877C142.349 220.854 141.875 220.944 141.455 221.124C141.047 221.292 140.717 221.586 140.465 222.006C140.225 222.414 140.105 222.984 140.105 223.716V228H138.197ZM148.965 228.216C148.089 228.216 147.309 228.024 146.625 227.64C145.953 227.244 145.425 226.698 145.041 226.002C144.657 225.306 144.465 224.496 144.465 223.572C144.465 222.636 144.651 221.814 145.023 221.106C145.407 220.398 145.935 219.846 146.607 219.45C147.291 219.054 148.083 218.856 148.983 218.856C149.859 218.856 150.621 219.054 151.269 219.45C151.917 219.834 152.421 220.35 152.781 220.998C153.141 221.646 153.321 222.36 153.321 223.14C153.321 223.26 153.315 223.392 153.303 223.536C153.303 223.668 153.297 223.818 153.285 223.986H146.337C146.397 224.85 146.679 225.51 147.183 225.966C147.699 226.41 148.293 226.632 148.965 226.632C149.505 226.632 149.955 226.512 150.315 226.272C150.687 226.02 150.963 225.684 151.143 225.264H153.051C152.811 226.104 152.331 226.806 151.611 227.37C150.903 227.934 150.021 228.216 148.965 228.216ZM148.965 220.422C148.329 220.422 147.765 220.614 147.273 220.998C146.781 221.37 146.481 221.934 146.373 222.69H151.413C151.377 221.994 151.131 221.442 150.675 221.034C150.219 220.626 149.649 220.422 148.965 220.422ZM159.098 228L163.742 215.4H165.83L170.438 228H168.422L167.342 224.922H162.194L161.114 228H159.098ZM162.734 223.41H166.802L164.768 217.668L162.734 223.41ZM175.734 228.216C174.87 228.216 174.108 228.012 173.448 227.604C172.788 227.196 172.272 226.638 171.9 225.93C171.528 225.222 171.342 224.418 171.342 223.518C171.342 222.618 171.528 221.82 171.9 221.124C172.272 220.416 172.788 219.864 173.448 219.468C174.12 219.06 174.888 218.856 175.752 218.856C176.46 218.856 177.078 218.994 177.606 219.27C178.146 219.546 178.566 219.936 178.866 220.44V215.04H180.774V228H179.064L178.866 226.614C178.578 227.034 178.182 227.406 177.678 227.73C177.174 228.054 176.526 228.216 175.734 228.216ZM176.076 226.56C176.892 226.56 177.558 226.278 178.074 225.714C178.602 225.15 178.866 224.424 178.866 223.536C178.866 222.636 178.602 221.91 178.074 221.358C177.558 220.794 176.892 220.512 176.076 220.512C175.26 220.512 174.588 220.794 174.06 221.358C173.532 221.91 173.268 222.636 173.268 223.536C173.268 224.124 173.388 224.646 173.628 225.102C173.868 225.558 174.198 225.918 174.618 226.182C175.05 226.434 175.536 226.56 176.076 226.56ZM186.744 228.216C185.616 228.216 184.686 227.94 183.954 227.388C183.222 226.836 182.802 226.104 182.694 225.192H184.62C184.716 225.6 184.944 225.954 185.304 226.254C185.664 226.542 186.138 226.686 186.726 226.686C187.302 226.686 187.722 226.566 187.986 226.326C188.25 226.086 188.382 225.81 188.382 225.498C188.382 225.042 188.196 224.736 187.824 224.58C187.464 224.412 186.96 224.262 186.312 224.13C185.808 224.022 185.304 223.878 184.8 223.698C184.308 223.518 183.894 223.266 183.558 222.942C183.234 222.606 183.072 222.156 183.072 221.592C183.072 220.812 183.372 220.164 183.972 219.648C184.572 219.12 185.412 218.856 186.492 218.856C187.488 218.856 188.292 219.096 188.904 219.576C189.528 220.056 189.894 220.734 190.002 221.61H188.166C188.106 221.226 187.926 220.926 187.626 220.71C187.338 220.494 186.948 220.386 186.456 220.386C185.976 220.386 185.604 220.488 185.34 220.692C185.076 220.884 184.944 221.136 184.944 221.448C184.944 221.76 185.124 222.006 185.484 222.186C185.856 222.366 186.342 222.528 186.942 222.672C187.542 222.804 188.094 222.96 188.598 223.14C189.114 223.308 189.528 223.56 189.84 223.896C190.152 224.232 190.308 224.724 190.308 225.372C190.32 226.188 190.002 226.866 189.354 227.406C188.718 227.946 187.848 228.216 186.744 228.216Z" fill="white"/>
<rect x="53.4805" y="254" width="144" height="41" rx="20.5" fill="#090F1D"/>
<path d="M81.776 281V268.4H83.684V281H81.776ZM86.1689 281V272.072H87.8609L88.0049 273.638C88.2809 273.086 88.6829 272.654 89.2109 272.342C89.7509 272.018 90.3689 271.856 91.0649 271.856C92.1449 271.856 92.9909 272.192 93.6029 272.864C94.2269 273.536 94.5389 274.538 94.5389 275.87V281H92.6489V276.068C92.6489 274.34 91.9409 273.476 90.5249 273.476C89.8169 273.476 89.2289 273.728 88.7609 274.232C88.3049 274.736 88.0769 275.456 88.0769 276.392V281H86.1689ZM100.53 281C99.6541 281 98.9581 280.79 98.4421 280.37C97.9261 279.938 97.6681 279.176 97.6681 278.084V273.674H96.1381V272.072H97.6681L97.9021 269.804H99.5761V272.072H102.096V273.674H99.5761V278.084C99.5761 278.576 99.6781 278.918 99.8821 279.11C100.098 279.29 100.464 279.38 100.98 279.38H102.006V281H100.53ZM104.063 281V272.072H105.773L105.935 273.764C106.247 273.176 106.679 272.714 107.231 272.378C107.795 272.03 108.473 271.856 109.265 271.856V273.854H108.743C108.215 273.854 107.741 273.944 107.321 274.124C106.913 274.292 106.583 274.586 106.331 275.006C106.091 275.414 105.971 275.984 105.971 276.716V281H104.063ZM114.831 281.216C113.979 281.216 113.211 281.024 112.527 280.64C111.855 280.244 111.321 279.698 110.925 279.002C110.529 278.294 110.331 277.472 110.331 276.536C110.331 275.6 110.529 274.784 110.925 274.088C111.333 273.38 111.879 272.834 112.563 272.45C113.247 272.054 114.009 271.856 114.849 271.856C115.701 271.856 116.463 272.054 117.135 272.45C117.819 272.834 118.359 273.38 118.755 274.088C119.163 274.784 119.367 275.6 119.367 276.536C119.367 277.472 119.163 278.294 118.755 279.002C118.359 279.698 117.819 280.244 117.135 280.64C116.451 281.024 115.683 281.216 114.831 281.216ZM114.831 279.578C115.287 279.578 115.707 279.464 116.091 279.236C116.487 279.008 116.805 278.672 117.045 278.228C117.285 277.772 117.405 277.208 117.405 276.536C117.405 275.864 117.285 275.306 117.045 274.862C116.817 274.406 116.505 274.064 116.109 273.836C115.725 273.608 115.305 273.494 114.849 273.494C114.393 273.494 113.967 273.608 113.571 273.836C113.187 274.064 112.875 274.406 112.635 274.862C112.395 275.306 112.275 275.864 112.275 276.536C112.275 277.208 112.395 277.772 112.635 278.228C112.875 278.672 113.187 279.008 113.571 279.236C113.955 279.464 114.375 279.578 114.831 279.578ZM126.038 281V268.4H134.048V269.948H127.946V273.872H133.508V275.384H127.946V279.452H134.048V281H126.038ZM136.249 281V272.072H137.941L138.103 273.332C138.391 272.876 138.769 272.516 139.237 272.252C139.717 271.988 140.269 271.856 140.893 271.856C142.309 271.856 143.293 272.414 143.845 273.53C144.169 273.014 144.601 272.606 145.141 272.306C145.693 272.006 146.287 271.856 146.923 271.856C148.039 271.856 148.915 272.192 149.551 272.864C150.187 273.536 150.505 274.538 150.505 275.87V281H148.597V276.068C148.597 274.34 147.937 273.476 146.617 273.476C145.945 273.476 145.393 273.728 144.961 274.232C144.541 274.736 144.331 275.456 144.331 276.392V281H142.423V276.068C142.423 274.34 141.757 273.476 140.425 273.476C139.765 273.476 139.219 273.728 138.787 274.232C138.367 274.736 138.157 275.456 138.157 276.392V281H136.249ZM155.761 281.216C155.005 281.216 154.381 281.09 153.889 280.838C153.397 280.586 153.031 280.256 152.791 279.848C152.551 279.428 152.431 278.972 152.431 278.48C152.431 277.616 152.767 276.932 153.439 276.428C154.111 275.924 155.071 275.672 156.319 275.672H158.659V275.51C158.659 274.814 158.467 274.292 158.083 273.944C157.711 273.596 157.225 273.422 156.625 273.422C156.097 273.422 155.635 273.554 155.239 273.818C154.855 274.07 154.621 274.448 154.537 274.952H152.629C152.689 274.304 152.905 273.752 153.277 273.296C153.661 272.828 154.141 272.474 154.717 272.234C155.305 271.982 155.947 271.856 156.643 271.856C157.891 271.856 158.857 272.186 159.541 272.846C160.225 273.494 160.567 274.382 160.567 275.51V281H158.911L158.749 279.47C158.497 279.962 158.131 280.376 157.651 280.712C157.171 281.048 156.541 281.216 155.761 281.216ZM156.139 279.668C156.655 279.668 157.087 279.548 157.435 279.308C157.795 279.056 158.071 278.726 158.263 278.318C158.467 277.91 158.593 277.46 158.641 276.968H156.517C155.761 276.968 155.221 277.1 154.897 277.364C154.585 277.628 154.429 277.958 154.429 278.354C154.429 278.762 154.579 279.086 154.879 279.326C155.191 279.554 155.611 279.668 156.139 279.668ZM163.872 270.38C163.512 270.38 163.212 270.272 162.972 270.056C162.744 269.828 162.63 269.546 162.63 269.21C162.63 268.874 162.744 268.598 162.972 268.382C163.212 268.154 163.512 268.04 163.872 268.04C164.232 268.04 164.526 268.154 164.754 268.382C164.994 268.598 165.114 268.874 165.114 269.21C165.114 269.546 164.994 269.828 164.754 270.056C164.526 270.272 164.232 270.38 163.872 270.38ZM162.918 281V272.072H164.826V281H162.918ZM167.345 281V268.04H169.253V281H167.345Z" fill="white"/>
<rect x="53.4805" y="307" width="86" height="41" rx="20.5" fill="#B3B5B9"/>
<path d="M87.4663 334.216C86.2183 334.216 85.1383 333.946 84.2263 333.406C83.3263 332.854 82.6303 332.092 82.1383 331.12C81.6463 330.136 81.4003 329.002 81.4003 327.718C81.4003 326.422 81.6463 325.288 82.1383 324.316C82.6303 323.332 83.3263 322.564 84.2263 322.012C85.1383 321.46 86.2183 321.184 87.4663 321.184C88.9423 321.184 90.1483 321.544 91.0843 322.264C92.0203 322.984 92.6143 323.992 92.8663 325.288H90.7423C90.5743 324.556 90.2143 323.974 89.6623 323.542C89.1103 323.11 88.3723 322.894 87.4483 322.894C86.1883 322.894 85.1923 323.326 84.4603 324.19C83.7283 325.042 83.3623 326.218 83.3623 327.718C83.3623 329.206 83.7283 330.376 84.4603 331.228C85.1923 332.08 86.1883 332.506 87.4483 332.506C88.3723 332.506 89.1103 332.302 89.6623 331.894C90.2143 331.486 90.5743 330.928 90.7423 330.22H92.8663C92.6143 331.468 92.0203 332.446 91.0843 333.154C90.1483 333.862 88.9423 334.216 87.4663 334.216ZM97.9155 334.216C97.1595 334.216 96.5355 334.09 96.0435 333.838C95.5515 333.586 95.1855 333.256 94.9455 332.848C94.7055 332.428 94.5855 331.972 94.5855 331.48C94.5855 330.616 94.9215 329.932 95.5935 329.428C96.2655 328.924 97.2255 328.672 98.4735 328.672H100.814V328.51C100.814 327.814 100.622 327.292 100.238 326.944C99.8655 326.596 99.3795 326.422 98.7795 326.422C98.2515 326.422 97.7895 326.554 97.3935 326.818C97.0095 327.07 96.7755 327.448 96.6915 327.952H94.7835C94.8435 327.304 95.0595 326.752 95.4315 326.296C95.8155 325.828 96.2955 325.474 96.8715 325.234C97.4595 324.982 98.1015 324.856 98.7975 324.856C100.046 324.856 101.012 325.186 101.696 325.846C102.38 326.494 102.722 327.382 102.722 328.51V334H101.066L100.904 332.47C100.652 332.962 100.286 333.376 99.8055 333.712C99.3255 334.048 98.6955 334.216 97.9155 334.216ZM98.2935 332.668C98.8095 332.668 99.2415 332.548 99.5895 332.308C99.9495 332.056 100.226 331.726 100.418 331.318C100.622 330.91 100.748 330.46 100.796 329.968H98.6715C97.9155 329.968 97.3755 330.1 97.0515 330.364C96.7395 330.628 96.5835 330.958 96.5835 331.354C96.5835 331.762 96.7335 332.086 97.0335 332.326C97.3455 332.554 97.7655 332.668 98.2935 332.668ZM104.946 334V321.04H106.854V334H104.946ZM109.27 334V321.04H111.178V334H109.27Z" fill="white"/>
<rect x="53.4805" y="360" width="144" height="41" rx="20.5" fill="#B3B5B9"/>
<path d="M81.2034 387L85.8474 374.4H87.9354L92.5434 387H90.5274L89.4474 383.922H84.2994L83.2194 387H81.2034ZM84.8394 382.41H88.9074L86.8734 376.668L84.8394 382.41ZM95.3601 387L92.7321 378.072H94.6401L96.3681 384.804L98.3121 378.072H100.436L102.38 384.804L104.108 378.072H106.016L103.388 387H101.426L99.3741 379.98L97.3221 387H95.3601ZM110.208 387.216C109.452 387.216 108.828 387.09 108.336 386.838C107.844 386.586 107.478 386.256 107.238 385.848C106.998 385.428 106.878 384.972 106.878 384.48C106.878 383.616 107.214 382.932 107.886 382.428C108.558 381.924 109.518 381.672 110.766 381.672H113.106V381.51C113.106 380.814 112.914 380.292 112.53 379.944C112.158 379.596 111.672 379.422 111.072 379.422C110.544 379.422 110.082 379.554 109.686 379.818C109.302 380.07 109.068 380.448 108.984 380.952H107.076C107.136 380.304 107.352 379.752 107.724 379.296C108.108 378.828 108.588 378.474 109.164 378.234C109.752 377.982 110.394 377.856 111.09 377.856C112.338 377.856 113.304 378.186 113.988 378.846C114.672 379.494 115.014 380.382 115.014 381.51V387H113.358L113.196 385.47C112.944 385.962 112.578 386.376 112.098 386.712C111.618 387.048 110.988 387.216 110.208 387.216ZM110.586 385.668C111.102 385.668 111.534 385.548 111.882 385.308C112.242 385.056 112.518 384.726 112.71 384.318C112.914 383.91 113.04 383.46 113.088 382.968H110.964C110.208 382.968 109.668 383.1 109.344 383.364C109.032 383.628 108.876 383.958 108.876 384.354C108.876 384.762 109.026 385.086 109.326 385.326C109.638 385.554 110.058 385.668 110.586 385.668ZM117.238 387V378.072H118.948L119.11 379.764C119.422 379.176 119.854 378.714 120.406 378.378C120.97 378.03 121.648 377.856 122.44 377.856V379.854H121.918C121.39 379.854 120.916 379.944 120.496 380.124C120.088 380.292 119.758 380.586 119.506 381.006C119.266 381.414 119.146 381.984 119.146 382.716V387H117.238ZM128.006 387.216C127.13 387.216 126.35 387.024 125.666 386.64C124.994 386.244 124.466 385.698 124.082 385.002C123.698 384.306 123.506 383.496 123.506 382.572C123.506 381.636 123.692 380.814 124.064 380.106C124.448 379.398 124.976 378.846 125.648 378.45C126.332 378.054 127.124 377.856 128.024 377.856C128.9 377.856 129.662 378.054 130.31 378.45C130.958 378.834 131.462 379.35 131.822 379.998C132.182 380.646 132.362 381.36 132.362 382.14C132.362 382.26 132.356 382.392 132.344 382.536C132.344 382.668 132.338 382.818 132.326 382.986H125.378C125.438 383.85 125.72 384.51 126.224 384.966C126.74 385.41 127.334 385.632 128.006 385.632C128.546 385.632 128.996 385.512 129.356 385.272C129.728 385.02 130.004 384.684 130.184 384.264H132.092C131.852 385.104 131.372 385.806 130.652 386.37C129.944 386.934 129.062 387.216 128.006 387.216ZM128.006 379.422C127.37 379.422 126.806 379.614 126.314 379.998C125.822 380.37 125.522 380.934 125.414 381.69H130.454C130.418 380.994 130.172 380.442 129.716 380.034C129.26 379.626 128.69 379.422 128.006 379.422ZM138.139 387L142.783 374.4H144.871L149.479 387H147.463L146.383 383.922H141.235L140.155 387H138.139ZM141.775 382.41H145.843L143.809 376.668L141.775 382.41ZM154.775 387.216C153.911 387.216 153.149 387.012 152.489 386.604C151.829 386.196 151.313 385.638 150.941 384.93C150.569 384.222 150.383 383.418 150.383 382.518C150.383 381.618 150.569 380.82 150.941 380.124C151.313 379.416 151.829 378.864 152.489 378.468C153.161 378.06 153.929 377.856 154.793 377.856C155.501 377.856 156.119 377.994 156.647 378.27C157.187 378.546 157.607 378.936 157.907 379.44V374.04H159.815V387H158.105L157.907 385.614C157.619 386.034 157.223 386.406 156.719 386.73C156.215 387.054 155.567 387.216 154.775 387.216ZM155.117 385.56C155.933 385.56 156.599 385.278 157.115 384.714C157.643 384.15 157.907 383.424 157.907 382.536C157.907 381.636 157.643 380.91 157.115 380.358C156.599 379.794 155.933 379.512 155.117 379.512C154.301 379.512 153.629 379.794 153.101 380.358C152.573 380.91 152.309 381.636 152.309 382.536C152.309 383.124 152.429 383.646 152.669 384.102C152.909 384.558 153.239 384.918 153.659 385.182C154.091 385.434 154.577 385.56 155.117 385.56ZM165.785 387.216C164.657 387.216 163.727 386.94 162.995 386.388C162.263 385.836 161.843 385.104 161.735 384.192H163.661C163.757 384.6 163.985 384.954 164.345 385.254C164.705 385.542 165.179 385.686 165.767 385.686C166.343 385.686 166.763 385.566 167.027 385.326C167.291 385.086 167.423 384.81 167.423 384.498C167.423 384.042 167.237 383.736 166.865 383.58C166.505 383.412 166.001 383.262 165.353 383.13C164.849 383.022 164.345 382.878 163.841 382.698C163.349 382.518 162.935 382.266 162.599 381.942C162.275 381.606 162.113 381.156 162.113 380.592C162.113 379.812 162.413 379.164 163.013 378.648C163.613 378.12 164.453 377.856 165.533 377.856C166.529 377.856 167.333 378.096 167.945 378.576C168.569 379.056 168.935 379.734 169.043 380.61H167.207C167.147 380.226 166.967 379.926 166.667 379.71C166.379 379.494 165.989 379.386 165.497 379.386C165.017 379.386 164.645 379.488 164.381 379.692C164.117 379.884 163.985 380.136 163.985 380.448C163.985 380.76 164.165 381.006 164.525 381.186C164.897 381.366 165.383 381.528 165.983 381.672C166.583 381.804 167.135 381.96 167.639 382.14C168.155 382.308 168.569 382.56 168.881 382.896C169.193 383.232 169.349 383.724 169.349 384.372C169.361 385.188 169.043 385.866 168.395 386.406C167.759 386.946 166.889 387.216 165.785 387.216Z" fill="white"/>
<rect x="53.4805" y="148" width="255" height="41" rx="20.5" fill="#090F1D"/>
<path d="M84.857 175V163.948H81.131V162.4H90.473V163.948H86.765V175H84.857ZM93.7866 175.216C93.0306 175.216 92.4066 175.09 91.9146 174.838C91.4226 174.586 91.0566 174.256 90.8166 173.848C90.5766 173.428 90.4566 172.972 90.4566 172.48C90.4566 171.616 90.7926 170.932 91.4646 170.428C92.1366 169.924 93.0966 169.672 94.3446 169.672H96.6846V169.51C96.6846 168.814 96.4926 168.292 96.1086 167.944C95.7366 167.596 95.2506 167.422 94.6506 167.422C94.1226 167.422 93.6606 167.554 93.2646 167.818C92.8806 168.07 92.6466 168.448 92.5626 168.952H90.6546C90.7146 168.304 90.9306 167.752 91.3026 167.296C91.6866 166.828 92.1666 166.474 92.7426 166.234C93.3306 165.982 93.9726 165.856 94.6686 165.856C95.9166 165.856 96.8826 166.186 97.5666 166.846C98.2506 167.494 98.5926 168.382 98.5926 169.51V175H96.9366L96.7746 173.47C96.5226 173.962 96.1566 174.376 95.6766 174.712C95.1966 175.048 94.5666 175.216 93.7866 175.216ZM94.1646 173.668C94.6806 173.668 95.1126 173.548 95.4606 173.308C95.8206 173.056 96.0966 172.726 96.2886 172.318C96.4926 171.91 96.6186 171.46 96.6666 170.968H94.5426C93.7866 170.968 93.2466 171.1 92.9226 171.364C92.6106 171.628 92.4546 171.958 92.4546 172.354C92.4546 172.762 92.6046 173.086 92.9046 173.326C93.2166 173.554 93.6366 173.668 94.1646 173.668ZM100.817 175V166.072H102.527L102.689 167.764C103.001 167.176 103.433 166.714 103.985 166.378C104.549 166.03 105.227 165.856 106.019 165.856V167.854H105.497C104.969 167.854 104.495 167.944 104.075 168.124C103.667 168.292 103.337 168.586 103.085 169.006C102.845 169.414 102.725 169.984 102.725 170.716V175H100.817ZM111.098 172.264C110.63 172.264 110.198 172.21 109.802 172.102L109.028 172.858C109.16 172.942 109.322 173.014 109.514 173.074C109.706 173.134 109.976 173.188 110.324 173.236C110.672 173.284 111.146 173.332 111.746 173.38C112.934 173.488 113.792 173.776 114.32 174.244C114.848 174.7 115.112 175.312 115.112 176.08C115.112 176.608 114.968 177.106 114.68 177.574C114.404 178.054 113.966 178.438 113.366 178.726C112.778 179.026 112.022 179.176 111.098 179.176C109.85 179.176 108.836 178.936 108.056 178.456C107.288 177.988 106.904 177.274 106.904 176.314C106.904 175.942 107 175.57 107.192 175.198C107.396 174.838 107.714 174.496 108.146 174.172C107.894 174.064 107.672 173.95 107.48 173.83C107.3 173.698 107.138 173.566 106.994 173.434V173.002L108.542 171.418C107.846 170.818 107.498 170.032 107.498 169.06C107.498 168.472 107.636 167.938 107.912 167.458C108.2 166.966 108.614 166.576 109.154 166.288C109.694 166 110.342 165.856 111.098 165.856C111.602 165.856 112.07 165.928 112.502 166.072H115.832V167.332L114.248 167.422C114.536 167.914 114.68 168.46 114.68 169.06C114.68 169.66 114.536 170.2 114.248 170.68C113.972 171.16 113.564 171.544 113.024 171.832C112.496 172.12 111.854 172.264 111.098 172.264ZM111.098 170.77C111.65 170.77 112.094 170.626 112.43 170.338C112.778 170.038 112.952 169.618 112.952 169.078C112.952 168.526 112.778 168.106 112.43 167.818C112.094 167.53 111.65 167.386 111.098 167.386C110.534 167.386 110.078 167.53 109.73 167.818C109.394 168.106 109.226 168.526 109.226 169.078C109.226 169.618 109.394 170.038 109.73 170.338C110.078 170.626 110.534 170.77 111.098 170.77ZM108.704 176.134C108.704 176.65 108.932 177.034 109.388 177.286C109.844 177.55 110.414 177.682 111.098 177.682C111.758 177.682 112.292 177.538 112.7 177.25C113.108 176.974 113.312 176.602 113.312 176.134C113.312 175.786 113.174 175.486 112.898 175.234C112.622 174.994 112.1 174.844 111.332 174.784C110.756 174.748 110.246 174.694 109.802 174.622C109.382 174.85 109.094 175.096 108.938 175.36C108.782 175.624 108.704 175.882 108.704 176.134ZM121.359 175.216C120.483 175.216 119.703 175.024 119.019 174.64C118.347 174.244 117.819 173.698 117.435 173.002C117.051 172.306 116.859 171.496 116.859 170.572C116.859 169.636 117.045 168.814 117.417 168.106C117.801 167.398 118.329 166.846 119.001 166.45C119.685 166.054 120.477 165.856 121.377 165.856C122.253 165.856 123.015 166.054 123.663 166.45C124.311 166.834 124.815 167.35 125.175 167.998C125.535 168.646 125.715 169.36 125.715 170.14C125.715 170.26 125.709 170.392 125.697 170.536C125.697 170.668 125.691 170.818 125.679 170.986H118.731C118.791 171.85 119.073 172.51 119.577 172.966C120.093 173.41 120.687 173.632 121.359 173.632C121.899 173.632 122.349 173.512 122.709 173.272C123.081 173.02 123.357 172.684 123.537 172.264H125.445C125.205 173.104 124.725 173.806 124.005 174.37C123.297 174.934 122.415 175.216 121.359 175.216ZM121.359 167.422C120.723 167.422 120.159 167.614 119.667 167.998C119.175 168.37 118.875 168.934 118.767 169.69H123.807C123.771 168.994 123.525 168.442 123.069 168.034C122.613 167.626 122.043 167.422 121.359 167.422ZM131.21 175C130.334 175 129.638 174.79 129.122 174.37C128.606 173.938 128.348 173.176 128.348 172.084V167.674H126.818V166.072H128.348L128.582 163.804H130.256V166.072H132.776V167.674H130.256V172.084C130.256 172.576 130.358 172.918 130.562 173.11C130.778 173.29 131.144 173.38 131.66 173.38H132.686V175H131.21ZM143.508 175.216C142.584 175.216 141.774 175.054 141.078 174.73C140.382 174.406 139.836 173.944 139.44 173.344C139.056 172.744 138.858 172.03 138.846 171.202H140.862C140.874 171.874 141.108 172.444 141.564 172.912C142.02 173.38 142.662 173.614 143.49 173.614C144.222 173.614 144.792 173.44 145.2 173.092C145.62 172.732 145.83 172.276 145.83 171.724C145.83 171.28 145.728 170.92 145.524 170.644C145.332 170.368 145.062 170.14 144.714 169.96C144.378 169.78 143.988 169.618 143.544 169.474C143.1 169.33 142.632 169.174 142.14 169.006C141.168 168.682 140.436 168.262 139.944 167.746C139.464 167.23 139.224 166.552 139.224 165.712C139.212 165.004 139.374 164.386 139.71 163.858C140.058 163.33 140.538 162.922 141.15 162.634C141.774 162.334 142.5 162.184 143.328 162.184C144.144 162.184 144.858 162.334 145.47 162.634C146.094 162.934 146.58 163.354 146.928 163.894C147.276 164.422 147.456 165.04 147.468 165.748H145.452C145.452 165.424 145.368 165.118 145.2 164.83C145.032 164.53 144.786 164.284 144.462 164.092C144.138 163.9 143.742 163.804 143.274 163.804C142.674 163.792 142.176 163.942 141.78 164.254C141.396 164.566 141.204 164.998 141.204 165.55C141.204 166.042 141.348 166.42 141.636 166.684C141.924 166.948 142.32 167.17 142.824 167.35C143.328 167.518 143.904 167.716 144.552 167.944C145.176 168.148 145.734 168.394 146.226 168.682C146.718 168.97 147.108 169.348 147.396 169.816C147.696 170.284 147.846 170.878 147.846 171.598C147.846 172.234 147.684 172.828 147.36 173.38C147.036 173.92 146.55 174.364 145.902 174.712C145.254 175.048 144.456 175.216 143.508 175.216ZM149.86 178.96V166.072H151.57L151.768 167.458C152.056 167.038 152.452 166.666 152.956 166.342C153.46 166.018 154.108 165.856 154.9 165.856C155.764 165.856 156.526 166.06 157.186 166.468C157.846 166.876 158.362 167.434 158.734 168.142C159.118 168.85 159.31 169.654 159.31 170.554C159.31 171.454 159.118 172.258 158.734 172.966C158.362 173.662 157.846 174.214 157.186 174.622C156.526 175.018 155.758 175.216 154.882 175.216C154.186 175.216 153.568 175.078 153.028 174.802C152.5 174.526 152.08 174.136 151.768 173.632V178.96H149.86ZM154.558 173.56C155.374 173.56 156.046 173.284 156.574 172.732C157.102 172.168 157.366 171.436 157.366 170.536C157.366 169.948 157.246 169.426 157.006 168.97C156.766 168.514 156.436 168.16 156.016 167.908C155.596 167.644 155.11 167.512 154.558 167.512C153.742 167.512 153.07 167.794 152.542 168.358C152.026 168.922 151.768 169.648 151.768 170.536C151.768 171.436 152.026 172.168 152.542 172.732C153.07 173.284 153.742 173.56 154.558 173.56ZM165.55 175.216C164.674 175.216 163.894 175.024 163.21 174.64C162.538 174.244 162.01 173.698 161.626 173.002C161.242 172.306 161.05 171.496 161.05 170.572C161.05 169.636 161.236 168.814 161.608 168.106C161.992 167.398 162.52 166.846 163.192 166.45C163.876 166.054 164.668 165.856 165.568 165.856C166.444 165.856 167.206 166.054 167.854 166.45C168.502 166.834 169.006 167.35 169.366 167.998C169.726 168.646 169.906 169.36 169.906 170.14C169.906 170.26 169.9 170.392 169.888 170.536C169.888 170.668 169.882 170.818 169.87 170.986H162.922C162.982 171.85 163.264 172.51 163.768 172.966C164.284 173.41 164.878 173.632 165.55 173.632C166.09 173.632 166.54 173.512 166.9 173.272C167.272 173.02 167.548 172.684 167.728 172.264H169.636C169.396 173.104 168.916 173.806 168.196 174.37C167.488 174.934 166.606 175.216 165.55 175.216ZM165.55 167.422C164.914 167.422 164.35 167.614 163.858 167.998C163.366 168.37 163.066 168.934 162.958 169.69H167.998C167.962 168.994 167.716 168.442 167.26 168.034C166.804 167.626 166.234 167.422 165.55 167.422ZM176.116 175.216C175.24 175.216 174.454 175.018 173.758 174.622C173.074 174.226 172.534 173.68 172.138 172.984C171.754 172.276 171.562 171.46 171.562 170.536C171.562 169.612 171.754 168.802 172.138 168.106C172.534 167.398 173.074 166.846 173.758 166.45C174.454 166.054 175.24 165.856 176.116 165.856C177.22 165.856 178.144 166.144 178.888 166.72C179.644 167.296 180.13 168.076 180.346 169.06H178.348C178.228 168.568 177.964 168.184 177.556 167.908C177.148 167.632 176.668 167.494 176.116 167.494C175.648 167.494 175.216 167.614 174.82 167.854C174.424 168.082 174.106 168.424 173.866 168.88C173.626 169.324 173.506 169.876 173.506 170.536C173.506 171.196 173.626 171.754 173.866 172.21C174.106 172.654 174.424 172.996 174.82 173.236C175.216 173.476 175.648 173.596 176.116 173.596C176.668 173.596 177.148 173.458 177.556 173.182C177.964 172.906 178.228 172.516 178.348 172.012H180.346C180.142 172.972 179.662 173.746 178.906 174.334C178.15 174.922 177.22 175.216 176.116 175.216ZM183.495 164.38C183.135 164.38 182.835 164.272 182.595 164.056C182.367 163.828 182.253 163.546 182.253 163.21C182.253 162.874 182.367 162.598 182.595 162.382C182.835 162.154 183.135 162.04 183.495 162.04C183.855 162.04 184.149 162.154 184.377 162.382C184.617 162.598 184.737 162.874 184.737 163.21C184.737 163.546 184.617 163.828 184.377 164.056C184.149 164.272 183.855 164.38 183.495 164.38ZM182.541 175V166.072H184.449V175H182.541ZM187.418 175V167.674H186.14V166.072H187.418V164.776C187.418 163.804 187.658 163.108 188.138 162.688C188.63 162.256 189.32 162.04 190.208 162.04H191.144V163.66H190.496C190.076 163.66 189.776 163.75 189.596 163.93C189.416 164.098 189.326 164.386 189.326 164.794V166.072H194.978V175H193.07V167.674H189.326V175H187.418ZM194.042 164.578C193.682 164.578 193.382 164.47 193.142 164.254C192.914 164.026 192.8 163.738 192.8 163.39C192.8 163.054 192.914 162.778 193.142 162.562C193.382 162.346 193.682 162.238 194.042 162.238C194.402 162.238 194.696 162.346 194.924 162.562C195.164 162.778 195.284 163.054 195.284 163.39C195.284 163.738 195.164 164.026 194.924 164.254C194.696 164.47 194.402 164.578 194.042 164.578ZM201.745 175.216C200.869 175.216 200.083 175.018 199.387 174.622C198.703 174.226 198.163 173.68 197.767 172.984C197.383 172.276 197.191 171.46 197.191 170.536C197.191 169.612 197.383 168.802 197.767 168.106C198.163 167.398 198.703 166.846 199.387 166.45C200.083 166.054 200.869 165.856 201.745 165.856C202.849 165.856 203.773 166.144 204.517 166.72C205.273 167.296 205.759 168.076 205.975 169.06H203.977C203.857 168.568 203.593 168.184 203.185 167.908C202.777 167.632 202.297 167.494 201.745 167.494C201.277 167.494 200.845 167.614 200.449 167.854C200.053 168.082 199.735 168.424 199.495 168.88C199.255 169.324 199.135 169.876 199.135 170.536C199.135 171.196 199.255 171.754 199.495 172.21C199.735 172.654 200.053 172.996 200.449 173.236C200.845 173.476 201.277 173.596 201.745 173.596C202.297 173.596 202.777 173.458 203.185 173.182C203.593 172.906 203.857 172.516 203.977 172.012H205.975C205.771 172.972 205.291 173.746 204.535 174.334C203.779 174.922 202.849 175.216 201.745 175.216ZM218.267 175.216C217.019 175.216 215.939 174.946 215.027 174.406C214.127 173.854 213.431 173.092 212.939 172.12C212.447 171.136 212.201 170.002 212.201 168.718C212.201 167.422 212.447 166.288 212.939 165.316C213.431 164.332 214.127 163.564 215.027 163.012C215.939 162.46 217.019 162.184 218.267 162.184C219.743 162.184 220.949 162.544 221.885 163.264C222.821 163.984 223.415 164.992 223.667 166.288H221.543C221.375 165.556 221.015 164.974 220.463 164.542C219.911 164.11 219.173 163.894 218.249 163.894C216.989 163.894 215.993 164.326 215.261 165.19C214.529 166.042 214.163 167.218 214.163 168.718C214.163 170.206 214.529 171.376 215.261 172.228C215.993 173.08 216.989 173.506 218.249 173.506C219.173 173.506 219.911 173.302 220.463 172.894C221.015 172.486 221.375 171.928 221.543 171.22H223.667C223.415 172.468 222.821 173.446 221.885 174.154C220.949 174.862 219.743 175.216 218.267 175.216ZM229.868 175.216C229.016 175.216 228.248 175.024 227.564 174.64C226.892 174.244 226.358 173.698 225.962 173.002C225.566 172.294 225.368 171.472 225.368 170.536C225.368 169.6 225.566 168.784 225.962 168.088C226.37 167.38 226.916 166.834 227.6 166.45C228.284 166.054 229.046 165.856 229.886 165.856C230.738 165.856 231.5 166.054 232.172 166.45C232.856 166.834 233.396 167.38 233.792 168.088C234.2 168.784 234.404 169.6 234.404 170.536C234.404 171.472 234.2 172.294 233.792 173.002C233.396 173.698 232.856 174.244 232.172 174.64C231.488 175.024 230.72 175.216 229.868 175.216ZM229.868 173.578C230.324 173.578 230.744 173.464 231.128 173.236C231.524 173.008 231.842 172.672 232.082 172.228C232.322 171.772 232.442 171.208 232.442 170.536C232.442 169.864 232.322 169.306 232.082 168.862C231.854 168.406 231.542 168.064 231.146 167.836C230.762 167.608 230.342 167.494 229.886 167.494C229.43 167.494 229.004 167.608 228.608 167.836C228.224 168.064 227.912 168.406 227.672 168.862C227.432 169.306 227.312 169.864 227.312 170.536C227.312 171.208 227.432 171.772 227.672 172.228C227.912 172.672 228.224 173.008 228.608 173.236C228.992 173.464 229.412 173.578 229.868 173.578ZM236.468 175V166.072H238.16L238.304 167.638C238.58 167.086 238.982 166.654 239.51 166.342C240.05 166.018 240.668 165.856 241.364 165.856C242.444 165.856 243.29 166.192 243.902 166.864C244.526 167.536 244.838 168.538 244.838 169.87V175H242.948V170.068C242.948 168.34 242.24 167.476 240.824 167.476C240.116 167.476 239.528 167.728 239.06 168.232C238.604 168.736 238.376 169.456 238.376 170.392V175H236.468ZM250.829 175C249.953 175 249.257 174.79 248.741 174.37C248.225 173.938 247.967 173.176 247.967 172.084V167.674H246.437V166.072H247.967L248.201 163.804H249.875V166.072H252.395V167.674H249.875V172.084C249.875 172.576 249.977 172.918 250.181 173.11C250.397 173.29 250.763 173.38 251.279 173.38H252.305V175H250.829ZM258.31 175.216C257.434 175.216 256.654 175.024 255.97 174.64C255.298 174.244 254.77 173.698 254.386 173.002C254.002 172.306 253.81 171.496 253.81 170.572C253.81 169.636 253.996 168.814 254.368 168.106C254.752 167.398 255.28 166.846 255.952 166.45C256.636 166.054 257.428 165.856 258.328 165.856C259.204 165.856 259.966 166.054 260.614 166.45C261.262 166.834 261.766 167.35 262.126 167.998C262.486 168.646 262.666 169.36 262.666 170.14C262.666 170.26 262.66 170.392 262.648 170.536C262.648 170.668 262.642 170.818 262.63 170.986H255.682C255.742 171.85 256.024 172.51 256.528 172.966C257.044 173.41 257.638 173.632 258.31 173.632C258.85 173.632 259.3 173.512 259.66 173.272C260.032 173.02 260.308 172.684 260.488 172.264H262.396C262.156 173.104 261.676 173.806 260.956 174.37C260.248 174.934 259.366 175.216 258.31 175.216ZM258.31 167.422C257.674 167.422 257.11 167.614 256.618 167.998C256.126 168.37 255.826 168.934 255.718 169.69H260.758C260.722 168.994 260.476 168.442 260.02 168.034C259.564 167.626 258.994 167.422 258.31 167.422ZM264.645 175V166.072H266.337L266.481 167.638C266.757 167.086 267.159 166.654 267.687 166.342C268.227 166.018 268.845 165.856 269.541 165.856C270.621 165.856 271.467 166.192 272.079 166.864C272.703 167.536 273.015 168.538 273.015 169.87V175H271.125V170.068C271.125 168.34 270.417 167.476 269.001 167.476C268.293 167.476 267.705 167.728 267.237 168.232C266.781 168.736 266.553 169.456 266.553 170.392V175H264.645ZM279.007 175C278.131 175 277.435 174.79 276.919 174.37C276.403 173.938 276.145 173.176 276.145 172.084V167.674H274.615V166.072H276.145L276.379 163.804H278.053V166.072H280.573V167.674H278.053V172.084C278.053 172.576 278.155 172.918 278.359 173.11C278.575 173.29 278.941 173.38 279.457 173.38H280.483V175H279.007Z" fill="white"/>
<rect x="53.4805" y="413" width="152" height="41" rx="20.5" fill="#B3B5B9"/>
<path d="M87.4721 440.216C86.2241 440.216 85.1441 439.946 84.2321 439.406C83.3321 438.854 82.6361 438.092 82.1441 437.12C81.6521 436.136 81.4061 435.002 81.4061 433.718C81.4061 432.422 81.6521 431.288 82.1441 430.316C82.6361 429.332 83.3321 428.564 84.2321 428.012C85.1441 427.46 86.2241 427.184 87.4721 427.184C88.9481 427.184 90.1541 427.544 91.0901 428.264C92.0261 428.984 92.6201 429.992 92.8721 431.288H90.7481C90.5801 430.556 90.2201 429.974 89.6681 429.542C89.1161 429.11 88.3781 428.894 87.4541 428.894C86.1941 428.894 85.1981 429.326 84.4661 430.19C83.7341 431.042 83.3681 432.218 83.3681 433.718C83.3681 435.206 83.7341 436.376 84.4661 437.228C85.1981 438.08 86.1941 438.506 87.4541 438.506C88.3781 438.506 89.1161 438.302 89.6681 437.894C90.2201 437.486 90.5801 436.928 90.7481 436.22H92.8721C92.6201 437.468 92.0261 438.446 91.0901 439.154C90.1541 439.862 88.9481 440.216 87.4721 440.216ZM97.9214 440.216C97.1654 440.216 96.5414 440.09 96.0494 439.838C95.5574 439.586 95.1914 439.256 94.9514 438.848C94.7114 438.428 94.5914 437.972 94.5914 437.48C94.5914 436.616 94.9274 435.932 95.5994 435.428C96.2714 434.924 97.2314 434.672 98.4794 434.672H100.819V434.51C100.819 433.814 100.627 433.292 100.243 432.944C99.8714 432.596 99.3854 432.422 98.7854 432.422C98.2574 432.422 97.7954 432.554 97.3994 432.818C97.0154 433.07 96.7814 433.448 96.6974 433.952H94.7894C94.8494 433.304 95.0654 432.752 95.4374 432.296C95.8214 431.828 96.3014 431.474 96.8774 431.234C97.4654 430.982 98.1074 430.856 98.8034 430.856C100.051 430.856 101.017 431.186 101.701 431.846C102.385 432.494 102.727 433.382 102.727 434.51V440H101.071L100.909 438.47C100.657 438.962 100.291 439.376 99.8114 439.712C99.3314 440.048 98.7014 440.216 97.9214 440.216ZM98.2994 438.668C98.8154 438.668 99.2474 438.548 99.5954 438.308C99.9554 438.056 100.231 437.726 100.423 437.318C100.627 436.91 100.753 436.46 100.801 435.968H98.6774C97.9214 435.968 97.3814 436.1 97.0574 436.364C96.7454 436.628 96.5894 436.958 96.5894 437.354C96.5894 437.762 96.7394 438.086 97.0394 438.326C97.3514 438.554 97.7714 438.668 98.2994 438.668ZM108.516 440.216C107.388 440.216 106.458 439.94 105.726 439.388C104.994 438.836 104.574 438.104 104.466 437.192H106.392C106.488 437.6 106.716 437.954 107.076 438.254C107.436 438.542 107.91 438.686 108.498 438.686C109.074 438.686 109.494 438.566 109.758 438.326C110.022 438.086 110.154 437.81 110.154 437.498C110.154 437.042 109.968 436.736 109.596 436.58C109.236 436.412 108.732 436.262 108.084 436.13C107.58 436.022 107.076 435.878 106.572 435.698C106.08 435.518 105.666 435.266 105.33 434.942C105.006 434.606 104.844 434.156 104.844 433.592C104.844 432.812 105.144 432.164 105.744 431.648C106.344 431.12 107.184 430.856 108.264 430.856C109.26 430.856 110.064 431.096 110.676 431.576C111.3 432.056 111.666 432.734 111.774 433.61H109.938C109.878 433.226 109.698 432.926 109.398 432.71C109.11 432.494 108.72 432.386 108.228 432.386C107.748 432.386 107.376 432.488 107.112 432.692C106.848 432.884 106.716 433.136 106.716 433.448C106.716 433.76 106.896 434.006 107.256 434.186C107.628 434.366 108.114 434.528 108.714 434.672C109.314 434.804 109.866 434.96 110.37 435.14C110.886 435.308 111.3 435.56 111.612 435.896C111.924 436.232 112.08 436.724 112.08 437.372C112.092 438.188 111.774 438.866 111.126 439.406C110.49 439.946 109.62 440.216 108.516 440.216ZM118.339 440.216C117.463 440.216 116.683 440.024 115.999 439.64C115.327 439.244 114.799 438.698 114.415 438.002C114.031 437.306 113.839 436.496 113.839 435.572C113.839 434.636 114.025 433.814 114.397 433.106C114.781 432.398 115.309 431.846 115.981 431.45C116.665 431.054 117.457 430.856 118.357 430.856C119.233 430.856 119.995 431.054 120.643 431.45C121.291 431.834 121.795 432.35 122.155 432.998C122.515 433.646 122.695 434.36 122.695 435.14C122.695 435.26 122.689 435.392 122.677 435.536C122.677 435.668 122.671 435.818 122.659 435.986H115.711C115.771 436.85 116.053 437.51 116.557 437.966C117.073 438.41 117.667 438.632 118.339 438.632C118.879 438.632 119.329 438.512 119.689 438.272C120.061 438.02 120.337 437.684 120.517 437.264H122.425C122.185 438.104 121.705 438.806 120.985 439.37C120.277 439.934 119.395 440.216 118.339 440.216ZM118.339 432.422C117.703 432.422 117.139 432.614 116.647 432.998C116.155 433.37 115.855 433.934 115.747 434.69H120.787C120.751 433.994 120.505 433.442 120.049 433.034C119.593 432.626 119.023 432.422 118.339 432.422ZM133.44 440.216C132.516 440.216 131.706 440.054 131.01 439.73C130.314 439.406 129.768 438.944 129.372 438.344C128.988 437.744 128.79 437.03 128.778 436.202H130.794C130.806 436.874 131.04 437.444 131.496 437.912C131.952 438.38 132.594 438.614 133.422 438.614C134.154 438.614 134.724 438.44 135.132 438.092C135.552 437.732 135.762 437.276 135.762 436.724C135.762 436.28 135.66 435.92 135.456 435.644C135.264 435.368 134.994 435.14 134.646 434.96C134.31 434.78 133.92 434.618 133.476 434.474C133.032 434.33 132.564 434.174 132.072 434.006C131.1 433.682 130.368 433.262 129.876 432.746C129.396 432.23 129.156 431.552 129.156 430.712C129.144 430.004 129.306 429.386 129.642 428.858C129.99 428.33 130.47 427.922 131.082 427.634C131.706 427.334 132.432 427.184 133.26 427.184C134.076 427.184 134.79 427.334 135.402 427.634C136.026 427.934 136.512 428.354 136.86 428.894C137.208 429.422 137.388 430.04 137.4 430.748H135.384C135.384 430.424 135.3 430.118 135.132 429.83C134.964 429.53 134.718 429.284 134.394 429.092C134.07 428.9 133.674 428.804 133.206 428.804C132.606 428.792 132.108 428.942 131.712 429.254C131.328 429.566 131.136 429.998 131.136 430.55C131.136 431.042 131.28 431.42 131.568 431.684C131.856 431.948 132.252 432.17 132.756 432.35C133.26 432.518 133.836 432.716 134.484 432.944C135.108 433.148 135.666 433.394 136.158 433.682C136.65 433.97 137.04 434.348 137.328 434.816C137.628 435.284 137.778 435.878 137.778 436.598C137.778 437.234 137.616 437.828 137.292 438.38C136.968 438.92 136.482 439.364 135.834 439.712C135.186 440.048 134.388 440.216 133.44 440.216ZM143.536 440C142.66 440 141.964 439.79 141.448 439.37C140.932 438.938 140.674 438.176 140.674 437.084V432.674H139.144V431.072H140.674L140.908 428.804H142.582V431.072H145.102V432.674H142.582V437.084C142.582 437.576 142.684 437.918 142.888 438.11C143.104 438.29 143.47 438.38 143.986 438.38H145.012V440H143.536ZM150.363 440.216C149.283 440.216 148.431 439.88 147.807 439.208C147.195 438.536 146.889 437.534 146.889 436.202V431.072H148.797V436.004C148.797 437.732 149.505 438.596 150.921 438.596C151.629 438.596 152.211 438.344 152.667 437.84C153.123 437.336 153.351 436.616 153.351 435.68V431.072H155.259V440H153.567L153.423 438.434C153.147 438.986 152.739 439.424 152.199 439.748C151.671 440.06 151.059 440.216 150.363 440.216ZM161.754 440.216C160.89 440.216 160.128 440.012 159.468 439.604C158.808 439.196 158.292 438.638 157.92 437.93C157.548 437.222 157.362 436.418 157.362 435.518C157.362 434.618 157.548 433.82 157.92 433.124C158.292 432.416 158.808 431.864 159.468 431.468C160.14 431.06 160.908 430.856 161.772 430.856C162.48 430.856 163.098 430.994 163.626 431.27C164.166 431.546 164.586 431.936 164.886 432.44V427.04H166.794V440H165.084L164.886 438.614C164.598 439.034 164.202 439.406 163.698 439.73C163.194 440.054 162.546 440.216 161.754 440.216ZM162.096 438.56C162.912 438.56 163.578 438.278 164.094 437.714C164.622 437.15 164.886 436.424 164.886 435.536C164.886 434.636 164.622 433.91 164.094 433.358C163.578 432.794 162.912 432.512 162.096 432.512C161.28 432.512 160.608 432.794 160.08 433.358C159.552 433.91 159.288 434.636 159.288 435.536C159.288 436.124 159.408 436.646 159.648 437.102C159.888 437.558 160.218 437.918 160.638 438.182C161.07 438.434 161.556 438.56 162.096 438.56ZM170.244 443.96L172.386 439.262H171.864L168.336 431.072H170.406L173.142 437.678L176.004 431.072H178.02L172.26 443.96H170.244Z" fill="white"/>
<path d="M195.48 115C194.376 115 193.48 115.895 193.48 117C193.48 118.105 194.376 119 195.48 119V115ZM435.027 117L423.48 105.453L411.933 117L423.48 128.547L435.027 117ZM195.48 119H199.552V115H195.48V119ZM207.695 119H215.838V115H207.695V119ZM223.98 119H232.123V115H223.98V119ZM240.266 119H248.409V115H240.266V119ZM256.552 119H264.695V115H256.552V119ZM272.838 119H280.98V115H272.838V119ZM289.123 119H297.266V115H289.123V119ZM305.409 119H313.552V115H305.409V119ZM321.695 119H329.838V115H321.695V119ZM337.98 119H346.123V115H337.98V119ZM354.266 119H362.409V115H354.266V119ZM370.552 119H378.695V115H370.552V119ZM386.838 119H394.98V115H386.838V119ZM403.123 119H411.266V115H403.123V119ZM419.409 119H423.48V115H419.409V119Z" fill="#B3B5B9"/>
<path d="M232.48 219C231.376 219 230.48 219.895 230.48 221C230.48 222.105 231.376 223 232.48 223L232.48 219ZM435.027 221L423.48 209.453L411.933 221L423.48 232.547L435.027 221ZM232.48 223L236.46 223L236.46 219L232.48 219L232.48 223ZM244.418 223L252.376 223L252.376 219L244.418 219L244.418 223ZM260.335 223L268.293 223L268.293 219L260.335 219L260.335 223ZM276.251 223L284.21 223L284.21 219L276.251 219L276.251 223ZM292.168 223L300.126 223L300.126 219L292.168 219L292.168 223ZM308.085 223L316.043 223L316.043 219L308.085 219L308.085 223ZM324.001 223L331.96 223L331.96 219L324.001 219L324.001 223ZM339.918 223L347.876 223L347.876 219L339.918 219L339.918 223ZM355.835 223L363.793 223L363.793 219L355.835 219L355.835 223ZM371.751 223L379.71 223L379.71 219L371.751 219L371.751 223ZM387.668 223L395.626 223L395.626 219L387.668 219L387.668 223ZM403.585 223L411.543 223L411.543 219L403.585 219L403.585 223ZM419.501 223L423.48 223L423.48 219L419.501 219L419.501 223Z" fill="#B3B5B9"/>
<path d="M207.48 272C206.376 272 205.48 272.895 205.48 274C205.48 275.105 206.376 276 207.48 276L207.48 272ZM435.027 274L423.48 262.453L411.933 274L423.48 285.547L435.027 274ZM207.48 276L211.338 276L211.338 272L207.48 272L207.48 276ZM219.052 276L226.766 276L226.766 272L219.052 272L219.052 276ZM234.48 276L242.195 276L242.195 272L234.48 272L234.48 276ZM249.909 276L257.623 276L257.623 272L249.909 272L249.909 276ZM265.338 276L273.052 276L273.052 272L265.338 272L265.338 276ZM280.766 276L288.48 276L288.48 272L280.766 272L280.766 276ZM296.195 276L303.909 276L303.909 272L296.195 272L296.195 276ZM311.623 276L319.338 276L319.338 272L311.623 272L311.623 276ZM327.052 276L334.766 276L334.766 272L327.052 272L327.052 276ZM342.48 276L350.195 276L350.195 272L342.48 272L342.48 276ZM357.909 276L365.623 276L365.623 272L357.909 272L357.909 276ZM373.338 276L381.052 276L381.052 272L373.338 272L373.338 276ZM388.766 276L396.48 276L396.48 272L388.766 272L388.766 276ZM404.195 276L411.909 276L411.909 272L404.195 272L404.195 276ZM419.623 276L423.48 276L423.48 272L419.623 272L419.623 276Z" fill="#B3B5B9"/>
<path d="M152.48 325C151.376 325 150.48 325.895 150.48 327C150.48 328.105 151.376 329 152.48 329L152.48 325ZM435.027 327L423.48 315.453L411.933 327L423.48 338.547L435.027 327ZM152.48 329L156.466 329L156.466 325L152.48 325L152.48 329ZM164.436 329L172.407 329L172.407 325L164.436 325L164.436 329ZM180.378 329L188.348 329L188.348 325L180.378 325L180.378 329ZM196.319 329L204.289 329L204.289 325L196.319 325L196.319 329ZM212.26 329L220.23 329L220.23 325L212.26 325L212.26 329ZM228.201 329L236.172 329L236.172 325L228.201 325L228.201 329ZM244.142 329L252.113 329L252.113 325L244.142 325L244.142 329ZM260.083 329L268.054 329L268.054 325L260.083 325L260.083 329ZM276.025 329L283.995 329L283.995 325L276.025 325L276.025 329ZM291.966 329L299.936 329L299.936 325L291.966 325L291.966 329ZM307.907 329L315.878 329L315.878 325L307.907 325L307.907 329ZM323.848 329L331.819 329L331.819 325L323.848 325L323.848 329ZM339.789 329L347.76 329L347.76 325L339.789 325L339.789 329ZM355.73 329L363.701 329L363.701 325L355.73 325L355.73 329ZM371.672 329L379.642 329L379.642 325L371.672 325L371.672 329ZM387.613 329L395.583 329L395.583 325L387.613 325L387.613 329ZM403.554 329L411.524 329L411.524 325L403.554 325L403.554 329ZM419.495 329L423.48 329L423.48 325L419.495 325L419.495 329Z" fill="#B3B5B9"/>
<path d="M214.48 378C213.376 378 212.48 378.895 212.48 380C212.48 381.105 213.376 382 214.48 382L214.48 378ZM435.027 380L423.48 368.453L411.933 380L423.48 391.547L435.027 380ZM214.48 382L218.5 382L218.5 378L214.48 378L214.48 382ZM226.538 382L234.577 382L234.577 378L226.538 378L226.538 382ZM242.615 382L250.654 382L250.654 378L242.615 378L242.615 382ZM258.692 382L266.73 382L266.73 378L258.692 378L258.692 382ZM274.769 382L282.807 382L282.807 378L274.769 378L274.769 382ZM290.846 382L298.884 382L298.884 378L290.846 378L290.846 382ZM306.923 382L314.961 382L314.961 378L306.923 378L306.923 382ZM323 382L331.038 382L331.038 378L323 378L323 382ZM339.077 382L347.115 382L347.115 378L339.077 378L339.077 382ZM355.154 382L363.192 382L363.192 378L355.154 378L355.154 382ZM371.23 382L379.269 382L379.269 378L371.23 378L371.23 382ZM387.307 382L395.346 382L395.346 378L387.307 378L387.307 382ZM403.384 382L411.423 382L411.423 378L403.384 378L403.384 382ZM419.461 382L423.48 382L423.48 378L419.461 378L419.461 382Z" fill="#B3B5B9"/>
<path d="M214.48 431C213.376 431 212.48 431.895 212.48 433C212.48 434.105 213.376 435 214.48 435L214.48 431ZM435.027 433L423.48 421.453L411.933 433L423.48 444.547L435.027 433ZM214.48 435L218.5 435L218.5 431L214.48 431L214.48 435ZM226.538 435L234.577 435L234.577 431L226.538 431L226.538 435ZM242.615 435L250.654 435L250.654 431L242.615 431L242.615 435ZM258.692 435L266.73 435L266.73 431L258.692 431L258.692 435ZM274.769 435L282.807 435L282.807 431L274.769 431L274.769 435ZM290.846 435L298.884 435L298.884 431L290.846 431L290.846 435ZM306.923 435L314.961 435L314.961 431L306.923 431L306.923 435ZM323 435L331.038 435L331.038 431L323 431L323 435ZM339.077 435L347.115 435L347.115 431L339.077 431L339.077 435ZM355.154 435L363.192 435L363.192 431L355.154 431L355.154 435ZM371.23 435L379.269 435L379.269 431L371.23 431L371.23 435ZM387.307 435L395.346 435L395.346 431L387.307 431L387.307 435ZM403.384 435L411.423 435L411.423 431L403.384 431L403.384 435ZM419.461 435L423.48 435L423.48 431L419.461 431L419.461 435Z" fill="#B3B5B9"/>
</svg>
