<svg width="23" height="23" viewBox="0 0 23 23" fill="none" xmlns="http://www.w3.org/2000/svg">
<path d="M5 16.5L5.5 12.5L16 11.5L17.5 12.5L18 16L11.5 19.5L5 16.5Z" fill="#E5E7EB"/>
<path d="M11.4993 16.4988L18.0003 12.946L16.4977 9.99995L11.4648 8.51506L6.49693 10.4983L5.49693 12.9457L11.4993 16.4988Z" fill="#9CA3AF"/>
<rect x="1" y="18" width="2" height="4" fill="#9CA3AF"/>
<path d="M11 4.5L1 9.5L12 14L20.5 9L11 4.5Z" fill="#E5E7EB"/>
<path d="M17.7666 11.9604C18.0736 12.4995 18.3019 13.061 18.4517 13.645C18.6014 14.229 18.68 14.8317 18.6875 15.4531V16.6099L11.5 20.2148L4.3125 16.6099C4.3125 16.1606 4.31624 15.7414 4.32373 15.3521C4.33122 14.9627 4.36491 14.5846 4.4248 14.2178C4.4847 13.8509 4.57454 13.484 4.69434 13.1172C4.81413 12.7503 4.99382 12.3647 5.2334 11.9604L2.875 10.7812V17.3735C3.09212 17.4484 3.28678 17.5532 3.45898 17.688C3.63118 17.8228 3.78467 17.98 3.91943 18.1597C4.0542 18.3394 4.15153 18.534 4.21143 18.7437C4.27132 18.9533 4.30501 19.1742 4.3125 19.4062V23H0V19.4062C0 19.1816 0.0336914 18.9645 0.101074 18.7549C0.168457 18.5452 0.265788 18.3468 0.393066 18.1597C0.520345 17.9725 0.670085 17.8153 0.842285 17.688C1.01449 17.5607 1.21289 17.4559 1.4375 17.3735V10.0625L0 9.34375L11.5 3.59375L23 9.34375L17.7666 11.9604ZM2.875 19.4062C2.875 19.2116 2.80387 19.0431 2.66162 18.9009C2.51937 18.7586 2.35091 18.6875 2.15625 18.6875C1.96159 18.6875 1.79313 18.7586 1.65088 18.9009C1.50863 19.0431 1.4375 19.2116 1.4375 19.4062V21.5625H2.875V19.4062ZM3.21191 9.34375L11.5 13.4878L19.7881 9.34375L11.5 5.19971L3.21191 9.34375ZM17.25 15.7227C17.25 15.1462 17.1938 14.6108 17.0815 14.1167C16.9692 13.6226 16.7708 13.1172 16.4863 12.6006L11.5 15.0938L6.51367 12.6006C6.2666 13.0348 6.07943 13.4915 5.95215 13.9707C5.82487 14.4499 5.75749 14.944 5.75 15.4531V15.7227L11.5 18.5977L17.25 15.7227Z" fill="#374151"/>
</svg>
