<svg width="510" height="410" viewBox="0 0 510 410" fill="none" xmlns="http://www.w3.org/2000/svg">
<rect width="510" height="410" fill="white"/>
<path d="M69.474 375L66.6899 364.818H67.9427L70.0706 373.111H70.17L72.3376 364.818H73.7297L75.8973 373.111H75.9967L78.1246 364.818H79.3774L76.5933 375H75.3206L73.0734 366.886H72.9939L70.7467 375H69.474ZM83.2453 375.159C82.5095 375.159 81.8748 374.997 81.3412 374.672C80.8109 374.344 80.4015 373.886 80.1132 373.3C79.8282 372.71 79.6856 372.024 79.6856 371.241C79.6856 370.459 79.8282 369.77 80.1132 369.173C80.4015 368.573 80.8026 368.106 81.3163 367.771C81.8334 367.433 82.4366 367.264 83.126 367.264C83.5237 367.264 83.9165 367.33 84.3042 367.463C84.692 367.596 85.045 367.811 85.3632 368.109C85.6814 368.404 85.9349 368.795 86.1238 369.283C86.3128 369.77 86.4072 370.37 86.4072 371.082V371.58H80.5209V370.565H85.214C85.214 370.134 85.1279 369.75 84.9555 369.412C84.7865 369.074 84.5445 368.807 84.2297 368.612C83.9181 368.416 83.5502 368.318 83.126 368.318C82.6586 368.318 82.2543 368.434 81.9129 368.666C81.5748 368.895 81.3147 369.193 81.1324 369.561C80.9501 369.929 80.8589 370.323 80.8589 370.744V371.42C80.8589 371.997 80.9584 372.486 81.1572 372.887C81.3594 373.285 81.6395 373.588 81.9974 373.797C82.3554 374.002 82.7713 374.105 83.2453 374.105C83.5535 374.105 83.8319 374.062 84.0805 373.976C84.3324 373.886 84.5495 373.754 84.7318 373.578C84.9141 373.399 85.055 373.177 85.1544 372.912L86.2879 373.23C86.1686 373.615 85.9681 373.953 85.6863 374.244C85.4046 374.533 85.0566 374.758 84.6423 374.92C84.228 375.08 83.7623 375.159 83.2453 375.159ZM91.3937 375.159C90.6579 375.159 90.0232 374.997 89.4896 374.672C88.9593 374.344 88.55 373.886 88.2616 373.3C87.9766 372.71 87.8341 372.024 87.8341 371.241C87.8341 370.459 87.9766 369.77 88.2616 369.173C88.55 368.573 88.951 368.106 89.4648 367.771C89.9818 367.433 90.585 367.264 91.2744 367.264C91.6721 367.264 92.0649 367.33 92.4527 367.463C92.8405 367.596 93.1934 367.811 93.5116 368.109C93.8298 368.404 94.0834 368.795 94.2723 369.283C94.4612 369.77 94.5557 370.37 94.5557 371.082V371.58H88.6693V370.565H93.3625C93.3625 370.134 93.2763 369.75 93.104 369.412C92.9349 369.074 92.693 368.807 92.3781 368.612C92.0666 368.416 91.6987 368.318 91.2744 368.318C90.8071 368.318 90.4027 368.434 90.0613 368.666C89.7233 368.895 89.4631 369.193 89.2808 369.561C89.0985 369.929 89.0074 370.323 89.0074 370.744V371.42C89.0074 371.997 89.1068 372.486 89.3057 372.887C89.5078 373.285 89.7879 373.588 90.1459 373.797C90.5038 374.002 90.9198 374.105 91.3937 374.105C91.702 374.105 91.9804 374.062 92.229 373.976C92.4809 373.886 92.6979 373.754 92.8802 373.578C93.0625 373.399 93.2034 373.177 93.3028 372.912L94.4363 373.23C94.317 373.615 94.1165 373.953 93.8348 374.244C93.5531 374.533 93.205 374.758 92.7907 374.92C92.3765 375.08 91.9108 375.159 91.3937 375.159ZM97.4342 372.216L97.4143 370.764H97.653L100.994 367.364H102.446L98.8859 370.963H98.7865L97.4342 372.216ZM96.3405 375V364.818H97.5138V375H96.3405ZM101.193 375L98.2098 371.222L99.045 370.406L102.684 375H101.193ZM111.453 364.818V375H110.22V366.111H110.16L107.674 367.761V366.509L110.22 364.818H111.453Z" fill="#615E83"/>
<path d="M181.326 375L178.541 364.818H179.794L181.922 373.111H182.022L184.189 364.818H185.581L187.749 373.111H187.848L189.976 364.818H191.229L188.445 375H187.172L184.925 366.886H184.845L182.598 375H181.326ZM195.097 375.159C194.361 375.159 193.726 374.997 193.193 374.672C192.662 374.344 192.253 373.886 191.965 373.3C191.68 372.71 191.537 372.024 191.537 371.241C191.537 370.459 191.68 369.77 191.965 369.173C192.253 368.573 192.654 368.106 193.168 367.771C193.685 367.433 194.288 367.264 194.978 367.264C195.375 367.264 195.768 367.33 196.156 367.463C196.544 367.596 196.897 367.811 197.215 368.109C197.533 368.404 197.786 368.795 197.975 369.283C198.164 369.77 198.259 370.37 198.259 371.082V371.58H192.372V370.565H197.066C197.066 370.134 196.979 369.75 196.807 369.412C196.638 369.074 196.396 368.807 196.081 368.612C195.77 368.416 195.402 368.318 194.978 368.318C194.51 368.318 194.106 368.434 193.764 368.666C193.426 368.895 193.166 369.193 192.984 369.561C192.802 369.929 192.71 370.323 192.71 370.744V371.42C192.71 371.997 192.81 372.486 193.009 372.887C193.211 373.285 193.491 373.588 193.849 373.797C194.207 374.002 194.623 374.105 195.097 374.105C195.405 374.105 195.684 374.062 195.932 373.976C196.184 373.886 196.401 373.754 196.583 373.578C196.766 373.399 196.907 373.177 197.006 372.912L198.139 373.23C198.02 373.615 197.82 373.953 197.538 374.244C197.256 374.533 196.908 374.758 196.494 374.92C196.08 375.08 195.614 375.159 195.097 375.159ZM203.245 375.159C202.509 375.159 201.875 374.997 201.341 374.672C200.811 374.344 200.402 373.886 200.113 373.3C199.828 372.71 199.686 372.024 199.686 371.241C199.686 370.459 199.828 369.77 200.113 369.173C200.402 368.573 200.803 368.106 201.316 367.771C201.833 367.433 202.437 367.264 203.126 367.264C203.524 367.264 203.916 367.33 204.304 367.463C204.692 367.596 205.045 367.811 205.363 368.109C205.681 368.404 205.935 368.795 206.124 369.283C206.313 369.77 206.407 370.37 206.407 371.082V371.58H200.521V370.565H205.214C205.214 370.134 205.128 369.75 204.956 369.412C204.786 369.074 204.545 368.807 204.23 368.612C203.918 368.416 203.55 368.318 203.126 368.318C202.659 368.318 202.254 368.434 201.913 368.666C201.575 368.895 201.315 369.193 201.132 369.561C200.95 369.929 200.859 370.323 200.859 370.744V371.42C200.859 371.997 200.958 372.486 201.157 372.887C201.359 373.285 201.639 373.588 201.997 373.797C202.355 374.002 202.771 374.105 203.245 374.105C203.554 374.105 203.832 374.062 204.081 373.976C204.332 373.886 204.55 373.754 204.732 373.578C204.914 373.399 205.055 373.177 205.154 372.912L206.288 373.23C206.169 373.615 205.968 373.953 205.686 374.244C205.405 374.533 205.057 374.758 204.642 374.92C204.228 375.08 203.762 375.159 203.245 375.159ZM209.286 372.216L209.266 370.764H209.505L212.845 367.364H214.297L210.737 370.963H210.638L209.286 372.216ZM208.192 375V364.818H209.365V375H208.192ZM213.044 375L210.061 371.222L210.897 370.406L214.536 375H213.044ZM219.725 375V374.105L223.086 370.426C223.48 369.995 223.805 369.621 224.06 369.303C224.315 368.981 224.504 368.679 224.627 368.398C224.753 368.113 224.816 367.814 224.816 367.503C224.816 367.145 224.73 366.835 224.557 366.573C224.388 366.311 224.156 366.109 223.861 365.967C223.566 365.824 223.235 365.753 222.867 365.753C222.476 365.753 222.134 365.834 221.843 365.996C221.554 366.156 221.331 366.379 221.172 366.668C221.016 366.956 220.938 367.294 220.938 367.682H219.765C219.765 367.085 219.902 366.562 220.177 366.111C220.452 365.66 220.827 365.309 221.301 365.057C221.778 364.805 222.313 364.679 222.907 364.679C223.503 364.679 224.032 364.805 224.493 365.057C224.953 365.309 225.315 365.648 225.576 366.076C225.838 366.504 225.969 366.979 225.969 367.503C225.969 367.877 225.901 368.244 225.765 368.602C225.633 368.956 225.401 369.352 225.069 369.79C224.741 370.224 224.285 370.754 223.702 371.381L221.415 373.827V373.906H226.148V375H219.725Z" fill="#615E83"/>
<path d="M317.447 375L314.663 364.818H315.915L318.043 373.111H318.143L320.31 364.818H321.702L323.87 373.111H323.969L326.097 364.818H327.35L324.566 375H323.293L321.046 366.886H320.967L318.719 375H317.447ZM331.218 375.159C330.482 375.159 329.847 374.997 329.314 374.672C328.784 374.344 328.374 373.886 328.086 373.3C327.801 372.71 327.658 372.024 327.658 371.241C327.658 370.459 327.801 369.77 328.086 369.173C328.374 368.573 328.775 368.106 329.289 367.771C329.806 367.433 330.409 367.264 331.099 367.264C331.496 367.264 331.889 367.33 332.277 367.463C332.665 367.596 333.018 367.811 333.336 368.109C333.654 368.404 333.908 368.795 334.097 369.283C334.285 369.77 334.38 370.37 334.38 371.082V371.58H328.494V370.565H333.187C333.187 370.134 333.101 369.75 332.928 369.412C332.759 369.074 332.517 368.807 332.202 368.612C331.891 368.416 331.523 368.318 331.099 368.318C330.631 368.318 330.227 368.434 329.886 368.666C329.547 368.895 329.287 369.193 329.105 369.561C328.923 369.929 328.832 370.323 328.832 370.744V371.42C328.832 371.997 328.931 372.486 329.13 372.887C329.332 373.285 329.612 373.588 329.97 373.797C330.328 374.002 330.744 374.105 331.218 374.105C331.526 374.105 331.805 374.062 332.053 373.976C332.305 373.886 332.522 373.754 332.704 373.578C332.887 373.399 333.028 373.177 333.127 372.912L334.261 373.23C334.141 373.615 333.941 373.953 333.659 374.244C333.377 374.533 333.029 374.758 332.615 374.92C332.201 375.08 331.735 375.159 331.218 375.159ZM339.366 375.159C338.631 375.159 337.996 374.997 337.462 374.672C336.932 374.344 336.523 373.886 336.234 373.3C335.949 372.71 335.807 372.024 335.807 371.241C335.807 370.459 335.949 369.77 336.234 369.173C336.523 368.573 336.924 368.106 337.437 367.771C337.954 367.433 338.558 367.264 339.247 367.264C339.645 367.264 340.038 367.33 340.425 367.463C340.813 367.596 341.166 367.811 341.484 368.109C341.802 368.404 342.056 368.795 342.245 369.283C342.434 369.77 342.528 370.37 342.528 371.082V371.58H336.642V370.565H341.335C341.335 370.134 341.249 369.75 341.077 369.412C340.908 369.074 340.666 368.807 340.351 368.612C340.039 368.416 339.671 368.318 339.247 368.318C338.78 368.318 338.375 368.434 338.034 368.666C337.696 368.895 337.436 369.193 337.253 369.561C337.071 369.929 336.98 370.323 336.98 370.744V371.42C336.98 371.997 337.079 372.486 337.278 372.887C337.48 373.285 337.761 373.588 338.119 373.797C338.476 374.002 338.892 374.105 339.366 374.105C339.675 374.105 339.953 374.062 340.202 373.976C340.454 373.886 340.671 373.754 340.853 373.578C341.035 373.399 341.176 373.177 341.275 372.912L342.409 373.23C342.29 373.615 342.089 373.953 341.807 374.244C341.526 374.533 341.178 374.758 340.763 374.92C340.349 375.08 339.883 375.159 339.366 375.159ZM345.407 372.216L345.387 370.764H345.626L348.967 367.364H350.418L346.859 370.963H346.759L345.407 372.216ZM344.313 375V364.818H345.486V375H344.313ZM349.165 375L346.182 371.222L347.018 370.406L350.657 375H349.165ZM359.286 375.139C358.63 375.139 358.045 375.027 357.531 374.801C357.021 374.576 356.615 374.263 356.313 373.862C356.015 373.457 355.853 372.988 355.826 372.455H357.079C357.105 372.783 357.218 373.066 357.417 373.305C357.616 373.54 357.876 373.722 358.198 373.852C358.519 373.981 358.875 374.045 359.266 374.045C359.704 374.045 360.092 373.969 360.43 373.817C360.768 373.664 361.033 373.452 361.225 373.18C361.417 372.909 361.514 372.594 361.514 372.236C361.514 371.861 361.421 371.531 361.235 371.246C361.05 370.958 360.778 370.733 360.42 370.57C360.062 370.408 359.624 370.327 359.107 370.327H358.292V369.233H359.107C359.512 369.233 359.866 369.16 360.171 369.014C360.479 368.868 360.72 368.663 360.892 368.398C361.068 368.133 361.156 367.821 361.156 367.463C361.156 367.118 361.079 366.818 360.927 366.563C360.774 366.308 360.559 366.109 360.281 365.967C360.006 365.824 359.681 365.753 359.306 365.753C358.955 365.753 358.623 365.817 358.312 365.947C358.004 366.073 357.752 366.257 357.556 366.499C357.361 366.737 357.255 367.026 357.238 367.364H356.045C356.065 366.83 356.225 366.363 356.527 365.962C356.829 365.557 357.223 365.242 357.71 365.017C358.201 364.792 358.739 364.679 359.326 364.679C359.956 364.679 360.496 364.807 360.947 365.062C361.398 365.314 361.744 365.647 361.986 366.061C362.228 366.475 362.349 366.923 362.349 367.403C362.349 367.977 362.198 368.466 361.896 368.87C361.598 369.274 361.192 369.554 360.678 369.71V369.79C361.321 369.896 361.823 370.169 362.185 370.61C362.546 371.048 362.727 371.589 362.727 372.236C362.727 372.789 362.576 373.286 362.274 373.727C361.976 374.165 361.568 374.509 361.051 374.761C360.534 375.013 359.946 375.139 359.286 375.139Z" fill="#615E83"/>
<path d="M430.311 375L427.527 364.818H428.78L430.907 373.111H431.007L433.175 364.818H434.567L436.734 373.111H436.834L438.961 364.818H440.214L437.43 375H436.157L433.91 366.886H433.831L431.584 375H430.311ZM444.082 375.159C443.346 375.159 442.712 374.997 442.178 374.672C441.648 374.344 441.238 373.886 440.95 373.3C440.665 372.71 440.523 372.024 440.523 371.241C440.523 370.459 440.665 369.77 440.95 369.173C441.238 368.573 441.64 368.106 442.153 367.771C442.67 367.433 443.273 367.264 443.963 367.264C444.361 367.264 444.753 367.33 445.141 367.463C445.529 367.596 445.882 367.811 446.2 368.109C446.518 368.404 446.772 368.795 446.961 369.283C447.15 369.77 447.244 370.37 447.244 371.082V371.58H441.358V370.565H446.051C446.051 370.134 445.965 369.75 445.792 369.412C445.623 369.074 445.381 368.807 445.067 368.612C444.755 368.416 444.387 368.318 443.963 368.318C443.496 368.318 443.091 368.434 442.75 368.666C442.412 368.895 442.152 369.193 441.969 369.561C441.787 369.929 441.696 370.323 441.696 370.744V371.42C441.696 371.997 441.795 372.486 441.994 372.887C442.196 373.285 442.476 373.588 442.834 373.797C443.192 374.002 443.608 374.105 444.082 374.105C444.39 374.105 444.669 374.062 444.917 373.976C445.169 373.886 445.386 373.754 445.569 373.578C445.751 373.399 445.892 373.177 445.991 372.912L447.125 373.23C447.006 373.615 446.805 373.953 446.523 374.244C446.242 374.533 445.894 374.758 445.479 374.92C445.065 375.08 444.599 375.159 444.082 375.159ZM452.231 375.159C451.495 375.159 450.86 374.997 450.327 374.672C449.796 374.344 449.387 373.886 449.099 373.3C448.814 372.71 448.671 372.024 448.671 371.241C448.671 370.459 448.814 369.77 449.099 369.173C449.387 368.573 449.788 368.106 450.302 367.771C450.819 367.433 451.422 367.264 452.111 367.264C452.509 367.264 452.902 367.33 453.29 367.463C453.677 367.596 454.03 367.811 454.349 368.109C454.667 368.404 454.92 368.795 455.109 369.283C455.298 369.77 455.393 370.37 455.393 371.082V371.58H449.506V370.565H454.199C454.199 370.134 454.113 369.75 453.941 369.412C453.772 369.074 453.53 368.807 453.215 368.612C452.903 368.416 452.536 368.318 452.111 368.318C451.644 368.318 451.24 368.434 450.898 368.666C450.56 368.895 450.3 369.193 450.118 369.561C449.935 369.929 449.844 370.323 449.844 370.744V371.42C449.844 371.997 449.944 372.486 450.143 372.887C450.345 373.285 450.625 373.588 450.983 373.797C451.341 374.002 451.757 374.105 452.231 374.105C452.539 374.105 452.817 374.062 453.066 373.976C453.318 373.886 453.535 373.754 453.717 373.578C453.899 373.399 454.04 373.177 454.14 372.912L455.273 373.23C455.154 373.615 454.953 373.953 454.672 374.244C454.39 374.533 454.042 374.758 453.628 374.92C453.213 375.08 452.748 375.159 452.231 375.159ZM458.271 372.216L458.251 370.764H458.49L461.831 367.364H463.282L459.723 370.963H459.623L458.271 372.216ZM457.177 375V364.818H458.351V375H457.177ZM462.03 375L459.047 371.222L459.882 370.406L463.521 375H462.03ZM468.472 372.912V371.898L472.946 364.818H473.682V366.389H473.185L469.804 371.739V371.818H475.83V372.912H468.472ZM473.264 375V372.604V372.131V364.818H474.438V375H473.264Z" fill="#615E83"/>
<path d="M51.9844 327.754C51.2353 327.754 50.5973 327.551 50.0703 327.143C49.5433 326.732 49.1406 326.137 48.8622 325.358C48.5838 324.576 48.4446 323.631 48.4446 322.524C48.4446 321.424 48.5838 320.484 48.8622 319.705C49.1439 318.923 49.5483 318.327 50.0753 317.916C50.6056 317.501 51.242 317.294 51.9844 317.294C52.7268 317.294 53.3615 317.501 53.8885 317.916C54.4188 318.327 54.8232 318.923 55.1016 319.705C55.3833 320.484 55.5241 321.424 55.5241 322.524C55.5241 323.631 55.3849 324.576 55.1065 325.358C54.8281 326.137 54.4254 326.732 53.8984 327.143C53.3714 327.551 52.7334 327.754 51.9844 327.754ZM51.9844 326.661C52.7268 326.661 53.3035 326.303 53.7145 325.587C54.1255 324.871 54.331 323.85 54.331 322.524C54.331 321.643 54.2365 320.892 54.0476 320.272C53.862 319.652 53.5935 319.18 53.2422 318.855C52.8942 318.53 52.4749 318.368 51.9844 318.368C51.2486 318.368 50.6735 318.731 50.2592 319.457C49.8449 320.179 49.6378 321.202 49.6378 322.524C49.6378 323.406 49.7306 324.155 49.9162 324.771C50.1018 325.388 50.3686 325.857 50.7166 326.178C51.0679 326.5 51.4905 326.661 51.9844 326.661Z" fill="#615E83"/>
<path d="M46.8699 258.402V268.584H45.6369V259.695H45.5772L43.0914 261.345V260.093L45.6369 258.402H46.8699ZM50.9118 265.8L50.8919 264.348H51.1305L54.4714 260.948H55.9231L52.3635 264.547H52.264L50.9118 265.8ZM49.818 268.584V258.402H50.9913V268.584H49.818ZM54.6703 268.584L51.6873 264.806L52.5225 263.99L56.1618 268.584H54.6703Z" fill="#615E83"/>
<path d="M44.4624 209.678C43.879 209.678 43.3537 209.562 42.8864 209.33C42.419 209.098 42.0445 208.78 41.7628 208.376C41.4811 207.971 41.3269 207.511 41.3004 206.994H42.4936C42.54 207.454 42.7488 207.835 43.12 208.137C43.4946 208.435 43.942 208.585 44.4624 208.585C44.88 208.585 45.2512 208.487 45.576 208.291C45.9041 208.096 46.161 207.827 46.3466 207.486C46.5355 207.141 46.63 206.752 46.63 206.317C46.63 205.873 46.5322 205.477 46.3366 205.129C46.1444 204.778 45.8793 204.501 45.5412 204.299C45.2031 204.097 44.817 203.994 44.3828 203.991C44.0713 203.987 43.7514 204.036 43.4233 204.135C43.0952 204.231 42.825 204.355 42.6129 204.508L41.4595 204.369L42.076 199.357H47.3658V200.451H43.1101L42.7521 203.454H42.8118C43.0206 203.288 43.2824 203.151 43.5973 203.041C43.9122 202.932 44.2403 202.877 44.5817 202.877C45.2048 202.877 45.7599 203.026 46.2472 203.325C46.7377 203.62 47.1222 204.024 47.4006 204.538C47.6823 205.051 47.8232 205.638 47.8232 206.298C47.8232 206.947 47.6773 207.527 47.3857 208.038C47.0973 208.545 46.6996 208.946 46.1925 209.241C45.6854 209.532 45.1087 209.678 44.4624 209.678ZM50.9118 206.755L50.8919 205.303H51.1305L54.4714 201.903H55.9231L52.3635 205.502H52.264L50.9118 206.755ZM49.818 209.539V199.357H50.9913V209.539H49.818ZM54.6703 209.539L51.6873 205.761L52.5225 204.945L56.1618 209.539H54.6703Z" fill="#615E83"/>
<path d="M38.1199 140.312V150.494H36.8869V141.605H36.8272L34.3414 143.256V142.003L36.8869 140.312H38.1199ZM44.3691 150.633C43.6201 150.633 42.9821 150.43 42.4551 150.022C41.9281 149.611 41.5254 149.016 41.247 148.237C40.9686 147.455 40.8294 146.51 40.8294 145.403C40.8294 144.303 40.9686 143.363 41.247 142.584C41.5287 141.802 41.9331 141.206 42.46 140.795C42.9904 140.38 43.6267 140.173 44.3691 140.173C45.1116 140.173 45.7463 140.38 46.2733 140.795C46.8036 141.206 47.2079 141.802 47.4863 142.584C47.7681 143.363 47.9089 144.303 47.9089 145.403C47.9089 146.51 47.7697 147.455 47.4913 148.237C47.2129 149.016 46.8102 149.611 46.2832 150.022C45.7562 150.43 45.1182 150.633 44.3691 150.633ZM44.3691 149.54C45.1116 149.54 45.6883 149.182 46.0993 148.466C46.5102 147.75 46.7157 146.729 46.7157 145.403C46.7157 144.522 46.6213 143.771 46.4324 143.151C46.2467 142.531 45.9783 142.059 45.627 141.734C45.2789 141.409 44.8597 141.247 44.3691 141.247C43.6333 141.247 43.0583 141.61 42.644 142.336C42.2297 143.058 42.0225 144.081 42.0225 145.403C42.0225 146.285 42.1154 147.034 42.301 147.65C42.4866 148.267 42.7534 148.736 43.1014 149.057C43.4527 149.379 43.8753 149.54 44.3691 149.54ZM50.9118 147.71L50.8919 146.258H51.1305L54.4714 142.858H55.9231L52.3635 146.457H52.264L50.9118 147.71ZM49.818 150.494V140.312H50.9913V150.494H49.818ZM54.6703 150.494L51.6873 146.716L52.5225 145.9L56.1618 150.494H54.6703Z" fill="#615E83"/>
<line x1="66.8594" y1="145.494" x2="66.8594" y2="348.11" stroke="#E5E5EF"/>
<line x1="203.195" y1="145.494" x2="203.195" y2="348.11" stroke="#E5E5EF"/>
<line x1="339.535" y1="145.494" x2="339.535" y2="348.11" stroke="#E5E5EF"/>
<line x1="475.875" y1="145.494" x2="475.875" y2="348.11" stroke="#E5E5EF"/>
<line x1="476.641" y1="348.609" x2="66.3613" y2="348.609" stroke="#E5E5EF"/>
<line x1="67.1094" y1="262.314" x2="475.889" y2="262.314" stroke="#E5E5EF" stroke-width="1.5" stroke-linecap="round" stroke-dasharray="4 7"/>
<line x1="67.1094" y1="203.314" x2="475.889" y2="203.314" stroke="#E5E5EF" stroke-width="1.5" stroke-linecap="round" stroke-dasharray="4 7"/>
<line x1="67.1094" y1="144.744" x2="475.889" y2="144.744" stroke="#E5E5EF" stroke-width="1.5" stroke-linecap="round" stroke-dasharray="4 7"/>
<path d="M67.8086 209.366L83.2706 194.38L133.116 206.081L149.595 277.927L165.464 273.616L181.944 197.665L197.406 213.882L230.568 182.064L246.437 197.665L263.324 294.965L277.972 297.633L295.672 213.882L311.338 185.143L343.483 176.932L359.352 162.769L376.239 278.954L392.515 289.628L407.773 176.932L424.66 182.064L457.008 159.484L473.081 174.675" stroke="#3984FF" stroke-width="3" stroke-linecap="round" stroke-linejoin="round"/>
<path d="M67.8086 209.989L82.1505 190.333L110.607 206.733L124.607 209.112L138.525 285.113L152.709 273.823L166.146 183.708L193.581 200.746L208.512 187.608L222.509 209.112L236.693 295.377L250.877 310.772L265.061 200.746L279.059 174.676L306.867 187.608L320.118 174.676L334.862 273.412L347.926 292.092L362.483 181.45L375.361 200.746L391.411 206.698L418.473 192.74L432.985 298.752H447.484L461.59 209.112L474.913 200.746" stroke="#97E6FF" stroke-width="3" stroke-linecap="round" stroke-linejoin="round"/>
<line x1="33.3594" y1="105.609" x2="476.639" y2="105.609" stroke="#E5E5EF"/>
<rect x="409.375" y="39.9531" width="10" height="10" rx="5" fill="#97E6FF"/>
<path d="M428.051 40.8651V39.7713H435.688V40.8651H432.486V49.9531H431.253V40.8651H428.051ZM439.426 50.1122C438.737 50.1122 438.132 49.9482 437.612 49.62C437.094 49.2919 436.69 48.8329 436.398 48.2429C436.11 47.6529 435.966 46.9635 435.966 46.1747C435.966 45.3793 436.11 44.6849 436.398 44.0916C436.69 43.4983 437.094 43.0376 437.612 42.7095C438.132 42.3814 438.737 42.2173 439.426 42.2173C440.116 42.2173 440.719 42.3814 441.236 42.7095C441.756 43.0376 442.161 43.4983 442.449 44.0916C442.741 44.6849 442.886 45.3793 442.886 46.1747C442.886 46.9635 442.741 47.6529 442.449 48.2429C442.161 48.8329 441.756 49.2919 441.236 49.62C440.719 49.9482 440.116 50.1122 439.426 50.1122ZM439.426 49.0582C439.95 49.0582 440.381 48.924 440.719 48.6555C441.057 48.3871 441.307 48.0341 441.469 47.5966C441.632 47.1591 441.713 46.6851 441.713 46.1747C441.713 45.6643 441.632 45.1887 441.469 44.7479C441.307 44.3071 441.057 43.9508 440.719 43.679C440.381 43.4072 439.95 43.2713 439.426 43.2713C438.902 43.2713 438.472 43.4072 438.134 43.679C437.795 43.9508 437.545 44.3071 437.383 44.7479C437.22 45.1887 437.139 45.6643 437.139 46.1747C437.139 46.6851 437.22 47.1591 437.383 47.5966C437.545 48.0341 437.795 48.3871 438.134 48.6555C438.472 48.924 438.902 49.0582 439.426 49.0582ZM444.677 52.8168V42.3168H445.811V43.5298H445.95C446.036 43.3973 446.156 43.2282 446.308 43.0227C446.464 42.8139 446.686 42.6283 446.974 42.4659C447.266 42.3002 447.66 42.2173 448.157 42.2173C448.8 42.2173 449.367 42.3781 449.858 42.6996C450.348 43.0211 450.731 43.4768 451.006 44.0668C451.281 44.6567 451.419 45.3527 451.419 46.1548C451.419 46.9635 451.281 47.6645 451.006 48.2578C450.731 48.8478 450.35 49.3052 449.863 49.63C449.376 49.9515 448.814 50.1122 448.177 50.1122C447.687 50.1122 447.294 50.031 446.999 49.8686C446.704 49.7029 446.477 49.5156 446.318 49.3068C446.159 49.0947 446.036 48.919 445.95 48.7798H445.851V52.8168H444.677ZM445.831 46.1349C445.831 46.7116 445.915 47.2204 446.084 47.6612C446.253 48.0987 446.5 48.4418 446.825 48.6903C447.15 48.9356 447.548 49.0582 448.018 49.0582C448.509 49.0582 448.918 48.929 449.246 48.6705C449.578 48.4086 449.826 48.0573 449.992 47.6165C450.161 47.1723 450.246 46.6785 450.246 46.1349C450.246 45.598 450.163 45.1141 449.997 44.6832C449.835 44.2491 449.588 43.906 449.256 43.6541C448.928 43.3989 448.515 43.2713 448.018 43.2713C447.541 43.2713 447.14 43.3923 446.815 43.6342C446.49 43.8729 446.245 44.2076 446.079 44.6385C445.914 45.0661 445.831 45.5649 445.831 46.1349ZM453.209 49.9531V42.3168H454.382V49.9531H453.209ZM453.805 41.044C453.577 41.044 453.379 40.9661 453.214 40.8104C453.051 40.6546 452.97 40.4673 452.97 40.2486C452.97 40.0298 453.051 39.8426 453.214 39.6868C453.379 39.531 453.577 39.4531 453.805 39.4531C454.034 39.4531 454.229 39.531 454.392 39.6868C454.558 39.8426 454.64 40.0298 454.64 40.2486C454.64 40.4673 454.558 40.6546 454.392 40.8104C454.229 40.9661 454.034 41.044 453.805 41.044ZM459.633 50.1122C458.917 50.1122 458.301 49.9432 457.784 49.6051C457.267 49.267 456.869 48.8014 456.591 48.2081C456.312 47.6148 456.173 46.937 456.173 46.1747C456.173 45.3991 456.315 44.7147 456.6 44.1214C456.889 43.5249 457.29 43.0592 457.804 42.7244C458.321 42.3864 458.924 42.2173 459.613 42.2173C460.15 42.2173 460.634 42.3168 461.065 42.5156C461.496 42.7145 461.849 42.9929 462.124 43.3509C462.399 43.7088 462.57 44.1264 462.636 44.6037H461.463C461.373 44.2557 461.174 43.9474 460.866 43.679C460.561 43.4072 460.15 43.2713 459.633 43.2713C459.176 43.2713 458.775 43.3906 458.43 43.6293C458.089 43.8646 457.822 44.1977 457.63 44.6286C457.441 45.0561 457.346 45.5582 457.346 46.1349C457.346 46.7249 457.439 47.2386 457.625 47.6761C457.814 48.1136 458.079 48.4534 458.42 48.6953C458.765 48.9373 459.169 49.0582 459.633 49.0582C459.938 49.0582 460.215 49.0052 460.463 48.8991C460.712 48.7931 460.922 48.6406 461.095 48.4418C461.267 48.2429 461.39 48.0043 461.463 47.7259H462.636C462.57 48.1766 462.406 48.5826 462.144 48.9439C461.885 49.3018 461.542 49.5869 461.115 49.799C460.69 50.0078 460.197 50.1122 459.633 50.1122ZM471.848 39.7713V49.9531H470.615V41.0639H470.556L468.07 42.7145V41.4616L470.615 39.7713H471.848Z" fill="#615E83"/>
<rect x="407.375" y="64.5312" width="10" height="10" rx="5" fill="#3984FF"/>
<path d="M427.051 65.4432V64.3494H434.688V65.4432H431.486V74.5312H430.253V65.4432H427.051ZM438.426 74.6903C437.737 74.6903 437.132 74.5263 436.612 74.1982C436.094 73.87 435.69 73.411 435.398 72.821C435.11 72.2311 434.966 71.5417 434.966 70.7528C434.966 69.9574 435.11 69.263 435.398 68.6697C435.69 68.0765 436.094 67.6158 436.612 67.2876C437.132 66.9595 437.737 66.7955 438.426 66.7955C439.116 66.7955 439.719 66.9595 440.236 67.2876C440.756 67.6158 441.161 68.0765 441.449 68.6697C441.741 69.263 441.886 69.9574 441.886 70.7528C441.886 71.5417 441.741 72.2311 441.449 72.821C441.161 73.411 440.756 73.87 440.236 74.1982C439.719 74.5263 439.116 74.6903 438.426 74.6903ZM438.426 73.6364C438.95 73.6364 439.381 73.5021 439.719 73.2337C440.057 72.9652 440.307 72.6122 440.469 72.1747C440.632 71.7372 440.713 71.2633 440.713 70.7528C440.713 70.2424 440.632 69.7668 440.469 69.326C440.307 68.8852 440.057 68.5289 439.719 68.2571C439.381 67.9853 438.95 67.8494 438.426 67.8494C437.902 67.8494 437.472 67.9853 437.134 68.2571C436.795 68.5289 436.545 68.8852 436.383 69.326C436.22 69.7668 436.139 70.2424 436.139 70.7528C436.139 71.2633 436.22 71.7372 436.383 72.1747C436.545 72.6122 436.795 72.9652 437.134 73.2337C437.472 73.5021 437.902 73.6364 438.426 73.6364ZM443.677 77.3949V66.8949H444.811V68.108H444.95C445.036 67.9754 445.156 67.8063 445.308 67.6009C445.464 67.392 445.686 67.2064 445.974 67.044C446.266 66.8783 446.66 66.7955 447.157 66.7955C447.8 66.7955 448.367 66.9562 448.858 67.2777C449.348 67.5992 449.731 68.0549 450.006 68.6449C450.281 69.2348 450.419 69.9309 450.419 70.733C450.419 71.5417 450.281 72.2427 450.006 72.8359C449.731 73.4259 449.35 73.8833 448.863 74.2081C448.376 74.5296 447.814 74.6903 447.177 74.6903C446.687 74.6903 446.294 74.6091 445.999 74.4467C445.704 74.281 445.477 74.0937 445.318 73.8849C445.159 73.6728 445.036 73.4972 444.95 73.358H444.851V77.3949H443.677ZM444.831 70.7131C444.831 71.2898 444.915 71.7985 445.084 72.2393C445.253 72.6768 445.5 73.0199 445.825 73.2685C446.15 73.5137 446.548 73.6364 447.018 73.6364C447.509 73.6364 447.918 73.5071 448.246 73.2486C448.578 72.9867 448.826 72.6354 448.992 72.1946C449.161 71.7505 449.246 71.2566 449.246 70.7131C449.246 70.1761 449.163 69.6922 448.997 69.2614C448.835 68.8272 448.588 68.4841 448.256 68.2322C447.928 67.977 447.515 67.8494 447.018 67.8494C446.541 67.8494 446.14 67.9704 445.815 68.2124C445.49 68.451 445.245 68.7857 445.079 69.2166C444.914 69.6442 444.831 70.143 444.831 70.7131ZM452.209 74.5312V66.8949H453.382V74.5312H452.209ZM452.805 65.6222C452.577 65.6222 452.379 65.5443 452.214 65.3885C452.051 65.2327 451.97 65.0455 451.97 64.8267C451.97 64.608 452.051 64.4207 452.214 64.2649C452.379 64.1091 452.577 64.0312 452.805 64.0312C453.034 64.0312 453.229 64.1091 453.392 64.2649C453.558 64.4207 453.64 64.608 453.64 64.8267C453.64 65.0455 453.558 65.2327 453.392 65.3885C453.229 65.5443 453.034 65.6222 452.805 65.6222ZM458.633 74.6903C457.917 74.6903 457.301 74.5213 456.784 74.1832C456.267 73.8452 455.869 73.3795 455.591 72.7862C455.312 72.1929 455.173 71.5152 455.173 70.7528C455.173 69.9773 455.315 69.2929 455.6 68.6996C455.889 68.103 456.29 67.6373 456.804 67.3026C457.321 66.9645 457.924 66.7955 458.613 66.7955C459.15 66.7955 459.634 66.8949 460.065 67.0938C460.496 67.2926 460.849 67.571 461.124 67.929C461.399 68.2869 461.57 68.7045 461.636 69.1818H460.463C460.373 68.8338 460.174 68.5256 459.866 68.2571C459.561 67.9853 459.15 67.8494 458.633 67.8494C458.176 67.8494 457.775 67.9687 457.43 68.2074C457.089 68.4427 456.822 68.7758 456.63 69.2067C456.441 69.6342 456.346 70.1364 456.346 70.7131C456.346 71.303 456.439 71.8168 456.625 72.2543C456.814 72.6918 457.079 73.0315 457.42 73.2734C457.765 73.5154 458.169 73.6364 458.633 73.6364C458.938 73.6364 459.215 73.5833 459.463 73.4773C459.712 73.3712 459.922 73.2188 460.095 73.0199C460.267 72.821 460.39 72.5824 460.463 72.304H461.636C461.57 72.7547 461.406 73.1607 461.144 73.522C460.885 73.88 460.542 74.165 460.115 74.3771C459.69 74.5859 459.197 74.6903 458.633 74.6903ZM467.269 74.5312V73.6364L470.63 69.9574C471.024 69.5265 471.349 69.152 471.604 68.8338C471.859 68.5123 472.048 68.2107 472.171 67.929C472.297 67.6439 472.36 67.3456 472.36 67.0341C472.36 66.6761 472.274 66.3662 472.101 66.1044C471.932 65.8426 471.7 65.6404 471.405 65.4979C471.11 65.3554 470.779 65.2841 470.411 65.2841C470.02 65.2841 469.678 65.3653 469.387 65.5277C469.098 65.6868 468.875 65.9105 468.716 66.1989C468.56 66.4872 468.482 66.8253 468.482 67.2131H467.309C467.309 66.6165 467.446 66.0928 467.721 65.642C467.996 65.1913 468.371 64.84 468.845 64.5881C469.322 64.3362 469.857 64.2102 470.451 64.2102C471.047 64.2102 471.576 64.3362 472.037 64.5881C472.497 64.84 472.859 65.1797 473.12 65.6072C473.382 66.0348 473.513 66.5104 473.513 67.0341C473.513 67.4086 473.445 67.7749 473.309 68.1328C473.177 68.4875 472.945 68.8835 472.613 69.321C472.285 69.7552 471.829 70.2855 471.246 70.9119L468.959 73.358V73.4375H473.692V74.5312H467.269Z" fill="#615E83"/>
<path d="M37.7734 48V64H34.3906V48H37.7734ZM43.8223 57.0625V64H40.4941V52H43.666V54.1172H43.8066C44.0723 53.4193 44.5176 52.8672 45.1426 52.4609C45.7676 52.0495 46.5254 51.8438 47.416 51.8438C48.2493 51.8438 48.9759 52.026 49.5957 52.3906C50.2155 52.7552 50.6973 53.276 51.041 53.9531C51.3848 54.625 51.5566 55.4271 51.5566 56.3594V64H48.2285V56.9531C48.2337 56.2187 48.0462 55.6458 47.666 55.2344C47.2858 54.8177 46.7624 54.6094 46.0957 54.6094C45.6478 54.6094 45.252 54.7057 44.9082 54.8984C44.5697 55.0911 44.304 55.3724 44.1113 55.7422C43.9238 56.1068 43.8275 56.5469 43.8223 57.0625ZM60.5625 52V54.5H53.3359V52H60.5625ZM54.9766 49.125H58.3047V60.3125C58.3047 60.6198 58.3516 60.8594 58.4453 61.0312C58.5391 61.1979 58.6693 61.3151 58.8359 61.3828C59.0078 61.4505 59.2057 61.4844 59.4297 61.4844C59.5859 61.4844 59.7422 61.4714 59.8984 61.4453C60.0547 61.4141 60.1745 61.3906 60.2578 61.375L60.7813 63.8516C60.6146 63.9036 60.3802 63.9635 60.0781 64.0313C59.776 64.1042 59.4089 64.1484 58.9766 64.1641C58.1745 64.1953 57.4714 64.0885 56.8672 63.8437C56.2682 63.599 55.8021 63.2187 55.4688 62.7031C55.1354 62.1875 54.9714 61.5365 54.9766 60.75V49.125ZM68.0703 64.2344C66.8359 64.2344 65.7734 63.9844 64.8828 63.4844C63.9974 62.9792 63.3151 62.2656 62.8359 61.3437C62.3568 60.4167 62.1172 59.3203 62.1172 58.0547C62.1172 56.8203 62.3568 55.737 62.8359 54.8047C63.3151 53.8724 63.9896 53.1458 64.8594 52.625C65.7344 52.1042 66.7604 51.8438 67.9375 51.8438C68.7292 51.8438 69.4661 51.9714 70.1484 52.2266C70.8359 52.4766 71.4349 52.8542 71.9453 53.3594C72.4609 53.8646 72.862 54.5 73.1484 55.2656C73.4349 56.026 73.5781 56.9167 73.5781 57.9375V58.8516H63.4453V56.7891H70.4453C70.4453 56.3099 70.3411 55.8854 70.1328 55.5156C69.9245 55.1458 69.6354 54.8568 69.2656 54.6484C68.901 54.4349 68.4766 54.3281 67.9922 54.3281C67.487 54.3281 67.0391 54.4453 66.6484 54.6797C66.263 54.9089 65.9609 55.2187 65.7422 55.6094C65.5234 55.9948 65.4115 56.4245 65.4063 56.8984V58.8594C65.4063 59.4531 65.5156 59.9661 65.7344 60.3984C65.9583 60.8307 66.2734 61.1641 66.6797 61.3984C67.0859 61.6328 67.5677 61.75 68.125 61.75C68.4948 61.75 68.8333 61.6979 69.1406 61.5938C69.4479 61.4896 69.7109 61.3333 69.9297 61.125C70.1484 60.9167 70.3151 60.6615 70.4297 60.3594L73.5078 60.5625C73.3516 61.3021 73.0313 61.9479 72.5469 62.5C72.0677 63.0469 71.4479 63.474 70.6875 63.7813C69.9323 64.0833 69.0599 64.2344 68.0703 64.2344ZM79.0781 57.0625V64H75.75V52H78.9219V54.1172H79.0625C79.3281 53.4193 79.7734 52.8672 80.3984 52.4609C81.0234 52.0495 81.7812 51.8438 82.6719 51.8438C83.5052 51.8438 84.2318 52.026 84.8516 52.3906C85.4714 52.7552 85.9531 53.276 86.2969 53.9531C86.6406 54.625 86.8125 55.4271 86.8125 56.3594V64H83.4844V56.9531C83.4896 56.2187 83.3021 55.6458 82.9219 55.2344C82.5417 54.8177 82.0182 54.6094 81.3516 54.6094C80.9036 54.6094 80.5078 54.7057 80.1641 54.8984C79.8255 55.0911 79.5599 55.3724 79.3672 55.7422C79.1797 56.1068 79.0833 56.5469 79.0781 57.0625ZM95.8184 52V54.5H88.5918V52H95.8184ZM90.2324 49.125H93.5605V60.3125C93.5605 60.6198 93.6074 60.8594 93.7012 61.0312C93.7949 61.1979 93.9251 61.3151 94.0918 61.3828C94.2637 61.4505 94.4616 61.4844 94.6855 61.4844C94.8418 61.4844 94.998 61.4714 95.1543 61.4453C95.3105 61.4141 95.4303 61.3906 95.5137 61.375L96.0371 63.8516C95.8704 63.9036 95.6361 63.9635 95.334 64.0313C95.0319 64.1042 94.6647 64.1484 94.2324 64.1641C93.4303 64.1953 92.7272 64.0885 92.123 63.8437C91.5241 63.599 91.0579 63.2187 90.7246 62.7031C90.3913 62.1875 90.2272 61.5365 90.2324 60.75V49.125ZM108.5 64.2344C107.286 64.2344 106.237 63.9766 105.352 63.4609C104.471 62.9401 103.792 62.2161 103.312 61.2891C102.833 60.3568 102.594 59.276 102.594 58.0469C102.594 56.8073 102.833 55.724 103.312 54.7969C103.792 53.8646 104.471 53.1406 105.352 52.625C106.237 52.1042 107.286 51.8438 108.5 51.8438C109.714 51.8438 110.76 52.1042 111.641 52.625C112.526 53.1406 113.208 53.8646 113.687 54.7969C114.167 55.724 114.406 56.8073 114.406 58.0469C114.406 59.276 114.167 60.3568 113.687 61.2891C113.208 62.2161 112.526 62.9401 111.641 63.4609C110.76 63.9766 109.714 64.2344 108.5 64.2344ZM108.516 61.6562C109.068 61.6562 109.529 61.5 109.898 61.1875C110.268 60.8698 110.547 60.4375 110.734 59.8906C110.927 59.3437 111.023 58.7214 111.023 58.0234C111.023 57.3255 110.927 56.7031 110.734 56.1562C110.547 55.6094 110.268 55.1771 109.898 54.8594C109.529 54.5417 109.068 54.3828 108.516 54.3828C107.958 54.3828 107.49 54.5417 107.109 54.8594C106.734 55.1771 106.451 55.6094 106.258 56.1562C106.07 56.7031 105.977 57.3255 105.977 58.0234C105.977 58.7214 106.07 59.3437 106.258 59.8906C106.451 60.4375 106.734 60.8698 107.109 61.1875C107.49 61.5 107.958 61.6562 108.516 61.6562ZM127.371 52L123.176 64H119.426L115.23 52H118.746L121.238 60.5859H121.363L123.848 52H127.371ZM134.156 64.2344C132.922 64.2344 131.859 63.9844 130.969 63.4844C130.083 62.9792 129.401 62.2656 128.922 61.3437C128.443 60.4167 128.203 59.3203 128.203 58.0547C128.203 56.8203 128.443 55.737 128.922 54.8047C129.401 53.8724 130.076 53.1458 130.945 52.625C131.82 52.1042 132.846 51.8438 134.023 51.8438C134.815 51.8438 135.552 51.9714 136.234 52.2266C136.922 52.4766 137.521 52.8542 138.031 53.3594C138.547 53.8646 138.948 54.5 139.234 55.2656C139.521 56.026 139.664 56.9167 139.664 57.9375V58.8516H129.531V56.7891H136.531C136.531 56.3099 136.427 55.8854 136.219 55.5156C136.01 55.1458 135.721 54.8568 135.352 54.6484C134.987 54.4349 134.563 54.3281 134.078 54.3281C133.573 54.3281 133.125 54.4453 132.734 54.6797C132.349 54.9089 132.047 55.2187 131.828 55.6094C131.609 55.9948 131.497 56.4245 131.492 56.8984V58.8594C131.492 59.4531 131.602 59.9661 131.82 60.3984C132.044 60.8307 132.359 61.1641 132.766 61.3984C133.172 61.6328 133.654 61.75 134.211 61.75C134.581 61.75 134.919 61.6979 135.227 61.5938C135.534 61.4896 135.797 61.3333 136.016 61.125C136.234 60.9167 136.401 60.6615 136.516 60.3594L139.594 60.5625C139.438 61.3021 139.117 61.9479 138.633 62.5C138.154 63.0469 137.534 63.474 136.773 63.7813C136.018 64.0833 135.146 64.2344 134.156 64.2344ZM141.836 64V52H145.062V54.0937H145.188C145.406 53.349 145.773 52.7865 146.289 52.4063C146.805 52.0208 147.398 51.8281 148.07 51.8281C148.237 51.8281 148.417 51.8385 148.609 51.8594C148.802 51.8802 148.971 51.9089 149.117 51.9453V54.8984C148.961 54.8516 148.745 54.8099 148.469 54.7734C148.193 54.737 147.94 54.7188 147.711 54.7188C147.221 54.7188 146.784 54.8255 146.398 55.0391C146.018 55.2474 145.716 55.5391 145.492 55.9141C145.273 56.2891 145.164 56.7214 145.164 57.2109V64H141.836ZM162.312 52V54.5H155.086V52H162.312ZM156.727 49.125H160.055V60.3125C160.055 60.6198 160.102 60.8594 160.195 61.0312C160.289 61.1979 160.419 61.3151 160.586 61.3828C160.758 61.4505 160.956 61.4844 161.18 61.4844C161.336 61.4844 161.492 61.4714 161.648 61.4453C161.805 61.4141 161.924 61.3906 162.008 61.375L162.531 63.8516C162.365 63.9036 162.13 63.9635 161.828 64.0313C161.526 64.1042 161.159 64.1484 160.727 64.1641C159.924 64.1953 159.221 64.0885 158.617 63.8437C158.018 63.599 157.552 63.2187 157.219 62.7031C156.885 62.1875 156.721 61.5365 156.727 60.75V49.125ZM164.48 64V52H167.809V64H164.48ZM166.152 50.4531C165.658 50.4531 165.233 50.2891 164.879 49.9609C164.53 49.6276 164.355 49.2292 164.355 48.7656C164.355 48.3073 164.53 47.9141 164.879 47.5859C165.233 47.2526 165.658 47.0859 166.152 47.0859C166.647 47.0859 167.069 47.2526 167.418 47.5859C167.772 47.9141 167.949 48.3073 167.949 48.7656C167.949 49.2292 167.772 49.6276 167.418 49.9609C167.069 50.2891 166.647 50.4531 166.152 50.4531ZM170.475 64V52H173.646V54.1172H173.787C174.037 53.4141 174.454 52.8594 175.037 52.4531C175.62 52.0469 176.318 51.8438 177.131 51.8438C177.954 51.8438 178.654 52.0495 179.232 52.4609C179.811 52.8672 180.196 53.4193 180.389 54.1172H180.514C180.758 53.4297 181.201 52.8802 181.842 52.4687C182.488 52.0521 183.251 51.8438 184.131 51.8438C185.251 51.8438 186.16 52.2005 186.857 52.9141C187.561 53.6224 187.912 54.6276 187.912 55.9297V64H184.592V56.5859C184.592 55.9193 184.415 55.4193 184.061 55.0859C183.706 54.7526 183.264 54.5859 182.732 54.5859C182.128 54.5859 181.657 54.7786 181.318 55.1641C180.98 55.5443 180.811 56.0469 180.811 56.6719V64H177.584V56.5156C177.584 55.9271 177.415 55.4583 177.076 55.1094C176.743 54.7604 176.303 54.5859 175.756 54.5859C175.386 54.5859 175.053 54.6797 174.756 54.8672C174.464 55.0495 174.232 55.3073 174.061 55.6406C173.889 55.9687 173.803 56.3542 173.803 56.7969V64H170.475ZM196.01 64.2344C194.775 64.2344 193.713 63.9844 192.822 63.4844C191.937 62.9792 191.255 62.2656 190.775 61.3437C190.296 60.4167 190.057 59.3203 190.057 58.0547C190.057 56.8203 190.296 55.737 190.775 54.8047C191.255 53.8724 191.929 53.1458 192.799 52.625C193.674 52.1042 194.7 51.8438 195.877 51.8438C196.669 51.8438 197.406 51.9714 198.088 52.2266C198.775 52.4766 199.374 52.8542 199.885 53.3594C200.4 53.8646 200.801 54.5 201.088 55.2656C201.374 56.026 201.518 56.9167 201.518 57.9375V58.8516H191.385V56.7891H198.385C198.385 56.3099 198.281 55.8854 198.072 55.5156C197.864 55.1458 197.575 54.8568 197.205 54.6484C196.84 54.4349 196.416 54.3281 195.932 54.3281C195.426 54.3281 194.979 54.4453 194.588 54.6797C194.202 54.9089 193.9 55.2187 193.682 55.6094C193.463 55.9948 193.351 56.4245 193.346 56.8984V58.8594C193.346 59.4531 193.455 59.9661 193.674 60.3984C193.898 60.8307 194.213 61.1641 194.619 61.3984C195.025 61.6328 195.507 61.75 196.064 61.75C196.434 61.75 196.773 61.6979 197.08 61.5938C197.387 61.4896 197.65 61.3333 197.869 61.125C198.088 60.9167 198.255 60.6615 198.369 60.3594L201.447 60.5625C201.291 61.3021 200.971 61.9479 200.486 62.5C200.007 63.0469 199.387 63.474 198.627 63.7813C197.872 64.0833 196.999 64.2344 196.01 64.2344Z" fill="#1E1B39"/>
</svg>
