<svg width="268" height="214" viewBox="0 0 268 214" fill="none" xmlns="http://www.w3.org/2000/svg">
<rect width="268" height="214" fill="white"/>
<path d="M28.6791 47V33H31.2391V38.66L36.4191 33H39.5791L34.4191 38.56L39.7191 47H36.5791L32.5791 40.52L31.2391 41.98V47H28.6791ZM45.0118 47.24C44.0118 47.24 43.1251 47.0267 42.3518 46.6C41.5785 46.1733 40.9718 45.5733 40.5318 44.8C40.0918 44.0267 39.8718 43.1333 39.8718 42.12C39.8718 41.0933 40.0851 40.18 40.5118 39.38C40.9518 38.58 41.5518 37.96 42.3118 37.52C43.0851 37.0667 43.9918 36.84 45.0318 36.84C46.0051 36.84 46.8651 37.0533 47.6118 37.48C48.3585 37.9067 48.9385 38.4933 49.3518 39.24C49.7785 39.9733 49.9918 40.7933 49.9918 41.7C49.9918 41.8467 49.9851 42 49.9718 42.16C49.9718 42.32 49.9651 42.4867 49.9518 42.66H42.4118C42.4651 43.4333 42.7318 44.04 43.2118 44.48C43.7051 44.92 44.2985 45.14 44.9918 45.14C45.5118 45.14 45.9451 45.0267 46.2918 44.8C46.6518 44.56 46.9185 44.2533 47.0918 43.88H49.6918C49.5051 44.5067 49.1918 45.08 48.7518 45.6C48.3251 46.1067 47.7918 46.5067 47.1518 46.8C46.5251 47.0933 45.8118 47.24 45.0118 47.24ZM45.0318 38.92C44.4051 38.92 43.8518 39.1 43.3718 39.46C42.8918 39.8067 42.5851 40.34 42.4518 41.06H47.3918C47.3518 40.4067 47.1118 39.8867 46.6718 39.5C46.2318 39.1133 45.6851 38.92 45.0318 38.92ZM52.4966 51.4L54.7966 46.34H54.1966L50.3366 37.08H53.1166L55.8966 44.06L58.7966 37.08H61.5166L55.2166 51.4H52.4966ZM67.2159 47V33H70.2559L74.7159 41.88L79.1159 33H82.1559V47H79.5959V37.34L75.6959 45H73.6759L69.7759 37.34V47H67.2159ZM89.2321 47.24C88.2321 47.24 87.3454 47.0267 86.5721 46.6C85.7988 46.1733 85.1921 45.5733 84.7521 44.8C84.3121 44.0267 84.0921 43.1333 84.0921 42.12C84.0921 41.0933 84.3054 40.18 84.7321 39.38C85.1721 38.58 85.7721 37.96 86.5321 37.52C87.3054 37.0667 88.2121 36.84 89.2521 36.84C90.2254 36.84 91.0854 37.0533 91.8321 37.48C92.5788 37.9067 93.1588 38.4933 93.5721 39.24C93.9988 39.9733 94.2121 40.7933 94.2121 41.7C94.2121 41.8467 94.2054 42 94.1921 42.16C94.1921 42.32 94.1854 42.4867 94.1721 42.66H86.6321C86.6854 43.4333 86.9521 44.04 87.4321 44.48C87.9254 44.92 88.5188 45.14 89.2121 45.14C89.7321 45.14 90.1654 45.0267 90.5121 44.8C90.8721 44.56 91.1388 44.2533 91.3121 43.88H93.9121C93.7254 44.5067 93.4121 45.08 92.9721 45.6C92.5454 46.1067 92.0121 46.5067 91.3721 46.8C90.7454 47.0933 90.0321 47.24 89.2321 47.24ZM89.2521 38.92C88.6254 38.92 88.0721 39.1 87.5921 39.46C87.1121 39.8067 86.8054 40.34 86.6721 41.06H91.6121C91.5721 40.4067 91.3321 39.8867 90.8921 39.5C90.4521 39.1133 89.9054 38.92 89.2521 38.92ZM100.065 47.24C99.1852 47.24 98.4119 47.1 97.7452 46.82C97.0786 46.5267 96.5452 46.1267 96.1452 45.62C95.7452 45.1133 95.5052 44.5267 95.4252 43.86H98.0052C98.0852 44.2467 98.2986 44.58 98.6452 44.86C99.0052 45.1267 99.4652 45.26 100.025 45.26C100.585 45.26 100.992 45.1467 101.245 44.92C101.512 44.6933 101.645 44.4333 101.645 44.14C101.645 43.7133 101.459 43.4267 101.085 43.28C100.712 43.12 100.192 42.9667 99.5252 42.82C99.0986 42.7267 98.6652 42.6133 98.2252 42.48C97.7852 42.3467 97.3786 42.18 97.0052 41.98C96.6452 41.7667 96.3519 41.5 96.1252 41.18C95.8986 40.8467 95.7852 40.44 95.7852 39.96C95.7852 39.08 96.1319 38.34 96.8252 37.74C97.5319 37.14 98.5186 36.84 99.7852 36.84C100.959 36.84 101.892 37.1133 102.585 37.66C103.292 38.2067 103.712 38.96 103.845 39.92H101.425C101.279 39.1867 100.725 38.82 99.7652 38.82C99.2852 38.82 98.9119 38.9133 98.6452 39.1C98.3919 39.2867 98.2652 39.52 98.2652 39.8C98.2652 40.0933 98.4586 40.3267 98.8452 40.5C99.2319 40.6733 99.7452 40.8333 100.385 40.98C101.079 41.14 101.712 41.32 102.285 41.52C102.872 41.7067 103.339 41.9933 103.685 42.38C104.032 42.7533 104.205 43.2933 104.205 44C104.219 44.6133 104.059 45.1667 103.725 45.66C103.392 46.1533 102.912 46.54 102.285 46.82C101.659 47.1 100.919 47.24 100.065 47.24ZM110.173 47.24C109.293 47.24 108.52 47.1 107.853 46.82C107.186 46.5267 106.653 46.1267 106.253 45.62C105.853 45.1133 105.613 44.5267 105.533 43.86H108.113C108.193 44.2467 108.406 44.58 108.753 44.86C109.113 45.1267 109.573 45.26 110.133 45.26C110.693 45.26 111.1 45.1467 111.353 44.92C111.62 44.6933 111.753 44.4333 111.753 44.14C111.753 43.7133 111.566 43.4267 111.193 43.28C110.82 43.12 110.3 42.9667 109.633 42.82C109.206 42.7267 108.773 42.6133 108.333 42.48C107.893 42.3467 107.486 42.18 107.113 41.98C106.753 41.7667 106.46 41.5 106.233 41.18C106.006 40.8467 105.893 40.44 105.893 39.96C105.893 39.08 106.24 38.34 106.933 37.74C107.64 37.14 108.626 36.84 109.893 36.84C111.066 36.84 112 37.1133 112.693 37.66C113.4 38.2067 113.82 38.96 113.953 39.92H111.533C111.386 39.1867 110.833 38.82 109.873 38.82C109.393 38.82 109.02 38.9133 108.753 39.1C108.5 39.2867 108.373 39.52 108.373 39.8C108.373 40.0933 108.566 40.3267 108.953 40.5C109.34 40.6733 109.853 40.8333 110.493 40.98C111.186 41.14 111.82 41.32 112.393 41.52C112.98 41.7067 113.446 41.9933 113.793 42.38C114.14 42.7533 114.313 43.2933 114.313 44C114.326 44.6133 114.166 45.1667 113.833 45.66C113.5 46.1533 113.02 46.54 112.393 46.82C111.766 47.1 111.026 47.24 110.173 47.24ZM119.601 47.24C118.748 47.24 118.048 47.1067 117.501 46.84C116.954 46.56 116.548 46.1933 116.281 45.74C116.014 45.2867 115.881 44.7867 115.881 44.24C115.881 43.32 116.241 42.5733 116.961 42C117.681 41.4267 118.761 41.14 120.201 41.14H122.721V40.9C122.721 40.22 122.528 39.72 122.141 39.4C121.754 39.08 121.274 38.92 120.701 38.92C120.181 38.92 119.728 39.0467 119.341 39.3C118.954 39.54 118.714 39.9 118.621 40.38H116.121C116.188 39.66 116.428 39.0333 116.841 38.5C117.268 37.9667 117.814 37.56 118.481 37.28C119.148 36.9867 119.894 36.84 120.721 36.84C122.134 36.84 123.248 37.1933 124.061 37.9C124.874 38.6067 125.281 39.6067 125.281 40.9V47H123.101L122.861 45.4C122.568 45.9333 122.154 46.3733 121.621 46.72C121.101 47.0667 120.428 47.24 119.601 47.24ZM120.181 45.24C120.914 45.24 121.481 45 121.881 44.52C122.294 44.04 122.554 43.4467 122.661 42.74H120.481C119.801 42.74 119.314 42.8667 119.021 43.12C118.728 43.36 118.581 43.66 118.581 44.02C118.581 44.4067 118.728 44.7067 119.021 44.92C119.314 45.1333 119.701 45.24 120.181 45.24ZM131.524 44.04C131.044 44.04 130.597 43.9867 130.184 43.88L129.444 44.62C129.67 44.74 129.977 44.84 130.364 44.92C130.75 45 131.377 45.08 132.244 45.16C133.564 45.28 134.524 45.5933 135.124 46.1C135.724 46.6067 136.024 47.3067 136.024 48.2C136.024 48.7867 135.864 49.34 135.544 49.86C135.224 50.3933 134.73 50.82 134.064 51.14C133.397 51.4733 132.544 51.64 131.504 51.64C130.09 51.64 128.95 51.3733 128.084 50.84C127.217 50.32 126.784 49.5333 126.784 48.48C126.784 47.5867 127.217 46.8133 128.084 46.16C127.817 46.04 127.584 45.9133 127.384 45.78C127.197 45.6467 127.03 45.5067 126.884 45.36V44.9L128.624 43.06C127.85 42.38 127.464 41.5067 127.464 40.44C127.464 39.7733 127.624 39.1667 127.944 38.62C128.277 38.0733 128.744 37.64 129.344 37.32C129.944 37 130.67 36.84 131.524 36.84C132.084 36.84 132.604 36.92 133.084 37.08H136.844V38.64L135.144 38.76C135.41 39.2667 135.544 39.8267 135.544 40.44C135.544 41.1067 135.384 41.7133 135.064 42.26C134.744 42.8067 134.277 43.24 133.664 43.56C133.064 43.88 132.35 44.04 131.524 44.04ZM131.524 42.08C132.044 42.08 132.47 41.94 132.804 41.66C133.15 41.38 133.324 40.98 133.324 40.46C133.324 39.94 133.15 39.54 132.804 39.26C132.47 38.98 132.044 38.84 131.524 38.84C130.977 38.84 130.537 38.98 130.204 39.26C129.87 39.54 129.704 39.94 129.704 40.46C129.704 40.98 129.87 41.38 130.204 41.66C130.537 41.94 130.977 42.08 131.524 42.08ZM129.124 48.22C129.124 48.7133 129.35 49.08 129.804 49.32C130.27 49.5733 130.837 49.7 131.504 49.7C132.144 49.7 132.664 49.5667 133.064 49.3C133.464 49.0467 133.664 48.7 133.664 48.26C133.664 47.9 133.53 47.6 133.264 47.36C133.01 47.12 132.497 46.9733 131.724 46.92C131.177 46.88 130.67 46.82 130.204 46.74C129.817 46.9533 129.537 47.1867 129.364 47.44C129.204 47.6933 129.124 47.9533 129.124 48.22ZM142.74 47.24C141.74 47.24 140.853 47.0267 140.08 46.6C139.307 46.1733 138.7 45.5733 138.26 44.8C137.82 44.0267 137.6 43.1333 137.6 42.12C137.6 41.0933 137.813 40.18 138.24 39.38C138.68 38.58 139.28 37.96 140.04 37.52C140.813 37.0667 141.72 36.84 142.76 36.84C143.733 36.84 144.593 37.0533 145.34 37.48C146.087 37.9067 146.667 38.4933 147.08 39.24C147.507 39.9733 147.72 40.7933 147.72 41.7C147.72 41.8467 147.713 42 147.7 42.16C147.7 42.32 147.693 42.4867 147.68 42.66H140.14C140.193 43.4333 140.46 44.04 140.94 44.48C141.433 44.92 142.027 45.14 142.72 45.14C143.24 45.14 143.673 45.0267 144.02 44.8C144.38 44.56 144.647 44.2533 144.82 43.88H147.42C147.233 44.5067 146.92 45.08 146.48 45.6C146.053 46.1067 145.52 46.5067 144.88 46.8C144.253 47.0933 143.54 47.24 142.74 47.24ZM142.76 38.92C142.133 38.92 141.58 39.1 141.1 39.46C140.62 39.8067 140.313 40.34 140.18 41.06H145.12C145.08 40.4067 144.84 39.8867 144.4 39.5C143.96 39.1133 143.413 38.92 142.76 38.92ZM153.573 47.24C152.693 47.24 151.92 47.1 151.253 46.82C150.586 46.5267 150.053 46.1267 149.653 45.62C149.253 45.1133 149.013 44.5267 148.933 43.86H151.513C151.593 44.2467 151.806 44.58 152.153 44.86C152.513 45.1267 152.973 45.26 153.533 45.26C154.093 45.26 154.5 45.1467 154.753 44.92C155.02 44.6933 155.153 44.4333 155.153 44.14C155.153 43.7133 154.966 43.4267 154.593 43.28C154.22 43.12 153.7 42.9667 153.033 42.82C152.606 42.7267 152.173 42.6133 151.733 42.48C151.293 42.3467 150.886 42.18 150.513 41.98C150.153 41.7667 149.86 41.5 149.633 41.18C149.406 40.8467 149.293 40.44 149.293 39.96C149.293 39.08 149.64 38.34 150.333 37.74C151.04 37.14 152.026 36.84 153.293 36.84C154.466 36.84 155.4 37.1133 156.093 37.66C156.8 38.2067 157.22 38.96 157.353 39.92H154.933C154.786 39.1867 154.233 38.82 153.273 38.82C152.793 38.82 152.42 38.9133 152.153 39.1C151.9 39.2867 151.773 39.52 151.773 39.8C151.773 40.0933 151.966 40.3267 152.353 40.5C152.74 40.6733 153.253 40.8333 153.893 40.98C154.586 41.14 155.22 41.32 155.793 41.52C156.38 41.7067 156.846 41.9933 157.193 42.38C157.54 42.7533 157.713 43.2933 157.713 44C157.726 44.6133 157.566 45.1667 157.233 45.66C156.9 46.1533 156.42 46.54 155.793 46.82C155.166 47.1 154.426 47.24 153.573 47.24Z" fill="#1F2937"/>
<path d="M52.5037 94.1307C52.1027 94.1307 51.7364 94.0329 51.405 93.8374C51.0736 93.6385 50.8084 93.3733 50.6096 93.0419C50.414 92.7105 50.3162 92.3442 50.3162 91.9432C50.3162 91.5388 50.414 91.1726 50.6096 90.8445C50.8084 90.513 51.0736 90.2495 51.405 90.054C51.7364 89.8551 52.1027 89.7557 52.5037 89.7557C52.9081 89.7557 53.2743 89.8551 53.6025 90.054C53.9339 90.2495 54.1974 90.513 54.3929 90.8445C54.5918 91.1726 54.6912 91.5388 54.6912 91.9432C54.6912 92.3442 54.5918 92.7105 54.3929 93.0419C54.1974 93.3733 53.9339 93.6385 53.6025 93.8374C53.2743 94.0329 52.9081 94.1307 52.5037 94.1307ZM72.5753 89.1293H71.0241C70.9645 88.7978 70.8535 88.5062 70.6911 88.2543C70.5286 88.0024 70.3298 87.7886 70.0945 87.6129C69.8591 87.4373 69.5956 87.3047 69.304 87.2152C69.0156 87.1257 68.709 87.081 68.3842 87.081C67.7976 87.081 67.2723 87.2285 66.8082 87.5234C66.3475 87.8184 65.983 88.2509 65.7145 88.821C65.4493 89.3911 65.3168 90.0871 65.3168 90.9091C65.3168 91.7377 65.4493 92.437 65.7145 93.0071C65.983 93.5772 66.3492 94.008 66.8132 94.2997C67.2772 94.5914 67.7992 94.7372 68.3793 94.7372C68.7008 94.7372 69.0057 94.6941 69.294 94.608C69.5857 94.5185 69.8492 94.3875 70.0845 94.2152C70.3198 94.0429 70.5187 93.8324 70.6811 93.5838C70.8468 93.3319 70.9612 93.0436 71.0241 92.7188L72.5753 92.7237C72.4924 93.2242 72.3317 93.6849 72.093 94.1058C71.8577 94.5234 71.5545 94.8847 71.1832 95.1896C70.8153 95.4912 70.3944 95.7249 69.9205 95.8906C69.4465 96.0563 68.9295 96.1392 68.3693 96.1392C67.4877 96.1392 66.7022 95.9304 66.0128 95.5128C65.3234 95.0919 64.7798 94.4903 64.3821 93.7081C63.9877 92.9259 63.7905 91.9929 63.7905 90.9091C63.7905 89.822 63.9893 88.889 64.3871 88.1101C64.7848 87.3279 65.3284 86.728 66.0178 86.3104C66.7071 85.8894 67.491 85.679 68.3693 85.679C68.9096 85.679 69.4134 85.7569 69.8807 85.9126C70.3513 86.0651 70.7739 86.2905 71.1484 86.5888C71.523 86.8838 71.8329 87.245 72.0781 87.6726C72.3234 88.0968 72.4891 88.5824 72.5753 89.1293ZM77.5108 96.1541C76.7949 96.1541 76.1702 95.9901 75.6365 95.6619C75.1029 95.3338 74.6886 94.8748 74.3936 94.2848C74.0987 93.6948 73.9512 93.0054 73.9512 92.2166C73.9512 91.4245 74.0987 90.7318 74.3936 90.1385C74.6886 89.5452 75.1029 89.0845 75.6365 88.7564C76.1702 88.4283 76.7949 88.2642 77.5108 88.2642C78.2267 88.2642 78.8515 88.4283 79.3851 88.7564C79.9187 89.0845 80.333 89.5452 80.628 90.1385C80.923 90.7318 81.0705 91.4245 81.0705 92.2166C81.0705 93.0054 80.923 93.6948 80.628 94.2848C80.333 94.8748 79.9187 95.3338 79.3851 95.6619C78.8515 95.9901 78.2267 96.1541 77.5108 96.1541ZM77.5158 94.9062C77.9798 94.9062 78.3643 94.7836 78.6692 94.5384C78.9741 94.2931 79.1995 93.9666 79.3453 93.5589C79.4945 93.1513 79.5691 92.7022 79.5691 92.2116C79.5691 91.7244 79.4945 91.277 79.3453 90.8693C79.1995 90.4583 78.9741 90.1286 78.6692 89.88C78.3643 89.6314 77.9798 89.5071 77.5158 89.5071C77.0485 89.5071 76.6607 89.6314 76.3525 89.88C76.0475 90.1286 75.8205 90.4583 75.6713 90.8693C75.5255 91.277 75.4526 91.7244 75.4526 92.2116C75.4526 92.7022 75.5255 93.1513 75.6713 93.5589C75.8205 93.9666 76.0475 94.2931 76.3525 94.5384C76.6607 94.7836 77.0485 94.9062 77.5158 94.9062ZM88.4521 90.228L87.1048 90.4666C87.0484 90.2943 86.9589 90.1302 86.8363 89.9744C86.717 89.8187 86.5546 89.6911 86.3491 89.5916C86.1436 89.4922 85.8867 89.4425 85.5785 89.4425C85.1576 89.4425 84.8062 89.5369 84.5245 89.7259C84.2428 89.9115 84.1019 90.1518 84.1019 90.4467C84.1019 90.7019 84.1964 90.9074 84.3853 91.0632C84.5742 91.219 84.8791 91.3466 85.3001 91.446L86.5131 91.7244C87.2158 91.8868 87.7395 92.1371 88.0842 92.4751C88.4289 92.8132 88.6012 93.2524 88.6012 93.7926C88.6012 94.25 88.4686 94.6577 88.2035 95.0156C87.9416 95.3703 87.5754 95.6487 87.1048 95.8509C86.6374 96.053 86.0955 96.1541 85.479 96.1541C84.6239 96.1541 83.9263 95.9718 83.386 95.6072C82.8458 95.2393 82.5143 94.7173 82.3917 94.0412L83.8285 93.8224C83.918 94.197 84.1019 94.4804 84.3803 94.6726C84.6587 94.8615 85.0217 94.956 85.4691 94.956C85.9563 94.956 86.3458 94.8549 86.6374 94.6527C86.9291 94.4472 87.0749 94.197 87.0749 93.902C87.0749 93.6634 86.9854 93.4628 86.8065 93.3004C86.6308 93.138 86.3607 93.0154 85.9961 92.9325L84.7035 92.6491C83.9909 92.4867 83.4639 92.2282 83.1225 91.8736C82.7844 91.5189 82.6154 91.0698 82.6154 90.5263C82.6154 90.0755 82.7414 89.6811 82.9933 89.343C83.2451 89.005 83.5932 88.7415 84.0373 88.5526C84.4814 88.3603 84.9902 88.2642 85.5636 88.2642C86.3888 88.2642 87.0385 88.4432 87.5124 88.8011C87.9864 89.1558 88.2996 89.6314 88.4521 90.228ZM93.8002 88.3636V89.5568H89.6291V88.3636H93.8002ZM90.7477 86.5341H92.2342V93.7578C92.2342 94.0462 92.2773 94.2633 92.3635 94.4091C92.4496 94.5516 92.5607 94.6494 92.6966 94.7024C92.8358 94.7521 92.9866 94.777 93.149 94.777C93.2683 94.777 93.3727 94.7687 93.4622 94.7521C93.5517 94.7356 93.6213 94.7223 93.671 94.7124L93.9395 95.9403C93.8533 95.9735 93.7306 96.0066 93.5716 96.0398C93.4125 96.0762 93.2136 96.0961 92.975 96.0994C92.5839 96.1061 92.2193 96.0365 91.8812 95.8906C91.5431 95.7448 91.2697 95.5194 91.0609 95.2145C90.8521 94.9096 90.7477 94.5268 90.7477 94.0661V86.5341ZM104.822 88.4929C104.769 88.0223 104.55 87.6577 104.166 87.3991C103.782 87.1373 103.298 87.0064 102.714 87.0064C102.297 87.0064 101.935 87.0727 101.631 87.2053C101.326 87.3345 101.089 87.5135 100.92 87.7422C100.754 87.9676 100.671 88.2244 100.671 88.5128C100.671 88.7547 100.727 88.9635 100.84 89.1392C100.956 89.3149 101.107 89.4624 101.292 89.5817C101.481 89.6977 101.684 89.7955 101.899 89.875C102.114 89.9512 102.322 90.0142 102.52 90.0639L103.515 90.3224C103.84 90.402 104.173 90.5097 104.514 90.6456C104.855 90.7815 105.172 90.9605 105.464 91.1825C105.755 91.4046 105.991 91.6797 106.17 92.0078C106.352 92.3359 106.443 92.7287 106.443 93.1861C106.443 93.7628 106.294 94.2749 105.996 94.7223C105.701 95.1697 105.271 95.5227 104.708 95.7812C104.148 96.0398 103.47 96.169 102.675 96.169C101.912 96.169 101.253 96.0481 100.696 95.8061C100.139 95.5642 99.7032 95.2211 99.3883 94.777C99.0734 94.3295 98.8994 93.7992 98.8663 93.1861H100.407C100.437 93.554 100.557 93.8606 100.765 94.1058C100.978 94.3478 101.248 94.5284 101.576 94.6477C101.907 94.7637 102.27 94.8217 102.665 94.8217C103.099 94.8217 103.485 94.7538 103.823 94.6179C104.164 94.4787 104.433 94.2865 104.628 94.0412C104.824 93.7926 104.922 93.5026 104.922 93.1712C104.922 92.8696 104.836 92.6226 104.663 92.4304C104.494 92.2382 104.264 92.0791 103.972 91.9531C103.684 91.8272 103.357 91.7161 102.993 91.62L101.79 91.2919C100.974 91.0698 100.328 90.7434 99.8507 90.3125C99.3767 89.8816 99.1397 89.3116 99.1397 88.6023C99.1397 88.0156 99.2988 87.5036 99.617 87.0661C99.9352 86.6286 100.366 86.2888 100.91 86.0469C101.453 85.8016 102.066 85.679 102.749 85.679C103.439 85.679 104.047 85.8 104.574 86.0419C105.104 86.2839 105.522 86.617 105.827 87.0412C106.131 87.4621 106.291 87.946 106.304 88.4929H104.822ZM110.382 96.169C109.898 96.169 109.46 96.0795 109.069 95.9006C108.678 95.7183 108.368 95.4548 108.14 95.1101C107.914 94.7654 107.801 94.3428 107.801 93.8423C107.801 93.4115 107.884 93.0568 108.05 92.7784C108.216 92.5 108.44 92.2796 108.721 92.1172C109.003 91.9548 109.318 91.8321 109.666 91.7493C110.014 91.6664 110.368 91.6035 110.73 91.5604C111.187 91.5073 111.558 91.4643 111.843 91.4311C112.128 91.3946 112.336 91.3366 112.465 91.2571C112.594 91.1776 112.659 91.0483 112.659 90.8693V90.8345C112.659 90.4003 112.536 90.0639 112.291 89.8253C112.049 89.5866 111.688 89.4673 111.207 89.4673C110.707 89.4673 110.312 89.5784 110.024 89.8004C109.739 90.0192 109.542 90.2628 109.432 90.5312L108.035 90.2131C108.201 89.7491 108.443 89.3745 108.761 89.0895C109.083 88.8011 109.452 88.5923 109.87 88.4631C110.287 88.3305 110.726 88.2642 111.187 88.2642C111.492 88.2642 111.815 88.3007 112.157 88.3736C112.501 88.4432 112.823 88.5724 113.121 88.7614C113.423 88.9503 113.67 89.2204 113.862 89.5717C114.054 89.9197 114.15 90.3722 114.15 90.929V96H112.699V94.956H112.639C112.543 95.1482 112.399 95.3371 112.206 95.5227C112.014 95.7083 111.767 95.8625 111.466 95.9851C111.164 96.1077 110.803 96.169 110.382 96.169ZM110.705 94.9759C111.116 94.9759 111.467 94.8946 111.759 94.7322C112.054 94.5698 112.278 94.3577 112.43 94.0959C112.586 93.8307 112.664 93.5473 112.664 93.2457V92.2614C112.611 92.3144 112.508 92.3641 112.355 92.4105C112.206 92.4536 112.036 92.4917 111.843 92.5249C111.651 92.5547 111.464 92.5829 111.282 92.6094C111.099 92.6326 110.947 92.6525 110.824 92.669C110.536 92.7055 110.272 92.7668 110.034 92.853C109.798 92.9392 109.609 93.0634 109.467 93.2259C109.328 93.3849 109.258 93.5971 109.258 93.8622C109.258 94.2301 109.394 94.5085 109.666 94.6974C109.938 94.883 110.284 94.9759 110.705 94.9759ZM122.389 88.3636L119.62 96H118.029L115.255 88.3636H116.851L118.785 94.2401H118.865L120.794 88.3636H122.389ZM123.786 96V88.3636H125.273V96H123.786ZM124.537 87.1854C124.279 87.1854 124.057 87.0992 123.871 86.9268C123.689 86.7512 123.597 86.5424 123.597 86.3004C123.597 86.0552 123.689 85.8464 123.871 85.674C124.057 85.4983 124.279 85.4105 124.537 85.4105C124.796 85.4105 125.016 85.4983 125.198 85.674C125.384 85.8464 125.477 86.0552 125.477 86.3004C125.477 86.5424 125.384 86.7512 125.198 86.9268C125.016 87.0992 124.796 87.1854 124.537 87.1854ZM128.759 91.4659V96H127.273V88.3636H128.7V89.6065H128.794C128.97 89.2022 129.245 88.8774 129.619 88.6321C129.997 88.3868 130.473 88.2642 131.046 88.2642C131.567 88.2642 132.022 88.3736 132.413 88.5923C132.804 88.8078 133.108 89.1293 133.323 89.5568C133.539 89.9844 133.646 90.513 133.646 91.1428V96H132.16V91.3217C132.16 90.7682 132.016 90.3357 131.727 90.0241C131.439 89.7093 131.043 89.5518 130.539 89.5518C130.194 89.5518 129.888 89.6264 129.619 89.7756C129.354 89.9247 129.144 90.1435 128.988 90.4318C128.835 90.7169 128.759 91.0616 128.759 91.4659ZM138.842 99.0227C138.235 99.0227 137.713 98.9432 137.276 98.7841C136.841 98.625 136.487 98.4145 136.212 98.1527C135.937 97.8909 135.731 97.6042 135.595 97.2926L136.873 96.7656C136.962 96.9115 137.082 97.0656 137.231 97.228C137.383 97.3937 137.589 97.5346 137.847 97.6506C138.109 97.7666 138.446 97.8246 138.857 97.8246C139.42 97.8246 139.886 97.687 140.254 97.4119C140.621 97.1402 140.805 96.706 140.805 96.1094V94.608H140.711C140.621 94.7704 140.492 94.951 140.323 95.1499C140.157 95.3487 139.929 95.5211 139.637 95.6669C139.345 95.8127 138.966 95.8857 138.499 95.8857C137.895 95.8857 137.352 95.7448 136.868 95.4631C136.387 95.178 136.006 94.7588 135.724 94.2053C135.446 93.6484 135.307 92.964 135.307 92.152C135.307 91.34 135.444 90.6439 135.719 90.0639C135.998 89.4839 136.379 89.0398 136.863 88.7315C137.347 88.42 137.895 88.2642 138.509 88.2642C138.982 88.2642 139.365 88.3438 139.657 88.5028C139.949 88.6586 140.176 88.8409 140.338 89.0497C140.504 89.2585 140.631 89.4425 140.721 89.6016H140.83V88.3636H142.287V96.169C142.287 96.8253 142.134 97.3639 141.83 97.7848C141.525 98.2057 141.112 98.5173 140.592 98.7195C140.075 98.9216 139.491 99.0227 138.842 99.0227ZM138.827 94.6527C139.254 94.6527 139.616 94.5533 139.911 94.3544C140.209 94.1522 140.434 93.8639 140.587 93.4893C140.742 93.1115 140.82 92.6591 140.82 92.1321C140.82 91.6184 140.744 91.166 140.592 90.7749C140.439 90.3838 140.215 90.0788 139.92 89.8601C139.625 89.638 139.261 89.527 138.827 89.527C138.379 89.527 138.006 89.643 137.708 89.875C137.41 90.1037 137.184 90.4152 137.032 90.8097C136.883 91.2041 136.808 91.6449 136.808 92.1321C136.808 92.6326 136.884 93.0717 137.037 93.4496C137.189 93.8274 137.415 94.1224 137.713 94.3345C138.015 94.5466 138.386 94.6527 138.827 94.6527Z" fill="#4B5563"/>
<path d="M52.5037 130.131C52.1027 130.131 51.7364 130.033 51.405 129.837C51.0736 129.638 50.8084 129.373 50.6096 129.042C50.414 128.71 50.3162 128.344 50.3162 127.943C50.3162 127.539 50.414 127.173 50.6096 126.844C50.8084 126.513 51.0736 126.25 51.405 126.054C51.7364 125.855 52.1027 125.756 52.5037 125.756C52.9081 125.756 53.2743 125.855 53.6025 126.054C53.9339 126.25 54.1974 126.513 54.3929 126.844C54.5918 127.173 54.6912 127.539 54.6912 127.943C54.6912 128.344 54.5918 128.71 54.3929 129.042C54.1974 129.373 53.9339 129.638 53.6025 129.837C53.2743 130.033 52.9081 130.131 52.5037 130.131ZM65.6548 121.818V132H64.1186V121.818H65.6548ZM69.2592 127.466V132H67.7727V124.364H69.1996V125.607H69.294C69.4697 125.202 69.7448 124.877 70.1193 124.632C70.4972 124.387 70.9728 124.264 71.5462 124.264C72.0665 124.264 72.5223 124.374 72.9134 124.592C73.3045 124.808 73.6077 125.129 73.8232 125.557C74.0386 125.984 74.1463 126.513 74.1463 127.143V132H72.6598V127.322C72.6598 126.768 72.5156 126.336 72.2273 126.024C71.9389 125.709 71.5429 125.552 71.0391 125.552C70.6944 125.552 70.3878 125.626 70.1193 125.776C69.8542 125.925 69.6437 126.143 69.4879 126.432C69.3355 126.717 69.2592 127.062 69.2592 127.466ZM79.3565 132.154C78.6174 132.154 77.9811 131.987 77.4474 131.652C76.9171 131.314 76.5095 130.848 76.2244 130.255C75.9394 129.662 75.7969 128.982 75.7969 128.217C75.7969 127.441 75.9427 126.757 76.2344 126.163C76.526 125.567 76.937 125.101 77.4673 124.766C77.9976 124.432 78.6224 124.264 79.3416 124.264C79.9216 124.264 80.4387 124.372 80.8928 124.587C81.3468 124.799 81.7131 125.098 81.9915 125.482C82.2732 125.867 82.4406 126.316 82.4936 126.83H81.0469C80.9673 126.472 80.785 126.163 80.5 125.905C80.2183 125.646 79.8404 125.517 79.3665 125.517C78.9522 125.517 78.5893 125.626 78.2777 125.845C77.9695 126.061 77.7292 126.369 77.5568 126.77C77.3845 127.168 77.2983 127.638 77.2983 128.182C77.2983 128.739 77.3828 129.219 77.5518 129.624C77.7209 130.028 77.9595 130.341 78.2678 130.563C78.5793 130.785 78.9455 130.896 79.3665 130.896C79.6482 130.896 79.9034 130.845 80.1321 130.742C80.3641 130.636 80.558 130.485 80.7138 130.29C80.8729 130.094 80.9839 129.859 81.0469 129.584H82.4936C82.4406 130.078 82.2798 130.518 82.0114 130.906C81.7429 131.294 81.3833 131.599 80.9325 131.821C80.4851 132.043 79.9598 132.154 79.3565 132.154ZM84.0833 132V124.364H85.5201V125.577H85.5996C85.7388 125.166 85.9841 124.843 86.3354 124.607C86.69 124.369 87.0911 124.249 87.5385 124.249C87.6313 124.249 87.7407 124.253 87.8667 124.259C87.9959 124.266 88.097 124.274 88.1699 124.284V125.706C88.1103 125.689 88.0042 125.671 87.8517 125.651C87.6993 125.628 87.5468 125.616 87.3944 125.616C87.043 125.616 86.7298 125.691 86.4547 125.84C86.1829 125.986 85.9675 126.19 85.8084 126.452C85.6493 126.71 85.5698 127.005 85.5698 127.337V132H84.0833ZM92.4741 132.154C91.7217 132.154 91.0737 131.993 90.5302 131.672C89.9899 131.347 89.5723 130.891 89.2773 130.305C88.9857 129.715 88.8398 129.024 88.8398 128.232C88.8398 127.449 88.9857 126.76 89.2773 126.163C89.5723 125.567 89.9833 125.101 90.5103 124.766C91.0406 124.432 91.6604 124.264 92.3697 124.264C92.8005 124.264 93.2182 124.335 93.6225 124.478C94.0269 124.621 94.3898 124.844 94.7113 125.149C95.0328 125.454 95.2863 125.85 95.4719 126.337C95.6576 126.821 95.7504 127.41 95.7504 128.102V128.629H89.68V127.516H94.2937C94.2937 127.125 94.2141 126.778 94.055 126.477C93.896 126.172 93.6722 125.931 93.3839 125.756C93.0988 125.58 92.7641 125.492 92.3796 125.492C91.962 125.492 91.5974 125.595 91.2859 125.8C90.9776 126.003 90.739 126.268 90.57 126.596C90.4042 126.921 90.3214 127.274 90.3214 127.655V128.525C90.3214 129.035 90.4109 129.469 90.5898 129.827C90.7721 130.185 91.0257 130.459 91.3505 130.648C91.6753 130.833 92.0548 130.926 92.489 130.926C92.7707 130.926 93.0276 130.886 93.2596 130.807C93.4916 130.724 93.6921 130.601 93.8612 130.439C94.0302 130.277 94.1594 130.076 94.2489 129.837L95.6559 130.091C95.5432 130.505 95.341 130.868 95.0494 131.18C94.761 131.488 94.3981 131.728 93.9606 131.901C93.5264 132.07 93.0309 132.154 92.4741 132.154ZM99.622 132.169C99.1381 132.169 98.7006 132.08 98.3095 131.901C97.9184 131.718 97.6085 131.455 97.3798 131.11C97.1544 130.765 97.0417 130.343 97.0417 129.842C97.0417 129.411 97.1246 129.057 97.2903 128.778C97.456 128.5 97.6797 128.28 97.9615 128.117C98.2432 127.955 98.5581 127.832 98.9061 127.749C99.2541 127.666 99.6087 127.603 99.97 127.56C100.427 127.507 100.799 127.464 101.084 127.431C101.369 127.395 101.576 127.337 101.705 127.257C101.834 127.178 101.899 127.048 101.899 126.869V126.835C101.899 126.4 101.776 126.064 101.531 125.825C101.289 125.587 100.928 125.467 100.447 125.467C99.9468 125.467 99.5524 125.578 99.264 125.8C98.979 126.019 98.7818 126.263 98.6724 126.531L97.2754 126.213C97.4411 125.749 97.6831 125.375 98.0012 125.089C98.3227 124.801 98.6923 124.592 99.1099 124.463C99.5275 124.33 99.9667 124.264 100.427 124.264C100.732 124.264 101.055 124.301 101.397 124.374C101.742 124.443 102.063 124.572 102.361 124.761C102.663 124.95 102.91 125.22 103.102 125.572C103.294 125.92 103.39 126.372 103.39 126.929V132H101.939V130.956H101.879C101.783 131.148 101.639 131.337 101.447 131.523C101.254 131.708 101.007 131.862 100.706 131.985C100.404 132.108 100.043 132.169 99.622 132.169ZM99.9451 130.976C100.356 130.976 100.707 130.895 100.999 130.732C101.294 130.57 101.518 130.358 101.67 130.096C101.826 129.831 101.904 129.547 101.904 129.246V128.261C101.851 128.314 101.748 128.364 101.596 128.411C101.447 128.454 101.276 128.492 101.084 128.525C100.891 128.555 100.704 128.583 100.522 128.609C100.34 128.633 100.187 128.652 100.064 128.669C99.7761 128.705 99.5126 128.767 99.274 128.853C99.0386 128.939 98.8497 129.063 98.7072 129.226C98.568 129.385 98.4984 129.597 98.4984 129.862C98.4984 130.23 98.6343 130.509 98.9061 130.697C99.1779 130.883 99.5242 130.976 99.9451 130.976ZM111.093 126.228L109.745 126.467C109.689 126.294 109.6 126.13 109.477 125.974C109.358 125.819 109.195 125.691 108.99 125.592C108.784 125.492 108.527 125.442 108.219 125.442C107.798 125.442 107.447 125.537 107.165 125.726C106.883 125.911 106.743 126.152 106.743 126.447C106.743 126.702 106.837 126.907 107.026 127.063C107.215 127.219 107.52 127.347 107.941 127.446L109.154 127.724C109.856 127.887 110.38 128.137 110.725 128.475C111.069 128.813 111.242 129.252 111.242 129.793C111.242 130.25 111.109 130.658 110.844 131.016C110.582 131.37 110.216 131.649 109.745 131.851C109.278 132.053 108.736 132.154 108.12 132.154C107.265 132.154 106.567 131.972 106.027 131.607C105.486 131.239 105.155 130.717 105.032 130.041L106.469 129.822C106.559 130.197 106.743 130.48 107.021 130.673C107.299 130.862 107.662 130.956 108.11 130.956C108.597 130.956 108.986 130.855 109.278 130.653C109.57 130.447 109.716 130.197 109.716 129.902C109.716 129.663 109.626 129.463 109.447 129.3C109.271 129.138 109.001 129.015 108.637 128.933L107.344 128.649C106.632 128.487 106.105 128.228 105.763 127.874C105.425 127.519 105.256 127.07 105.256 126.526C105.256 126.076 105.382 125.681 105.634 125.343C105.886 125.005 106.234 124.741 106.678 124.553C107.122 124.36 107.631 124.264 108.204 124.264C109.029 124.264 109.679 124.443 110.153 124.801C110.627 125.156 110.94 125.631 111.093 126.228ZM116.167 132.154C115.415 132.154 114.767 131.993 114.224 131.672C113.683 131.347 113.266 130.891 112.971 130.305C112.679 129.715 112.533 129.024 112.533 128.232C112.533 127.449 112.679 126.76 112.971 126.163C113.266 125.567 113.677 125.101 114.204 124.766C114.734 124.432 115.354 124.264 116.063 124.264C116.494 124.264 116.912 124.335 117.316 124.478C117.72 124.621 118.083 124.844 118.405 125.149C118.726 125.454 118.98 125.85 119.165 126.337C119.351 126.821 119.444 127.41 119.444 128.102V128.629H113.373V127.516H117.987C117.987 127.125 117.907 126.778 117.748 126.477C117.589 126.172 117.366 125.931 117.077 125.756C116.792 125.58 116.457 125.492 116.073 125.492C115.655 125.492 115.291 125.595 114.979 125.8C114.671 126.003 114.432 126.268 114.263 126.596C114.098 126.921 114.015 127.274 114.015 127.655V128.525C114.015 129.035 114.104 129.469 114.283 129.827C114.465 130.185 114.719 130.459 115.044 130.648C115.369 130.833 115.748 130.926 116.182 130.926C116.464 130.926 116.721 130.886 116.953 130.807C117.185 130.724 117.385 130.601 117.555 130.439C117.724 130.277 117.853 130.076 117.942 129.837L119.349 130.091C119.237 130.505 119.034 130.868 118.743 131.18C118.454 131.488 118.091 131.728 117.654 131.901C117.22 132.07 116.724 132.154 116.167 132.154ZM123.952 132.149C123.335 132.149 122.785 131.992 122.301 131.677C121.821 131.359 121.443 130.906 121.168 130.32C120.896 129.73 120.76 129.022 120.76 128.197C120.76 127.371 120.897 126.665 121.173 126.079C121.451 125.492 121.832 125.043 122.316 124.732C122.8 124.42 123.348 124.264 123.962 124.264C124.436 124.264 124.817 124.344 125.105 124.503C125.397 124.659 125.622 124.841 125.781 125.05C125.944 125.259 126.07 125.442 126.159 125.602H126.249V121.818H127.735V132H126.283V130.812H126.159C126.07 130.974 125.94 131.16 125.771 131.369C125.606 131.577 125.377 131.76 125.085 131.915C124.794 132.071 124.416 132.149 123.952 132.149ZM124.28 130.881C124.707 130.881 125.069 130.769 125.364 130.543C125.662 130.315 125.887 129.998 126.04 129.594C126.196 129.189 126.273 128.719 126.273 128.182C126.273 127.652 126.197 127.187 126.045 126.79C125.892 126.392 125.669 126.082 125.374 125.86C125.079 125.638 124.714 125.527 124.28 125.527C123.832 125.527 123.46 125.643 123.161 125.875C122.863 126.107 122.638 126.424 122.485 126.825C122.336 127.226 122.261 127.678 122.261 128.182C122.261 128.692 122.338 129.151 122.49 129.559C122.643 129.967 122.868 130.29 123.166 130.528C123.468 130.764 123.839 130.881 124.28 130.881ZM137.126 124.364V125.557H132.955V124.364H137.126ZM134.074 122.534H135.56V129.758C135.56 130.046 135.603 130.263 135.69 130.409C135.776 130.552 135.887 130.649 136.023 130.702C136.162 130.752 136.313 130.777 136.475 130.777C136.594 130.777 136.699 130.769 136.788 130.752C136.878 130.736 136.947 130.722 136.997 130.712L137.266 131.94C137.179 131.973 137.057 132.007 136.898 132.04C136.739 132.076 136.54 132.096 136.301 132.099C135.91 132.106 135.545 132.036 135.207 131.891C134.869 131.745 134.596 131.519 134.387 131.214C134.178 130.91 134.074 130.527 134.074 130.066V122.534ZM141.98 132.154C141.228 132.154 140.58 131.993 140.036 131.672C139.496 131.347 139.078 130.891 138.783 130.305C138.492 129.715 138.346 129.024 138.346 128.232C138.346 127.449 138.492 126.76 138.783 126.163C139.078 125.567 139.489 125.101 140.016 124.766C140.546 124.432 141.166 124.264 141.876 124.264C142.306 124.264 142.724 124.335 143.128 124.478C143.533 124.621 143.896 124.844 144.217 125.149C144.539 125.454 144.792 125.85 144.978 126.337C145.163 126.821 145.256 127.41 145.256 128.102V128.629H139.186V127.516H143.8C143.8 127.125 143.72 126.778 143.561 126.477C143.402 126.172 143.178 125.931 142.89 125.756C142.605 125.58 142.27 125.492 141.885 125.492C141.468 125.492 141.103 125.595 140.792 125.8C140.483 126.003 140.245 126.268 140.076 126.596C139.91 126.921 139.827 127.274 139.827 127.655V128.525C139.827 129.035 139.917 129.469 140.096 129.827C140.278 130.185 140.532 130.459 140.856 130.648C141.181 130.833 141.561 130.926 141.995 130.926C142.277 130.926 142.533 130.886 142.765 130.807C142.997 130.724 143.198 130.601 143.367 130.439C143.536 130.277 143.665 130.076 143.755 129.837L145.162 130.091C145.049 130.505 144.847 130.868 144.555 131.18C144.267 131.488 143.904 131.728 143.466 131.901C143.032 132.07 142.537 132.154 141.98 132.154ZM149.128 132.169C148.644 132.169 148.206 132.08 147.815 131.901C147.424 131.718 147.114 131.455 146.886 131.11C146.66 130.765 146.548 130.343 146.548 129.842C146.548 129.411 146.63 129.057 146.796 128.778C146.962 128.5 147.186 128.28 147.467 128.117C147.749 127.955 148.064 127.832 148.412 127.749C148.76 127.666 149.115 127.603 149.476 127.56C149.933 127.507 150.304 127.464 150.589 127.431C150.875 127.395 151.082 127.337 151.211 127.257C151.34 127.178 151.405 127.048 151.405 126.869V126.835C151.405 126.4 151.282 126.064 151.037 125.825C150.795 125.587 150.434 125.467 149.953 125.467C149.453 125.467 149.058 125.578 148.77 125.8C148.485 126.019 148.288 126.263 148.178 126.531L146.781 126.213C146.947 125.749 147.189 125.375 147.507 125.089C147.829 124.801 148.198 124.592 148.616 124.463C149.033 124.33 149.473 124.264 149.933 124.264C150.238 124.264 150.561 124.301 150.903 124.374C151.247 124.443 151.569 124.572 151.867 124.761C152.169 124.95 152.416 125.22 152.608 125.572C152.8 125.92 152.896 126.372 152.896 126.929V132H151.445V130.956H151.385C151.289 131.148 151.145 131.337 150.952 131.523C150.76 131.708 150.513 131.862 150.212 131.985C149.91 132.108 149.549 132.169 149.128 132.169ZM149.451 130.976C149.862 130.976 150.213 130.895 150.505 130.732C150.8 130.57 151.024 130.358 151.176 130.096C151.332 129.831 151.41 129.547 151.41 129.246V128.261C151.357 128.314 151.254 128.364 151.102 128.411C150.952 128.454 150.782 128.492 150.589 128.525C150.397 128.555 150.21 128.583 150.028 128.609C149.845 128.633 149.693 128.652 149.57 128.669C149.282 128.705 149.018 128.767 148.78 128.853C148.545 128.939 148.356 129.063 148.213 129.226C148.074 129.385 148.004 129.597 148.004 129.862C148.004 130.23 148.14 130.509 148.412 130.697C148.684 130.883 149.03 130.976 149.451 130.976ZM154.876 132V124.364H156.303V125.607H156.398C156.557 125.186 156.817 124.857 157.178 124.622C157.539 124.384 157.972 124.264 158.476 124.264C158.986 124.264 159.414 124.384 159.758 124.622C160.106 124.861 160.363 125.189 160.529 125.607H160.608C160.791 125.199 161.081 124.874 161.479 124.632C161.876 124.387 162.35 124.264 162.9 124.264C163.593 124.264 164.158 124.481 164.596 124.915C165.037 125.35 165.257 126.004 165.257 126.879V132H163.77V127.018C163.77 126.501 163.63 126.127 163.348 125.895C163.066 125.663 162.73 125.547 162.339 125.547C161.855 125.547 161.479 125.696 161.21 125.994C160.942 126.289 160.807 126.669 160.807 127.133V132H159.326V126.924C159.326 126.51 159.197 126.177 158.938 125.925C158.68 125.673 158.343 125.547 157.929 125.547C157.647 125.547 157.387 125.621 157.148 125.771C156.913 125.916 156.722 126.12 156.577 126.382C156.434 126.644 156.363 126.947 156.363 127.292V132H154.876ZM174.246 132.154C173.493 132.154 172.845 131.993 172.302 131.672C171.761 131.347 171.344 130.891 171.049 130.305C170.757 129.715 170.611 129.024 170.611 128.232C170.611 127.449 170.757 126.76 171.049 126.163C171.344 125.567 171.755 125.101 172.282 124.766C172.812 124.432 173.432 124.264 174.141 124.264C174.572 124.264 174.99 124.335 175.394 124.478C175.798 124.621 176.161 124.844 176.483 125.149C176.804 125.454 177.058 125.85 177.243 126.337C177.429 126.821 177.522 127.41 177.522 128.102V128.629H171.452V127.516H176.065C176.065 127.125 175.986 126.778 175.827 126.477C175.667 126.172 175.444 125.931 175.155 125.756C174.87 125.58 174.536 125.492 174.151 125.492C173.733 125.492 173.369 125.595 173.057 125.8C172.749 126.003 172.51 126.268 172.341 126.596C172.176 126.921 172.093 127.274 172.093 127.655V128.525C172.093 129.035 172.182 129.469 172.361 129.827C172.544 130.185 172.797 130.459 173.122 130.648C173.447 130.833 173.826 130.926 174.26 130.926C174.542 130.926 174.799 130.886 175.031 130.807C175.263 130.724 175.464 130.601 175.633 130.439C175.802 130.277 175.931 130.076 176.02 129.837L177.427 130.091C177.315 130.505 177.113 130.868 176.821 131.18C176.532 131.488 176.17 131.728 175.732 131.901C175.298 132.07 174.802 132.154 174.246 132.154ZM182.805 124.364V125.557H178.49V124.364H182.805ZM179.673 132V123.479C179.673 123.001 179.778 122.605 179.987 122.29C180.195 121.972 180.472 121.735 180.817 121.58C181.161 121.42 181.536 121.341 181.94 121.341C182.239 121.341 182.494 121.366 182.706 121.415C182.918 121.462 183.076 121.505 183.178 121.545L182.83 122.748C182.761 122.728 182.671 122.705 182.562 122.678C182.452 122.648 182.32 122.634 182.164 122.634C181.803 122.634 181.544 122.723 181.388 122.902C181.236 123.081 181.16 123.339 181.16 123.678V132H179.673ZM187.973 124.364V125.557H183.658V124.364H187.973ZM184.841 132V123.479C184.841 123.001 184.946 122.605 185.154 122.29C185.363 121.972 185.64 121.735 185.985 121.58C186.329 121.42 186.704 121.341 187.108 121.341C187.407 121.341 187.662 121.366 187.874 121.415C188.086 121.462 188.243 121.505 188.346 121.545L187.998 122.748C187.929 122.728 187.839 122.705 187.73 122.678C187.62 122.648 187.488 122.634 187.332 122.634C186.971 122.634 186.712 122.723 186.556 122.902C186.404 123.081 186.328 123.339 186.328 123.678V132H184.841ZM189.507 132V124.364H190.994V132H189.507ZM190.258 123.185C189.999 123.185 189.777 123.099 189.592 122.927C189.409 122.751 189.318 122.542 189.318 122.3C189.318 122.055 189.409 121.846 189.592 121.674C189.777 121.498 189.999 121.411 190.258 121.411C190.516 121.411 190.737 121.498 190.919 121.674C191.105 121.846 191.197 122.055 191.197 122.3C191.197 122.542 191.105 122.751 190.919 122.927C190.737 123.099 190.516 123.185 190.258 123.185ZM196.21 132.154C195.471 132.154 194.835 131.987 194.301 131.652C193.771 131.314 193.363 130.848 193.078 130.255C192.793 129.662 192.65 128.982 192.65 128.217C192.65 127.441 192.796 126.757 193.088 126.163C193.38 125.567 193.791 125.101 194.321 124.766C194.851 124.432 195.476 124.264 196.195 124.264C196.775 124.264 197.292 124.372 197.746 124.587C198.2 124.799 198.567 125.098 198.845 125.482C199.127 125.867 199.294 126.316 199.347 126.83H197.9C197.821 126.472 197.639 126.163 197.354 125.905C197.072 125.646 196.694 125.517 196.22 125.517C195.806 125.517 195.443 125.626 195.131 125.845C194.823 126.061 194.583 126.369 194.41 126.77C194.238 127.168 194.152 127.638 194.152 128.182C194.152 128.739 194.236 129.219 194.405 129.624C194.574 130.028 194.813 130.341 195.121 130.563C195.433 130.785 195.799 130.896 196.22 130.896C196.502 130.896 196.757 130.845 196.986 130.742C197.218 130.636 197.412 130.485 197.567 130.29C197.726 130.094 197.837 129.859 197.9 129.584H199.347C199.294 130.078 199.133 130.518 198.865 130.906C198.596 131.294 198.237 131.599 197.786 131.821C197.339 132.043 196.813 132.154 196.21 132.154ZM200.937 132V124.364H202.423V132H200.937ZM201.688 123.185C201.429 123.185 201.207 123.099 201.021 122.927C200.839 122.751 200.748 122.542 200.748 122.3C200.748 122.055 200.839 121.846 201.021 121.674C201.207 121.498 201.429 121.411 201.688 121.411C201.946 121.411 202.166 121.498 202.349 121.674C202.534 121.846 202.627 122.055 202.627 122.3C202.627 122.542 202.534 122.751 202.349 122.927C202.166 123.099 201.946 123.185 201.688 123.185ZM207.714 132.154C206.962 132.154 206.314 131.993 205.77 131.672C205.23 131.347 204.813 130.891 204.518 130.305C204.226 129.715 204.08 129.024 204.08 128.232C204.08 127.449 204.226 126.76 204.518 126.163C204.813 125.567 205.224 125.101 205.751 124.766C206.281 124.432 206.901 124.264 207.61 124.264C208.041 124.264 208.458 124.335 208.863 124.478C209.267 124.621 209.63 124.844 209.952 125.149C210.273 125.454 210.527 125.85 210.712 126.337C210.898 126.821 210.991 127.41 210.991 128.102V128.629H204.92V127.516H209.534C209.534 127.125 209.454 126.778 209.295 126.477C209.136 126.172 208.912 125.931 208.624 125.756C208.339 125.58 208.004 125.492 207.62 125.492C207.202 125.492 206.838 125.595 206.526 125.8C206.218 126.003 205.979 126.268 205.81 126.596C205.644 126.921 205.562 127.274 205.562 127.655V128.525C205.562 129.035 205.651 129.469 205.83 129.827C206.012 130.185 206.266 130.459 206.591 130.648C206.916 130.833 207.295 130.926 207.729 130.926C208.011 130.926 208.268 130.886 208.5 130.807C208.732 130.724 208.932 130.601 209.101 130.439C209.27 130.277 209.4 130.076 209.489 129.837L210.896 130.091C210.783 130.505 210.581 130.868 210.29 131.18C210.001 131.488 209.638 131.728 209.201 131.901C208.767 132.07 208.271 132.154 207.714 132.154ZM214.126 127.466V132H212.64V124.364H214.067V125.607H214.161C214.337 125.202 214.612 124.877 214.987 124.632C215.364 124.387 215.84 124.264 216.413 124.264C216.934 124.264 217.389 124.374 217.781 124.592C218.172 124.808 218.475 125.129 218.69 125.557C218.906 125.984 219.013 126.513 219.013 127.143V132H217.527V127.322C217.527 126.768 217.383 126.336 217.094 126.024C216.806 125.709 216.41 125.552 215.906 125.552C215.562 125.552 215.255 125.626 214.987 125.776C214.721 125.925 214.511 126.143 214.355 126.432C214.203 126.717 214.126 127.062 214.126 127.466ZM224.224 132.154C223.485 132.154 222.848 131.987 222.315 131.652C221.784 131.314 221.377 130.848 221.092 130.255C220.807 129.662 220.664 128.982 220.664 128.217C220.664 127.441 220.81 126.757 221.102 126.163C221.393 125.567 221.804 125.101 222.335 124.766C222.865 124.432 223.49 124.264 224.209 124.264C224.789 124.264 225.306 124.372 225.76 124.587C226.214 124.799 226.58 125.098 226.859 125.482C227.14 125.867 227.308 126.316 227.361 126.83H225.914C225.835 126.472 225.652 126.163 225.367 125.905C225.085 125.646 224.708 125.517 224.234 125.517C223.819 125.517 223.456 125.626 223.145 125.845C222.837 126.061 222.596 126.369 222.424 126.77C222.252 127.168 222.165 127.638 222.165 128.182C222.165 128.739 222.25 129.219 222.419 129.624C222.588 130.028 222.827 130.341 223.135 130.563C223.446 130.785 223.813 130.896 224.234 130.896C224.515 130.896 224.771 130.845 224.999 130.742C225.231 130.636 225.425 130.485 225.581 130.29C225.74 130.094 225.851 129.859 225.914 129.584H227.361C227.308 130.078 227.147 130.518 226.879 130.906C226.61 131.294 226.25 131.599 225.8 131.821C225.352 132.043 224.827 132.154 224.224 132.154ZM229.89 134.864C229.668 134.864 229.466 134.845 229.284 134.809C229.101 134.776 228.965 134.739 228.876 134.7L229.234 133.482C229.506 133.554 229.748 133.586 229.96 133.576C230.172 133.566 230.359 133.487 230.521 133.337C230.687 133.188 230.833 132.945 230.959 132.607L231.143 132.099L228.349 124.364H229.94L231.874 130.29H231.953L233.887 124.364H235.483L232.336 133.019C232.19 133.417 232.005 133.753 231.779 134.028C231.554 134.307 231.285 134.516 230.974 134.655C230.662 134.794 230.301 134.864 229.89 134.864Z" fill="#4B5563"/>
<path d="M52.5037 167.131C52.1027 167.131 51.7364 167.033 51.405 166.837C51.0736 166.638 50.8084 166.373 50.6096 166.042C50.414 165.71 50.3162 165.344 50.3162 164.943C50.3162 164.539 50.414 164.173 50.6096 163.844C50.8084 163.513 51.0736 163.25 51.405 163.054C51.7364 162.855 52.1027 162.756 52.5037 162.756C52.9081 162.756 53.2743 162.855 53.6025 163.054C53.9339 163.25 54.1974 163.513 54.3929 163.844C54.5918 164.173 54.6912 164.539 54.6912 164.943C54.6912 165.344 54.5918 165.71 54.3929 166.042C54.1974 166.373 53.9339 166.638 53.6025 166.837C53.2743 167.033 52.9081 167.131 52.5037 167.131ZM64.1186 169V158.818H67.7479C68.54 158.818 69.1963 158.962 69.7166 159.251C70.237 159.539 70.6264 159.933 70.8849 160.434C71.1435 160.931 71.2727 161.491 71.2727 162.114C71.2727 162.741 71.1418 163.304 70.88 163.805C70.6214 164.302 70.2304 164.696 69.7067 164.988C69.1863 165.276 68.5317 165.42 67.7429 165.42H65.2472V164.118H67.6037C68.1042 164.118 68.5102 164.032 68.8217 163.859C69.1333 163.684 69.362 163.445 69.5078 163.143C69.6536 162.842 69.7266 162.499 69.7266 162.114C69.7266 161.73 69.6536 161.388 69.5078 161.09C69.362 160.792 69.1316 160.558 68.8168 160.389C68.5052 160.22 68.0942 160.136 67.5838 160.136H65.6548V169H64.1186ZM72.9544 169V161.364H74.3912V162.577H74.4707C74.6099 162.166 74.8552 161.843 75.2065 161.607C75.5611 161.369 75.9622 161.249 76.4096 161.249C76.5024 161.249 76.6118 161.253 76.7377 161.259C76.867 161.266 76.9681 161.274 77.041 161.284V162.706C76.9814 162.689 76.8753 162.671 76.7228 162.651C76.5704 162.628 76.4179 162.616 76.2654 162.616C75.9141 162.616 75.6009 162.691 75.3258 162.84C75.054 162.986 74.8386 163.19 74.6795 163.452C74.5204 163.71 74.4409 164.005 74.4409 164.337V169H72.9544ZM81.2706 169.154C80.5547 169.154 79.9299 168.99 79.3963 168.662C78.8627 168.334 78.4484 167.875 78.1534 167.285C77.8584 166.695 77.7109 166.005 77.7109 165.217C77.7109 164.424 77.8584 163.732 78.1534 163.138C78.4484 162.545 78.8627 162.085 79.3963 161.756C79.9299 161.428 80.5547 161.264 81.2706 161.264C81.9865 161.264 82.6113 161.428 83.1449 161.756C83.6785 162.085 84.0928 162.545 84.3878 163.138C84.6828 163.732 84.8303 164.424 84.8303 165.217C84.8303 166.005 84.6828 166.695 84.3878 167.285C84.0928 167.875 83.6785 168.334 83.1449 168.662C82.6113 168.99 81.9865 169.154 81.2706 169.154ZM81.2756 167.906C81.7396 167.906 82.1241 167.784 82.429 167.538C82.7339 167.293 82.9593 166.967 83.1051 166.559C83.2543 166.151 83.3288 165.702 83.3288 165.212C83.3288 164.724 83.2543 164.277 83.1051 163.869C82.9593 163.458 82.7339 163.129 82.429 162.88C82.1241 162.631 81.7396 162.507 81.2756 162.507C80.8082 162.507 80.4205 162.631 80.1122 162.88C79.8073 163.129 79.5803 163.458 79.4311 163.869C79.2853 164.277 79.2124 164.724 79.2124 165.212C79.2124 165.702 79.2853 166.151 79.4311 166.559C79.5803 166.967 79.8073 167.293 80.1122 167.538C80.4205 167.784 80.8082 167.906 81.2756 167.906ZM89.7061 169.154C88.967 169.154 88.3307 168.987 87.7971 168.652C87.2667 168.314 86.8591 167.848 86.574 167.255C86.289 166.662 86.1465 165.982 86.1465 165.217C86.1465 164.441 86.2923 163.757 86.584 163.163C86.8757 162.567 87.2866 162.101 87.8169 161.766C88.3472 161.432 88.972 161.264 89.6912 161.264C90.2712 161.264 90.7883 161.372 91.2424 161.587C91.6964 161.799 92.0627 162.098 92.3411 162.482C92.6228 162.867 92.7902 163.316 92.8432 163.83H91.3965C91.3169 163.472 91.1346 163.163 90.8496 162.905C90.5679 162.646 90.19 162.517 89.7161 162.517C89.3018 162.517 88.9389 162.626 88.6273 162.845C88.3191 163.061 88.0788 163.369 87.9064 163.77C87.7341 164.168 87.6479 164.638 87.6479 165.182C87.6479 165.739 87.7324 166.219 87.9015 166.624C88.0705 167.028 88.3091 167.341 88.6174 167.563C88.9289 167.785 89.2952 167.896 89.7161 167.896C89.9978 167.896 90.253 167.845 90.4817 167.742C90.7137 167.636 90.9076 167.485 91.0634 167.29C91.2225 167.094 91.3335 166.859 91.3965 166.584H92.8432C92.7902 167.078 92.6294 167.518 92.361 167.906C92.0925 168.294 91.7329 168.599 91.2821 168.821C90.8347 169.043 90.3094 169.154 89.7061 169.154ZM97.7241 169.154C96.9717 169.154 96.3237 168.993 95.7802 168.672C95.2399 168.347 94.8223 167.891 94.5273 167.305C94.2357 166.715 94.0898 166.024 94.0898 165.232C94.0898 164.449 94.2357 163.76 94.5273 163.163C94.8223 162.567 95.2333 162.101 95.7603 161.766C96.2906 161.432 96.9104 161.264 97.6197 161.264C98.0505 161.264 98.4682 161.335 98.8725 161.478C99.2769 161.621 99.6398 161.844 99.9613 162.149C100.283 162.454 100.536 162.85 100.722 163.337C100.908 163.821 101 164.41 101 165.102V165.629H94.93V164.516H99.5437C99.5437 164.125 99.4641 163.778 99.305 163.477C99.146 163.172 98.9222 162.931 98.6339 162.756C98.3488 162.58 98.0141 162.492 97.6296 162.492C97.212 162.492 96.8474 162.595 96.5359 162.8C96.2276 163.003 95.989 163.268 95.82 163.596C95.6542 163.921 95.5714 164.274 95.5714 164.655V165.525C95.5714 166.035 95.6609 166.469 95.8398 166.827C96.0221 167.185 96.2757 167.459 96.6005 167.648C96.9253 167.833 97.3048 167.926 97.739 167.926C98.0207 167.926 98.2776 167.886 98.5096 167.807C98.7416 167.724 98.9421 167.601 99.1112 167.439C99.2802 167.277 99.4094 167.076 99.4989 166.837L100.906 167.091C100.793 167.505 100.591 167.868 100.299 168.18C100.011 168.488 99.6481 168.728 99.2106 168.901C98.7764 169.07 98.2809 169.154 97.7241 169.154ZM108.372 163.228L107.025 163.467C106.968 163.294 106.879 163.13 106.756 162.974C106.637 162.819 106.474 162.691 106.269 162.592C106.064 162.492 105.807 162.442 105.498 162.442C105.077 162.442 104.726 162.537 104.444 162.726C104.163 162.911 104.022 163.152 104.022 163.447C104.022 163.702 104.116 163.907 104.305 164.063C104.494 164.219 104.799 164.347 105.22 164.446L106.433 164.724C107.136 164.887 107.659 165.137 108.004 165.475C108.349 165.813 108.521 166.252 108.521 166.793C108.521 167.25 108.389 167.658 108.123 168.016C107.862 168.37 107.495 168.649 107.025 168.851C106.557 169.053 106.015 169.154 105.399 169.154C104.544 169.154 103.846 168.972 103.306 168.607C102.766 168.239 102.434 167.717 102.312 167.041L103.748 166.822C103.838 167.197 104.022 167.48 104.3 167.673C104.579 167.862 104.942 167.956 105.389 167.956C105.876 167.956 106.266 167.855 106.557 167.653C106.849 167.447 106.995 167.197 106.995 166.902C106.995 166.663 106.905 166.463 106.726 166.3C106.551 166.138 106.281 166.015 105.916 165.933L104.623 165.649C103.911 165.487 103.384 165.228 103.042 164.874C102.704 164.519 102.535 164.07 102.535 163.526C102.535 163.076 102.661 162.681 102.913 162.343C103.165 162.005 103.513 161.741 103.957 161.553C104.401 161.36 104.91 161.264 105.483 161.264C106.309 161.264 106.958 161.443 107.432 161.801C107.906 162.156 108.22 162.631 108.372 163.228ZM115.878 163.228L114.531 163.467C114.474 163.294 114.385 163.13 114.262 162.974C114.143 162.819 113.98 162.691 113.775 162.592C113.569 162.492 113.313 162.442 113.004 162.442C112.583 162.442 112.232 162.537 111.95 162.726C111.669 162.911 111.528 163.152 111.528 163.447C111.528 163.702 111.622 163.907 111.811 164.063C112 164.219 112.305 164.347 112.726 164.446L113.939 164.724C114.642 164.887 115.165 165.137 115.51 165.475C115.855 165.813 116.027 166.252 116.027 166.793C116.027 167.25 115.894 167.658 115.629 168.016C115.367 168.37 115.001 168.649 114.531 168.851C114.063 169.053 113.521 169.154 112.905 169.154C112.05 169.154 111.352 168.972 110.812 168.607C110.272 168.239 109.94 167.717 109.817 167.041L111.254 166.822C111.344 167.197 111.528 167.48 111.806 167.673C112.085 167.862 112.447 167.956 112.895 167.956C113.382 167.956 113.772 167.855 114.063 167.653C114.355 167.447 114.501 167.197 114.501 166.902C114.501 166.663 114.411 166.463 114.232 166.3C114.057 166.138 113.786 166.015 113.422 165.933L112.129 165.649C111.417 165.487 110.89 165.228 110.548 164.874C110.21 164.519 110.041 164.07 110.041 163.526C110.041 163.076 110.167 162.681 110.419 162.343C110.671 162.005 111.019 161.741 111.463 161.553C111.907 161.36 112.416 161.264 112.989 161.264C113.815 161.264 114.464 161.443 114.938 161.801C115.412 162.156 115.725 162.631 115.878 163.228ZM123.589 169.169C123.105 169.169 122.667 169.08 122.276 168.901C121.885 168.718 121.575 168.455 121.347 168.11C121.121 167.765 121.009 167.343 121.009 166.842C121.009 166.411 121.091 166.057 121.257 165.778C121.423 165.5 121.647 165.28 121.928 165.117C122.21 164.955 122.525 164.832 122.873 164.749C123.221 164.666 123.576 164.603 123.937 164.56C124.394 164.507 124.765 164.464 125.05 164.431C125.335 164.395 125.543 164.337 125.672 164.257C125.801 164.178 125.866 164.048 125.866 163.869V163.835C125.866 163.4 125.743 163.064 125.498 162.825C125.256 162.587 124.895 162.467 124.414 162.467C123.914 162.467 123.519 162.578 123.231 162.8C122.946 163.019 122.749 163.263 122.639 163.531L121.242 163.213C121.408 162.749 121.65 162.375 121.968 162.089C122.29 161.801 122.659 161.592 123.077 161.463C123.494 161.33 123.933 161.264 124.394 161.264C124.699 161.264 125.022 161.301 125.364 161.374C125.708 161.443 126.03 161.572 126.328 161.761C126.63 161.95 126.877 162.22 127.069 162.572C127.261 162.92 127.357 163.372 127.357 163.929V169H125.906V167.956H125.846C125.75 168.148 125.606 168.337 125.413 168.523C125.221 168.708 124.974 168.862 124.673 168.985C124.371 169.108 124.01 169.169 123.589 169.169ZM123.912 167.976C124.323 167.976 124.674 167.895 124.966 167.732C125.261 167.57 125.485 167.358 125.637 167.096C125.793 166.831 125.871 166.547 125.871 166.246V165.261C125.818 165.314 125.715 165.364 125.562 165.411C125.413 165.454 125.243 165.492 125.05 165.525C124.858 165.555 124.671 165.583 124.489 165.609C124.306 165.633 124.154 165.652 124.031 165.669C123.743 165.705 123.479 165.767 123.241 165.853C123.005 165.939 122.817 166.063 122.674 166.226C122.535 166.385 122.465 166.597 122.465 166.862C122.465 167.23 122.601 167.509 122.873 167.697C123.145 167.883 123.491 167.976 123.912 167.976ZM134.175 165.833V161.364H135.666V169H134.204V167.678H134.125C133.949 168.085 133.667 168.425 133.28 168.697C132.895 168.965 132.416 169.099 131.843 169.099C131.352 169.099 130.918 168.992 130.54 168.776C130.166 168.558 129.871 168.234 129.655 167.807C129.443 167.379 129.337 166.851 129.337 166.221V161.364H130.824V166.042C130.824 166.562 130.968 166.977 131.256 167.285C131.545 167.593 131.919 167.747 132.38 167.747C132.658 167.747 132.935 167.678 133.21 167.538C133.488 167.399 133.719 167.189 133.901 166.907C134.087 166.625 134.178 166.267 134.175 165.833ZM141.228 161.364V162.557H137.057V161.364H141.228ZM138.175 159.534H139.662V166.758C139.662 167.046 139.705 167.263 139.791 167.409C139.877 167.552 139.988 167.649 140.124 167.702C140.263 167.752 140.414 167.777 140.577 167.777C140.696 167.777 140.8 167.769 140.89 167.752C140.979 167.736 141.049 167.722 141.099 167.712L141.367 168.94C141.281 168.973 141.158 169.007 140.999 169.04C140.84 169.076 140.641 169.096 140.403 169.099C140.012 169.106 139.647 169.036 139.309 168.891C138.971 168.745 138.697 168.519 138.489 168.214C138.28 167.91 138.175 167.527 138.175 167.066V159.534ZM146.007 169.154C145.291 169.154 144.666 168.99 144.133 168.662C143.599 168.334 143.185 167.875 142.89 167.285C142.595 166.695 142.447 166.005 142.447 165.217C142.447 164.424 142.595 163.732 142.89 163.138C143.185 162.545 143.599 162.085 144.133 161.756C144.666 161.428 145.291 161.264 146.007 161.264C146.723 161.264 147.348 161.428 147.881 161.756C148.415 162.085 148.829 162.545 149.124 163.138C149.419 163.732 149.567 164.424 149.567 165.217C149.567 166.005 149.419 166.695 149.124 167.285C148.829 167.875 148.415 168.334 147.881 168.662C147.348 168.99 146.723 169.154 146.007 169.154ZM146.012 167.906C146.476 167.906 146.86 167.784 147.165 167.538C147.47 167.293 147.696 166.967 147.841 166.559C147.991 166.151 148.065 165.702 148.065 165.212C148.065 164.724 147.991 164.277 147.841 163.869C147.696 163.458 147.47 163.129 147.165 162.88C146.86 162.631 146.476 162.507 146.012 162.507C145.545 162.507 145.157 162.631 144.849 162.88C144.544 163.129 144.317 163.458 144.167 163.869C144.022 164.277 143.949 164.724 143.949 165.212C143.949 165.702 144.022 166.151 144.167 166.559C144.317 166.967 144.544 167.293 144.849 167.538C145.157 167.784 145.545 167.906 146.012 167.906ZM151.226 169V161.364H152.653V162.607H152.747C152.906 162.186 153.166 161.857 153.528 161.622C153.889 161.384 154.321 161.264 154.825 161.264C155.336 161.264 155.763 161.384 156.108 161.622C156.456 161.861 156.713 162.189 156.879 162.607H156.958C157.14 162.199 157.43 161.874 157.828 161.632C158.226 161.387 158.7 161.264 159.25 161.264C159.943 161.264 160.508 161.481 160.945 161.915C161.386 162.35 161.607 163.004 161.607 163.879V169H160.12V164.018C160.12 163.501 159.979 163.127 159.697 162.895C159.416 162.663 159.079 162.547 158.688 162.547C158.204 162.547 157.828 162.696 157.56 162.994C157.291 163.289 157.157 163.669 157.157 164.133V169H155.675V163.924C155.675 163.51 155.546 163.177 155.288 162.925C155.029 162.673 154.693 162.547 154.278 162.547C153.997 162.547 153.737 162.621 153.498 162.771C153.263 162.916 153.072 163.12 152.926 163.382C152.784 163.644 152.712 163.947 152.712 164.292V169H151.226ZM165.821 169.169C165.337 169.169 164.9 169.08 164.509 168.901C164.118 168.718 163.808 168.455 163.579 168.11C163.354 167.765 163.241 167.343 163.241 166.842C163.241 166.411 163.324 166.057 163.49 165.778C163.655 165.5 163.879 165.28 164.161 165.117C164.442 164.955 164.757 164.832 165.105 164.749C165.453 164.666 165.808 164.603 166.169 164.56C166.627 164.507 166.998 164.464 167.283 164.431C167.568 164.395 167.775 164.337 167.904 164.257C168.034 164.178 168.098 164.048 168.098 163.869V163.835C168.098 163.4 167.976 163.064 167.73 162.825C167.488 162.587 167.127 162.467 166.646 162.467C166.146 162.467 165.752 162.578 165.463 162.8C165.178 163.019 164.981 163.263 164.872 163.531L163.475 163.213C163.64 162.749 163.882 162.375 164.2 162.089C164.522 161.801 164.892 161.592 165.309 161.463C165.727 161.33 166.166 161.264 166.627 161.264C166.932 161.264 167.255 161.301 167.596 161.374C167.941 161.443 168.262 161.572 168.561 161.761C168.862 161.95 169.109 162.22 169.301 162.572C169.494 162.92 169.59 163.372 169.59 163.929V169H168.138V167.956H168.078C167.982 168.148 167.838 168.337 167.646 168.523C167.454 168.708 167.207 168.862 166.905 168.985C166.603 169.108 166.242 169.169 165.821 169.169ZM166.144 167.976C166.555 167.976 166.907 167.895 167.198 167.732C167.493 167.57 167.717 167.358 167.869 167.096C168.025 166.831 168.103 166.547 168.103 166.246V165.261C168.05 165.314 167.947 165.364 167.795 165.411C167.646 165.454 167.475 165.492 167.283 165.525C167.091 165.555 166.903 165.583 166.721 165.609C166.539 165.633 166.386 165.652 166.264 165.669C165.975 165.705 165.712 165.767 165.473 165.853C165.238 165.939 165.049 166.063 164.906 166.226C164.767 166.385 164.698 166.597 164.698 166.862C164.698 167.23 164.834 167.509 165.105 167.697C165.377 167.883 165.723 167.976 166.144 167.976ZM175.134 161.364V162.557H170.963V161.364H175.134ZM172.082 159.534H173.568V166.758C173.568 167.046 173.611 167.263 173.697 167.409C173.784 167.552 173.895 167.649 174.031 167.702C174.17 167.752 174.321 167.777 174.483 167.777C174.602 167.777 174.707 167.769 174.796 167.752C174.886 167.736 174.955 167.722 175.005 167.712L175.273 168.94C175.187 168.973 175.065 169.007 174.906 169.04C174.746 169.076 174.548 169.096 174.309 169.099C173.918 169.106 173.553 169.036 173.215 168.891C172.877 168.745 172.604 168.519 172.395 168.214C172.186 167.91 172.082 167.527 172.082 167.066V159.534ZM176.779 169V161.364H178.265V169H176.779ZM177.529 160.185C177.271 160.185 177.049 160.099 176.863 159.927C176.681 159.751 176.59 159.542 176.59 159.3C176.59 159.055 176.681 158.846 176.863 158.674C177.049 158.498 177.271 158.411 177.529 158.411C177.788 158.411 178.008 158.498 178.191 158.674C178.376 158.846 178.469 159.055 178.469 159.3C178.469 159.542 178.376 159.751 178.191 159.927C178.008 160.099 177.788 160.185 177.529 160.185ZM183.482 169.154C182.766 169.154 182.141 168.99 181.607 168.662C181.074 168.334 180.659 167.875 180.364 167.285C180.069 166.695 179.922 166.005 179.922 165.217C179.922 164.424 180.069 163.732 180.364 163.138C180.659 162.545 181.074 162.085 181.607 161.756C182.141 161.428 182.766 161.264 183.482 161.264C184.197 161.264 184.822 161.428 185.356 161.756C185.889 162.085 186.304 162.545 186.599 163.138C186.894 163.732 187.041 164.424 187.041 165.217C187.041 166.005 186.894 166.695 186.599 167.285C186.304 167.875 185.889 168.334 185.356 168.662C184.822 168.99 184.197 169.154 183.482 169.154ZM183.487 167.906C183.951 167.906 184.335 167.784 184.64 167.538C184.945 167.293 185.17 166.967 185.316 166.559C185.465 166.151 185.54 165.702 185.54 165.212C185.54 164.724 185.465 164.277 185.316 163.869C185.17 163.458 184.945 163.129 184.64 162.88C184.335 162.631 183.951 162.507 183.487 162.507C183.019 162.507 182.631 162.631 182.323 162.88C182.018 163.129 181.791 163.458 181.642 163.869C181.496 164.277 181.423 164.724 181.423 165.212C181.423 165.702 181.496 166.151 181.642 166.559C181.791 166.967 182.018 167.293 182.323 167.538C182.631 167.784 183.019 167.906 183.487 167.906ZM190.187 164.466V169H188.7V161.364H190.127V162.607H190.222C190.397 162.202 190.673 161.877 191.047 161.632C191.425 161.387 191.901 161.264 192.474 161.264C192.994 161.264 193.45 161.374 193.841 161.592C194.232 161.808 194.535 162.129 194.751 162.557C194.966 162.984 195.074 163.513 195.074 164.143V169H193.588V164.322C193.588 163.768 193.443 163.336 193.155 163.024C192.867 162.709 192.471 162.552 191.967 162.552C191.622 162.552 191.316 162.626 191.047 162.776C190.782 162.925 190.571 163.143 190.416 163.432C190.263 163.717 190.187 164.062 190.187 164.466Z" fill="#4B5563"/>
</svg>
