<svg width="40" height="41" viewBox="0 0 40 41" fill="none" xmlns="http://www.w3.org/2000/svg">
<rect x="4.24219" y="9.15918" width="31.5152" height="24.2424" fill="#E5E7EB"/>
<path d="M36.6673 12.5742V29.2409C36.6673 30.346 36.2283 31.4058 35.4469 32.1872C34.6655 32.9686 33.6057 33.4076 32.5006 33.4076H7.50065C6.39558 33.4076 5.33577 32.9686 4.55437 32.1872C3.77297 31.4058 3.33398 30.346 3.33398 29.2409V12.5742" stroke="#4B5563" stroke-width="2.5" stroke-linecap="round" stroke-linejoin="round"/>
<path d="M36.6673 12.5739C36.6673 11.4688 36.2283 10.409 35.4469 9.62762C34.6655 8.84621 33.6057 8.40723 32.5006 8.40723H7.50065C6.39558 8.40723 5.33577 8.84621 4.55437 9.62762C3.77297 10.409 3.33398 11.4688 3.33398 12.5739L17.7923 21.6017C18.4545 22.0156 19.2197 22.235 20.0007 22.235C20.7816 22.235 21.5468 22.0156 22.209 21.6017L36.6673 12.5739Z" stroke="#4B5563" stroke-width="2.5" stroke-linecap="round" stroke-linejoin="round"/>
</svg>
