<svg width="24" height="24" viewBox="0 0 24 24" fill="none" xmlns="http://www.w3.org/2000/svg">
<ellipse cx="12.151" cy="11.8484" rx="8.89034" ry="8.88993" transform="rotate(-1.65378 12.151 11.8484)" fill="#E5E7EB"/>
<path d="M12.0017 12.6109C12.3392 12.6109 12.6128 12.3373 12.6128 11.9998C12.6128 11.6623 12.3392 11.3887 12.0017 11.3887C11.6642 11.3887 11.3906 11.6623 11.3906 11.9998C11.3906 12.3373 11.6642 12.6109 12.0017 12.6109Z" fill="#374151" stroke="#374151" stroke-width="2" stroke-linecap="round" stroke-linejoin="round"/>
<path d="M3.44444 12C3.44444 13.1235 3.66574 14.2361 4.0957 15.2741C4.52565 16.3121 5.15585 17.2552 5.95031 18.0497C6.74477 18.8441 7.68792 19.4743 8.72593 19.9043C9.76394 20.3343 10.8765 20.5556 12 20.5556M3.44444 12C3.44444 10.8765 3.66574 9.76394 4.0957 8.72593C4.52565 7.68792 5.15585 6.74477 5.95031 5.95031C6.74477 5.15585 7.68792 4.52565 8.72593 4.0957C9.76394 3.66574 10.8765 3.44444 12 3.44444M3.44444 12H1M12 20.5556C13.1235 20.5556 14.2361 20.3343 15.2741 19.9043C16.3121 19.4743 17.2552 18.8441 18.0497 18.0497C18.8441 17.2552 19.4743 16.3121 19.9043 15.2741C20.3343 14.2361 20.5556 13.1235 20.5556 12M12 20.5556V23M20.5556 12C20.5556 10.8765 20.3343 9.76394 19.9043 8.72593C19.4743 7.68792 18.8441 6.74477 18.0497 5.95031C17.2552 5.15585 16.3121 4.52565 15.2741 4.0957C14.2361 3.66574 13.1235 3.44444 12 3.44444M20.5556 12H23M12 3.44444V1" stroke="#374151" stroke-width="2" stroke-linecap="round" stroke-linejoin="round"/>
</svg>
