<svg width="268" height="209" viewBox="0 0 268 209" fill="none" xmlns="http://www.w3.org/2000/svg">
<rect width="268" height="209" fill="white"/>
<path d="M28.36 47V33H33.98C35.4333 33 36.54 33.34 37.3 34.02C38.0733 34.6867 38.46 35.5467 38.46 36.6C38.46 37.48 38.22 38.1867 37.74 38.72C37.2733 39.24 36.7 39.5933 36.02 39.78C36.82 39.94 37.48 40.34 38 40.98C38.52 41.6067 38.78 42.34 38.78 43.18C38.78 44.2867 38.38 45.2 37.58 45.92C36.78 46.64 35.6467 47 34.18 47H28.36ZM30.92 38.88H33.6C34.32 38.88 34.8733 38.7133 35.26 38.38C35.6467 38.0467 35.84 37.5733 35.84 36.96C35.84 36.3733 35.6467 35.9133 35.26 35.58C34.8867 35.2333 34.32 35.06 33.56 35.06H30.92V38.88ZM30.92 44.92H33.78C34.54 44.92 35.1267 44.7467 35.54 44.4C35.9667 44.04 36.18 43.54 36.18 42.9C36.18 42.2467 35.96 41.7333 35.52 41.36C35.08 40.9867 34.4867 40.8 33.74 40.8H30.92V44.92ZM44.2372 47.24C42.9972 47.24 42.0372 46.8533 41.3572 46.08C40.6905 45.3067 40.3572 44.1733 40.3572 42.68V37.08H42.8972V42.44C42.8972 43.2933 43.0705 43.9467 43.4172 44.4C43.7639 44.8533 44.3105 45.08 45.0572 45.08C45.7639 45.08 46.3439 44.8267 46.7972 44.32C47.2639 43.8133 47.4972 43.1067 47.4972 42.2V37.08H50.0572V47H47.7972L47.5972 45.32C47.2905 45.9067 46.8439 46.3733 46.2572 46.72C45.6839 47.0667 45.0105 47.24 44.2372 47.24ZM53.5252 51.4L55.8252 46.34H55.2252L51.3652 37.08H54.1452L56.9252 44.06L59.8252 37.08H62.5452L56.2452 51.4H53.5252ZM65.1987 35.54C64.7321 35.54 64.3454 35.4 64.0387 35.12C63.7454 34.84 63.5987 34.4867 63.5987 34.06C63.5987 33.6333 63.7454 33.2867 64.0387 33.02C64.3454 32.74 64.7321 32.6 65.1987 32.6C65.6654 32.6 66.0454 32.74 66.3387 33.02C66.6454 33.2867 66.7987 33.6333 66.7987 34.06C66.7987 34.4867 66.6454 34.84 66.3387 35.12C66.0454 35.4 65.6654 35.54 65.1987 35.54ZM63.9187 47V37.08H66.4787V47H63.9187ZM68.7508 47V37.08H71.0108L71.2108 38.76C71.5174 38.1733 71.9574 37.7067 72.5308 37.36C73.1174 37.0133 73.8041 36.84 74.5908 36.84C75.8175 36.84 76.7708 37.2267 77.4508 38C78.1308 38.7733 78.4708 39.9067 78.4708 41.4V47H75.9108V41.64C75.9108 40.7867 75.7374 40.1333 75.3908 39.68C75.0441 39.2267 74.5041 39 73.7708 39C73.0508 39 72.4574 39.2533 71.9908 39.76C71.5374 40.2667 71.3108 40.9733 71.3108 41.88V47H68.7508ZM84.7188 44.04C84.2388 44.04 83.7921 43.9867 83.3788 43.88L82.6388 44.62C82.8654 44.74 83.1721 44.84 83.5588 44.92C83.9454 45 84.5721 45.08 85.4388 45.16C86.7588 45.28 87.7188 45.5933 88.3188 46.1C88.9188 46.6067 89.2188 47.3067 89.2188 48.2C89.2188 48.7867 89.0588 49.34 88.7388 49.86C88.4188 50.3933 87.9254 50.82 87.2588 51.14C86.5921 51.4733 85.7388 51.64 84.6988 51.64C83.2854 51.64 82.1454 51.3733 81.2788 50.84C80.4121 50.32 79.9788 49.5333 79.9788 48.48C79.9788 47.5867 80.4121 46.8133 81.2788 46.16C81.0121 46.04 80.7788 45.9133 80.5788 45.78C80.3921 45.6467 80.2254 45.5067 80.0788 45.36V44.9L81.8188 43.06C81.0454 42.38 80.6588 41.5067 80.6588 40.44C80.6588 39.7733 80.8188 39.1667 81.1388 38.62C81.4721 38.0733 81.9388 37.64 82.5388 37.32C83.1388 37 83.8654 36.84 84.7188 36.84C85.2788 36.84 85.7988 36.92 86.2788 37.08H90.0388V38.64L88.3388 38.76C88.6054 39.2667 88.7388 39.8267 88.7388 40.44C88.7388 41.1067 88.5788 41.7133 88.2588 42.26C87.9388 42.8067 87.4721 43.24 86.8588 43.56C86.2588 43.88 85.5454 44.04 84.7188 44.04ZM84.7188 42.08C85.2388 42.08 85.6654 41.94 85.9988 41.66C86.3454 41.38 86.5188 40.98 86.5188 40.46C86.5188 39.94 86.3454 39.54 85.9988 39.26C85.6654 38.98 85.2388 38.84 84.7188 38.84C84.1721 38.84 83.7321 38.98 83.3988 39.26C83.0654 39.54 82.8988 39.94 82.8988 40.46C82.8988 40.98 83.0654 41.38 83.3988 41.66C83.7321 41.94 84.1721 42.08 84.7188 42.08ZM82.3188 48.22C82.3188 48.7133 82.5454 49.08 82.9988 49.32C83.4654 49.5733 84.0321 49.7 84.6988 49.7C85.3388 49.7 85.8588 49.5667 86.2588 49.3C86.6588 49.0467 86.8588 48.7 86.8588 48.26C86.8588 47.9 86.7254 47.6 86.4588 47.36C86.2054 47.12 85.6921 46.9733 84.9188 46.92C84.3721 46.88 83.8654 46.82 83.3988 46.74C83.0121 46.9533 82.7321 47.1867 82.5588 47.44C82.3988 47.6933 82.3188 47.9533 82.3188 48.22ZM95.9311 47V33H100.711C102.351 33 103.698 33.2933 104.751 33.88C105.818 34.4533 106.604 35.2667 107.111 36.32C107.631 37.36 107.891 38.5867 107.891 40C107.891 41.4133 107.631 42.6467 107.111 43.7C106.604 44.74 105.818 45.5533 104.751 46.14C103.698 46.7133 102.351 47 100.711 47H95.9311ZM98.4911 44.8H100.591C101.764 44.8 102.691 44.6133 103.371 44.24C104.051 43.8533 104.538 43.3067 104.831 42.6C105.124 41.88 105.271 41.0133 105.271 40C105.271 39 105.124 38.14 104.831 37.42C104.538 36.7 104.051 36.1467 103.371 35.76C102.691 35.3733 101.764 35.18 100.591 35.18H98.4911V44.8ZM114.51 47.24C113.51 47.24 112.623 47.0267 111.85 46.6C111.077 46.1733 110.47 45.5733 110.03 44.8C109.59 44.0267 109.37 43.1333 109.37 42.12C109.37 41.0933 109.583 40.18 110.01 39.38C110.45 38.58 111.05 37.96 111.81 37.52C112.583 37.0667 113.49 36.84 114.53 36.84C115.503 36.84 116.363 37.0533 117.11 37.48C117.857 37.9067 118.437 38.4933 118.85 39.24C119.277 39.9733 119.49 40.7933 119.49 41.7C119.49 41.8467 119.483 42 119.47 42.16C119.47 42.32 119.463 42.4867 119.45 42.66H111.91C111.963 43.4333 112.23 44.04 112.71 44.48C113.203 44.92 113.797 45.14 114.49 45.14C115.01 45.14 115.443 45.0267 115.79 44.8C116.15 44.56 116.417 44.2533 116.59 43.88H119.19C119.003 44.5067 118.69 45.08 118.25 45.6C117.823 46.1067 117.29 46.5067 116.65 46.8C116.023 47.0933 115.31 47.24 114.51 47.24ZM114.53 38.92C113.903 38.92 113.35 39.1 112.87 39.46C112.39 39.8067 112.083 40.34 111.95 41.06H116.89C116.85 40.4067 116.61 39.8867 116.17 39.5C115.73 39.1133 115.183 38.92 114.53 38.92ZM126.103 47.24C125.09 47.24 124.196 47.02 123.423 46.58C122.65 46.14 122.036 45.5267 121.583 44.74C121.143 43.9533 120.923 43.0533 120.923 42.04C120.923 41.0267 121.143 40.1267 121.583 39.34C122.036 38.5533 122.65 37.94 123.423 37.5C124.196 37.06 125.09 36.84 126.103 36.84C127.37 36.84 128.436 37.1733 129.303 37.84C130.17 38.4933 130.723 39.4 130.963 40.56H128.263C128.13 40.08 127.863 39.7067 127.463 39.44C127.076 39.16 126.616 39.02 126.083 39.02C125.376 39.02 124.776 39.2867 124.283 39.82C123.79 40.3533 123.543 41.0933 123.543 42.04C123.543 42.9867 123.79 43.7267 124.283 44.26C124.776 44.7933 125.376 45.06 126.083 45.06C126.616 45.06 127.076 44.9267 127.463 44.66C127.863 44.3933 128.13 44.0133 128.263 43.52H130.963C130.723 44.64 130.17 45.54 129.303 46.22C128.436 46.9 127.37 47.24 126.103 47.24ZM134.215 35.54C133.748 35.54 133.362 35.4 133.055 35.12C132.762 34.84 132.615 34.4867 132.615 34.06C132.615 33.6333 132.762 33.2867 133.055 33.02C133.362 32.74 133.748 32.6 134.215 32.6C134.682 32.6 135.062 32.74 135.355 33.02C135.662 33.2867 135.815 33.6333 135.815 34.06C135.815 34.4867 135.662 34.84 135.355 35.12C135.062 35.4 134.682 35.54 134.215 35.54ZM132.935 47V37.08H135.495V47H132.935ZM141.867 47.24C140.987 47.24 140.214 47.1 139.547 46.82C138.881 46.5267 138.347 46.1267 137.947 45.62C137.547 45.1133 137.307 44.5267 137.227 43.86H139.807C139.887 44.2467 140.101 44.58 140.447 44.86C140.807 45.1267 141.267 45.26 141.827 45.26C142.387 45.26 142.794 45.1467 143.047 44.92C143.314 44.6933 143.447 44.4333 143.447 44.14C143.447 43.7133 143.261 43.4267 142.887 43.28C142.514 43.12 141.994 42.9667 141.327 42.82C140.901 42.7267 140.467 42.6133 140.027 42.48C139.587 42.3467 139.181 42.18 138.807 41.98C138.447 41.7667 138.154 41.5 137.927 41.18C137.701 40.8467 137.587 40.44 137.587 39.96C137.587 39.08 137.934 38.34 138.627 37.74C139.334 37.14 140.321 36.84 141.587 36.84C142.761 36.84 143.694 37.1133 144.387 37.66C145.094 38.2067 145.514 38.96 145.647 39.92H143.227C143.081 39.1867 142.527 38.82 141.567 38.82C141.087 38.82 140.714 38.9133 140.447 39.1C140.194 39.2867 140.067 39.52 140.067 39.8C140.067 40.0933 140.261 40.3267 140.647 40.5C141.034 40.6733 141.547 40.8333 142.187 40.98C142.881 41.14 143.514 41.32 144.087 41.52C144.674 41.7067 145.141 41.9933 145.487 42.38C145.834 42.7533 146.007 43.2933 146.007 44C146.021 44.6133 145.861 45.1667 145.527 45.66C145.194 46.1533 144.714 46.54 144.087 46.82C143.461 47.1 142.721 47.24 141.867 47.24ZM149.255 35.54C148.788 35.54 148.402 35.4 148.095 35.12C147.802 34.84 147.655 34.4867 147.655 34.06C147.655 33.6333 147.802 33.2867 148.095 33.02C148.402 32.74 148.788 32.6 149.255 32.6C149.722 32.6 150.102 32.74 150.395 33.02C150.702 33.2867 150.855 33.6333 150.855 34.06C150.855 34.4867 150.702 34.84 150.395 35.12C150.102 35.4 149.722 35.54 149.255 35.54ZM147.975 47V37.08H150.535V47H147.975ZM157.567 47.24C156.607 47.24 155.74 47.02 154.967 46.58C154.207 46.14 153.6 45.5333 153.147 44.76C152.707 43.9733 152.487 43.0667 152.487 42.04C152.487 41.0133 152.714 40.1133 153.167 39.34C153.62 38.5533 154.227 37.94 154.987 37.5C155.76 37.06 156.627 36.84 157.587 36.84C158.534 36.84 159.387 37.06 160.147 37.5C160.92 37.94 161.527 38.5533 161.967 39.34C162.42 40.1133 162.647 41.0133 162.647 42.04C162.647 43.0667 162.42 43.9733 161.967 44.76C161.527 45.5333 160.92 46.14 160.147 46.58C159.374 47.02 158.514 47.24 157.567 47.24ZM157.567 45.02C158.234 45.02 158.814 44.7733 159.307 44.28C159.8 43.7733 160.047 43.0267 160.047 42.04C160.047 41.0533 159.8 40.3133 159.307 39.82C158.814 39.3133 158.24 39.06 157.587 39.06C156.907 39.06 156.32 39.3133 155.827 39.82C155.347 40.3133 155.107 41.0533 155.107 42.04C155.107 43.0267 155.347 43.7733 155.827 44.28C156.32 44.7733 156.9 45.02 157.567 45.02ZM164.536 47V37.08H166.796L166.996 38.76C167.303 38.1733 167.743 37.7067 168.316 37.36C168.903 37.0133 169.589 36.84 170.376 36.84C171.603 36.84 172.556 37.2267 173.236 38C173.916 38.7733 174.256 39.9067 174.256 41.4V47H171.696V41.64C171.696 40.7867 171.523 40.1333 171.176 39.68C170.829 39.2267 170.289 39 169.556 39C168.836 39 168.243 39.2533 167.776 39.76C167.323 40.2667 167.096 40.9733 167.096 41.88V47H164.536ZM180.73 47V33H185.91C187.03 33 187.956 33.1867 188.69 33.56C189.423 33.9333 189.97 34.4467 190.33 35.1C190.69 35.7533 190.87 36.4867 190.87 37.3C190.87 38.0733 190.696 38.7867 190.35 39.44C190.003 40.08 189.463 40.6 188.73 41C187.996 41.3867 187.056 41.58 185.91 41.58H183.29V47H180.73ZM183.29 39.5H185.75C186.643 39.5 187.283 39.3067 187.67 38.92C188.07 38.52 188.27 37.98 188.27 37.3C188.27 36.6067 188.07 36.0667 187.67 35.68C187.283 35.28 186.643 35.08 185.75 35.08H183.29V39.5ZM196.73 47.24C195.73 47.24 194.843 47.0267 194.07 46.6C193.297 46.1733 192.69 45.5733 192.25 44.8C191.81 44.0267 191.59 43.1333 191.59 42.12C191.59 41.0933 191.803 40.18 192.23 39.38C192.67 38.58 193.27 37.96 194.03 37.52C194.803 37.0667 195.71 36.84 196.75 36.84C197.723 36.84 198.583 37.0533 199.33 37.48C200.077 37.9067 200.657 38.4933 201.07 39.24C201.497 39.9733 201.71 40.7933 201.71 41.7C201.71 41.8467 201.703 42 201.69 42.16C201.69 42.32 201.683 42.4867 201.67 42.66H194.13C194.183 43.4333 194.45 44.04 194.93 44.48C195.423 44.92 196.017 45.14 196.71 45.14C197.23 45.14 197.663 45.0267 198.01 44.8C198.37 44.56 198.637 44.2533 198.81 43.88H201.41C201.223 44.5067 200.91 45.08 200.47 45.6C200.043 46.1067 199.51 46.5067 198.87 46.8C198.243 47.0933 197.53 47.24 196.73 47.24ZM196.75 38.92C196.123 38.92 195.57 39.1 195.09 39.46C194.61 39.8067 194.303 40.34 194.17 41.06H199.11C199.07 40.4067 198.83 39.8867 198.39 39.5C197.95 39.1133 197.403 38.92 196.75 38.92ZM208.283 47.24C207.283 47.24 206.397 47.0267 205.623 46.6C204.85 46.1733 204.243 45.5733 203.803 44.8C203.363 44.0267 203.143 43.1333 203.143 42.12C203.143 41.0933 203.357 40.18 203.783 39.38C204.223 38.58 204.823 37.96 205.583 37.52C206.357 37.0667 207.263 36.84 208.303 36.84C209.277 36.84 210.137 37.0533 210.883 37.48C211.63 37.9067 212.21 38.4933 212.623 39.24C213.05 39.9733 213.263 40.7933 213.263 41.7C213.263 41.8467 213.257 42 213.243 42.16C213.243 42.32 213.237 42.4867 213.223 42.66H205.683C205.737 43.4333 206.003 44.04 206.483 44.48C206.977 44.92 207.57 45.14 208.263 45.14C208.783 45.14 209.217 45.0267 209.563 44.8C209.923 44.56 210.19 44.2533 210.363 43.88H212.963C212.777 44.5067 212.463 45.08 212.023 45.6C211.597 46.1067 211.063 46.5067 210.423 46.8C209.797 47.0933 209.083 47.24 208.283 47.24ZM208.303 38.92C207.677 38.92 207.123 39.1 206.643 39.46C206.163 39.8067 205.857 40.34 205.723 41.06H210.663C210.623 40.4067 210.383 39.8867 209.943 39.5C209.503 39.1133 208.957 38.92 208.303 38.92ZM215.016 47V37.08H217.296L217.536 38.94C217.896 38.3 218.383 37.7933 218.996 37.42C219.623 37.0333 220.356 36.84 221.196 36.84V39.54H220.476C219.916 39.54 219.416 39.6267 218.976 39.8C218.536 39.9733 218.19 40.2733 217.936 40.7C217.696 41.1267 217.576 41.72 217.576 42.48V47H215.016ZM226.646 47.24C225.766 47.24 224.993 47.1 224.326 46.82C223.659 46.5267 223.126 46.1267 222.726 45.62C222.326 45.1133 222.086 44.5267 222.006 43.86H224.586C224.666 44.2467 224.879 44.58 225.226 44.86C225.586 45.1267 226.046 45.26 226.606 45.26C227.166 45.26 227.573 45.1467 227.826 44.92C228.093 44.6933 228.226 44.4333 228.226 44.14C228.226 43.7133 228.039 43.4267 227.666 43.28C227.293 43.12 226.773 42.9667 226.106 42.82C225.679 42.7267 225.246 42.6133 224.806 42.48C224.366 42.3467 223.959 42.18 223.586 41.98C223.226 41.7667 222.933 41.5 222.706 41.18C222.479 40.8467 222.366 40.44 222.366 39.96C222.366 39.08 222.713 38.34 223.406 37.74C224.113 37.14 225.099 36.84 226.366 36.84C227.539 36.84 228.473 37.1133 229.166 37.66C229.873 38.2067 230.293 38.96 230.426 39.92H228.006C227.859 39.1867 227.306 38.82 226.346 38.82C225.866 38.82 225.493 38.9133 225.226 39.1C224.973 39.2867 224.846 39.52 224.846 39.8C224.846 40.0933 225.039 40.3267 225.426 40.5C225.813 40.6733 226.326 40.8333 226.966 40.98C227.659 41.14 228.293 41.32 228.866 41.52C229.453 41.7067 229.919 41.9933 230.266 42.38C230.613 42.7533 230.786 43.2933 230.786 44C230.799 44.6133 230.639 45.1667 230.306 45.66C229.973 46.1533 229.493 46.54 228.866 46.82C228.239 47.1 227.499 47.24 226.646 47.24Z" fill="#1F2937"/>
<path d="M49.6717 92.1307C49.2707 92.1307 48.9044 92.0329 48.573 91.8374C48.2415 91.6385 47.9764 91.3733 47.7775 91.0419C47.582 90.7105 47.4842 90.3442 47.4842 89.9432C47.4842 89.5388 47.582 89.1726 47.7775 88.8445C47.9764 88.513 48.2415 88.2495 48.573 88.054C48.9044 87.8551 49.2707 87.7557 49.6717 87.7557C50.0761 87.7557 50.4423 87.8551 50.7704 88.054C51.1019 88.2495 51.3654 88.513 51.5609 88.8445C51.7598 89.1726 51.8592 89.5388 51.8592 89.9432C51.8592 90.3442 51.7598 90.7105 51.5609 91.0419C51.3654 91.3733 51.1019 91.6385 50.7704 91.8374C50.4423 92.0329 50.0761 92.1307 49.6717 92.1307ZM62.1765 83.8182L65.0103 92.1108H65.1246L67.9585 83.8182H69.619L65.9549 94H64.18L60.516 83.8182H62.1765ZM71.0893 94V83.8182H74.7186C75.5107 83.8182 76.167 83.9624 76.6873 84.2507C77.2077 84.5391 77.5971 84.9335 77.8556 85.4339C78.1142 85.9311 78.2434 86.4912 78.2434 87.1143C78.2434 87.7408 78.1125 88.3042 77.8507 88.8047C77.5922 89.3018 77.2011 89.6963 76.6774 89.9879C76.157 90.2763 75.5024 90.4205 74.7136 90.4205H72.2179V89.1179H74.5744C75.0749 89.1179 75.4809 89.0317 75.7924 88.8594C76.104 88.6837 76.3327 88.4451 76.4785 88.1435C76.6243 87.8419 76.6973 87.4988 76.6973 87.1143C76.6973 86.7299 76.6243 86.3885 76.4785 86.0902C76.3327 85.7919 76.1023 85.5582 75.7875 85.3892C75.4759 85.2202 75.0649 85.1357 74.5545 85.1357H72.6255V94H71.0893ZM86.8468 94.1541C86.1309 94.1541 85.5061 93.9901 84.9725 93.6619C84.4389 93.3338 84.0246 92.8748 83.7296 92.2848C83.4346 91.6948 83.2871 91.0054 83.2871 90.2166C83.2871 89.4245 83.4346 88.7318 83.7296 88.1385C84.0246 87.5452 84.4389 87.0845 84.9725 86.7564C85.5061 86.4283 86.1309 86.2642 86.8468 86.2642C87.5627 86.2642 88.1874 86.4283 88.7211 86.7564C89.2547 87.0845 89.669 87.5452 89.964 88.1385C90.2589 88.7318 90.4064 89.4245 90.4064 90.2166C90.4064 91.0054 90.2589 91.6948 89.964 92.2848C89.669 92.8748 89.2547 93.3338 88.7211 93.6619C88.1874 93.9901 87.5627 94.1541 86.8468 94.1541ZM86.8517 92.9062C87.3158 92.9062 87.7002 92.7836 88.0051 92.5384C88.3101 92.2931 88.5355 91.9666 88.6813 91.5589C88.8304 91.1513 88.905 90.7022 88.905 90.2116C88.905 89.7244 88.8304 89.277 88.6813 88.8693C88.5355 88.4583 88.3101 88.1286 88.0051 87.88C87.7002 87.6314 87.3158 87.5071 86.8517 87.5071C86.3844 87.5071 85.9966 87.6314 85.6884 87.88C85.3835 88.1286 85.1564 88.4583 85.0073 88.8693C84.8614 89.277 84.7885 89.7244 84.7885 90.2116C84.7885 90.7022 84.8614 91.1513 85.0073 91.5589C85.1564 91.9666 85.3835 92.2931 85.6884 92.5384C85.9966 92.7836 86.3844 92.9062 86.8517 92.9062ZM95.6999 86.3636V87.5568H91.3846V86.3636H95.6999ZM92.5678 94V85.4787C92.5678 85.0014 92.6722 84.6053 92.881 84.2905C93.0898 83.9723 93.3666 83.7353 93.7113 83.5795C94.056 83.4205 94.4305 83.3409 94.8349 83.3409C95.1332 83.3409 95.3884 83.3658 95.6005 83.4155C95.8126 83.4619 95.9701 83.505 96.0728 83.5447L95.7248 84.7479C95.6552 84.728 95.5657 84.7048 95.4563 84.6783C95.3469 84.6484 95.2144 84.6335 95.0586 84.6335C94.6973 84.6335 94.4388 84.723 94.283 84.902C94.1306 85.081 94.0543 85.3395 94.0543 85.6776V94H92.5678ZM102.594 83.8182V94H101.058V83.8182H102.594ZM104.329 85.1406V83.8182H112.209V85.1406H109.032V94H107.501V85.1406H104.329Z" fill="#4B5563"/>
<path d="M49.9305 165.131C49.5294 165.131 49.1632 165.033 48.8318 164.837C48.5003 164.638 48.2352 164.373 48.0363 164.042C47.8408 163.71 47.743 163.344 47.743 162.943C47.743 162.539 47.8408 162.173 48.0363 161.844C48.2352 161.513 48.5003 161.25 48.8318 161.054C49.1632 160.855 49.5294 160.756 49.9305 160.756C50.3348 160.756 50.7011 160.855 51.0292 161.054C51.3606 161.25 51.6241 161.513 51.8197 161.844C52.0186 162.173 52.118 162.539 52.118 162.943C52.118 163.344 52.0186 163.71 51.8197 164.042C51.6241 164.373 51.3606 164.638 51.0292 164.837C50.7011 165.033 50.3348 165.131 49.9305 165.131ZM62.4353 156.818L65.2691 165.111H65.3834L68.2172 156.818H69.8778L66.2137 167H64.4388L60.7748 156.818H62.4353ZM71.3481 167V156.818H74.9774C75.7695 156.818 76.4258 156.962 76.9461 157.251C77.4665 157.539 77.8559 157.933 78.1144 158.434C78.373 158.931 78.5022 159.491 78.5022 160.114C78.5022 160.741 78.3713 161.304 78.1095 161.805C77.8509 162.302 77.4598 162.696 76.9362 162.988C76.4158 163.276 75.7612 163.42 74.9724 163.42H72.4767V162.118H74.8332C75.3337 162.118 75.7397 162.032 76.0512 161.859C76.3628 161.684 76.5915 161.445 76.7373 161.143C76.8831 160.842 76.9561 160.499 76.9561 160.114C76.9561 159.73 76.8831 159.388 76.7373 159.09C76.5915 158.792 76.3611 158.558 76.0463 158.389C75.7347 158.22 75.3237 158.136 74.8133 158.136H72.8843V167H71.3481ZM83.5061 158.141V156.818H91.3861V158.141H88.2093V167H86.678V158.141H83.5061ZM95.1919 167.154C94.4395 167.154 93.7915 166.993 93.248 166.672C92.7077 166.347 92.2901 165.891 91.9951 165.305C91.7035 164.715 91.5576 164.024 91.5576 163.232C91.5576 162.449 91.7035 161.76 91.9951 161.163C92.2901 160.567 92.7011 160.101 93.2281 159.766C93.7584 159.432 94.3782 159.264 95.0874 159.264C95.5183 159.264 95.9359 159.335 96.3403 159.478C96.7446 159.621 97.1076 159.844 97.4291 160.149C97.7506 160.454 98.0041 160.85 98.1897 161.337C98.3753 161.821 98.4681 162.41 98.4681 163.102V163.629H92.3978V162.516H97.0115C97.0115 162.125 96.9319 161.778 96.7728 161.477C96.6137 161.172 96.39 160.931 96.1017 160.756C95.8166 160.58 95.4819 160.492 95.0974 160.492C94.6798 160.492 94.3152 160.595 94.0036 160.8C93.6954 161.003 93.4568 161.268 93.2877 161.596C93.122 161.921 93.0392 162.274 93.0392 162.655V163.525C93.0392 164.035 93.1286 164.469 93.3076 164.827C93.4899 165.185 93.7435 165.459 94.0683 165.648C94.3931 165.833 94.7726 165.926 95.2068 165.926C95.4885 165.926 95.7454 165.886 95.9774 165.807C96.2094 165.724 96.4099 165.601 96.5789 165.439C96.748 165.277 96.8772 165.076 96.9667 164.837L98.3737 165.091C98.261 165.505 98.0588 165.868 97.7671 166.18C97.4788 166.488 97.1159 166.728 96.6784 166.901C96.2442 167.07 95.7487 167.154 95.1919 167.154ZM101.604 156.818V167H100.117V156.818H101.604ZM106.895 167.154C106.143 167.154 105.495 166.993 104.951 166.672C104.411 166.347 103.993 165.891 103.698 165.305C103.407 164.715 103.261 164.024 103.261 163.232C103.261 162.449 103.407 161.76 103.698 161.163C103.993 160.567 104.404 160.101 104.931 159.766C105.461 159.432 106.081 159.264 106.791 159.264C107.221 159.264 107.639 159.335 108.043 159.478C108.448 159.621 108.811 159.844 109.132 160.149C109.454 160.454 109.707 160.85 109.893 161.337C110.078 161.821 110.171 162.41 110.171 163.102V163.629H104.101V162.516H108.715C108.715 162.125 108.635 161.778 108.476 161.477C108.317 161.172 108.093 160.931 107.805 160.756C107.52 160.58 107.185 160.492 106.801 160.492C106.383 160.492 106.018 160.595 105.707 160.8C105.399 161.003 105.16 161.268 104.991 161.596C104.825 161.921 104.742 162.274 104.742 162.655V163.525C104.742 164.035 104.832 164.469 105.011 164.827C105.193 165.185 105.447 165.459 105.771 165.648C106.096 165.833 106.476 165.926 106.91 165.926C107.192 165.926 107.448 165.886 107.68 165.807C107.912 165.724 108.113 165.601 108.282 165.439C108.451 165.277 108.58 165.076 108.67 164.837L110.077 165.091C109.964 165.505 109.762 165.868 109.47 166.18C109.182 166.488 108.819 166.728 108.381 166.901C107.947 167.07 107.452 167.154 106.895 167.154ZM115.037 167.154C114.298 167.154 113.662 166.987 113.128 166.652C112.598 166.314 112.19 165.848 111.905 165.255C111.62 164.662 111.478 163.982 111.478 163.217C111.478 162.441 111.623 161.757 111.915 161.163C112.207 160.567 112.618 160.101 113.148 159.766C113.678 159.432 114.303 159.264 115.022 159.264C115.602 159.264 116.119 159.372 116.573 159.587C117.027 159.799 117.394 160.098 117.672 160.482C117.954 160.867 118.121 161.316 118.174 161.83H116.728C116.648 161.472 116.466 161.163 116.181 160.905C115.899 160.646 115.521 160.517 115.047 160.517C114.633 160.517 114.27 160.626 113.958 160.845C113.65 161.061 113.41 161.369 113.237 161.77C113.065 162.168 112.979 162.638 112.979 163.182C112.979 163.739 113.063 164.219 113.233 164.624C113.402 165.028 113.64 165.341 113.948 165.563C114.26 165.785 114.626 165.896 115.047 165.896C115.329 165.896 115.584 165.845 115.813 165.742C116.045 165.636 116.239 165.485 116.394 165.29C116.554 165.094 116.665 164.859 116.728 164.584H118.174C118.121 165.078 117.96 165.518 117.692 165.906C117.424 166.294 117.064 166.599 116.613 166.821C116.166 167.043 115.64 167.154 115.037 167.154ZM122.981 167.154C122.265 167.154 121.64 166.99 121.106 166.662C120.573 166.334 120.158 165.875 119.863 165.285C119.568 164.695 119.421 164.005 119.421 163.217C119.421 162.424 119.568 161.732 119.863 161.138C120.158 160.545 120.573 160.085 121.106 159.756C121.64 159.428 122.265 159.264 122.981 159.264C123.696 159.264 124.321 159.428 124.855 159.756C125.388 160.085 125.803 160.545 126.098 161.138C126.393 161.732 126.54 162.424 126.54 163.217C126.54 164.005 126.393 164.695 126.098 165.285C125.803 165.875 125.388 166.334 124.855 166.662C124.321 166.99 123.696 167.154 122.981 167.154ZM122.986 165.906C123.45 165.906 123.834 165.784 124.139 165.538C124.444 165.293 124.669 164.967 124.815 164.559C124.964 164.151 125.039 163.702 125.039 163.212C125.039 162.724 124.964 162.277 124.815 161.869C124.669 161.458 124.444 161.129 124.139 160.88C123.834 160.631 123.45 160.507 122.986 160.507C122.518 160.507 122.13 160.631 121.822 160.88C121.517 161.129 121.29 161.458 121.141 161.869C120.995 162.277 120.922 162.724 120.922 163.212C120.922 163.702 120.995 164.151 121.141 164.559C121.29 164.967 121.517 165.293 121.822 165.538C122.13 165.784 122.518 165.906 122.986 165.906ZM128.199 167V159.364H129.626V160.607H129.721C129.88 160.186 130.14 159.857 130.501 159.622C130.863 159.384 131.295 159.264 131.799 159.264C132.309 159.264 132.737 159.384 133.082 159.622C133.43 159.861 133.686 160.189 133.852 160.607H133.932C134.114 160.199 134.404 159.874 134.802 159.632C135.199 159.387 135.673 159.264 136.224 159.264C136.916 159.264 137.481 159.481 137.919 159.915C138.36 160.35 138.58 161.004 138.58 161.879V167H137.094V162.018C137.094 161.501 136.953 161.127 136.671 160.895C136.389 160.663 136.053 160.547 135.662 160.547C135.178 160.547 134.802 160.696 134.533 160.994C134.265 161.289 134.131 161.669 134.131 162.133V167H132.649V161.924C132.649 161.51 132.52 161.177 132.261 160.925C132.003 160.673 131.666 160.547 131.252 160.547C130.97 160.547 130.71 160.621 130.472 160.771C130.236 160.916 130.046 161.12 129.9 161.382C129.757 161.644 129.686 161.947 129.686 162.292V167H128.199Z" fill="#4B5563"/>
<path d="M49.7899 128.131C49.3888 128.131 49.0226 128.033 48.6911 127.837C48.3597 127.638 48.0945 127.373 47.8957 127.042C47.7001 126.71 47.6024 126.344 47.6024 125.943C47.6024 125.539 47.7001 125.173 47.8957 124.844C48.0945 124.513 48.3597 124.25 48.6911 124.054C49.0226 123.855 49.3888 123.756 49.7899 123.756C50.1942 123.756 50.5605 123.855 50.8886 124.054C51.22 124.25 51.4835 124.513 51.6791 124.844C51.8779 125.173 51.9774 125.539 51.9774 125.943C51.9774 126.344 51.8779 126.71 51.6791 127.042C51.4835 127.373 51.22 127.638 50.8886 127.837C50.5605 128.033 50.1942 128.131 49.7899 128.131ZM62.2947 119.818L65.1285 128.111H65.2428L68.0766 119.818H69.7371L66.0731 130H64.2982L60.6341 119.818H62.2947ZM71.2075 130V119.818H74.8367C75.6289 119.818 76.2851 119.962 76.8055 120.251C77.3258 120.539 77.7153 120.933 77.9738 121.434C78.2323 121.931 78.3616 122.491 78.3616 123.114C78.3616 123.741 78.2307 124.304 77.9688 124.805C77.7103 125.302 77.3192 125.696 76.7955 125.988C76.2752 126.276 75.6206 126.42 74.8318 126.42H72.336V125.118H74.6926C75.193 125.118 75.599 125.032 75.9106 124.859C76.2222 124.684 76.4508 124.445 76.5967 124.143C76.7425 123.842 76.8154 123.499 76.8154 123.114C76.8154 122.73 76.7425 122.388 76.5967 122.09C76.4508 121.792 76.2205 121.558 75.9056 121.389C75.5941 121.22 75.1831 121.136 74.6727 121.136H72.7437V130H71.2075ZM92.3243 123.129H90.7732C90.7135 122.798 90.6025 122.506 90.4401 122.254C90.2777 122.002 90.0788 121.789 89.8435 121.613C89.6082 121.437 89.3447 121.305 89.053 121.215C88.7646 121.126 88.4581 121.081 88.1333 121.081C87.5466 121.081 87.0213 121.228 86.5573 121.523C86.0966 121.818 85.732 122.251 85.4635 122.821C85.1984 123.391 85.0658 124.087 85.0658 124.909C85.0658 125.738 85.1984 126.437 85.4635 127.007C85.732 127.577 86.0982 128.008 86.5622 128.3C87.0262 128.591 87.5483 128.737 88.1283 128.737C88.4498 128.737 88.7547 128.694 89.0431 128.608C89.3347 128.518 89.5982 128.388 89.8335 128.215C90.0689 128.043 90.2677 127.832 90.4301 127.584C90.5959 127.332 90.7102 127.044 90.7732 126.719L92.3243 126.724C92.2414 127.224 92.0807 127.685 91.8421 128.106C91.6067 128.523 91.3035 128.885 90.9323 129.19C90.5644 129.491 90.1434 129.725 89.6695 129.891C89.1955 130.056 88.6785 130.139 88.1183 130.139C87.2367 130.139 86.4512 129.93 85.7618 129.513C85.0724 129.092 84.5289 128.49 84.1311 127.708C83.7367 126.926 83.5395 125.993 83.5395 124.909C83.5395 123.822 83.7384 122.889 84.1361 122.11C84.5338 121.328 85.0774 120.728 85.7668 120.31C86.4562 119.889 87.24 119.679 88.1183 119.679C88.6586 119.679 89.1624 119.757 89.6297 119.913C90.1003 120.065 90.5229 120.29 90.8975 120.589C91.272 120.884 91.5819 121.245 91.8271 121.673C92.0724 122.097 92.2381 122.582 92.3243 123.129ZM98.8806 126.833V122.364H100.372V130H98.9104V128.678H98.8309C98.6552 129.085 98.3735 129.425 97.9857 129.697C97.6012 129.965 97.1223 130.099 96.5489 130.099C96.0584 130.099 95.6242 129.992 95.2464 129.776C94.8718 129.558 94.5769 129.234 94.3614 128.807C94.1493 128.379 94.0432 127.851 94.0432 127.221V122.364H95.5297V127.042C95.5297 127.562 95.6739 127.977 95.9623 128.285C96.2506 128.593 96.6251 128.747 97.0858 128.747C97.3643 128.747 97.641 128.678 97.9161 128.538C98.1945 128.399 98.4249 128.189 98.6072 127.907C98.7928 127.625 98.8839 127.267 98.8806 126.833ZM108.092 124.228L106.744 124.467C106.688 124.294 106.599 124.13 106.476 123.974C106.357 123.819 106.194 123.691 105.989 123.592C105.783 123.492 105.526 123.442 105.218 123.442C104.797 123.442 104.446 123.537 104.164 123.726C103.882 123.911 103.742 124.152 103.742 124.447C103.742 124.702 103.836 124.907 104.025 125.063C104.214 125.219 104.519 125.347 104.94 125.446L106.153 125.724C106.855 125.887 107.379 126.137 107.724 126.475C108.069 126.813 108.241 127.252 108.241 127.793C108.241 128.25 108.108 128.658 107.843 129.016C107.581 129.37 107.215 129.649 106.744 129.851C106.277 130.053 105.735 130.154 105.119 130.154C104.264 130.154 103.566 129.972 103.026 129.607C102.485 129.239 102.154 128.717 102.031 128.041L103.468 127.822C103.558 128.197 103.742 128.48 104.02 128.673C104.298 128.862 104.661 128.956 105.109 128.956C105.596 128.956 105.985 128.855 106.277 128.653C106.569 128.447 106.715 128.197 106.715 127.902C106.715 127.663 106.625 127.463 106.446 127.3C106.27 127.138 106 127.015 105.636 126.933L104.343 126.649C103.631 126.487 103.104 126.228 102.762 125.874C102.424 125.519 102.255 125.07 102.255 124.526C102.255 124.076 102.381 123.681 102.633 123.343C102.885 123.005 103.233 122.741 103.677 122.553C104.121 122.36 104.63 122.264 105.203 122.264C106.028 122.264 106.678 122.443 107.152 122.801C107.626 123.156 107.939 123.631 108.092 124.228ZM113.44 122.364V123.557H109.269V122.364H113.44ZM110.387 120.534H111.874V127.758C111.874 128.046 111.917 128.263 112.003 128.409C112.089 128.552 112.2 128.649 112.336 128.702C112.475 128.752 112.626 128.777 112.789 128.777C112.908 128.777 113.012 128.769 113.102 128.752C113.191 128.736 113.261 128.722 113.311 128.712L113.579 129.94C113.493 129.973 113.37 130.007 113.211 130.04C113.052 130.076 112.853 130.096 112.615 130.099C112.224 130.106 111.859 130.036 111.521 129.891C111.183 129.745 110.909 129.519 110.701 129.214C110.492 128.91 110.387 128.527 110.387 128.066V120.534ZM118.219 130.154C117.503 130.154 116.878 129.99 116.345 129.662C115.811 129.334 115.397 128.875 115.102 128.285C114.807 127.695 114.659 127.005 114.659 126.217C114.659 125.424 114.807 124.732 115.102 124.138C115.397 123.545 115.811 123.085 116.345 122.756C116.878 122.428 117.503 122.264 118.219 122.264C118.935 122.264 119.56 122.428 120.093 122.756C120.627 123.085 121.041 123.545 121.336 124.138C121.631 124.732 121.778 125.424 121.778 126.217C121.778 127.005 121.631 127.695 121.336 128.285C121.041 128.875 120.627 129.334 120.093 129.662C119.56 129.99 118.935 130.154 118.219 130.154ZM118.224 128.906C118.688 128.906 119.072 128.784 119.377 128.538C119.682 128.293 119.908 127.967 120.053 127.559C120.203 127.151 120.277 126.702 120.277 126.212C120.277 125.724 120.203 125.277 120.053 124.869C119.908 124.458 119.682 124.129 119.377 123.88C119.072 123.631 118.688 123.507 118.224 123.507C117.756 123.507 117.369 123.631 117.06 123.88C116.756 124.129 116.528 124.458 116.379 124.869C116.234 125.277 116.161 125.724 116.161 126.212C116.161 126.702 116.234 127.151 116.379 127.559C116.528 127.967 116.756 128.293 117.06 128.538C117.369 128.784 117.756 128.906 118.224 128.906ZM123.438 130V122.364H124.865V123.607H124.959C125.118 123.186 125.378 122.857 125.74 122.622C126.101 122.384 126.533 122.264 127.037 122.264C127.548 122.264 127.975 122.384 128.32 122.622C128.668 122.861 128.925 123.189 129.09 123.607H129.17C129.352 123.199 129.642 122.874 130.04 122.632C130.438 122.387 130.912 122.264 131.462 122.264C132.155 122.264 132.72 122.481 133.157 122.915C133.598 123.35 133.818 124.004 133.818 124.879V130H132.332V125.018C132.332 124.501 132.191 124.127 131.909 123.895C131.628 123.663 131.291 123.547 130.9 123.547C130.416 123.547 130.04 123.696 129.772 123.994C129.503 124.289 129.369 124.669 129.369 125.133V130H127.887V124.924C127.887 124.51 127.758 124.177 127.5 123.925C127.241 123.673 126.905 123.547 126.49 123.547C126.209 123.547 125.948 123.621 125.71 123.771C125.474 123.916 125.284 124.12 125.138 124.382C124.996 124.644 124.924 124.947 124.924 125.292V130H123.438ZM139.102 130.154C138.35 130.154 137.702 129.993 137.158 129.672C136.618 129.347 136.2 128.891 135.905 128.305C135.614 127.715 135.468 127.024 135.468 126.232C135.468 125.449 135.614 124.76 135.905 124.163C136.2 123.567 136.611 123.101 137.138 122.766C137.669 122.432 138.288 122.264 138.998 122.264C139.428 122.264 139.846 122.335 140.25 122.478C140.655 122.621 141.018 122.844 141.339 123.149C141.661 123.454 141.914 123.85 142.1 124.337C142.285 124.821 142.378 125.41 142.378 126.102V126.629H136.308V125.516H140.922C140.922 125.125 140.842 124.778 140.683 124.477C140.524 124.172 140.3 123.931 140.012 123.756C139.727 123.58 139.392 123.492 139.008 123.492C138.59 123.492 138.225 123.595 137.914 123.8C137.606 124.003 137.367 124.268 137.198 124.596C137.032 124.921 136.949 125.274 136.949 125.655V126.525C136.949 127.035 137.039 127.469 137.218 127.827C137.4 128.185 137.654 128.459 137.978 128.648C138.303 128.833 138.683 128.926 139.117 128.926C139.399 128.926 139.656 128.886 139.888 128.807C140.12 128.724 140.32 128.601 140.489 128.439C140.658 128.277 140.787 128.076 140.877 127.837L142.284 128.091C142.171 128.505 141.969 128.868 141.677 129.18C141.389 129.488 141.026 129.728 140.589 129.901C140.154 130.07 139.659 130.154 139.102 130.154ZM144.028 130V122.364H145.464V123.577H145.544C145.683 123.166 145.928 122.843 146.28 122.607C146.634 122.369 147.035 122.249 147.483 122.249C147.576 122.249 147.685 122.253 147.811 122.259C147.94 122.266 148.041 122.274 148.114 122.284V123.706C148.055 123.689 147.949 123.671 147.796 123.651C147.644 123.628 147.491 123.616 147.339 123.616C146.987 123.616 146.674 123.691 146.399 123.84C146.127 123.986 145.912 124.19 145.753 124.452C145.594 124.71 145.514 125.005 145.514 125.337V130H144.028ZM153.225 130V119.818H159.609V121.141H154.761V124.243H159.275V125.56H154.761V128.678H159.668V130H153.225ZM162.715 122.364L164.4 125.337L166.1 122.364H167.726L165.345 126.182L167.746 130H166.12L164.4 127.146L162.685 130H161.054L163.43 126.182L161.084 122.364H162.715ZM169.252 132.864V122.364H170.704V123.602H170.828C170.914 123.442 171.039 123.259 171.201 123.05C171.363 122.841 171.589 122.659 171.877 122.503C172.166 122.344 172.547 122.264 173.021 122.264C173.637 122.264 174.187 122.42 174.671 122.732C175.155 123.043 175.535 123.492 175.81 124.079C176.088 124.665 176.227 125.371 176.227 126.197C176.227 127.022 176.09 127.73 175.815 128.32C175.54 128.906 175.162 129.359 174.681 129.677C174.201 129.992 173.652 130.149 173.036 130.149C172.572 130.149 172.192 130.071 171.897 129.915C171.605 129.76 171.377 129.577 171.211 129.369C171.045 129.16 170.918 128.974 170.828 128.812H170.739V132.864H169.252ZM170.709 126.182C170.709 126.719 170.787 127.189 170.943 127.594C171.098 127.998 171.324 128.315 171.619 128.543C171.914 128.769 172.275 128.881 172.703 128.881C173.147 128.881 173.518 128.764 173.816 128.528C174.114 128.29 174.34 127.967 174.492 127.559C174.648 127.151 174.726 126.692 174.726 126.182C174.726 125.678 174.65 125.226 174.497 124.825C174.348 124.424 174.123 124.107 173.821 123.875C173.523 123.643 173.15 123.527 172.703 123.527C172.272 123.527 171.907 123.638 171.609 123.86C171.314 124.082 171.09 124.392 170.938 124.79C170.785 125.187 170.709 125.652 170.709 126.182ZM181.184 130.154C180.432 130.154 179.784 129.993 179.24 129.672C178.7 129.347 178.282 128.891 177.987 128.305C177.696 127.715 177.55 127.024 177.55 126.232C177.55 125.449 177.696 124.76 177.987 124.163C178.282 123.567 178.693 123.101 179.22 122.766C179.751 122.432 180.37 122.264 181.08 122.264C181.511 122.264 181.928 122.335 182.332 122.478C182.737 122.621 183.1 122.844 183.421 123.149C183.743 123.454 183.996 123.85 184.182 124.337C184.368 124.821 184.46 125.41 184.46 126.102V126.629H178.39V125.516H183.004C183.004 125.125 182.924 124.778 182.765 124.477C182.606 124.172 182.382 123.931 182.094 123.756C181.809 123.58 181.474 123.492 181.09 123.492C180.672 123.492 180.307 123.595 179.996 123.8C179.688 124.003 179.449 124.268 179.28 124.596C179.114 124.921 179.031 125.274 179.031 125.655V126.525C179.031 127.035 179.121 127.469 179.3 127.827C179.482 128.185 179.736 128.459 180.06 128.648C180.385 128.833 180.765 128.926 181.199 128.926C181.481 128.926 181.738 128.886 181.97 128.807C182.202 128.724 182.402 128.601 182.571 128.439C182.74 128.277 182.869 128.076 182.959 127.837L184.366 128.091C184.253 128.505 184.051 128.868 183.759 129.18C183.471 129.488 183.108 129.728 182.671 129.901C182.236 130.07 181.741 130.154 181.184 130.154ZM186.11 130V122.364H187.546V123.577H187.626C187.765 123.166 188.01 122.843 188.362 122.607C188.716 122.369 189.117 122.249 189.565 122.249C189.658 122.249 189.767 122.253 189.893 122.259C190.022 122.266 190.123 122.274 190.196 122.284V123.706C190.137 123.689 190.031 123.671 189.878 123.651C189.726 123.628 189.573 123.616 189.421 123.616C189.069 123.616 188.756 123.691 188.481 123.84C188.209 123.986 187.994 124.19 187.835 124.452C187.676 124.71 187.596 125.005 187.596 125.337V130H186.11ZM191.483 130V122.364H192.969V130H191.483ZM192.233 121.185C191.975 121.185 191.753 121.099 191.567 120.927C191.385 120.751 191.294 120.542 191.294 120.3C191.294 120.055 191.385 119.846 191.567 119.674C191.753 119.498 191.975 119.411 192.233 119.411C192.492 119.411 192.712 119.498 192.895 119.674C193.08 119.846 193.173 120.055 193.173 120.3C193.173 120.542 193.08 120.751 192.895 120.927C192.712 121.099 192.492 121.185 192.233 121.185ZM198.26 130.154C197.508 130.154 196.86 129.993 196.316 129.672C195.776 129.347 195.358 128.891 195.063 128.305C194.772 127.715 194.626 127.024 194.626 126.232C194.626 125.449 194.772 124.76 195.063 124.163C195.358 123.567 195.769 123.101 196.296 122.766C196.827 122.432 197.447 122.264 198.156 122.264C198.587 122.264 199.004 122.335 199.409 122.478C199.813 122.621 200.176 122.844 200.497 123.149C200.819 123.454 201.072 123.85 201.258 124.337C201.444 124.821 201.536 125.41 201.536 126.102V126.629H195.466V125.516H200.08C200.08 125.125 200 124.778 199.841 124.477C199.682 124.172 199.458 123.931 199.17 123.756C198.885 123.58 198.55 123.492 198.166 123.492C197.748 123.492 197.384 123.595 197.072 123.8C196.764 124.003 196.525 124.268 196.356 124.596C196.19 124.921 196.108 125.274 196.108 125.655V126.525C196.108 127.035 196.197 127.469 196.376 127.827C196.558 128.185 196.812 128.459 197.137 128.648C197.461 128.833 197.841 128.926 198.275 128.926C198.557 128.926 198.814 128.886 199.046 128.807C199.278 128.724 199.478 128.601 199.647 128.439C199.816 128.277 199.946 128.076 200.035 127.837L201.442 128.091C201.329 128.505 201.127 128.868 200.835 129.18C200.547 129.488 200.184 129.728 199.747 129.901C199.313 130.07 198.817 130.154 198.26 130.154ZM204.672 125.466V130H203.186V122.364H204.613V123.607H204.707C204.883 123.202 205.158 122.877 205.532 122.632C205.91 122.387 206.386 122.264 206.959 122.264C207.48 122.264 207.935 122.374 208.326 122.592C208.718 122.808 209.021 123.129 209.236 123.557C209.452 123.984 209.559 124.513 209.559 125.143V130H208.073V125.322C208.073 124.768 207.929 124.336 207.64 124.024C207.352 123.709 206.956 123.552 206.452 123.552C206.107 123.552 205.801 123.626 205.532 123.776C205.267 123.925 205.057 124.143 204.901 124.432C204.749 124.717 204.672 125.062 204.672 125.466ZM214.77 130.154C214.031 130.154 213.394 129.987 212.861 129.652C212.33 129.314 211.923 128.848 211.638 128.255C211.352 127.662 211.21 126.982 211.21 126.217C211.21 125.441 211.356 124.757 211.647 124.163C211.939 123.567 212.35 123.101 212.88 122.766C213.411 122.432 214.035 122.264 214.755 122.264C215.335 122.264 215.852 122.372 216.306 122.587C216.76 122.799 217.126 123.098 217.405 123.482C217.686 123.867 217.854 124.316 217.907 124.83H216.46C216.38 124.472 216.198 124.163 215.913 123.905C215.631 123.646 215.254 123.517 214.78 123.517C214.365 123.517 214.002 123.626 213.691 123.845C213.383 124.061 213.142 124.369 212.97 124.77C212.798 125.168 212.711 125.638 212.711 126.182C212.711 126.739 212.796 127.219 212.965 127.624C213.134 128.028 213.373 128.341 213.681 128.563C213.992 128.785 214.359 128.896 214.78 128.896C215.061 128.896 215.316 128.845 215.545 128.742C215.777 128.636 215.971 128.485 216.127 128.29C216.286 128.094 216.397 127.859 216.46 127.584H217.907C217.854 128.078 217.693 128.518 217.424 128.906C217.156 129.294 216.796 129.599 216.346 129.821C215.898 130.043 215.373 130.154 214.77 130.154ZM222.788 130.154C222.035 130.154 221.387 129.993 220.844 129.672C220.303 129.347 219.886 128.891 219.591 128.305C219.299 127.715 219.153 127.024 219.153 126.232C219.153 125.449 219.299 124.76 219.591 124.163C219.886 123.567 220.297 123.101 220.824 122.766C221.354 122.432 221.974 122.264 222.683 122.264C223.114 122.264 223.532 122.335 223.936 122.478C224.34 122.621 224.703 122.844 225.025 123.149C225.346 123.454 225.6 123.85 225.785 124.337C225.971 124.821 226.064 125.41 226.064 126.102V126.629H219.994V125.516H224.607C224.607 125.125 224.528 124.778 224.369 124.477C224.209 124.172 223.986 123.931 223.697 123.756C223.412 123.58 223.078 123.492 222.693 123.492C222.275 123.492 221.911 123.595 221.599 123.8C221.291 124.003 221.052 124.268 220.883 124.596C220.718 124.921 220.635 125.274 220.635 125.655V126.525C220.635 127.035 220.724 127.469 220.903 127.827C221.086 128.185 221.339 128.459 221.664 128.648C221.989 128.833 222.368 128.926 222.802 128.926C223.084 128.926 223.341 128.886 223.573 128.807C223.805 128.724 224.006 128.601 224.175 128.439C224.344 128.277 224.473 128.076 224.562 127.837L225.969 128.091C225.857 128.505 225.655 128.868 225.363 129.18C225.074 129.488 224.712 129.728 224.274 129.901C223.84 130.07 223.344 130.154 222.788 130.154Z" fill="#4B5563"/>
</svg>
