<svg width="41" height="41" viewBox="0 0 41 41" fill="none" xmlns="http://www.w3.org/2000/svg">
<path d="M4.11914 17.0222C4.11914 11.4994 8.59629 6.99121 14.1191 6.99121H25.5104C31.9958 6.99121 37.1498 12.4394 36.79 18.9149L36.6516 21.4071C36.6303 21.7895 36.5071 22.1593 36.2946 22.478L35.5353 23.617C34.7289 24.8266 32.8581 24.4251 32.6191 22.9911V22.9911C32.5173 22.3804 32.0731 21.8828 31.4778 21.7127L28.9935 21.0029C27.4788 20.5702 25.8525 20.7845 24.5017 21.595L23.731 22.0574C22.9016 22.5551 22.258 23.3108 21.8987 24.2089V24.2089C21.2266 25.8893 19.5991 26.9912 17.7892 26.9912H14.0573C8.56862 26.9912 4.11914 22.5109 4.11914 17.0222V17.0222Z" fill="#E5E7EB"/>
<rect x="12.4531" y="11.9932" width="1.66667" height="10" fill="white"/>
<path d="M14.1217 5.3252C11.0276 5.3252 8.06009 6.55436 5.87217 8.74228C3.68424 10.9302 2.45508 13.8977 2.45508 16.9919C2.45508 20.0861 3.68424 23.0535 5.87217 25.2414C8.06009 27.4294 11.0276 28.6585 14.1217 28.6585H15.9051C15.7469 27.553 15.7469 26.4307 15.9051 25.3252H14.1217C11.9116 25.3252 9.79199 24.4472 8.22919 22.8844C6.66639 21.3216 5.78841 19.202 5.78841 16.9919C5.78841 14.7817 6.66639 12.6621 8.22919 11.0993C9.79199 9.5365 11.9116 8.65853 14.1217 8.65853H27.4551C28.6909 8.65828 29.9114 8.93291 31.028 9.46254C32.1446 9.99217 33.1295 10.7635 33.9112 11.7207C34.6929 12.678 35.252 13.7971 35.5478 14.997C35.8437 16.1969 35.8689 17.4476 35.6217 18.6585C36.6037 19.6214 37.4082 20.7497 37.9984 21.9919C38.842 20.2134 39.2219 18.2504 39.1028 16.2857C38.9836 14.3209 38.3693 12.4182 37.317 10.7547C36.2647 9.09127 34.8086 7.72109 33.0843 6.77176C31.3599 5.82242 29.4235 5.32479 27.4551 5.3252H14.1217ZM27.4551 21.9919C26.129 21.9919 24.8572 22.5186 23.9195 23.4563C22.9819 24.394 22.4551 25.6658 22.4551 26.9919C22.4551 28.3179 22.9819 29.5897 23.9195 30.5274C24.8572 31.4651 26.129 31.9919 27.4551 31.9919C28.7812 31.9919 30.0529 31.4651 30.9906 30.5274C31.9283 29.5897 32.4551 28.3179 32.4551 26.9919C32.4551 25.6658 31.9283 24.394 30.9906 23.4563C30.0529 22.5186 28.7812 21.9919 27.4551 21.9919ZM19.1217 26.9919C19.1221 25.6925 19.4262 24.4113 20.0099 23.2505C20.5935 22.0896 21.4405 21.0813 22.4833 20.3062C23.526 19.531 24.7356 19.0103 26.0153 18.7858C27.2951 18.5614 28.6096 18.6392 29.854 19.0133C31.0983 19.3873 32.2379 20.0471 33.1818 20.94C34.1257 21.8329 34.8477 22.9341 35.2902 24.1558C35.7327 25.3774 35.8835 26.6856 35.7304 27.9759C35.5772 29.2661 35.1245 30.5027 34.4084 31.5869L38.6334 35.8135L36.2767 38.1702L32.0501 33.9452C30.794 34.7754 29.3365 35.2498 27.8324 35.318C26.3283 35.3861 24.8338 35.0455 23.5078 34.3324C22.1818 33.6192 21.0738 32.5601 20.3015 31.2676C19.5292 29.9751 19.1215 28.4975 19.1217 26.9919Z" fill="#4B5563"/>
</svg>
