<svg width="19" height="21" viewBox="0 0 19 21" fill="none" xmlns="http://www.w3.org/2000/svg">
<path fill-rule="evenodd" clip-rule="evenodd" d="M5.98044 0.640824C6.5905 0.164608 7.35214 -0.0592508 8.11498 0.013449C8.87782 0.0861488 9.58642 0.450122 10.1008 1.0335C10.6148 1.61632 10.8976 2.37581 10.8936 3.16224V5.89459H13.3541V3.65039C13.3541 2.57732 13.9795 1.64898 14.8748 1.2308C14.9322 1.09052 15.0159 0.96155 15.1226 0.85186C15.3391 0.629474 15.6326 0.504538 15.9386 0.504538C16.2447 0.504538 16.5382 0.629473 16.7546 0.85186C16.971 1.07425 17.0926 1.37587 17.0926 1.69037C17.0926 2.00487 16.971 2.30649 16.7546 2.52888C16.5382 2.75126 16.2447 2.8762 15.9386 2.8762C15.6787 2.8762 15.4278 2.78609 15.2256 2.62272C14.9133 2.85291 14.7084 3.2289 14.7084 3.65039V5.89459H16.9116C16.9471 5.84421 16.9867 5.79647 17.03 5.75191C17.2464 5.52952 17.54 5.40459 17.846 5.40459C18.1521 5.40459 18.4456 5.52952 18.662 5.75191C18.8784 5.9743 19 6.27592 19 6.59042C19 6.90492 18.8784 7.20654 18.662 7.42893C18.4456 7.65132 18.1521 7.77625 17.846 7.77625C17.54 7.77625 17.2464 7.65132 17.03 7.42893C16.9867 7.38437 16.9471 7.33663 16.9116 7.28624H10.8936V10.7946H13.0968C13.1323 10.7443 13.1719 10.6965 13.2153 10.652C13.4317 10.4296 13.7252 10.3046 14.0312 10.3046C14.3373 10.3046 14.6308 10.4296 14.8472 10.652C15.0636 10.8743 15.1852 11.176 15.1852 11.4905C15.1852 11.805 15.0636 12.1066 14.8472 12.329C14.6308 12.5514 14.3373 12.6763 14.0312 12.6763C13.7252 12.6763 13.4317 12.5514 13.2153 12.329C13.1719 12.2844 13.1323 12.2367 13.0968 12.1863H10.8936V15.6947H15.9386C16.6241 15.6947 17.2815 15.9745 17.7662 16.4726C18.2509 16.9706 18.5232 17.6462 18.5232 18.3505V18.3703C18.5722 18.4068 18.6186 18.4475 18.662 18.492C18.8784 18.7144 19 19.0161 19 19.3306C19 19.6451 18.8784 19.9467 18.662 20.1691C18.4456 20.3914 18.1521 20.5164 17.846 20.5164C17.54 20.5164 17.2464 20.3914 17.03 20.1691C16.8136 19.9467 16.692 19.6451 16.692 19.3306C16.692 19.0161 16.8136 18.7144 17.03 18.492C17.0734 18.4475 17.1198 18.4068 17.1689 18.3703V18.3505C17.1689 18.0153 17.0393 17.6937 16.8085 17.4566C16.5778 17.2195 16.2649 17.0863 15.9386 17.0863H10.8936V18.3505C10.8936 18.4994 10.8472 18.6426 10.7636 18.7605C10.5871 19.3635 10.2376 19.9007 9.75782 20.2996C9.20455 20.7597 8.51257 21.0073 7.80087 20.9998C7.08918 20.9924 6.40225 20.7304 5.85821 20.2588C5.47838 19.9296 5.18477 19.5126 4.99887 19.0459C4.69014 19.0491 4.38148 19.0043 4.08355 18.9119C3.58045 18.7559 3.12492 18.4694 2.76079 18.0801C2.39665 17.6907 2.13618 17.2116 2.00445 16.6889C1.92315 16.3662 1.89257 16.0336 1.91269 15.7036C1.45934 15.4626 1.05993 15.1225 0.743973 14.7046C0.306904 14.1264 0.0498838 13.4261 0.00655162 12.6953C-0.0367806 11.9645 0.135594 11.2373 0.501115 10.6088C0.724487 10.2248 1.01363 9.88857 1.35236 9.6151C1.21598 9.36825 1.1121 9.10243 1.04452 8.82446C0.908455 8.26484 0.92474 7.67756 1.09159 7.12681C1.25845 6.57607 1.56945 6.08307 1.99059 5.70171C2.25038 5.46646 2.54591 5.27928 2.86397 5.14672C2.86217 4.94628 2.87901 4.74562 2.91455 4.5475C2.98899 4.13246 3.14393 3.73706 3.37016 3.38484C3.59639 3.03261 3.88927 2.73076 4.23137 2.49726C4.44934 2.34847 4.68446 2.22938 4.93081 2.14244C5.12533 1.54847 5.48942 1.02412 5.98044 0.640824ZM9.53933 18.0839V3.15626C9.54186 2.71727 9.38414 2.29326 9.09728 1.96796C8.81043 1.64265 8.4153 1.43969 7.98992 1.39915C7.56454 1.35861 7.13983 1.48344 6.79965 1.74899C6.45947 2.01454 6.22854 2.40151 6.15247 2.83348C6.10245 3.11753 5.88695 3.34035 5.61085 3.3935C5.38575 3.43684 5.17145 3.52627 4.98068 3.65648C4.78992 3.78669 4.6266 3.95501 4.50045 4.15142C4.3743 4.34783 4.2879 4.56831 4.24639 4.79974C4.20488 5.03118 4.20911 5.26883 4.25883 5.49854C4.29892 5.68377 4.26366 5.87778 4.16121 6.03565C4.05876 6.19352 3.89802 6.30155 3.7162 6.33472C3.40801 6.39094 3.1208 6.53315 2.88596 6.74581C2.65112 6.95846 2.4777 7.23337 2.38466 7.54048C2.29162 7.84759 2.28254 8.17507 2.35841 8.48713C2.43428 8.79918 2.59219 9.08379 2.81486 9.30984C2.97287 9.47025 3.04428 9.70008 3.00595 9.9249C2.96763 10.1497 2.82446 10.3409 2.6228 10.4366C2.22353 10.626 1.8892 10.9349 1.66359 11.3228C1.43797 11.7107 1.33158 12.1596 1.35832 12.6106C1.38507 13.0617 1.54371 13.494 1.81349 13.8509C2.08327 14.2077 2.45161 14.4726 2.87031 14.6108C3.21334 14.724 3.41001 15.0935 3.31782 15.4514C3.24283 15.7425 3.24203 16.0485 3.31549 16.34C3.38894 16.6315 3.53419 16.8987 3.73724 17.1158C3.94029 17.3329 4.19431 17.4926 4.47484 17.5796C4.75537 17.6666 5.05298 17.678 5.33901 17.6125C5.51884 17.5714 5.70721 17.6073 5.86069 17.712C6.01416 17.8167 6.1195 17.9812 6.1524 18.1675C6.22329 18.5687 6.42802 18.9321 6.73139 19.195C7.03476 19.458 7.41781 19.6041 7.81466 19.6083C8.21152 19.6124 8.59739 19.4743 8.9059 19.2178C9.21442 18.9612 9.42631 18.6023 9.50513 18.2025C9.51326 18.1613 9.52478 18.1217 9.53933 18.0839ZM14.0312 11.6963V11.4905ZM14.0312 11.6963V11.4905Z" fill="#E5E7EB"/>
<path d="M9.09728 1.96796C9.38414 2.29326 9.54186 2.71727 9.53933 3.15626V18.0839C9.52478 18.1217 9.51326 18.1613 9.50513 18.2025C9.42631 18.6023 9.21442 18.9612 8.9059 19.2178C8.59739 19.4743 8.21152 19.6124 7.81466 19.6083C7.41781 19.6041 7.03476 19.458 6.73139 19.195C6.42802 18.9321 6.22329 18.5687 6.1524 18.1675C6.1195 17.9812 6.01416 17.8167 5.86069 17.712C5.70721 17.6073 5.51884 17.5714 5.33901 17.6125C5.05298 17.678 4.75537 17.6666 4.47484 17.5796C4.19431 17.4926 3.94029 17.3329 3.73724 17.1158C3.53419 16.8987 3.38894 16.6315 3.31549 16.34C3.24203 16.0485 3.24283 15.7425 3.31782 15.4514C3.41001 15.0935 3.21334 14.724 2.87031 14.6108C2.45161 14.4726 2.08327 14.2077 1.81349 13.8509C1.54371 13.494 1.38507 13.0617 1.35832 12.6106C1.33158 12.1596 1.43797 11.7107 1.66359 11.3228C1.8892 10.9349 2.22353 10.626 2.6228 10.4366C2.82446 10.3409 2.96763 10.1497 3.00595 9.9249C3.04428 9.70008 2.97287 9.47025 2.81486 9.30984C2.59219 9.08379 2.43428 8.79918 2.35841 8.48713C2.28254 8.17507 2.29162 7.84759 2.38466 7.54048C2.4777 7.23337 2.65112 6.95846 2.88596 6.74581C3.1208 6.53315 3.40801 6.39094 3.7162 6.33472C3.89802 6.30155 4.05876 6.19352 4.16121 6.03565C4.26366 5.87778 4.29892 5.68377 4.25883 5.49854C4.20911 5.26883 4.20488 5.03118 4.24639 4.79974C4.2879 4.56831 4.3743 4.34783 4.50045 4.15142C4.6266 3.95501 4.78992 3.78669 4.98068 3.65648C5.17145 3.52627 5.38575 3.43684 5.61085 3.3935C5.88695 3.34035 6.10245 3.11753 6.15247 2.83348C6.22854 2.40151 6.45947 2.01454 6.79965 1.74899C7.13983 1.48344 7.56454 1.35861 7.98992 1.39915C8.4153 1.43969 8.81043 1.64265 9.09728 1.96796Z" fill="#E5E7EB"/>
<path fill-rule="evenodd" clip-rule="evenodd" d="M5.98044 0.640824C6.5905 0.164608 7.35214 -0.0592508 8.11498 0.013449C8.87782 0.0861488 9.58642 0.450122 10.1008 1.0335C10.6148 1.61632 10.8976 2.37581 10.8936 3.16224V5.89459H13.3541V3.65039C13.3541 2.57732 13.9795 1.64898 14.8748 1.2308C14.9322 1.09052 15.0159 0.96155 15.1226 0.85186C15.3391 0.629474 15.6326 0.504538 15.9386 0.504538C16.2447 0.504538 16.5382 0.629472 16.7546 0.85186C16.971 1.07425 17.0926 1.37587 17.0926 1.69037C17.0926 2.00487 16.971 2.30649 16.7546 2.52888C16.5382 2.75126 16.2447 2.8762 15.9386 2.8762C15.6787 2.8762 15.4278 2.78609 15.2256 2.62272C14.9133 2.85291 14.7084 3.2289 14.7084 3.65039V5.89459H16.9116C16.9471 5.84421 16.9867 5.79647 17.03 5.75191C17.2464 5.52952 17.54 5.40459 17.846 5.40459C18.1521 5.40459 18.4456 5.52952 18.662 5.75191C18.8784 5.9743 19 6.27592 19 6.59042C19 6.90492 18.8784 7.20654 18.662 7.42893C18.4456 7.65132 18.1521 7.77625 17.846 7.77625C17.54 7.77625 17.2464 7.65132 17.03 7.42893C16.9867 7.38437 16.9471 7.33663 16.9116 7.28624H10.8936V10.7946H13.0968C13.1323 10.7443 13.1719 10.6965 13.2153 10.652C13.4317 10.4296 13.7252 10.3046 14.0312 10.3046C14.3373 10.3046 14.6308 10.4296 14.8472 10.652C15.0636 10.8743 15.1852 11.176 15.1852 11.4905C15.1852 11.805 15.0636 12.1066 14.8472 12.329C14.6308 12.5514 14.3373 12.6763 14.0312 12.6763C13.7252 12.6763 13.4317 12.5514 13.2153 12.329C13.1719 12.2844 13.1323 12.2367 13.0968 12.1863H10.8936V15.6947H15.9386C16.6241 15.6947 17.2815 15.9745 17.7662 16.4726C18.2509 16.9706 18.5232 17.6462 18.5232 18.3505V18.3703C18.5722 18.4068 18.6186 18.4475 18.662 18.492C18.8784 18.7144 19 19.0161 19 19.3306C19 19.6451 18.8784 19.9467 18.662 20.1691C18.4456 20.3914 18.1521 20.5164 17.846 20.5164C17.54 20.5164 17.2464 20.3914 17.03 20.1691C16.8136 19.9467 16.692 19.6451 16.692 19.3306C16.692 19.0161 16.8136 18.7144 17.03 18.492C17.0734 18.4475 17.1198 18.4068 17.1689 18.3703V18.3505C17.1689 18.0153 17.0393 17.6937 16.8085 17.4566C16.5778 17.2195 16.2649 17.0863 15.9386 17.0863H10.8936V18.3505C10.8936 18.4994 10.8472 18.6426 10.7636 18.7605C10.5871 19.3635 10.2376 19.9007 9.75782 20.2996C9.20455 20.7597 8.51257 21.0073 7.80087 20.9998C7.08918 20.9924 6.40225 20.7304 5.85821 20.2588C5.47838 19.9296 5.18477 19.5126 4.99887 19.0459C4.69014 19.0491 4.38148 19.0043 4.08355 18.9119C3.58045 18.7559 3.12492 18.4694 2.76079 18.0801C2.39665 17.6907 2.13618 17.2116 2.00445 16.6889C1.92315 16.3662 1.89257 16.0336 1.91269 15.7036C1.45934 15.4626 1.05993 15.1225 0.743973 14.7046C0.306904 14.1264 0.0498838 13.4261 0.00655162 12.6953C-0.0367806 11.9645 0.135594 11.2373 0.501115 10.6088C0.724487 10.2248 1.01363 9.88857 1.35236 9.6151C1.21598 9.36825 1.1121 9.10243 1.04452 8.82446C0.908455 8.26484 0.92474 7.67756 1.09159 7.12681C1.25845 6.57607 1.56945 6.08307 1.99059 5.70171C2.25038 5.46646 2.54591 5.27928 2.86397 5.14672C2.86217 4.94628 2.87901 4.74562 2.91455 4.5475C2.98899 4.13246 3.14393 3.73706 3.37016 3.38484C3.59639 3.03261 3.88927 2.73076 4.23137 2.49726C4.44934 2.34847 4.68446 2.22938 4.93081 2.14244C5.12533 1.54847 5.48942 1.02412 5.98044 0.640824ZM9.53933 18.0839V3.15626C9.54186 2.71727 9.38414 2.29326 9.09728 1.96796C8.81043 1.64265 8.4153 1.43969 7.98992 1.39915C7.56454 1.35861 7.13983 1.48344 6.79965 1.74899C6.45947 2.01454 6.22854 2.40151 6.15247 2.83348C6.10245 3.11753 5.88695 3.34035 5.61085 3.3935C5.38575 3.43684 5.17145 3.52627 4.98068 3.65648C4.78992 3.78669 4.6266 3.95501 4.50045 4.15142C4.3743 4.34783 4.2879 4.56831 4.24639 4.79974C4.20488 5.03118 4.20911 5.26883 4.25883 5.49854C4.29892 5.68377 4.26366 5.87778 4.16121 6.03565C4.05876 6.19352 3.89802 6.30155 3.7162 6.33472C3.40801 6.39094 3.1208 6.53315 2.88596 6.74581C2.65112 6.95846 2.4777 7.23337 2.38466 7.54048C2.29162 7.84759 2.28254 8.17507 2.35841 8.48713C2.43428 8.79918 2.59218 9.08379 2.81486 9.30984C2.97287 9.47025 3.04428 9.70008 3.00595 9.9249C2.96763 10.1497 2.82446 10.3409 2.6228 10.4366C2.22353 10.626 1.8892 10.9349 1.66359 11.3228C1.43797 11.7107 1.33158 12.1596 1.35832 12.6106C1.38507 13.0617 1.54371 13.494 1.81349 13.8509C2.08327 14.2077 2.45161 14.4726 2.87031 14.6108C3.21334 14.724 3.41001 15.0935 3.31782 15.4514C3.24283 15.7425 3.24203 16.0485 3.31549 16.34C3.38894 16.6315 3.53419 16.8987 3.73724 17.1158C3.94029 17.3329 4.19431 17.4926 4.47484 17.5796C4.75537 17.6666 5.05298 17.678 5.33901 17.6125C5.51884 17.5714 5.70721 17.6073 5.86069 17.712C6.01416 17.8167 6.1195 17.9812 6.1524 18.1675C6.22329 18.5687 6.42802 18.9321 6.73139 19.195C7.03476 19.458 7.41781 19.6041 7.81466 19.6083C8.21152 19.6124 8.59739 19.4743 8.9059 19.2178C9.21442 18.9612 9.42631 18.6023 9.50513 18.2025C9.51326 18.1613 9.52478 18.1217 9.53933 18.0839ZM14.0312 11.6963V11.4905ZM14.0312 11.6963V11.4905Z" fill="#374151"/>
</svg>
