<svg width="148" height="227" viewBox="0 0 148 227" fill="none" xmlns="http://www.w3.org/2000/svg">
<g clip-path="url(#clip0_6415_2099)">
<rect y="-12" width="197" height="276" fill="white"/>
<path d="M28.228 39.168C27.5093 39.168 26.8793 39.042 26.338 38.79C25.7967 38.538 25.372 38.1787 25.064 37.712C24.7653 37.2453 24.6113 36.69 24.602 36.046H26.17C26.1793 36.5687 26.3613 37.012 26.716 37.376C27.0707 37.74 27.57 37.922 28.214 37.922C28.7833 37.922 29.2267 37.7867 29.544 37.516C29.8707 37.236 30.034 36.8813 30.034 36.452C30.034 36.1067 29.9547 35.8267 29.796 35.612C29.6467 35.3973 29.4367 35.22 29.166 35.08C28.9047 34.94 28.6013 34.814 28.256 34.702C27.9107 34.59 27.5467 34.4687 27.164 34.338C26.408 34.086 25.8387 33.7593 25.456 33.358C25.0827 32.9567 24.896 32.4293 24.896 31.776C24.8867 31.2253 25.0127 30.7447 25.274 30.334C25.5447 29.9233 25.918 29.606 26.394 29.382C26.8793 29.1487 27.444 29.032 28.088 29.032C28.7227 29.032 29.278 29.1487 29.754 29.382C30.2393 29.6153 30.6173 29.942 30.888 30.362C31.1587 30.7727 31.2987 31.2533 31.308 31.804H29.74C29.74 31.552 29.6747 31.314 29.544 31.09C29.4133 30.8567 29.222 30.6653 28.97 30.516C28.718 30.3667 28.41 30.292 28.046 30.292C27.5793 30.2827 27.192 30.3993 26.884 30.642C26.5853 30.8847 26.436 31.2207 26.436 31.65C26.436 32.0327 26.548 32.3267 26.772 32.532C26.996 32.7373 27.304 32.91 27.696 33.05C28.088 33.1807 28.536 33.3347 29.04 33.512C29.5253 33.6707 29.9593 33.862 30.342 34.086C30.7247 34.31 31.028 34.604 31.252 34.968C31.4853 35.332 31.602 35.794 31.602 36.354C31.602 36.8487 31.476 37.3107 31.224 37.74C30.972 38.16 30.594 38.5053 30.09 38.776C29.586 39.0373 28.9653 39.168 28.228 39.168ZM32.8885 42.08V32.056H34.2185L34.3725 33.134C34.5965 32.8073 34.9045 32.518 35.2965 32.266C35.6885 32.014 36.1925 31.888 36.8085 31.888C37.4805 31.888 38.0731 32.0467 38.5865 32.364C39.0998 32.6813 39.5011 33.1153 39.7905 33.666C40.0891 34.2167 40.2385 34.842 40.2385 35.542C40.2385 36.242 40.0891 36.8673 39.7905 37.418C39.5011 37.9593 39.0998 38.3887 38.5865 38.706C38.0731 39.014 37.4758 39.168 36.7945 39.168C36.2531 39.168 35.7725 39.0607 35.3525 38.846C34.9418 38.6313 34.6151 38.328 34.3725 37.936V42.08H32.8885ZM36.5425 37.88C37.1771 37.88 37.6998 37.6653 38.1105 37.236C38.5211 36.7973 38.7265 36.228 38.7265 35.528C38.7265 35.0707 38.6331 34.6647 38.4465 34.31C38.2598 33.9553 38.0031 33.68 37.6765 33.484C37.3498 33.2787 36.9718 33.176 36.5425 33.176C35.9078 33.176 35.3851 33.3953 34.9745 33.834C34.5731 34.2727 34.3725 34.8373 34.3725 35.528C34.3725 36.228 34.5731 36.7973 34.9745 37.236C35.3851 37.6653 35.9078 37.88 36.5425 37.88ZM44.8115 39.168C44.1302 39.168 43.5235 39.0187 42.9915 38.72C42.4689 38.412 42.0582 37.9873 41.7595 37.446C41.4609 36.9047 41.3115 36.2747 41.3115 35.556C41.3115 34.828 41.4562 34.1887 41.7455 33.638C42.0442 33.0873 42.4549 32.658 42.9775 32.35C43.5095 32.042 44.1255 31.888 44.8255 31.888C45.5069 31.888 46.0995 32.042 46.6035 32.35C47.1075 32.6487 47.4995 33.05 47.7795 33.554C48.0595 34.058 48.1995 34.6133 48.1995 35.22C48.1995 35.3133 48.1949 35.416 48.1855 35.528C48.1855 35.6307 48.1809 35.7473 48.1715 35.878H42.7675C42.8142 36.55 43.0335 37.0633 43.4255 37.418C43.8269 37.7633 44.2889 37.936 44.8115 37.936C45.2315 37.936 45.5815 37.8427 45.8615 37.656C46.1509 37.46 46.3655 37.1987 46.5055 36.872H47.9895C47.8029 37.5253 47.4295 38.0713 46.8695 38.51C46.3189 38.9487 45.6329 39.168 44.8115 39.168ZM44.8115 33.106C44.3169 33.106 43.8782 33.2553 43.4955 33.554C43.1129 33.8433 42.8795 34.282 42.7955 34.87H46.7155C46.6875 34.3287 46.4962 33.8993 46.1415 33.582C45.7869 33.2647 45.3435 33.106 44.8115 33.106ZM49.4593 39V32.056H50.7753L50.8873 33.274C51.102 32.8447 51.4147 32.5087 51.8253 32.266C52.2453 32.014 52.726 31.888 53.2673 31.888C54.1073 31.888 54.7653 32.1493 55.2413 32.672C55.7267 33.1947 55.9693 33.974 55.9693 35.01V39H54.4993V35.164C54.4993 33.82 53.9487 33.148 52.8473 33.148C52.2967 33.148 51.8393 33.344 51.4753 33.736C51.1207 34.128 50.9433 34.688 50.9433 35.416V39H49.4593ZM60.3491 39C59.6678 39 59.1265 38.8367 58.7251 38.51C58.3238 38.174 58.1231 37.5813 58.1231 36.732V33.302H56.9331V32.056H58.1231L58.3051 30.292H59.6071V32.056H61.5671V33.302H59.6071V36.732C59.6071 37.1147 59.6865 37.3807 59.8451 37.53C60.0131 37.67 60.2978 37.74 60.6991 37.74H61.4971V39H60.3491Z" fill="#4B5563"/>
<path fill-rule="evenodd" clip-rule="evenodd" d="M77.2803 36.0303C77.5732 35.7374 77.5732 35.2626 77.2803 34.9697L74.2803 31.9697C73.9874 31.6768 73.5126 31.6768 73.2197 31.9697L70.2197 34.9697C69.9268 35.2626 69.9268 35.7374 70.2197 36.0303C70.5126 36.3232 70.9874 36.3232 71.2803 36.0303L73.75 33.5607L76.2197 36.0303C76.5126 36.3232 76.9874 36.3232 77.2803 36.0303Z" fill="#7FDCA4"/>
<path d="M29.362 70.168C28.3913 70.168 27.5513 69.958 26.842 69.538C26.142 69.1087 25.6007 68.516 25.218 67.76C24.8353 66.9947 24.644 66.1127 24.644 65.114C24.644 64.106 24.8353 63.224 25.218 62.468C25.6007 61.7027 26.142 61.1053 26.842 60.676C27.5513 60.2467 28.3913 60.032 29.362 60.032C30.51 60.032 31.448 60.312 32.176 60.872C32.904 61.432 33.366 62.216 33.562 63.224H31.91C31.7793 62.6547 31.4993 62.202 31.07 61.866C30.6407 61.53 30.0667 61.362 29.348 61.362C28.368 61.362 27.5933 61.698 27.024 62.37C26.4547 63.0327 26.17 63.9473 26.17 65.114C26.17 66.2713 26.4547 67.1813 27.024 67.844C27.5933 68.5067 28.368 68.838 29.348 68.838C30.0667 68.838 30.6407 68.6793 31.07 68.362C31.4993 68.0447 31.7793 67.6107 31.91 67.06H33.562C33.366 68.0307 32.904 68.7913 32.176 69.342C31.448 69.8927 30.51 70.168 29.362 70.168ZM34.8572 70V59.92H36.3412V70H34.8572ZM38.7805 61.74C38.5005 61.74 38.2672 61.656 38.0805 61.488C37.9032 61.3107 37.8145 61.0913 37.8145 60.83C37.8145 60.5687 37.9032 60.354 38.0805 60.186C38.2672 60.0087 38.5005 59.92 38.7805 59.92C39.0605 59.92 39.2892 60.0087 39.4665 60.186C39.6532 60.354 39.7465 60.5687 39.7465 60.83C39.7465 61.0913 39.6532 61.3107 39.4665 61.488C39.2892 61.656 39.0605 61.74 38.7805 61.74ZM38.0385 70V63.056H39.5225V70H38.0385ZM44.4915 70.168C43.8102 70.168 43.1988 70.014 42.6575 69.706C42.1255 69.398 41.7055 68.9733 41.3975 68.432C41.0988 67.8813 40.9495 67.2467 40.9495 66.528C40.9495 65.8093 41.0988 65.1793 41.3975 64.638C41.7055 64.0873 42.1255 63.658 42.6575 63.35C43.1988 63.042 43.8102 62.888 44.4915 62.888C45.3502 62.888 46.0688 63.112 46.6475 63.56C47.2355 64.008 47.6135 64.6147 47.7815 65.38H46.2275C46.1342 64.9973 45.9288 64.6987 45.6115 64.484C45.2942 64.2693 44.9208 64.162 44.4915 64.162C44.1275 64.162 43.7915 64.2553 43.4835 64.442C43.1755 64.6193 42.9282 64.8853 42.7415 65.24C42.5548 65.5853 42.4615 66.0147 42.4615 66.528C42.4615 67.0413 42.5548 67.4753 42.7415 67.83C42.9282 68.1753 43.1755 68.4413 43.4835 68.628C43.7915 68.8147 44.1275 68.908 44.4915 68.908C44.9208 68.908 45.2942 68.8007 45.6115 68.586C45.9288 68.3713 46.1342 68.068 46.2275 67.676H47.7815C47.6228 68.4227 47.2495 69.0247 46.6615 69.482C46.0735 69.9393 45.3502 70.168 44.4915 70.168ZM49.111 70V59.92H50.595V65.926L53.255 63.056H55.033L52.079 66.206L55.467 70H53.591L50.595 66.444V70H49.111ZM58.7397 70.168C57.8624 70.168 57.139 69.9533 56.5697 69.524C56.0004 69.0947 55.6737 68.5253 55.5897 67.816H57.0877C57.1624 68.1333 57.3397 68.4087 57.6197 68.642C57.8997 68.866 58.2684 68.978 58.7257 68.978C59.1737 68.978 59.5004 68.8847 59.7057 68.698C59.911 68.5113 60.0137 68.2967 60.0137 68.054C60.0137 67.6993 59.869 67.4613 59.5797 67.34C59.2997 67.2093 58.9077 67.0927 58.4037 66.99C58.0117 66.906 57.6197 66.794 57.2277 66.654C56.845 66.514 56.523 66.318 56.2617 66.066C56.0097 65.8047 55.8837 65.4547 55.8837 65.016C55.8837 64.4093 56.117 63.9053 56.5837 63.504C57.0504 63.0933 57.7037 62.888 58.5437 62.888C59.3184 62.888 59.9437 63.0747 60.4197 63.448C60.905 63.8213 61.1897 64.3487 61.2737 65.03H59.8457C59.799 64.7313 59.659 64.498 59.4257 64.33C59.2017 64.162 58.8984 64.078 58.5157 64.078C58.1424 64.078 57.853 64.1573 57.6477 64.316C57.4424 64.4653 57.3397 64.6613 57.3397 64.904C57.3397 65.1467 57.4797 65.338 57.7597 65.478C58.049 65.618 58.427 65.744 58.8937 65.856C59.3604 65.9587 59.7897 66.08 60.1817 66.22C60.583 66.3507 60.905 66.5467 61.1477 66.808C61.3904 67.0693 61.5117 67.452 61.5117 67.956C61.521 68.5907 61.2737 69.118 60.7697 69.538C60.275 69.958 59.5984 70.168 58.7397 70.168Z" fill="#4B5563"/>
<path fill-rule="evenodd" clip-rule="evenodd" d="M77.2803 67.0303C77.5732 66.7374 77.5732 66.2626 77.2803 65.9697L74.2803 62.9697C73.9874 62.6768 73.5126 62.6768 73.2197 62.9697L70.2197 65.9697C69.9268 66.2626 69.9268 66.7374 70.2197 67.0303C70.5126 67.3232 70.9874 67.3232 71.2803 67.0303L73.75 64.5607L76.2197 67.0303C76.5126 67.3232 76.9874 67.3232 77.2803 67.0303Z" fill="#7FDCA4"/>
<path d="M24.364 101L27.976 91.2H29.6L33.184 101H31.616L30.776 98.606H26.772L25.932 101H24.364ZM27.192 97.43H30.356L28.774 92.964L27.192 97.43ZM35.4087 101L32.8047 94.056H34.3587L36.2907 99.586L38.2227 94.056H39.7627L37.1727 101H35.4087ZM43.5947 101.168C42.9134 101.168 42.3067 101.019 41.7747 100.72C41.2521 100.412 40.8414 99.9873 40.5427 99.446C40.2441 98.9047 40.0947 98.2747 40.0947 97.556C40.0947 96.828 40.2394 96.1887 40.5287 95.638C40.8274 95.0873 41.2381 94.658 41.7607 94.35C42.2927 94.042 42.9087 93.888 43.6087 93.888C44.2901 93.888 44.8827 94.042 45.3867 94.35C45.8907 94.6487 46.2828 95.05 46.5628 95.554C46.8427 96.058 46.9827 96.6133 46.9827 97.22C46.9827 97.3133 46.9781 97.416 46.9687 97.528C46.9687 97.6307 46.9641 97.7473 46.9548 97.878H41.5507C41.5974 98.55 41.8167 99.0633 42.2087 99.418C42.6101 99.7633 43.0721 99.936 43.5947 99.936C44.0147 99.936 44.3647 99.8427 44.6447 99.656C44.9341 99.46 45.1487 99.1987 45.2887 98.872H46.7727C46.5861 99.5253 46.2128 100.071 45.6527 100.51C45.1021 100.949 44.4161 101.168 43.5947 101.168ZM43.5947 95.106C43.1001 95.106 42.6614 95.2553 42.2787 95.554C41.8961 95.8433 41.6627 96.282 41.5787 96.87H45.4988C45.4707 96.3287 45.2794 95.8993 44.9247 95.582C44.5701 95.2647 44.1267 95.106 43.5947 95.106ZM48.2425 101V94.056H49.5725L49.6985 95.372C49.9412 94.9147 50.2772 94.5553 50.7065 94.294C51.1452 94.0233 51.6725 93.888 52.2885 93.888V95.442H51.8825C51.4719 95.442 51.1032 95.512 50.7765 95.652C50.4592 95.7827 50.2025 96.0113 50.0065 96.338C49.8199 96.6553 49.7265 97.0987 49.7265 97.668V101H48.2425ZM55.6329 101.168C55.0449 101.168 54.5596 101.07 54.1769 100.874C53.7942 100.678 53.5096 100.421 53.3229 100.104C53.1362 99.7773 53.0429 99.4227 53.0429 99.04C53.0429 98.368 53.3042 97.836 53.8269 97.444C54.3496 97.052 55.0962 96.856 56.0669 96.856H57.8869V96.73C57.8869 96.1887 57.7376 95.7827 57.4389 95.512C57.1496 95.2413 56.7716 95.106 56.3049 95.106C55.8942 95.106 55.5349 95.2087 55.2269 95.414C54.9282 95.61 54.7462 95.904 54.6809 96.296H53.1969C53.2436 95.792 53.4116 95.3627 53.7009 95.008C53.9996 94.644 54.3729 94.3687 54.8209 94.182C55.2782 93.986 55.7776 93.888 56.3189 93.888C57.2896 93.888 58.0409 94.1447 58.5729 94.658C59.1049 95.162 59.3709 95.8527 59.3709 96.73V101H58.0829L57.9569 99.81C57.7609 100.193 57.4762 100.515 57.1029 100.776C56.7296 101.037 56.2396 101.168 55.6329 101.168ZM55.9269 99.964C56.3282 99.964 56.6642 99.8707 56.9349 99.684C57.2149 99.488 57.4296 99.2313 57.5789 98.914C57.7376 98.5967 57.8356 98.2467 57.8729 97.864H56.2209C55.6329 97.864 55.2129 97.9667 54.9609 98.172C54.7182 98.3773 54.5969 98.634 54.5969 98.942C54.5969 99.2593 54.7136 99.5113 54.9469 99.698C55.1896 99.8753 55.5162 99.964 55.9269 99.964ZM63.6632 98.872C63.2992 98.872 62.9632 98.83 62.6552 98.746L62.0532 99.334C62.1559 99.3993 62.2819 99.4553 62.4312 99.502C62.5805 99.5487 62.7905 99.5907 63.0612 99.628C63.3319 99.6653 63.7005 99.7027 64.1672 99.74C65.0912 99.824 65.7585 100.048 66.1692 100.412C66.5799 100.767 66.7852 101.243 66.7852 101.84C66.7852 102.251 66.6732 102.638 66.4492 103.002C66.2345 103.375 65.8939 103.674 65.4272 103.898C64.9699 104.131 64.3819 104.248 63.6632 104.248C62.6925 104.248 61.9039 104.061 61.2972 103.688C60.6999 103.324 60.4012 102.769 60.4012 102.022C60.4012 101.733 60.4759 101.443 60.6252 101.154C60.7839 100.874 61.0312 100.608 61.3672 100.356C61.1712 100.272 60.9985 100.183 60.8492 100.09C60.7092 99.9873 60.5832 99.8847 60.4712 99.782V99.446L61.6752 98.214C61.1339 97.7473 60.8632 97.136 60.8632 96.38C60.8632 95.9227 60.9705 95.5073 61.1852 95.134C61.4092 94.7513 61.7312 94.448 62.1512 94.224C62.5712 94 63.0752 93.888 63.6632 93.888C64.0552 93.888 64.4192 93.944 64.7552 94.056H67.3452V95.036L66.1132 95.106C66.3372 95.4887 66.4492 95.9133 66.4492 96.38C66.4492 96.8467 66.3372 97.2667 66.1132 97.64C65.8985 98.0133 65.5812 98.312 65.1612 98.536C64.7505 98.76 64.2512 98.872 63.6632 98.872ZM63.6632 97.71C64.0925 97.71 64.4379 97.598 64.6992 97.374C64.9699 97.1407 65.1052 96.814 65.1052 96.394C65.1052 95.9647 64.9699 95.638 64.6992 95.414C64.4379 95.19 64.0925 95.078 63.6632 95.078C63.2245 95.078 62.8699 95.19 62.5992 95.414C62.3379 95.638 62.2072 95.9647 62.2072 96.394C62.2072 96.814 62.3379 97.1407 62.5992 97.374C62.8699 97.598 63.2245 97.71 63.6632 97.71ZM61.8012 101.882C61.8012 102.283 61.9785 102.582 62.3332 102.778C62.6879 102.983 63.1312 103.086 63.6632 103.086C64.1765 103.086 64.5919 102.974 64.9092 102.75C65.2265 102.535 65.3852 102.246 65.3852 101.882C65.3852 101.611 65.2779 101.378 65.0632 101.182C64.8485 100.995 64.4425 100.879 63.8452 100.832C63.3972 100.804 63.0005 100.762 62.6552 100.706C62.3285 100.883 62.1045 101.075 61.9832 101.28C61.8619 101.485 61.8012 101.686 61.8012 101.882ZM71.3634 101.168C70.6821 101.168 70.0754 101.019 69.5434 100.72C69.0208 100.412 68.6101 99.9873 68.3114 99.446C68.0128 98.9047 67.8634 98.2747 67.8634 97.556C67.8634 96.828 68.0081 96.1887 68.2974 95.638C68.5961 95.0873 69.0068 94.658 69.5294 94.35C70.0614 94.042 70.6774 93.888 71.3774 93.888C72.0588 93.888 72.6514 94.042 73.1554 94.35C73.6594 94.6487 74.0514 95.05 74.3314 95.554C74.6114 96.058 74.7514 96.6133 74.7514 97.22C74.7514 97.3133 74.7468 97.416 74.7374 97.528C74.7374 97.6307 74.7328 97.7473 74.7234 97.878H69.3194C69.3661 98.55 69.5854 99.0633 69.9774 99.418C70.3788 99.7633 70.8408 99.936 71.3634 99.936C71.7834 99.936 72.1334 99.8427 72.4134 99.656C72.7028 99.46 72.9174 99.1987 73.0574 98.872H74.5414C74.3548 99.5253 73.9814 100.071 73.4214 100.51C72.8708 100.949 72.1848 101.168 71.3634 101.168ZM71.3634 95.106C70.8688 95.106 70.4301 95.2553 70.0474 95.554C69.6648 95.8433 69.4314 96.282 69.3474 96.87H73.2674C73.2394 96.3287 73.0481 95.8993 72.6934 95.582C72.3388 95.2647 71.8954 95.106 71.3634 95.106ZM83.6825 101.168C82.7119 101.168 81.8719 100.958 81.1625 100.538C80.4625 100.109 79.9212 99.516 79.5385 98.76C79.1559 97.9947 78.9645 97.1127 78.9645 96.114C78.9645 95.106 79.1559 94.224 79.5385 93.468C79.9212 92.7027 80.4625 92.1053 81.1625 91.676C81.8719 91.2467 82.7119 91.032 83.6825 91.032C84.8305 91.032 85.7685 91.312 86.4965 91.872C87.2245 92.432 87.6865 93.216 87.8825 94.224H86.2305C86.0999 93.6547 85.8199 93.202 85.3905 92.866C84.9612 92.53 84.3872 92.362 83.6685 92.362C82.6885 92.362 81.9139 92.698 81.3445 93.37C80.7752 94.0327 80.4905 94.9473 80.4905 96.114C80.4905 97.2713 80.7752 98.1813 81.3445 98.844C81.9139 99.5067 82.6885 99.838 83.6685 99.838C84.3872 99.838 84.9612 99.6793 85.3905 99.362C85.8199 99.0447 86.0999 98.6107 86.2305 98.06H87.8825C87.6865 99.0307 87.2245 99.7913 86.4965 100.342C85.7685 100.893 84.8305 101.168 83.6825 101.168ZM91.352 101V92.404H88.454V91.2H95.72V92.404H92.836V101H91.352ZM96.8288 101V91.2H100.203C100.977 91.2 101.612 91.3307 102.107 91.592C102.611 91.8533 102.984 92.208 103.227 92.656C103.469 93.0947 103.591 93.5847 103.591 94.126C103.591 94.7327 103.427 95.2833 103.101 95.778C102.783 96.2727 102.284 96.6273 101.603 96.842L103.689 101H101.967L100.063 97.052H98.3128V101H96.8288ZM98.3128 95.932H100.119C100.791 95.932 101.281 95.7687 101.589 95.442C101.906 95.1153 102.065 94.6907 102.065 94.168C102.065 93.6453 101.911 93.23 101.603 92.922C101.295 92.6047 100.795 92.446 100.105 92.446H98.3128V95.932Z" fill="#4B5563"/>
<path fill-rule="evenodd" clip-rule="evenodd" d="M119.28 98.0303C119.573 97.7374 119.573 97.2626 119.28 96.9697L116.28 93.9697C115.987 93.6768 115.513 93.6768 115.22 93.9697L112.22 96.9697C111.927 97.2626 111.927 97.7374 112.22 98.0303C112.513 98.3232 112.987 98.3232 113.28 98.0303L115.75 95.5607L118.22 98.0303C118.513 98.3232 118.987 98.3232 119.28 98.0303Z" fill="#7FDCA4"/>
<path d="M24.994 132V122.2H28.69C29.7073 122.2 30.4773 122.438 31 122.914C31.5227 123.39 31.784 123.987 31.784 124.706C31.784 125.331 31.616 125.831 31.28 126.204C30.944 126.568 30.538 126.815 30.062 126.946C30.4353 127.021 30.7667 127.17 31.056 127.394C31.3547 127.618 31.588 127.898 31.756 128.234C31.924 128.57 32.008 128.934 32.008 129.326C32.008 129.83 31.882 130.287 31.63 130.698C31.3873 131.099 31.028 131.417 30.552 131.65C30.076 131.883 29.4927 132 28.802 132H24.994ZM26.478 126.4H28.508C29.0773 126.4 29.5113 126.269 29.81 126.008C30.1087 125.737 30.258 125.369 30.258 124.902C30.258 124.445 30.1087 124.081 29.81 123.81C29.5207 123.539 29.0773 123.404 28.48 123.404H26.478V126.4ZM26.478 130.782H28.606C29.2033 130.782 29.6653 130.642 29.992 130.362C30.328 130.082 30.496 129.69 30.496 129.186C30.496 128.682 30.3233 128.285 29.978 127.996C29.6327 127.697 29.166 127.548 28.578 127.548H26.478V130.782ZM34.1386 123.74C33.8586 123.74 33.6253 123.656 33.4386 123.488C33.2613 123.311 33.1726 123.091 33.1726 122.83C33.1726 122.569 33.2613 122.354 33.4386 122.186C33.6253 122.009 33.8586 121.92 34.1386 121.92C34.4186 121.92 34.6473 122.009 34.8246 122.186C35.0113 122.354 35.1046 122.569 35.1046 122.83C35.1046 123.091 35.0113 123.311 34.8246 123.488C34.6473 123.656 34.4186 123.74 34.1386 123.74ZM33.3966 132V125.056H34.8806V132H33.3966ZM39.7236 132.168C39.0516 132.168 38.459 132.009 37.9456 131.692C37.4323 131.375 37.031 130.941 36.7416 130.39C36.4523 129.839 36.3076 129.214 36.3076 128.514C36.3076 127.814 36.4523 127.193 36.7416 126.652C37.031 126.101 37.4323 125.672 37.9456 125.364C38.4683 125.047 39.0656 124.888 39.7376 124.888C40.2883 124.888 40.769 124.995 41.1796 125.21C41.5996 125.425 41.9263 125.728 42.1596 126.12V121.92H43.6436V132H42.3136L42.1596 130.922C41.9356 131.249 41.6276 131.538 41.2356 131.79C40.8436 132.042 40.3396 132.168 39.7236 132.168ZM39.9896 130.88C40.6243 130.88 41.1423 130.661 41.5436 130.222C41.9543 129.783 42.1596 129.219 42.1596 128.528C42.1596 127.828 41.9543 127.263 41.5436 126.834C41.1423 126.395 40.6243 126.176 39.9896 126.176C39.355 126.176 38.8323 126.395 38.4216 126.834C38.011 127.263 37.8056 127.828 37.8056 128.528C37.8056 128.985 37.899 129.391 38.0856 129.746C38.2723 130.101 38.529 130.381 38.8556 130.586C39.1916 130.782 39.5696 130.88 39.9896 130.88Z" fill="#4B5563"/>
<path fill-rule="evenodd" clip-rule="evenodd" d="M59.2803 129.03C59.5732 128.737 59.5732 128.263 59.2803 127.97L56.2803 124.97C55.9874 124.677 55.5126 124.677 55.2197 124.97L52.2197 127.97C51.9268 128.263 51.9268 128.737 52.2197 129.03C52.5126 129.323 52.9874 129.323 53.2803 129.03L55.75 126.561L58.2197 129.03C58.5126 129.323 58.9874 129.323 59.2803 129.03Z" fill="#7FDCA4"/>
<path d="M24.364 163L27.976 153.2H29.6L33.184 163H31.616L30.776 160.606H26.772L25.932 163H24.364ZM27.192 159.43H30.356L28.774 154.964L27.192 159.43ZM35.4087 163L32.8047 156.056H34.3587L36.2907 161.586L38.2227 156.056H39.7627L37.1727 163H35.4087ZM43.5947 163.168C42.9134 163.168 42.3067 163.019 41.7747 162.72C41.2521 162.412 40.8414 161.987 40.5427 161.446C40.2441 160.905 40.0947 160.275 40.0947 159.556C40.0947 158.828 40.2394 158.189 40.5287 157.638C40.8274 157.087 41.2381 156.658 41.7607 156.35C42.2927 156.042 42.9087 155.888 43.6087 155.888C44.2901 155.888 44.8827 156.042 45.3867 156.35C45.8907 156.649 46.2828 157.05 46.5628 157.554C46.8427 158.058 46.9827 158.613 46.9827 159.22C46.9827 159.313 46.9781 159.416 46.9687 159.528C46.9687 159.631 46.9641 159.747 46.9548 159.878H41.5507C41.5974 160.55 41.8167 161.063 42.2087 161.418C42.6101 161.763 43.0721 161.936 43.5947 161.936C44.0147 161.936 44.3647 161.843 44.6447 161.656C44.9341 161.46 45.1487 161.199 45.2887 160.872H46.7727C46.5861 161.525 46.2128 162.071 45.6527 162.51C45.1021 162.949 44.4161 163.168 43.5947 163.168ZM43.5947 157.106C43.1001 157.106 42.6614 157.255 42.2787 157.554C41.8961 157.843 41.6627 158.282 41.5787 158.87H45.4988C45.4707 158.329 45.2794 157.899 44.9247 157.582C44.5701 157.265 44.1267 157.106 43.5947 157.106ZM48.2425 163V156.056H49.5725L49.6985 157.372C49.9412 156.915 50.2772 156.555 50.7065 156.294C51.1452 156.023 51.6725 155.888 52.2885 155.888V157.442H51.8825C51.4719 157.442 51.1032 157.512 50.7765 157.652C50.4592 157.783 50.2025 158.011 50.0065 158.338C49.8199 158.655 49.7265 159.099 49.7265 159.668V163H48.2425ZM55.6329 163.168C55.0449 163.168 54.5596 163.07 54.1769 162.874C53.7942 162.678 53.5096 162.421 53.3229 162.104C53.1362 161.777 53.0429 161.423 53.0429 161.04C53.0429 160.368 53.3042 159.836 53.8269 159.444C54.3496 159.052 55.0962 158.856 56.0669 158.856H57.8869V158.73C57.8869 158.189 57.7376 157.783 57.4389 157.512C57.1496 157.241 56.7716 157.106 56.3049 157.106C55.8942 157.106 55.5349 157.209 55.2269 157.414C54.9282 157.61 54.7462 157.904 54.6809 158.296H53.1969C53.2436 157.792 53.4116 157.363 53.7009 157.008C53.9996 156.644 54.3729 156.369 54.8209 156.182C55.2782 155.986 55.7776 155.888 56.3189 155.888C57.2896 155.888 58.0409 156.145 58.5729 156.658C59.1049 157.162 59.3709 157.853 59.3709 158.73V163H58.0829L57.9569 161.81C57.7609 162.193 57.4762 162.515 57.1029 162.776C56.7296 163.037 56.2396 163.168 55.6329 163.168ZM55.9269 161.964C56.3282 161.964 56.6642 161.871 56.9349 161.684C57.2149 161.488 57.4296 161.231 57.5789 160.914C57.7376 160.597 57.8356 160.247 57.8729 159.864H56.2209C55.6329 159.864 55.2129 159.967 54.9609 160.172C54.7182 160.377 54.5969 160.634 54.5969 160.942C54.5969 161.259 54.7136 161.511 54.9469 161.698C55.1896 161.875 55.5162 161.964 55.9269 161.964ZM63.6632 160.872C63.2992 160.872 62.9632 160.83 62.6552 160.746L62.0532 161.334C62.1559 161.399 62.2819 161.455 62.4312 161.502C62.5805 161.549 62.7905 161.591 63.0612 161.628C63.3319 161.665 63.7005 161.703 64.1672 161.74C65.0912 161.824 65.7585 162.048 66.1692 162.412C66.5799 162.767 66.7852 163.243 66.7852 163.84C66.7852 164.251 66.6732 164.638 66.4492 165.002C66.2345 165.375 65.8939 165.674 65.4272 165.898C64.9699 166.131 64.3819 166.248 63.6632 166.248C62.6925 166.248 61.9039 166.061 61.2972 165.688C60.6999 165.324 60.4012 164.769 60.4012 164.022C60.4012 163.733 60.4759 163.443 60.6252 163.154C60.7839 162.874 61.0312 162.608 61.3672 162.356C61.1712 162.272 60.9985 162.183 60.8492 162.09C60.7092 161.987 60.5832 161.885 60.4712 161.782V161.446L61.6752 160.214C61.1339 159.747 60.8632 159.136 60.8632 158.38C60.8632 157.923 60.9705 157.507 61.1852 157.134C61.4092 156.751 61.7312 156.448 62.1512 156.224C62.5712 156 63.0752 155.888 63.6632 155.888C64.0552 155.888 64.4192 155.944 64.7552 156.056H67.3452V157.036L66.1132 157.106C66.3372 157.489 66.4492 157.913 66.4492 158.38C66.4492 158.847 66.3372 159.267 66.1132 159.64C65.8985 160.013 65.5812 160.312 65.1612 160.536C64.7505 160.76 64.2512 160.872 63.6632 160.872ZM63.6632 159.71C64.0925 159.71 64.4379 159.598 64.6992 159.374C64.9699 159.141 65.1052 158.814 65.1052 158.394C65.1052 157.965 64.9699 157.638 64.6992 157.414C64.4379 157.19 64.0925 157.078 63.6632 157.078C63.2245 157.078 62.8699 157.19 62.5992 157.414C62.3379 157.638 62.2072 157.965 62.2072 158.394C62.2072 158.814 62.3379 159.141 62.5992 159.374C62.8699 159.598 63.2245 159.71 63.6632 159.71ZM61.8012 163.882C61.8012 164.283 61.9785 164.582 62.3332 164.778C62.6879 164.983 63.1312 165.086 63.6632 165.086C64.1765 165.086 64.5919 164.974 64.9092 164.75C65.2265 164.535 65.3852 164.246 65.3852 163.882C65.3852 163.611 65.2779 163.378 65.0632 163.182C64.8485 162.995 64.4425 162.879 63.8452 162.832C63.3972 162.804 63.0005 162.762 62.6552 162.706C62.3285 162.883 62.1045 163.075 61.9832 163.28C61.8619 163.485 61.8012 163.686 61.8012 163.882ZM71.3634 163.168C70.6821 163.168 70.0754 163.019 69.5434 162.72C69.0208 162.412 68.6101 161.987 68.3114 161.446C68.0128 160.905 67.8634 160.275 67.8634 159.556C67.8634 158.828 68.0081 158.189 68.2974 157.638C68.5961 157.087 69.0068 156.658 69.5294 156.35C70.0614 156.042 70.6774 155.888 71.3774 155.888C72.0588 155.888 72.6514 156.042 73.1554 156.35C73.6594 156.649 74.0514 157.05 74.3314 157.554C74.6114 158.058 74.7514 158.613 74.7514 159.22C74.7514 159.313 74.7468 159.416 74.7374 159.528C74.7374 159.631 74.7328 159.747 74.7234 159.878H69.3194C69.3661 160.55 69.5854 161.063 69.9774 161.418C70.3788 161.763 70.8408 161.936 71.3634 161.936C71.7834 161.936 72.1334 161.843 72.4134 161.656C72.7028 161.46 72.9174 161.199 73.0574 160.872H74.5414C74.3548 161.525 73.9814 162.071 73.4214 162.51C72.8708 162.949 72.1848 163.168 71.3634 163.168ZM71.3634 157.106C70.8688 157.106 70.4301 157.255 70.0474 157.554C69.6648 157.843 69.4314 158.282 69.3474 158.87H73.2674C73.2394 158.329 73.0481 157.899 72.6934 157.582C72.3388 157.265 71.8954 157.106 71.3634 157.106ZM83.6825 163.168C82.7119 163.168 81.8719 162.958 81.1625 162.538C80.4625 162.109 79.9212 161.516 79.5385 160.76C79.1559 159.995 78.9645 159.113 78.9645 158.114C78.9645 157.106 79.1559 156.224 79.5385 155.468C79.9212 154.703 80.4625 154.105 81.1625 153.676C81.8719 153.247 82.7119 153.032 83.6825 153.032C84.8305 153.032 85.7685 153.312 86.4965 153.872C87.2245 154.432 87.6865 155.216 87.8825 156.224H86.2305C86.0999 155.655 85.8199 155.202 85.3905 154.866C84.9612 154.53 84.3872 154.362 83.6685 154.362C82.6885 154.362 81.9139 154.698 81.3445 155.37C80.7752 156.033 80.4905 156.947 80.4905 158.114C80.4905 159.271 80.7752 160.181 81.3445 160.844C81.9139 161.507 82.6885 161.838 83.6685 161.838C84.3872 161.838 84.9612 161.679 85.3905 161.362C85.8199 161.045 86.0999 160.611 86.2305 160.06H87.8825C87.6865 161.031 87.2245 161.791 86.4965 162.342C85.7685 162.893 84.8305 163.168 83.6825 163.168ZM89.2338 163V153.2H92.6638C93.4291 153.2 94.0638 153.331 94.5678 153.592C95.0718 153.844 95.4451 154.194 95.6878 154.642C95.9398 155.081 96.0658 155.58 96.0658 156.14C96.0658 156.672 95.9444 157.162 95.7018 157.61C95.4684 158.049 95.0998 158.399 94.5958 158.66C94.0918 158.921 93.4478 159.052 92.6638 159.052H90.7178V163H89.2338ZM90.7178 157.834H92.5938C93.2938 157.834 93.7931 157.685 94.0918 157.386C94.3998 157.078 94.5538 156.663 94.5538 156.14C94.5538 155.599 94.3998 155.179 94.0918 154.88C93.7931 154.572 93.2938 154.418 92.5938 154.418H90.7178V157.834ZM97.2526 163V153.2H99.0026L102.321 159.724L105.625 153.2H107.375V163H105.891V155.762L102.895 161.6H101.747L98.7366 155.776V163H97.2526Z" fill="#4B5563"/>
<path fill-rule="evenodd" clip-rule="evenodd" d="M116.22 155.97C116.513 155.677 116.987 155.677 117.28 155.97L119.75 158.439L122.22 155.97C122.513 155.677 122.987 155.677 123.28 155.97C123.573 156.263 123.573 156.737 123.28 157.03L120.28 160.03C119.987 160.323 119.513 160.323 119.22 160.03L116.22 157.03C115.927 156.737 115.927 156.263 116.22 155.97Z" fill="#F2747C"/>
<path d="M24.364 194L27.976 184.2H29.6L33.184 194H31.616L30.776 191.606H26.772L25.932 194H24.364ZM27.192 190.43H30.356L28.774 185.964L27.192 190.43ZM35.4087 194L32.8047 187.056H34.3587L36.2907 192.586L38.2227 187.056H39.7627L37.1727 194H35.4087ZM43.5947 194.168C42.9134 194.168 42.3067 194.019 41.7747 193.72C41.2521 193.412 40.8414 192.987 40.5427 192.446C40.2441 191.905 40.0947 191.275 40.0947 190.556C40.0947 189.828 40.2394 189.189 40.5287 188.638C40.8274 188.087 41.2381 187.658 41.7607 187.35C42.2927 187.042 42.9087 186.888 43.6087 186.888C44.2901 186.888 44.8827 187.042 45.3867 187.35C45.8907 187.649 46.2828 188.05 46.5628 188.554C46.8427 189.058 46.9827 189.613 46.9827 190.22C46.9827 190.313 46.9781 190.416 46.9687 190.528C46.9687 190.631 46.9641 190.747 46.9548 190.878H41.5507C41.5974 191.55 41.8167 192.063 42.2087 192.418C42.6101 192.763 43.0721 192.936 43.5947 192.936C44.0147 192.936 44.3647 192.843 44.6447 192.656C44.9341 192.46 45.1487 192.199 45.2887 191.872H46.7727C46.5861 192.525 46.2128 193.071 45.6527 193.51C45.1021 193.949 44.4161 194.168 43.5947 194.168ZM43.5947 188.106C43.1001 188.106 42.6614 188.255 42.2787 188.554C41.8961 188.843 41.6627 189.282 41.5787 189.87H45.4988C45.4707 189.329 45.2794 188.899 44.9247 188.582C44.5701 188.265 44.1267 188.106 43.5947 188.106ZM48.2425 194V187.056H49.5725L49.6985 188.372C49.9412 187.915 50.2772 187.555 50.7065 187.294C51.1452 187.023 51.6725 186.888 52.2885 186.888V188.442H51.8825C51.4719 188.442 51.1032 188.512 50.7765 188.652C50.4592 188.783 50.2025 189.011 50.0065 189.338C49.8199 189.655 49.7265 190.099 49.7265 190.668V194H48.2425ZM55.6329 194.168C55.0449 194.168 54.5596 194.07 54.1769 193.874C53.7942 193.678 53.5096 193.421 53.3229 193.104C53.1362 192.777 53.0429 192.423 53.0429 192.04C53.0429 191.368 53.3042 190.836 53.8269 190.444C54.3496 190.052 55.0962 189.856 56.0669 189.856H57.8869V189.73C57.8869 189.189 57.7376 188.783 57.4389 188.512C57.1496 188.241 56.7716 188.106 56.3049 188.106C55.8942 188.106 55.5349 188.209 55.2269 188.414C54.9282 188.61 54.7462 188.904 54.6809 189.296H53.1969C53.2436 188.792 53.4116 188.363 53.7009 188.008C53.9996 187.644 54.3729 187.369 54.8209 187.182C55.2782 186.986 55.7776 186.888 56.3189 186.888C57.2896 186.888 58.0409 187.145 58.5729 187.658C59.1049 188.162 59.3709 188.853 59.3709 189.73V194H58.0829L57.9569 192.81C57.7609 193.193 57.4762 193.515 57.1029 193.776C56.7296 194.037 56.2396 194.168 55.6329 194.168ZM55.9269 192.964C56.3282 192.964 56.6642 192.871 56.9349 192.684C57.2149 192.488 57.4296 192.231 57.5789 191.914C57.7376 191.597 57.8356 191.247 57.8729 190.864H56.2209C55.6329 190.864 55.2129 190.967 54.9609 191.172C54.7182 191.377 54.5969 191.634 54.5969 191.942C54.5969 192.259 54.7136 192.511 54.9469 192.698C55.1896 192.875 55.5162 192.964 55.9269 192.964ZM63.6632 191.872C63.2992 191.872 62.9632 191.83 62.6552 191.746L62.0532 192.334C62.1559 192.399 62.2819 192.455 62.4312 192.502C62.5805 192.549 62.7905 192.591 63.0612 192.628C63.3319 192.665 63.7005 192.703 64.1672 192.74C65.0912 192.824 65.7585 193.048 66.1692 193.412C66.5799 193.767 66.7852 194.243 66.7852 194.84C66.7852 195.251 66.6732 195.638 66.4492 196.002C66.2345 196.375 65.8939 196.674 65.4272 196.898C64.9699 197.131 64.3819 197.248 63.6632 197.248C62.6925 197.248 61.9039 197.061 61.2972 196.688C60.6999 196.324 60.4012 195.769 60.4012 195.022C60.4012 194.733 60.4759 194.443 60.6252 194.154C60.7839 193.874 61.0312 193.608 61.3672 193.356C61.1712 193.272 60.9985 193.183 60.8492 193.09C60.7092 192.987 60.5832 192.885 60.4712 192.782V192.446L61.6752 191.214C61.1339 190.747 60.8632 190.136 60.8632 189.38C60.8632 188.923 60.9705 188.507 61.1852 188.134C61.4092 187.751 61.7312 187.448 62.1512 187.224C62.5712 187 63.0752 186.888 63.6632 186.888C64.0552 186.888 64.4192 186.944 64.7552 187.056H67.3452V188.036L66.1132 188.106C66.3372 188.489 66.4492 188.913 66.4492 189.38C66.4492 189.847 66.3372 190.267 66.1132 190.64C65.8985 191.013 65.5812 191.312 65.1612 191.536C64.7505 191.76 64.2512 191.872 63.6632 191.872ZM63.6632 190.71C64.0925 190.71 64.4379 190.598 64.6992 190.374C64.9699 190.141 65.1052 189.814 65.1052 189.394C65.1052 188.965 64.9699 188.638 64.6992 188.414C64.4379 188.19 64.0925 188.078 63.6632 188.078C63.2245 188.078 62.8699 188.19 62.5992 188.414C62.3379 188.638 62.2072 188.965 62.2072 189.394C62.2072 189.814 62.3379 190.141 62.5992 190.374C62.8699 190.598 63.2245 190.71 63.6632 190.71ZM61.8012 194.882C61.8012 195.283 61.9785 195.582 62.3332 195.778C62.6879 195.983 63.1312 196.086 63.6632 196.086C64.1765 196.086 64.5919 195.974 64.9092 195.75C65.2265 195.535 65.3852 195.246 65.3852 194.882C65.3852 194.611 65.2779 194.378 65.0632 194.182C64.8485 193.995 64.4425 193.879 63.8452 193.832C63.3972 193.804 63.0005 193.762 62.6552 193.706C62.3285 193.883 62.1045 194.075 61.9832 194.28C61.8619 194.485 61.8012 194.686 61.8012 194.882ZM71.3634 194.168C70.6821 194.168 70.0754 194.019 69.5434 193.72C69.0208 193.412 68.6101 192.987 68.3114 192.446C68.0128 191.905 67.8634 191.275 67.8634 190.556C67.8634 189.828 68.0081 189.189 68.2974 188.638C68.5961 188.087 69.0068 187.658 69.5294 187.35C70.0614 187.042 70.6774 186.888 71.3774 186.888C72.0588 186.888 72.6514 187.042 73.1554 187.35C73.6594 187.649 74.0514 188.05 74.3314 188.554C74.6114 189.058 74.7514 189.613 74.7514 190.22C74.7514 190.313 74.7468 190.416 74.7374 190.528C74.7374 190.631 74.7328 190.747 74.7234 190.878H69.3194C69.3661 191.55 69.5854 192.063 69.9774 192.418C70.3788 192.763 70.8408 192.936 71.3634 192.936C71.7834 192.936 72.1334 192.843 72.4134 192.656C72.7028 192.46 72.9174 192.199 73.0574 191.872H74.5414C74.3548 192.525 73.9814 193.071 73.4214 193.51C72.8708 193.949 72.1848 194.168 71.3634 194.168ZM71.3634 188.106C70.8688 188.106 70.4301 188.255 70.0474 188.554C69.6648 188.843 69.4314 189.282 69.3474 189.87H73.2674C73.2394 189.329 73.0481 188.899 72.6934 188.582C72.3388 188.265 71.8954 188.106 71.3634 188.106ZM83.6825 194.168C82.7119 194.168 81.8719 193.958 81.1625 193.538C80.4625 193.109 79.9212 192.516 79.5385 191.76C79.1559 190.995 78.9645 190.113 78.9645 189.114C78.9645 188.106 79.1559 187.224 79.5385 186.468C79.9212 185.703 80.4625 185.105 81.1625 184.676C81.8719 184.247 82.7119 184.032 83.6825 184.032C84.8305 184.032 85.7685 184.312 86.4965 184.872C87.2245 185.432 87.6865 186.216 87.8825 187.224H86.2305C86.0999 186.655 85.8199 186.202 85.3905 185.866C84.9612 185.53 84.3872 185.362 83.6685 185.362C82.6885 185.362 81.9139 185.698 81.3445 186.37C80.7752 187.033 80.4905 187.947 80.4905 189.114C80.4905 190.271 80.7752 191.181 81.3445 191.844C81.9139 192.507 82.6885 192.838 83.6685 192.838C84.3872 192.838 84.9612 192.679 85.3905 192.362C85.8199 192.045 86.0999 191.611 86.2305 191.06H87.8825C87.6865 192.031 87.2245 192.791 86.4965 193.342C85.7685 193.893 84.8305 194.168 83.6825 194.168ZM89.2338 194V184.2H92.6638C93.4291 184.2 94.0638 184.331 94.5678 184.592C95.0718 184.844 95.4451 185.194 95.6878 185.642C95.9398 186.081 96.0658 186.58 96.0658 187.14C96.0658 187.672 95.9444 188.162 95.7018 188.61C95.4684 189.049 95.0998 189.399 94.5958 189.66C94.0918 189.921 93.4478 190.052 92.6638 190.052H90.7178V194H89.2338ZM90.7178 188.834H92.5938C93.2938 188.834 93.7931 188.685 94.0918 188.386C94.3998 188.078 94.5538 187.663 94.5538 187.14C94.5538 186.599 94.3998 186.179 94.0918 185.88C93.7931 185.572 93.2938 185.418 92.5938 185.418H90.7178V188.834ZM101.621 194.168C100.65 194.168 99.8099 193.958 99.1006 193.538C98.4006 193.109 97.8593 192.516 97.4766 191.76C97.0939 190.995 96.9026 190.113 96.9026 189.114C96.9026 188.106 97.0939 187.224 97.4766 186.468C97.8593 185.703 98.4006 185.105 99.1006 184.676C99.8099 184.247 100.65 184.032 101.621 184.032C102.769 184.032 103.707 184.312 104.435 184.872C105.163 185.432 105.625 186.216 105.821 187.224H104.169C104.038 186.655 103.758 186.202 103.329 185.866C102.899 185.53 102.325 185.362 101.607 185.362C100.627 185.362 99.8519 185.698 99.2826 186.37C98.7133 187.033 98.4286 187.947 98.4286 189.114C98.4286 190.271 98.7133 191.181 99.2826 191.844C99.8519 192.507 100.627 192.838 101.607 192.838C102.325 192.838 102.899 192.679 103.329 192.362C103.758 192.045 104.038 191.611 104.169 191.06H105.821C105.625 192.031 105.163 192.791 104.435 193.342C103.707 193.893 102.769 194.168 101.621 194.168Z" fill="#4B5563"/>
<path fill-rule="evenodd" clip-rule="evenodd" d="M114.22 186.97C114.513 186.677 114.987 186.677 115.28 186.97L117.75 189.439L120.22 186.97C120.513 186.677 120.987 186.677 121.28 186.97C121.573 187.263 121.573 187.737 121.28 188.03L118.28 191.03C117.987 191.323 117.513 191.323 117.22 191.03L114.22 188.03C113.927 187.737 113.927 187.263 114.22 186.97Z" fill="#F2747C"/>
</g>
<defs>
<clipPath id="clip0_6415_2099">
<rect width="148" height="227" fill="white"/>
</clipPath>
</defs>
</svg>
