<svg width="24" height="25" viewBox="0 0 24 25" fill="none" xmlns="http://www.w3.org/2000/svg">
<path d="M12.5953 14.2594L9.2959 14.7314L9.76699 11.4311L18.2519 2.94612C18.627 2.57106 19.1357 2.36035 19.6661 2.36035C20.1965 2.36035 20.7052 2.57106 21.0803 2.94612C21.4553 3.32117 21.666 3.82986 21.666 4.36027C21.666 4.89069 21.4553 5.39937 21.0803 5.77443L12.5953 14.2594Z" stroke="white" stroke-width="2" stroke-linecap="round" stroke-linejoin="round"/>
<path d="M18.3333 14.361V21.0273C18.3333 21.3809 18.1928 21.7201 17.9428 21.9701C17.6927 22.2201 17.3536 22.3606 17 22.3606H3.66726C3.31365 22.3606 2.97453 22.2201 2.72449 21.9701C2.47445 21.7201 2.33398 21.3809 2.33398 21.0273V7.6946C2.33398 7.341 2.47445 7.00187 2.72449 6.75183C2.97453 6.5018 3.31365 6.36133 3.66726 6.36133H10.3336" stroke="white" stroke-width="2" stroke-linecap="round" stroke-linejoin="round"/>
</svg>
