<svg width="373" height="484" viewBox="0 0 373 484" fill="none" xmlns="http://www.w3.org/2000/svg">
<rect width="373" height="484" fill="white"/>
<path d="M52.5256 89H48.571L54.5966 71.5455H59.3523L65.3693 89H61.4148L57.0426 75.5341H56.9062L52.5256 89ZM52.2784 82.1392H61.6193V85.0199H52.2784V82.1392ZM67.4702 89V71.5455H74.4588C75.7429 71.5455 76.8139 71.7358 77.6719 72.1165C78.5298 72.4972 79.1747 73.0256 79.6065 73.7017C80.0384 74.3722 80.2543 75.1449 80.2543 76.0199C80.2543 76.7017 80.1179 77.3011 79.8452 77.8182C79.5724 78.3295 79.1974 78.75 78.7202 79.0795C78.2486 79.4034 77.7088 79.6335 77.1009 79.7699V79.9403C77.7656 79.9687 78.3878 80.1562 78.9673 80.5028C79.5526 80.8494 80.027 81.3352 80.3906 81.9602C80.7543 82.5795 80.9361 83.3182 80.9361 84.1761C80.9361 85.1023 80.706 85.929 80.2457 86.6562C79.7912 87.3778 79.1179 87.9489 78.2259 88.3693C77.3338 88.7898 76.2344 89 74.9276 89H67.4702ZM71.1605 85.983H74.169C75.1974 85.983 75.9474 85.7869 76.419 85.3949C76.8906 84.9972 77.1264 84.4687 77.1264 83.8097C77.1264 83.3267 77.0099 82.9006 76.777 82.5312C76.544 82.1619 76.2116 81.8722 75.7798 81.6619C75.3537 81.4517 74.8452 81.3466 74.2543 81.3466H71.1605V85.983ZM71.1605 78.8494H73.8963C74.402 78.8494 74.8509 78.7614 75.2429 78.5852C75.6406 78.4034 75.9531 78.1477 76.1804 77.8182C76.4134 77.4886 76.5298 77.0938 76.5298 76.6335C76.5298 76.0028 76.3054 75.4943 75.8565 75.108C75.4134 74.7216 74.7827 74.5284 73.9645 74.5284H71.1605V78.8494ZM83.3374 71.5455H87.8885L92.6953 83.2727H92.8999L97.7067 71.5455H102.258V89H98.6783V77.6392H98.5334L94.0163 88.9148H91.5788L87.0618 77.5966H86.9169V89H83.3374V71.5455ZM126.254 77.6562H122.521C122.452 77.1733 122.313 76.7443 122.103 76.3693C121.893 75.9886 121.623 75.6648 121.293 75.3977C120.964 75.1307 120.583 74.9261 120.151 74.7841C119.725 74.642 119.262 74.571 118.762 74.571C117.859 74.571 117.072 74.7955 116.401 75.2443C115.731 75.6875 115.211 76.3352 114.842 77.1875C114.472 78.0341 114.288 79.0625 114.288 80.2727C114.288 81.517 114.472 82.5625 114.842 83.4091C115.217 84.2557 115.739 84.8949 116.41 85.3267C117.08 85.7585 117.856 85.9744 118.737 85.9744C119.231 85.9744 119.688 85.9091 120.109 85.7784C120.535 85.6477 120.913 85.4574 121.242 85.2074C121.572 84.9517 121.844 84.642 122.06 84.2784C122.282 83.9148 122.435 83.5 122.521 83.0341L126.254 83.0511C126.157 83.8523 125.915 84.625 125.529 85.3693C125.148 86.108 124.634 86.7699 123.987 87.3551C123.344 87.9347 122.577 88.3949 121.685 88.7358C120.799 89.071 119.796 89.2386 118.677 89.2386C117.12 89.2386 115.728 88.8864 114.501 88.1818C113.279 87.4773 112.313 86.4574 111.603 85.1222C110.898 83.7869 110.546 82.1705 110.546 80.2727C110.546 78.3693 110.904 76.75 111.62 75.4148C112.336 74.0795 113.308 73.0625 114.535 72.3636C115.762 71.6591 117.143 71.3068 118.677 71.3068C119.688 71.3068 120.626 71.4489 121.489 71.733C122.359 72.017 123.129 72.4318 123.799 72.9773C124.469 73.517 125.015 74.179 125.435 74.9631C125.862 75.7472 126.134 76.6449 126.254 77.6562ZM132.462 81.4318V89H128.832V71.5455H132.36V78.2188H132.513C132.809 77.446 133.286 76.8409 133.945 76.4034C134.604 75.9602 135.431 75.7386 136.425 75.7386C137.335 75.7386 138.127 75.9375 138.803 76.3352C139.485 76.7273 140.013 77.2926 140.388 78.0312C140.769 78.7642 140.957 79.642 140.951 80.6648V89H137.32V81.3125C137.326 80.5057 137.121 79.8778 136.707 79.429C136.298 78.9801 135.724 78.7557 134.985 78.7557C134.491 78.7557 134.053 78.8608 133.673 79.071C133.298 79.2812 133.002 79.5881 132.786 79.9915C132.576 80.3892 132.468 80.8693 132.462 81.4318ZM147.541 89.2472C146.706 89.2472 145.962 89.1023 145.308 88.8125C144.655 88.517 144.138 88.0824 143.757 87.5085C143.382 86.929 143.195 86.2074 143.195 85.3438C143.195 84.6165 143.328 84.0057 143.595 83.5114C143.862 83.017 144.226 82.6193 144.686 82.3182C145.146 82.017 145.669 81.7898 146.254 81.6364C146.845 81.483 147.464 81.375 148.112 81.3125C148.874 81.233 149.487 81.1591 149.953 81.0909C150.419 81.017 150.757 80.9091 150.967 80.767C151.178 80.625 151.283 80.4148 151.283 80.1364V80.0852C151.283 79.5455 151.112 79.1278 150.771 78.8324C150.436 78.5369 149.959 78.3892 149.339 78.3892C148.686 78.3892 148.166 78.5341 147.78 78.8239C147.393 79.108 147.138 79.4659 147.013 79.8977L143.655 79.625C143.825 78.8295 144.161 78.142 144.661 77.5625C145.161 76.9773 145.805 76.5284 146.595 76.2159C147.391 75.8977 148.311 75.7386 149.357 75.7386C150.084 75.7386 150.78 75.8239 151.445 75.9943C152.115 76.1648 152.709 76.429 153.226 76.7869C153.749 77.1449 154.161 77.6051 154.462 78.1676C154.763 78.7244 154.913 79.392 154.913 80.1705V89H151.47V87.1847H151.368C151.158 87.5938 150.876 87.9545 150.524 88.267C150.172 88.5739 149.749 88.8153 149.254 88.9915C148.76 89.1619 148.189 89.2472 147.541 89.2472ZM148.581 86.7415C149.115 86.7415 149.587 86.6364 149.996 86.4261C150.405 86.2102 150.726 85.9205 150.959 85.5568C151.192 85.1932 151.308 84.7812 151.308 84.321V82.9318C151.195 83.0057 151.038 83.0739 150.839 83.1364C150.646 83.1932 150.428 83.2472 150.183 83.2983C149.939 83.3437 149.695 83.3864 149.45 83.4261C149.206 83.4602 148.984 83.4915 148.786 83.5199C148.359 83.5824 147.987 83.6818 147.669 83.8182C147.351 83.9545 147.104 84.1392 146.928 84.3722C146.751 84.5994 146.663 84.8835 146.663 85.2244C146.663 85.7188 146.842 86.0966 147.2 86.358C147.564 86.6136 148.024 86.7415 148.581 86.7415ZM161.361 81.4318V89H157.73V75.9091H161.19V78.2188H161.344C161.634 77.4574 162.119 76.8551 162.801 76.4119C163.483 75.9631 164.31 75.7386 165.281 75.7386C166.19 75.7386 166.983 75.9375 167.659 76.3352C168.335 76.733 168.861 77.3011 169.236 78.0398C169.611 78.7727 169.798 79.6477 169.798 80.6648V89H166.168V81.3125C166.173 80.5114 165.969 79.8864 165.554 79.4375C165.139 78.983 164.568 78.7557 163.841 78.7557C163.352 78.7557 162.92 78.8608 162.545 79.071C162.176 79.2812 161.886 79.5881 161.676 79.9915C161.472 80.3892 161.366 80.8693 161.361 81.4318ZM176.29 81.4318V89H172.66V75.9091H176.12V78.2188H176.273C176.563 77.4574 177.049 76.8551 177.731 76.4119C178.413 75.9631 179.239 75.7386 180.211 75.7386C181.12 75.7386 181.913 75.9375 182.589 76.3352C183.265 76.733 183.79 77.3011 184.165 78.0398C184.54 78.7727 184.728 79.6477 184.728 80.6648V89H181.097V81.3125C181.103 80.5114 180.898 79.8864 180.484 79.4375C180.069 78.983 179.498 78.7557 178.771 78.7557C178.282 78.7557 177.85 78.8608 177.475 79.071C177.106 79.2812 176.816 79.5881 176.606 79.9915C176.401 80.3892 176.296 80.8693 176.29 81.4318ZM193.555 89.2557C192.209 89.2557 191.05 88.983 190.078 88.4375C189.112 87.8864 188.368 87.108 187.845 86.1023C187.322 85.0909 187.061 83.8949 187.061 82.5142C187.061 81.1676 187.322 79.9858 187.845 78.9688C188.368 77.9517 189.104 77.1591 190.053 76.5909C191.007 76.0227 192.126 75.7386 193.411 75.7386C194.274 75.7386 195.078 75.8778 195.822 76.1562C196.572 76.429 197.226 76.8409 197.783 77.392C198.345 77.9432 198.783 78.6364 199.095 79.4716C199.408 80.3011 199.564 81.2727 199.564 82.3864V83.3835H188.51V81.1335H196.146C196.146 80.6108 196.033 80.1477 195.805 79.7443C195.578 79.3409 195.263 79.0256 194.859 78.7983C194.462 78.5653 193.999 78.4489 193.47 78.4489C192.919 78.4489 192.43 78.5767 192.004 78.8324C191.584 79.0824 191.254 79.4205 191.016 79.8466C190.777 80.267 190.655 80.7358 190.649 81.2528V83.392C190.649 84.0398 190.768 84.5994 191.007 85.071C191.251 85.5426 191.595 85.9062 192.038 86.1619C192.482 86.4176 193.007 86.5455 193.615 86.5455C194.018 86.5455 194.388 86.4886 194.723 86.375C195.058 86.2614 195.345 86.0909 195.584 85.8636C195.822 85.6364 196.004 85.358 196.129 85.0284L199.487 85.25C199.317 86.0568 198.967 86.7614 198.439 87.3636C197.916 87.9602 197.24 88.4261 196.411 88.7614C195.587 89.0909 194.635 89.2557 193.555 89.2557ZM205.564 71.5455V89H201.933V71.5455H205.564ZM219.364 79.642L216.04 79.8466C215.984 79.5625 215.862 79.3068 215.674 79.0795C215.487 78.8466 215.239 78.6619 214.933 78.5256C214.631 78.3835 214.271 78.3125 213.85 78.3125C213.288 78.3125 212.813 78.4318 212.427 78.6705C212.04 78.9034 211.847 79.2159 211.847 79.608C211.847 79.9205 211.972 80.1847 212.222 80.4006C212.472 80.6165 212.901 80.7898 213.509 80.9205L215.879 81.3977C217.151 81.6591 218.1 82.0795 218.725 82.6591C219.35 83.2386 219.663 84 219.663 84.9432C219.663 85.8011 219.41 86.554 218.904 87.2017C218.404 87.8494 217.717 88.3551 216.842 88.7188C215.972 89.0767 214.969 89.2557 213.833 89.2557C212.1 89.2557 210.719 88.8949 209.691 88.1733C208.668 87.446 208.069 86.4574 207.893 85.2074L211.464 85.0199C211.572 85.5483 211.833 85.9517 212.248 86.2301C212.663 86.5028 213.194 86.6392 213.842 86.6392C214.478 86.6392 214.989 86.517 215.376 86.2727C215.768 86.0227 215.967 85.7017 215.972 85.3097C215.967 84.9801 215.827 84.7102 215.555 84.5C215.282 84.2841 214.862 84.1193 214.293 84.0057L212.026 83.554C210.748 83.2983 209.796 82.8551 209.171 82.2244C208.552 81.5937 208.242 80.7898 208.242 79.8125C208.242 78.9716 208.469 78.2472 208.924 77.6392C209.384 77.0312 210.029 76.5625 210.859 76.233C211.694 75.9034 212.671 75.7386 213.79 75.7386C215.444 75.7386 216.745 76.0881 217.694 76.7869C218.648 77.4858 219.205 78.4375 219.364 79.642Z" fill="#23262F"/>
<rect x="48" y="116" width="276" height="2" fill="#E6E8EC"/>
<rect x="48" y="158" width="54" height="24" rx="12" fill="#090F1D"/>
<circle cx="89" cy="170" r="9" fill="white"/>
<path d="M111.136 175V163.8H115.056C115.931 163.8 116.656 163.949 117.232 164.248C117.808 164.536 118.235 164.936 118.512 165.448C118.8 165.949 118.944 166.52 118.944 167.16C118.944 167.768 118.805 168.328 118.528 168.84C118.261 169.341 117.84 169.741 117.264 170.04C116.688 170.339 115.952 170.488 115.056 170.488H112.832V175H111.136ZM112.832 169.096H114.976C115.776 169.096 116.347 168.925 116.688 168.584C117.04 168.232 117.216 167.757 117.216 167.16C117.216 166.541 117.04 166.061 116.688 165.72C116.347 165.368 115.776 165.192 114.976 165.192H112.832V169.096ZM122.807 175.192C122.135 175.192 121.58 175.08 121.143 174.856C120.706 174.632 120.38 174.339 120.167 173.976C119.954 173.603 119.847 173.197 119.847 172.76C119.847 171.992 120.146 171.384 120.743 170.936C121.34 170.488 122.194 170.264 123.303 170.264H125.383V170.12C125.383 169.501 125.212 169.037 124.871 168.728C124.54 168.419 124.108 168.264 123.575 168.264C123.106 168.264 122.695 168.381 122.343 168.616C122.002 168.84 121.794 169.176 121.719 169.624H120.023C120.076 169.048 120.268 168.557 120.599 168.152C120.94 167.736 121.367 167.421 121.879 167.208C122.402 166.984 122.972 166.872 123.591 166.872C124.7 166.872 125.559 167.165 126.167 167.752C126.775 168.328 127.079 169.117 127.079 170.12V175H125.607L125.463 173.64C125.239 174.077 124.914 174.445 124.487 174.744C124.06 175.043 123.5 175.192 122.807 175.192ZM123.143 173.816C123.602 173.816 123.986 173.709 124.295 173.496C124.615 173.272 124.86 172.979 125.031 172.616C125.212 172.253 125.324 171.853 125.367 171.416H123.479C122.807 171.416 122.327 171.533 122.039 171.768C121.762 172.003 121.623 172.296 121.623 172.648C121.623 173.011 121.756 173.299 122.023 173.512C122.3 173.715 122.674 173.816 123.143 173.816ZM130.016 165.56C129.696 165.56 129.43 165.464 129.216 165.272C129.014 165.069 128.912 164.819 128.912 164.52C128.912 164.221 129.014 163.976 129.216 163.784C129.43 163.581 129.696 163.48 130.016 163.48C130.336 163.48 130.598 163.581 130.8 163.784C131.014 163.976 131.12 164.221 131.12 164.52C131.12 164.819 131.014 165.069 130.8 165.272C130.598 165.464 130.336 165.56 130.016 165.56ZM129.168 175V167.064H130.864V175H129.168ZM136.719 175.192C135.951 175.192 135.274 175.011 134.687 174.648C134.101 174.285 133.642 173.789 133.311 173.16C132.981 172.531 132.815 171.816 132.815 171.016C132.815 170.216 132.981 169.507 133.311 168.888C133.642 168.259 134.101 167.768 134.687 167.416C135.285 167.053 135.967 166.872 136.735 166.872C137.365 166.872 137.914 166.995 138.383 167.24C138.863 167.485 139.237 167.832 139.503 168.28V163.48H141.199V175H139.679L139.503 173.768C139.247 174.141 138.895 174.472 138.447 174.76C137.999 175.048 137.423 175.192 136.719 175.192ZM137.023 173.72C137.749 173.72 138.341 173.469 138.799 172.968C139.269 172.467 139.503 171.821 139.503 171.032C139.503 170.232 139.269 169.587 138.799 169.096C138.341 168.595 137.749 168.344 137.023 168.344C136.298 168.344 135.701 168.595 135.231 169.096C134.762 169.587 134.527 170.232 134.527 171.032C134.527 171.555 134.634 172.019 134.847 172.424C135.061 172.829 135.354 173.149 135.727 173.384C136.111 173.608 136.543 173.72 137.023 173.72ZM151.129 175.192C150.308 175.192 149.588 175.048 148.969 174.76C148.35 174.472 147.865 174.061 147.513 173.528C147.172 172.995 146.996 172.36 146.985 171.624H148.777C148.788 172.221 148.996 172.728 149.401 173.144C149.806 173.56 150.377 173.768 151.113 173.768C151.764 173.768 152.27 173.613 152.633 173.304C153.006 172.984 153.193 172.579 153.193 172.088C153.193 171.693 153.102 171.373 152.921 171.128C152.75 170.883 152.51 170.68 152.201 170.52C151.902 170.36 151.556 170.216 151.161 170.088C150.766 169.96 150.35 169.821 149.913 169.672C149.049 169.384 148.398 169.011 147.961 168.552C147.534 168.093 147.321 167.491 147.321 166.744C147.31 166.115 147.454 165.565 147.753 165.096C148.062 164.627 148.489 164.264 149.033 164.008C149.588 163.741 150.233 163.608 150.969 163.608C151.694 163.608 152.329 163.741 152.873 164.008C153.428 164.275 153.86 164.648 154.169 165.128C154.478 165.597 154.638 166.147 154.649 166.776H152.857C152.857 166.488 152.782 166.216 152.633 165.96C152.484 165.693 152.265 165.475 151.977 165.304C151.689 165.133 151.337 165.048 150.921 165.048C150.388 165.037 149.945 165.171 149.593 165.448C149.252 165.725 149.081 166.109 149.081 166.6C149.081 167.037 149.209 167.373 149.465 167.608C149.721 167.843 150.073 168.04 150.521 168.2C150.969 168.349 151.481 168.525 152.057 168.728C152.612 168.909 153.108 169.128 153.545 169.384C153.982 169.64 154.329 169.976 154.585 170.392C154.852 170.808 154.985 171.336 154.985 171.976C154.985 172.541 154.841 173.069 154.553 173.56C154.265 174.04 153.833 174.435 153.257 174.744C152.681 175.043 151.972 175.192 151.129 175.192ZM160.487 175.192C159.708 175.192 159.015 175.021 158.407 174.68C157.81 174.328 157.34 173.843 156.999 173.224C156.658 172.605 156.487 171.885 156.487 171.064C156.487 170.232 156.652 169.501 156.983 168.872C157.324 168.243 157.794 167.752 158.391 167.4C158.999 167.048 159.703 166.872 160.503 166.872C161.282 166.872 161.959 167.048 162.535 167.4C163.111 167.741 163.559 168.2 163.879 168.776C164.199 169.352 164.359 169.987 164.359 170.68C164.359 170.787 164.354 170.904 164.343 171.032C164.343 171.149 164.338 171.283 164.327 171.432H158.151C158.204 172.2 158.455 172.787 158.903 173.192C159.362 173.587 159.89 173.784 160.487 173.784C160.967 173.784 161.367 173.677 161.687 173.464C162.018 173.24 162.263 172.941 162.423 172.568H164.119C163.906 173.315 163.479 173.939 162.839 174.44C162.21 174.941 161.426 175.192 160.487 175.192ZM160.487 168.264C159.922 168.264 159.42 168.435 158.983 168.776C158.546 169.107 158.279 169.608 158.183 170.28H162.663C162.631 169.661 162.412 169.171 162.007 168.808C161.602 168.445 161.095 168.264 160.487 168.264ZM168.807 175.192C168.135 175.192 167.58 175.08 167.143 174.856C166.706 174.632 166.38 174.339 166.167 173.976C165.954 173.603 165.847 173.197 165.847 172.76C165.847 171.992 166.146 171.384 166.743 170.936C167.34 170.488 168.194 170.264 169.303 170.264H171.383V170.12C171.383 169.501 171.212 169.037 170.871 168.728C170.54 168.419 170.108 168.264 169.575 168.264C169.106 168.264 168.695 168.381 168.343 168.616C168.002 168.84 167.794 169.176 167.719 169.624H166.023C166.076 169.048 166.268 168.557 166.599 168.152C166.94 167.736 167.367 167.421 167.879 167.208C168.402 166.984 168.972 166.872 169.591 166.872C170.7 166.872 171.559 167.165 172.167 167.752C172.775 168.328 173.079 169.117 173.079 170.12V175H171.607L171.463 173.64C171.239 174.077 170.914 174.445 170.487 174.744C170.06 175.043 169.5 175.192 168.807 175.192ZM169.143 173.816C169.602 173.816 169.986 173.709 170.295 173.496C170.615 173.272 170.86 172.979 171.031 172.616C171.212 172.253 171.324 171.853 171.367 171.416H169.479C168.807 171.416 168.327 171.533 168.039 171.768C167.762 172.003 167.623 172.296 167.623 172.648C167.623 173.011 167.756 173.299 168.023 173.512C168.3 173.715 168.674 173.816 169.143 173.816ZM175.056 175V167.064H176.576L176.72 168.568C176.998 168.045 177.382 167.635 177.872 167.336C178.374 167.027 178.976 166.872 179.68 166.872V168.648H179.216C178.747 168.648 178.326 168.728 177.952 168.888C177.59 169.037 177.296 169.299 177.072 169.672C176.859 170.035 176.752 170.541 176.752 171.192V175H175.056ZM184.676 175.192C183.897 175.192 183.198 175.016 182.58 174.664C181.972 174.312 181.492 173.827 181.14 173.208C180.798 172.579 180.628 171.853 180.628 171.032C180.628 170.211 180.798 169.491 181.14 168.872C181.492 168.243 181.972 167.752 182.58 167.4C183.198 167.048 183.897 166.872 184.676 166.872C185.657 166.872 186.478 167.128 187.14 167.64C187.812 168.152 188.244 168.845 188.436 169.72H186.66C186.553 169.283 186.318 168.941 185.956 168.696C185.593 168.451 185.166 168.328 184.676 168.328C184.26 168.328 183.876 168.435 183.524 168.648C183.172 168.851 182.889 169.155 182.676 169.56C182.462 169.955 182.356 170.445 182.356 171.032C182.356 171.619 182.462 172.115 182.676 172.52C182.889 172.915 183.172 173.219 183.524 173.432C183.876 173.645 184.26 173.752 184.676 173.752C185.166 173.752 185.593 173.629 185.956 173.384C186.318 173.139 186.553 172.792 186.66 172.344H188.436C188.254 173.197 187.828 173.885 187.156 174.408C186.484 174.931 185.657 175.192 184.676 175.192ZM190.275 175V163.48H191.971V168.344C192.238 167.885 192.606 167.528 193.075 167.272C193.555 167.005 194.083 166.872 194.659 166.872C195.608 166.872 196.355 167.171 196.899 167.768C197.443 168.365 197.715 169.256 197.715 170.44V175H196.035V170.616C196.035 169.08 195.422 168.312 194.195 168.312C193.555 168.312 193.022 168.536 192.595 168.984C192.179 169.432 191.971 170.072 191.971 170.904V175H190.275Z" fill="#4B5567"/>
<rect x="48" y="198" width="54" height="24" rx="12" fill="#090F1D"/>
<circle cx="89" cy="210" r="9" fill="white"/>
<path d="M111.136 215V203.8H115.056C115.931 203.8 116.656 203.949 117.232 204.248C117.808 204.536 118.235 204.936 118.512 205.448C118.8 205.949 118.944 206.52 118.944 207.16C118.944 207.768 118.805 208.328 118.528 208.84C118.261 209.341 117.84 209.741 117.264 210.04C116.688 210.339 115.952 210.488 115.056 210.488H112.832V215H111.136ZM112.832 209.096H114.976C115.776 209.096 116.347 208.925 116.688 208.584C117.04 208.232 117.216 207.757 117.216 207.16C117.216 206.541 117.04 206.061 116.688 205.72C116.347 205.368 115.776 205.192 114.976 205.192H112.832V209.096ZM122.807 215.192C122.135 215.192 121.58 215.08 121.143 214.856C120.706 214.632 120.38 214.339 120.167 213.976C119.954 213.603 119.847 213.197 119.847 212.76C119.847 211.992 120.146 211.384 120.743 210.936C121.34 210.488 122.194 210.264 123.303 210.264H125.383V210.12C125.383 209.501 125.212 209.037 124.871 208.728C124.54 208.419 124.108 208.264 123.575 208.264C123.106 208.264 122.695 208.381 122.343 208.616C122.002 208.84 121.794 209.176 121.719 209.624H120.023C120.076 209.048 120.268 208.557 120.599 208.152C120.94 207.736 121.367 207.421 121.879 207.208C122.402 206.984 122.972 206.872 123.591 206.872C124.7 206.872 125.559 207.165 126.167 207.752C126.775 208.328 127.079 209.117 127.079 210.12V215H125.607L125.463 213.64C125.239 214.077 124.914 214.445 124.487 214.744C124.06 215.043 123.5 215.192 122.807 215.192ZM123.143 213.816C123.602 213.816 123.986 213.709 124.295 213.496C124.615 213.272 124.86 212.979 125.031 212.616C125.212 212.253 125.324 211.853 125.367 211.416H123.479C122.807 211.416 122.327 211.533 122.039 211.768C121.762 212.003 121.623 212.296 121.623 212.648C121.623 213.011 121.756 213.299 122.023 213.512C122.3 213.715 122.674 213.816 123.143 213.816ZM130.016 205.56C129.696 205.56 129.43 205.464 129.216 205.272C129.014 205.069 128.912 204.819 128.912 204.52C128.912 204.221 129.014 203.976 129.216 203.784C129.43 203.581 129.696 203.48 130.016 203.48C130.336 203.48 130.598 203.581 130.8 203.784C131.014 203.976 131.12 204.221 131.12 204.52C131.12 204.819 131.014 205.069 130.8 205.272C130.598 205.464 130.336 205.56 130.016 205.56ZM129.168 215V207.064H130.864V215H129.168ZM136.719 215.192C135.951 215.192 135.274 215.011 134.687 214.648C134.101 214.285 133.642 213.789 133.311 213.16C132.981 212.531 132.815 211.816 132.815 211.016C132.815 210.216 132.981 209.507 133.311 208.888C133.642 208.259 134.101 207.768 134.687 207.416C135.285 207.053 135.967 206.872 136.735 206.872C137.365 206.872 137.914 206.995 138.383 207.24C138.863 207.485 139.237 207.832 139.503 208.28V203.48H141.199V215H139.679L139.503 213.768C139.247 214.141 138.895 214.472 138.447 214.76C137.999 215.048 137.423 215.192 136.719 215.192ZM137.023 213.72C137.749 213.72 138.341 213.469 138.799 212.968C139.269 212.467 139.503 211.821 139.503 211.032C139.503 210.232 139.269 209.587 138.799 209.096C138.341 208.595 137.749 208.344 137.023 208.344C136.298 208.344 135.701 208.595 135.231 209.096C134.762 209.587 134.527 210.232 134.527 211.032C134.527 211.555 134.634 212.019 134.847 212.424C135.061 212.829 135.354 213.149 135.727 213.384C136.111 213.608 136.543 213.72 137.023 213.72ZM151.129 215.192C150.308 215.192 149.588 215.048 148.969 214.76C148.35 214.472 147.865 214.061 147.513 213.528C147.172 212.995 146.996 212.36 146.985 211.624H148.777C148.788 212.221 148.996 212.728 149.401 213.144C149.806 213.56 150.377 213.768 151.113 213.768C151.764 213.768 152.27 213.613 152.633 213.304C153.006 212.984 153.193 212.579 153.193 212.088C153.193 211.693 153.102 211.373 152.921 211.128C152.75 210.883 152.51 210.68 152.201 210.52C151.902 210.36 151.556 210.216 151.161 210.088C150.766 209.96 150.35 209.821 149.913 209.672C149.049 209.384 148.398 209.011 147.961 208.552C147.534 208.093 147.321 207.491 147.321 206.744C147.31 206.115 147.454 205.565 147.753 205.096C148.062 204.627 148.489 204.264 149.033 204.008C149.588 203.741 150.233 203.608 150.969 203.608C151.694 203.608 152.329 203.741 152.873 204.008C153.428 204.275 153.86 204.648 154.169 205.128C154.478 205.597 154.638 206.147 154.649 206.776H152.857C152.857 206.488 152.782 206.216 152.633 205.96C152.484 205.693 152.265 205.475 151.977 205.304C151.689 205.133 151.337 205.048 150.921 205.048C150.388 205.037 149.945 205.171 149.593 205.448C149.252 205.725 149.081 206.109 149.081 206.6C149.081 207.037 149.209 207.373 149.465 207.608C149.721 207.843 150.073 208.04 150.521 208.2C150.969 208.349 151.481 208.525 152.057 208.728C152.612 208.909 153.108 209.128 153.545 209.384C153.982 209.64 154.329 209.976 154.585 210.392C154.852 210.808 154.985 211.336 154.985 211.976C154.985 212.541 154.841 213.069 154.553 213.56C154.265 214.04 153.833 214.435 153.257 214.744C152.681 215.043 151.972 215.192 151.129 215.192ZM160.487 215.192C159.73 215.192 159.047 215.021 158.439 214.68C157.842 214.328 157.367 213.843 157.015 213.224C156.663 212.595 156.487 211.864 156.487 211.032C156.487 210.2 156.663 209.475 157.015 208.856C157.378 208.227 157.863 207.741 158.471 207.4C159.079 207.048 159.756 206.872 160.503 206.872C161.26 206.872 161.938 207.048 162.535 207.4C163.143 207.741 163.623 208.227 163.975 208.856C164.338 209.475 164.519 210.2 164.519 211.032C164.519 211.864 164.338 212.595 163.975 213.224C163.623 213.843 163.143 214.328 162.535 214.68C161.927 215.021 161.244 215.192 160.487 215.192ZM160.487 213.736C160.892 213.736 161.266 213.635 161.607 213.432C161.959 213.229 162.242 212.931 162.455 212.536C162.668 212.131 162.775 211.629 162.775 211.032C162.775 210.435 162.668 209.939 162.455 209.544C162.252 209.139 161.975 208.835 161.623 208.632C161.282 208.429 160.908 208.328 160.503 208.328C160.098 208.328 159.719 208.429 159.367 208.632C159.026 208.835 158.748 209.139 158.535 209.544C158.322 209.939 158.215 210.435 158.215 211.032C158.215 211.629 158.322 212.131 158.535 212.536C158.748 212.931 159.026 213.229 159.367 213.432C159.708 213.635 160.082 213.736 160.487 213.736ZM170.113 215.192C169.335 215.192 168.636 215.016 168.017 214.664C167.409 214.312 166.929 213.827 166.577 213.208C166.236 212.579 166.065 211.853 166.065 211.032C166.065 210.211 166.236 209.491 166.577 208.872C166.929 208.243 167.409 207.752 168.017 207.4C168.636 207.048 169.335 206.872 170.113 206.872C171.095 206.872 171.916 207.128 172.577 207.64C173.249 208.152 173.681 208.845 173.873 209.72H172.097C171.991 209.283 171.756 208.941 171.393 208.696C171.031 208.451 170.604 208.328 170.113 208.328C169.697 208.328 169.313 208.435 168.961 208.648C168.609 208.851 168.327 209.155 168.113 209.56C167.9 209.955 167.793 210.445 167.793 211.032C167.793 211.619 167.9 212.115 168.113 212.52C168.327 212.915 168.609 213.219 168.961 213.432C169.313 213.645 169.697 213.752 170.113 213.752C170.604 213.752 171.031 213.629 171.393 213.384C171.756 213.139 171.991 212.792 172.097 212.344H173.873C173.692 213.197 173.265 213.885 172.593 214.408C171.921 214.931 171.095 215.192 170.113 215.192ZM176.673 205.56C176.353 205.56 176.086 205.464 175.873 205.272C175.67 205.069 175.569 204.819 175.569 204.52C175.569 204.221 175.67 203.976 175.873 203.784C176.086 203.581 176.353 203.48 176.673 203.48C176.993 203.48 177.254 203.581 177.457 203.784C177.67 203.976 177.777 204.221 177.777 204.52C177.777 204.819 177.67 205.069 177.457 205.272C177.254 205.464 176.993 205.56 176.673 205.56ZM175.825 215V207.064H177.521V215H175.825ZM182.448 215.192C181.776 215.192 181.221 215.08 180.784 214.856C180.346 214.632 180.021 214.339 179.808 213.976C179.594 213.603 179.488 213.197 179.488 212.76C179.488 211.992 179.786 211.384 180.384 210.936C180.981 210.488 181.834 210.264 182.944 210.264H185.024V210.12C185.024 209.501 184.853 209.037 184.512 208.728C184.181 208.419 183.749 208.264 183.216 208.264C182.746 208.264 182.336 208.381 181.984 208.616C181.642 208.84 181.434 209.176 181.36 209.624H179.664C179.717 209.048 179.909 208.557 180.24 208.152C180.581 207.736 181.008 207.421 181.52 207.208C182.042 206.984 182.613 206.872 183.232 206.872C184.341 206.872 185.2 207.165 185.808 207.752C186.416 208.328 186.72 209.117 186.72 210.12V215H185.248L185.104 213.64C184.88 214.077 184.554 214.445 184.128 214.744C183.701 215.043 183.141 215.192 182.448 215.192ZM182.784 213.816C183.242 213.816 183.626 213.709 183.936 213.496C184.256 213.272 184.501 212.979 184.672 212.616C184.853 212.253 184.965 211.853 185.008 211.416H183.12C182.448 211.416 181.968 211.533 181.68 211.768C181.402 212.003 181.264 212.296 181.264 212.648C181.264 213.011 181.397 213.299 181.664 213.512C181.941 213.715 182.314 213.816 182.784 213.816ZM188.697 215V203.48H190.393V215H188.697Z" fill="#4B5567"/>
<rect width="54" height="24" rx="12" transform="matrix(-1 0 0 1 102 238)" fill="#9CA3AF"/>
<circle cx="9" cy="9" r="9" transform="matrix(-1 0 0 1 70 241)" fill="white"/>
<path d="M116.128 255.192C115.019 255.192 114.059 254.952 113.248 254.472C112.448 253.981 111.829 253.304 111.392 252.44C110.955 251.565 110.736 250.557 110.736 249.416C110.736 248.264 110.955 247.256 111.392 246.392C111.829 245.517 112.448 244.835 113.248 244.344C114.059 243.853 115.019 243.608 116.128 243.608C117.44 243.608 118.512 243.928 119.344 244.568C120.176 245.208 120.704 246.104 120.928 247.256H119.04C118.891 246.605 118.571 246.088 118.08 245.704C117.589 245.32 116.933 245.128 116.112 245.128C114.992 245.128 114.107 245.512 113.456 246.28C112.805 247.037 112.48 248.083 112.48 249.416C112.48 250.739 112.805 251.779 113.456 252.536C114.107 253.293 114.992 253.672 116.112 253.672C116.933 253.672 117.589 253.491 118.08 253.128C118.571 252.765 118.891 252.269 119.04 251.64H120.928C120.704 252.749 120.176 253.619 119.344 254.248C118.512 254.877 117.44 255.192 116.128 255.192ZM126.44 255.192C125.683 255.192 125 255.021 124.392 254.68C123.795 254.328 123.32 253.843 122.968 253.224C122.616 252.595 122.44 251.864 122.44 251.032C122.44 250.2 122.616 249.475 122.968 248.856C123.331 248.227 123.816 247.741 124.424 247.4C125.032 247.048 125.71 246.872 126.456 246.872C127.214 246.872 127.891 247.048 128.488 247.4C129.096 247.741 129.576 248.227 129.928 248.856C130.291 249.475 130.472 250.2 130.472 251.032C130.472 251.864 130.291 252.595 129.928 253.224C129.576 253.843 129.096 254.328 128.488 254.68C127.88 255.021 127.198 255.192 126.44 255.192ZM126.44 253.736C126.846 253.736 127.219 253.635 127.56 253.432C127.912 253.229 128.195 252.931 128.408 252.536C128.622 252.131 128.728 251.629 128.728 251.032C128.728 250.435 128.622 249.939 128.408 249.544C128.206 249.139 127.928 248.835 127.576 248.632C127.235 248.429 126.862 248.328 126.456 248.328C126.051 248.328 125.672 248.429 125.32 248.632C124.979 248.835 124.702 249.139 124.488 249.544C124.275 249.939 124.168 250.435 124.168 251.032C124.168 251.629 124.275 252.131 124.488 252.536C124.702 252.931 124.979 253.229 125.32 253.432C125.662 253.635 126.035 253.736 126.44 253.736ZM132.306 255V247.064H133.81L133.938 248.456C134.184 247.965 134.541 247.581 135.01 247.304C135.49 247.016 136.04 246.872 136.658 246.872C137.618 246.872 138.37 247.171 138.914 247.768C139.469 248.365 139.746 249.256 139.746 250.44V255H138.066V250.616C138.066 249.08 137.437 248.312 136.178 248.312C135.549 248.312 135.026 248.536 134.61 248.984C134.205 249.432 134.002 250.072 134.002 250.904V255H132.306ZM145.072 255C144.293 255 143.675 254.813 143.216 254.44C142.757 254.056 142.528 253.379 142.528 252.408V248.488H141.168V247.064H142.528L142.736 245.048H144.224V247.064H146.464V248.488H144.224V252.408C144.224 252.845 144.315 253.149 144.496 253.32C144.688 253.48 145.013 253.56 145.472 253.56H146.384V255H145.072ZM151.722 255.192C150.943 255.192 150.25 255.021 149.642 254.68C149.044 254.328 148.575 253.843 148.234 253.224C147.892 252.605 147.722 251.885 147.722 251.064C147.722 250.232 147.887 249.501 148.218 248.872C148.559 248.243 149.028 247.752 149.626 247.4C150.234 247.048 150.938 246.872 151.738 246.872C152.516 246.872 153.194 247.048 153.77 247.4C154.346 247.741 154.794 248.2 155.114 248.776C155.434 249.352 155.594 249.987 155.594 250.68C155.594 250.787 155.588 250.904 155.578 251.032C155.578 251.149 155.572 251.283 155.562 251.432H149.386C149.439 252.2 149.69 252.787 150.138 253.192C150.596 253.587 151.124 253.784 151.722 253.784C152.202 253.784 152.602 253.677 152.922 253.464C153.252 253.24 153.498 252.941 153.658 252.568H155.354C155.14 253.315 154.714 253.939 154.074 254.44C153.444 254.941 152.66 255.192 151.722 255.192ZM151.722 248.264C151.156 248.264 150.655 248.435 150.218 248.776C149.78 249.107 149.514 249.608 149.418 250.28H153.898C153.866 249.661 153.647 249.171 153.242 248.808C152.836 248.445 152.33 248.264 151.722 248.264ZM157.353 255V247.064H158.857L158.985 248.456C159.231 247.965 159.588 247.581 160.057 247.304C160.537 247.016 161.087 246.872 161.705 246.872C162.665 246.872 163.417 247.171 163.961 247.768C164.516 248.365 164.793 249.256 164.793 250.44V255H163.113V250.616C163.113 249.08 162.484 248.312 161.225 248.312C160.596 248.312 160.073 248.536 159.657 248.984C159.252 249.432 159.049 250.072 159.049 250.904V255H157.353ZM170.119 255C169.34 255 168.721 254.813 168.263 254.44C167.804 254.056 167.575 253.379 167.575 252.408V248.488H166.215V247.064H167.575L167.783 245.048H169.271V247.064H171.511V248.488H169.271V252.408C169.271 252.845 169.361 253.149 169.543 253.32C169.735 253.48 170.06 253.56 170.519 253.56H171.431V255H170.119ZM181.051 255.192C180.229 255.192 179.509 255.048 178.891 254.76C178.272 254.472 177.787 254.061 177.435 253.528C177.093 252.995 176.917 252.36 176.907 251.624H178.699C178.709 252.221 178.917 252.728 179.323 253.144C179.728 253.56 180.299 253.768 181.035 253.768C181.685 253.768 182.192 253.613 182.555 253.304C182.928 252.984 183.115 252.579 183.115 252.088C183.115 251.693 183.024 251.373 182.843 251.128C182.672 250.883 182.432 250.68 182.123 250.52C181.824 250.36 181.477 250.216 181.083 250.088C180.688 249.96 180.272 249.821 179.835 249.672C178.971 249.384 178.32 249.011 177.883 248.552C177.456 248.093 177.243 247.491 177.243 246.744C177.232 246.115 177.376 245.565 177.675 245.096C177.984 244.627 178.411 244.264 178.955 244.008C179.509 243.741 180.155 243.608 180.891 243.608C181.616 243.608 182.251 243.741 182.795 244.008C183.349 244.275 183.781 244.648 184.091 245.128C184.4 245.597 184.56 246.147 184.571 246.776H182.779C182.779 246.488 182.704 246.216 182.555 245.96C182.405 245.693 182.187 245.475 181.899 245.304C181.611 245.133 181.259 245.048 180.843 245.048C180.309 245.037 179.867 245.171 179.515 245.448C179.173 245.725 179.003 246.109 179.003 246.6C179.003 247.037 179.131 247.373 179.387 247.608C179.643 247.843 179.995 248.04 180.443 248.2C180.891 248.349 181.403 248.525 181.979 248.728C182.533 248.909 183.029 249.128 183.467 249.384C183.904 249.64 184.251 249.976 184.507 250.392C184.773 250.808 184.907 251.336 184.907 251.976C184.907 252.541 184.763 253.069 184.475 253.56C184.187 254.04 183.755 254.435 183.179 254.744C182.603 255.043 181.893 255.192 181.051 255.192ZM187.625 258.52L189.529 254.344H189.065L185.929 247.064H187.769L190.201 252.936L192.745 247.064H194.537L189.417 258.52H187.625ZM195.931 255V247.064H197.435L197.563 248.456C197.809 247.965 198.166 247.581 198.635 247.304C199.115 247.016 199.665 246.872 200.283 246.872C201.243 246.872 201.995 247.171 202.539 247.768C203.094 248.365 203.371 249.256 203.371 250.44V255H201.691V250.616C201.691 249.08 201.062 248.312 199.803 248.312C199.174 248.312 198.651 248.536 198.235 248.984C197.83 249.432 197.627 250.072 197.627 250.904V255H195.931ZM208.985 255.192C208.217 255.192 207.54 255.011 206.953 254.648C206.366 254.285 205.908 253.789 205.577 253.16C205.246 252.531 205.081 251.816 205.081 251.016C205.081 250.216 205.246 249.507 205.577 248.888C205.908 248.259 206.366 247.768 206.953 247.416C207.55 247.053 208.233 246.872 209.001 246.872C209.63 246.872 210.18 246.995 210.649 247.24C211.129 247.485 211.502 247.832 211.769 248.28V243.48H213.465V255H211.945L211.769 253.768C211.513 254.141 211.161 254.472 210.713 254.76C210.265 255.048 209.689 255.192 208.985 255.192ZM209.289 253.72C210.014 253.72 210.606 253.469 211.065 252.968C211.534 252.467 211.769 251.821 211.769 251.032C211.769 250.232 211.534 249.587 211.065 249.096C210.606 248.595 210.014 248.344 209.289 248.344C208.564 248.344 207.966 248.595 207.497 249.096C207.028 249.587 206.793 250.232 206.793 251.032C206.793 251.555 206.9 252.019 207.113 252.424C207.326 252.829 207.62 253.149 207.993 253.384C208.377 253.608 208.809 253.72 209.289 253.72ZM216.563 245.56C216.243 245.56 215.977 245.464 215.763 245.272C215.561 245.069 215.459 244.819 215.459 244.52C215.459 244.221 215.561 243.976 215.763 243.784C215.977 243.581 216.243 243.48 216.563 243.48C216.883 243.48 217.145 243.581 217.347 243.784C217.561 243.976 217.667 244.221 217.667 244.52C217.667 244.819 217.561 245.069 217.347 245.272C217.145 245.464 216.883 245.56 216.563 245.56ZM215.715 255V247.064H217.411V255H215.715ZM223.41 255.192C222.631 255.192 221.933 255.016 221.314 254.664C220.706 254.312 220.226 253.827 219.874 253.208C219.533 252.579 219.362 251.853 219.362 251.032C219.362 250.211 219.533 249.491 219.874 248.872C220.226 248.243 220.706 247.752 221.314 247.4C221.933 247.048 222.631 246.872 223.41 246.872C224.391 246.872 225.213 247.128 225.874 247.64C226.546 248.152 226.978 248.845 227.17 249.72H225.394C225.287 249.283 225.053 248.941 224.69 248.696C224.327 248.451 223.901 248.328 223.41 248.328C222.994 248.328 222.61 248.435 222.258 248.648C221.906 248.851 221.623 249.155 221.41 249.56C221.197 249.955 221.09 250.445 221.09 251.032C221.09 251.619 221.197 252.115 221.41 252.52C221.623 252.915 221.906 253.219 222.258 253.432C222.61 253.645 222.994 253.752 223.41 253.752C223.901 253.752 224.327 253.629 224.69 253.384C225.053 253.139 225.287 252.792 225.394 252.344H227.17C226.989 253.197 226.562 253.885 225.89 254.408C225.218 254.931 224.391 255.192 223.41 255.192ZM231.698 255.192C231.026 255.192 230.471 255.08 230.034 254.856C229.596 254.632 229.271 254.339 229.058 253.976C228.844 253.603 228.738 253.197 228.738 252.76C228.738 251.992 229.036 251.384 229.634 250.936C230.231 250.488 231.084 250.264 232.194 250.264H234.274V250.12C234.274 249.501 234.103 249.037 233.762 248.728C233.431 248.419 232.999 248.264 232.466 248.264C231.996 248.264 231.586 248.381 231.234 248.616C230.892 248.84 230.684 249.176 230.61 249.624H228.914C228.967 249.048 229.159 248.557 229.49 248.152C229.831 247.736 230.258 247.421 230.77 247.208C231.292 246.984 231.863 246.872 232.482 246.872C233.591 246.872 234.45 247.165 235.058 247.752C235.666 248.328 235.97 249.117 235.97 250.12V255H234.498L234.354 253.64C234.13 254.077 233.804 254.445 233.378 254.744C232.951 255.043 232.391 255.192 231.698 255.192ZM232.034 253.816C232.492 253.816 232.876 253.709 233.186 253.496C233.506 253.272 233.751 252.979 233.922 252.616C234.103 252.253 234.215 251.853 234.258 251.416H232.37C231.698 251.416 231.218 251.533 230.93 251.768C230.652 252.003 230.514 252.296 230.514 252.648C230.514 253.011 230.647 253.299 230.914 253.512C231.191 253.715 231.564 253.816 232.034 253.816ZM241.119 255C240.34 255 239.721 254.813 239.263 254.44C238.804 254.056 238.575 253.379 238.575 252.408V248.488H237.215V247.064H238.575L238.783 245.048H240.271V247.064H242.511V248.488H240.271V252.408C240.271 252.845 240.361 253.149 240.543 253.32C240.735 253.48 241.06 253.56 241.519 253.56H242.431V255H241.119ZM245.22 245.56C244.9 245.56 244.633 245.464 244.42 245.272C244.217 245.069 244.116 244.819 244.116 244.52C244.116 244.221 244.217 243.976 244.42 243.784C244.633 243.581 244.9 243.48 245.22 243.48C245.54 243.48 245.801 243.581 246.004 243.784C246.217 243.976 246.324 244.221 246.324 244.52C246.324 244.819 246.217 245.069 246.004 245.272C245.801 245.464 245.54 245.56 245.22 245.56ZM244.372 255V247.064H246.068V255H244.372ZM252.018 255.192C251.261 255.192 250.578 255.021 249.97 254.68C249.373 254.328 248.898 253.843 248.546 253.224C248.194 252.595 248.018 251.864 248.018 251.032C248.018 250.2 248.194 249.475 248.546 248.856C248.909 248.227 249.394 247.741 250.002 247.4C250.61 247.048 251.288 246.872 252.034 246.872C252.792 246.872 253.469 247.048 254.066 247.4C254.674 247.741 255.154 248.227 255.506 248.856C255.869 249.475 256.05 250.2 256.05 251.032C256.05 251.864 255.869 252.595 255.506 253.224C255.154 253.843 254.674 254.328 254.066 254.68C253.458 255.021 252.776 255.192 252.018 255.192ZM252.018 253.736C252.424 253.736 252.797 253.635 253.138 253.432C253.49 253.229 253.773 252.931 253.986 252.536C254.2 252.131 254.306 251.629 254.306 251.032C254.306 250.435 254.2 249.939 253.986 249.544C253.784 249.139 253.506 248.835 253.154 248.632C252.813 248.429 252.44 248.328 252.034 248.328C251.629 248.328 251.25 248.429 250.898 248.632C250.557 248.835 250.28 249.139 250.066 249.544C249.853 249.939 249.746 250.435 249.746 251.032C249.746 251.629 249.853 252.131 250.066 252.536C250.28 252.931 250.557 253.229 250.898 253.432C251.24 253.635 251.613 253.736 252.018 253.736ZM257.885 255V247.064H259.389L259.517 248.456C259.762 247.965 260.119 247.581 260.589 247.304C261.069 247.016 261.618 246.872 262.237 246.872C263.197 246.872 263.949 247.171 264.493 247.768C265.047 248.365 265.325 249.256 265.325 250.44V255H263.645V250.616C263.645 249.08 263.015 248.312 261.757 248.312C261.127 248.312 260.605 248.536 260.189 248.984C259.783 249.432 259.581 250.072 259.581 250.904V255H257.885Z" fill="#4B5567"/>
<rect x="48" y="278" width="54" height="24" rx="12" fill="#090F1D"/>
<circle cx="89" cy="290" r="9" fill="white"/>
<path d="M111.136 295V283.8H114.768C116.08 283.8 117.157 284.029 118 284.488C118.853 284.947 119.483 285.597 119.888 286.44C120.304 287.272 120.512 288.264 120.512 289.416C120.512 290.557 120.304 291.549 119.888 292.392C119.483 293.224 118.853 293.869 118 294.328C117.157 294.776 116.08 295 114.768 295H111.136ZM112.832 293.56H114.704C115.717 293.56 116.517 293.395 117.104 293.064C117.701 292.733 118.128 292.259 118.384 291.64C118.651 291.021 118.784 290.28 118.784 289.416C118.784 288.552 118.651 287.805 118.384 287.176C118.128 286.547 117.701 286.067 117.104 285.736C116.517 285.395 115.717 285.224 114.704 285.224H112.832V293.56ZM123.282 285.56C122.962 285.56 122.695 285.464 122.482 285.272C122.279 285.069 122.178 284.819 122.178 284.52C122.178 284.221 122.279 283.976 122.482 283.784C122.695 283.581 122.962 283.48 123.282 283.48C123.602 283.48 123.863 283.581 124.066 283.784C124.279 283.976 124.386 284.221 124.386 284.52C124.386 284.819 124.279 285.069 124.066 285.272C123.863 285.464 123.602 285.56 123.282 285.56ZM122.434 295V287.064H124.13V295H122.434ZM129.537 295.192C128.534 295.192 127.708 294.947 127.057 294.456C126.406 293.965 126.033 293.315 125.937 292.504H127.649C127.734 292.867 127.937 293.181 128.257 293.448C128.577 293.704 128.998 293.832 129.521 293.832C130.033 293.832 130.406 293.725 130.641 293.512C130.876 293.299 130.993 293.053 130.993 292.776C130.993 292.371 130.828 292.099 130.497 291.96C130.177 291.811 129.729 291.677 129.153 291.56C128.705 291.464 128.257 291.336 127.809 291.176C127.372 291.016 127.004 290.792 126.705 290.504C126.417 290.205 126.273 289.805 126.273 289.304C126.273 288.611 126.54 288.035 127.073 287.576C127.606 287.107 128.353 286.872 129.313 286.872C130.198 286.872 130.913 287.085 131.457 287.512C132.012 287.939 132.337 288.541 132.433 289.32H130.801C130.748 288.979 130.588 288.712 130.321 288.52C130.065 288.328 129.718 288.232 129.281 288.232C128.854 288.232 128.524 288.323 128.289 288.504C128.054 288.675 127.937 288.899 127.937 289.176C127.937 289.453 128.097 289.672 128.417 289.832C128.748 289.992 129.18 290.136 129.713 290.264C130.246 290.381 130.737 290.52 131.185 290.68C131.644 290.829 132.012 291.053 132.289 291.352C132.566 291.651 132.705 292.088 132.705 292.664C132.716 293.389 132.433 293.992 131.857 294.472C131.292 294.952 130.518 295.192 129.537 295.192ZM134.556 298.52V287.064H136.076L136.252 288.296C136.508 287.923 136.86 287.592 137.308 287.304C137.756 287.016 138.332 286.872 139.036 286.872C139.804 286.872 140.482 287.053 141.068 287.416C141.655 287.779 142.114 288.275 142.444 288.904C142.786 289.533 142.956 290.248 142.956 291.048C142.956 291.848 142.786 292.563 142.444 293.192C142.114 293.811 141.655 294.301 141.068 294.664C140.482 295.016 139.799 295.192 139.02 295.192C138.402 295.192 137.852 295.069 137.372 294.824C136.903 294.579 136.53 294.232 136.252 293.784V298.52H134.556ZM138.732 293.72C139.458 293.72 140.055 293.475 140.524 292.984C140.994 292.483 141.228 291.832 141.228 291.032C141.228 290.509 141.122 290.045 140.908 289.64C140.695 289.235 140.402 288.92 140.028 288.696C139.655 288.461 139.223 288.344 138.732 288.344C138.007 288.344 137.41 288.595 136.94 289.096C136.482 289.597 136.252 290.243 136.252 291.032C136.252 291.832 136.482 292.483 136.94 292.984C137.41 293.475 138.007 293.72 138.732 293.72ZM144.791 295V283.48H146.487V295H144.791ZM151.323 295.192C150.651 295.192 150.096 295.08 149.659 294.856C149.221 294.632 148.896 294.339 148.683 293.976C148.469 293.603 148.363 293.197 148.363 292.76C148.363 291.992 148.661 291.384 149.259 290.936C149.856 290.488 150.709 290.264 151.819 290.264H153.899V290.12C153.899 289.501 153.728 289.037 153.387 288.728C153.056 288.419 152.624 288.264 152.091 288.264C151.621 288.264 151.211 288.381 150.859 288.616C150.517 288.84 150.309 289.176 150.235 289.624H148.539C148.592 289.048 148.784 288.557 149.115 288.152C149.456 287.736 149.883 287.421 150.395 287.208C150.917 286.984 151.488 286.872 152.107 286.872C153.216 286.872 154.075 287.165 154.683 287.752C155.291 288.328 155.595 289.117 155.595 290.12V295H154.123L153.979 293.64C153.755 294.077 153.429 294.445 153.003 294.744C152.576 295.043 152.016 295.192 151.323 295.192ZM151.659 293.816C152.117 293.816 152.501 293.709 152.811 293.496C153.131 293.272 153.376 292.979 153.547 292.616C153.728 292.253 153.84 291.853 153.883 291.416H151.995C151.323 291.416 150.843 291.533 150.555 291.768C150.277 292.003 150.139 292.296 150.139 292.648C150.139 293.011 150.272 293.299 150.539 293.512C150.816 293.715 151.189 293.816 151.659 293.816ZM158.25 298.52L160.154 294.344H159.69L156.554 287.064H158.394L160.826 292.936L163.37 287.064H165.162L160.042 298.52H158.25Z" fill="#4B5567"/>
<rect x="48" y="318" width="54" height="24" rx="12" fill="#090F1D"/>
<circle cx="89" cy="330" r="9" fill="white"/>
<path d="M111.136 335V323.8H118.256V325.176H112.832V328.664H117.776V330.008H112.832V333.624H118.256V335H111.136ZM120.213 335V327.064H121.717L121.861 328.184C122.117 327.779 122.453 327.459 122.869 327.224C123.295 326.989 123.786 326.872 124.341 326.872C125.599 326.872 126.474 327.368 126.965 328.36C127.253 327.901 127.637 327.539 128.117 327.272C128.607 327.005 129.135 326.872 129.701 326.872C130.693 326.872 131.471 327.171 132.037 327.768C132.602 328.365 132.885 329.256 132.885 330.44V335H131.189V330.616C131.189 329.08 130.602 328.312 129.429 328.312C128.831 328.312 128.341 328.536 127.957 328.984C127.583 329.432 127.397 330.072 127.397 330.904V335H125.701V330.616C125.701 329.08 125.109 328.312 123.925 328.312C123.338 328.312 122.853 328.536 122.469 328.984C122.095 329.432 121.909 330.072 121.909 330.904V335H120.213ZM137.557 335.192C136.885 335.192 136.33 335.08 135.893 334.856C135.456 334.632 135.13 334.339 134.917 333.976C134.704 333.603 134.597 333.197 134.597 332.76C134.597 331.992 134.896 331.384 135.493 330.936C136.09 330.488 136.944 330.264 138.053 330.264H140.133V330.12C140.133 329.501 139.962 329.037 139.621 328.728C139.29 328.419 138.858 328.264 138.325 328.264C137.856 328.264 137.445 328.381 137.093 328.616C136.752 328.84 136.544 329.176 136.469 329.624H134.773C134.826 329.048 135.018 328.557 135.349 328.152C135.69 327.736 136.117 327.421 136.629 327.208C137.152 326.984 137.722 326.872 138.341 326.872C139.45 326.872 140.309 327.165 140.917 327.752C141.525 328.328 141.829 329.117 141.829 330.12V335H140.357L140.213 333.64C139.989 334.077 139.664 334.445 139.237 334.744C138.81 335.043 138.25 335.192 137.557 335.192ZM137.893 333.816C138.352 333.816 138.736 333.709 139.045 333.496C139.365 333.272 139.61 332.979 139.781 332.616C139.962 332.253 140.074 331.853 140.117 331.416H138.229C137.557 331.416 137.077 331.533 136.789 331.768C136.512 332.003 136.373 332.296 136.373 332.648C136.373 333.011 136.506 333.299 136.773 333.512C137.05 333.715 137.424 333.816 137.893 333.816ZM144.766 325.56C144.446 325.56 144.18 325.464 143.966 325.272C143.764 325.069 143.662 324.819 143.662 324.52C143.662 324.221 143.764 323.976 143.966 323.784C144.18 323.581 144.446 323.48 144.766 323.48C145.086 323.48 145.348 323.581 145.55 323.784C145.764 323.976 145.87 324.221 145.87 324.52C145.87 324.819 145.764 325.069 145.55 325.272C145.348 325.464 145.086 325.56 144.766 325.56ZM143.918 335V327.064H145.614V335H143.918ZM147.853 335V323.48H149.549V335H147.853ZM154.865 335.192C153.862 335.192 153.036 334.947 152.385 334.456C151.734 333.965 151.361 333.315 151.265 332.504H152.977C153.062 332.867 153.265 333.181 153.585 333.448C153.905 333.704 154.326 333.832 154.849 333.832C155.361 333.832 155.734 333.725 155.969 333.512C156.204 333.299 156.321 333.053 156.321 332.776C156.321 332.371 156.156 332.099 155.825 331.96C155.505 331.811 155.057 331.677 154.481 331.56C154.033 331.464 153.585 331.336 153.137 331.176C152.7 331.016 152.332 330.792 152.033 330.504C151.745 330.205 151.601 329.805 151.601 329.304C151.601 328.611 151.868 328.035 152.401 327.576C152.934 327.107 153.681 326.872 154.641 326.872C155.526 326.872 156.241 327.085 156.785 327.512C157.34 327.939 157.665 328.541 157.761 329.32H156.129C156.076 328.979 155.916 328.712 155.649 328.52C155.393 328.328 155.046 328.232 154.609 328.232C154.182 328.232 153.852 328.323 153.617 328.504C153.382 328.675 153.265 328.899 153.265 329.176C153.265 329.453 153.425 329.672 153.745 329.832C154.076 329.992 154.508 330.136 155.041 330.264C155.574 330.381 156.065 330.52 156.513 330.68C156.972 330.829 157.34 331.053 157.617 331.352C157.894 331.651 158.033 332.088 158.033 332.664C158.044 333.389 157.761 333.992 157.185 334.472C156.62 334.952 155.846 335.192 154.865 335.192Z" fill="#4B5567"/>
<rect x="48" y="382" width="100" height="38" rx="19" fill="#EBEFFF"/>
<path d="M71.5266 406V394.8H73.2226V404.656H78.3106V406H71.5266ZM82.76 406.192C82.088 406.192 81.5333 406.08 81.096 405.856C80.6587 405.632 80.3333 405.339 80.12 404.976C79.9067 404.603 79.8 404.197 79.8 403.76C79.8 402.992 80.0987 402.384 80.696 401.936C81.2933 401.488 82.1467 401.264 83.256 401.264H85.336V401.12C85.336 400.501 85.1653 400.037 84.824 399.728C84.4933 399.419 84.0613 399.264 83.528 399.264C83.0587 399.264 82.648 399.381 82.296 399.616C81.9547 399.84 81.7467 400.176 81.672 400.624H79.976C80.0293 400.048 80.2213 399.557 80.552 399.152C80.8933 398.736 81.32 398.421 81.832 398.208C82.3547 397.984 82.9253 397.872 83.544 397.872C84.6533 397.872 85.512 398.165 86.12 398.752C86.728 399.328 87.032 400.117 87.032 401.12V406H85.56L85.416 404.64C85.192 405.077 84.8667 405.445 84.44 405.744C84.0133 406.043 83.4533 406.192 82.76 406.192ZM83.096 404.816C83.5547 404.816 83.9387 404.709 84.248 404.496C84.568 404.272 84.8133 403.979 84.984 403.616C85.1653 403.253 85.2773 402.853 85.32 402.416H83.432C82.76 402.416 82.28 402.533 81.992 402.768C81.7147 403.003 81.576 403.296 81.576 403.648C81.576 404.011 81.7093 404.299 81.976 404.512C82.2533 404.715 82.6267 404.816 83.096 404.816ZM91.9375 406.192C90.9775 406.192 90.2202 405.893 89.6655 405.296C89.1215 404.699 88.8495 403.808 88.8495 402.624V398.064H90.5455V402.448C90.5455 403.984 91.1748 404.752 92.4335 404.752C93.0628 404.752 93.5802 404.528 93.9855 404.08C94.3908 403.632 94.5935 402.992 94.5935 402.16V398.064H96.2895V406H94.7855L94.6575 404.608C94.4122 405.099 94.0495 405.488 93.5695 405.776C93.1002 406.053 92.5562 406.192 91.9375 406.192ZM98.447 406V398.064H99.951L100.079 399.456C100.324 398.965 100.682 398.581 101.151 398.304C101.631 398.016 102.18 397.872 102.799 397.872C103.759 397.872 104.511 398.171 105.055 398.768C105.61 399.365 105.887 400.256 105.887 401.44V406H104.207V401.616C104.207 400.08 103.578 399.312 102.319 399.312C101.69 399.312 101.167 399.536 100.751 399.984C100.346 400.432 100.143 401.072 100.143 401.904V406H98.447ZM111.645 406.192C110.866 406.192 110.167 406.016 109.549 405.664C108.941 405.312 108.461 404.827 108.109 404.208C107.767 403.579 107.597 402.853 107.597 402.032C107.597 401.211 107.767 400.491 108.109 399.872C108.461 399.243 108.941 398.752 109.549 398.4C110.167 398.048 110.866 397.872 111.645 397.872C112.626 397.872 113.447 398.128 114.109 398.64C114.781 399.152 115.213 399.845 115.405 400.72H113.629C113.522 400.283 113.287 399.941 112.925 399.696C112.562 399.451 112.135 399.328 111.645 399.328C111.229 399.328 110.845 399.435 110.493 399.648C110.141 399.851 109.858 400.155 109.645 400.56C109.431 400.955 109.325 401.445 109.325 402.032C109.325 402.619 109.431 403.115 109.645 403.52C109.858 403.915 110.141 404.219 110.493 404.432C110.845 404.645 111.229 404.752 111.645 404.752C112.135 404.752 112.562 404.629 112.925 404.384C113.287 404.139 113.522 403.792 113.629 403.344H115.405C115.223 404.197 114.797 404.885 114.125 405.408C113.453 405.931 112.626 406.192 111.645 406.192ZM117.244 406V394.48H118.94V399.344C119.207 398.885 119.575 398.528 120.044 398.272C120.524 398.005 121.052 397.872 121.628 397.872C122.577 397.872 123.324 398.171 123.868 398.768C124.412 399.365 124.684 400.256 124.684 401.44V406H123.004V401.616C123.004 400.08 122.391 399.312 121.164 399.312C120.524 399.312 119.991 399.536 119.564 399.984C119.148 400.432 118.94 401.072 118.94 401.904V406H117.244Z" fill="#2E3747"/>
</svg>
