<svg width="22" height="22" viewBox="0 0 22 22" fill="none" xmlns="http://www.w3.org/2000/svg">
<path d="M22 11.5714C22 12.1237 21.5523 12.5714 21 12.5714H13.5714C13.0191 12.5714 12.5714 13.0191 12.5714 13.5714V21C12.5714 21.5523 12.1237 22 11.5714 22H10.4286C9.87629 22 9.42857 21.5523 9.42857 21V13.5714C9.42857 13.0191 8.98086 12.5714 8.42857 12.5714H1C0.447717 12.5714 0 12.1237 0 11.5714V10.4286C0 9.87629 0.447715 9.42857 1 9.42857H8.42857C8.98085 9.42857 9.42857 8.98086 9.42857 8.42857V1C9.42857 0.447717 9.87629 0 10.4286 0H11.5714C12.1237 0 12.5714 0.447715 12.5714 1V8.42857C12.5714 8.98086 13.0191 9.42857 13.5714 9.42857H21C21.5523 9.42857 22 9.87629 22 10.4286V11.5714Z" fill="white"/>
</svg>
