<svg width="32" height="32" viewBox="0 0 32 32" fill="none" xmlns="http://www.w3.org/2000/svg">
<path d="M7.14489 28.0653V24.8295L15.7294 16.4141C16.5504 15.585 17.2346 14.8485 17.782 14.2045C18.3293 13.5606 18.7398 12.9368 19.0135 12.3331C19.2872 11.7294 19.424 11.0855 19.424 10.4013C19.424 9.6205 19.2469 8.95241 18.8928 8.39702C18.5386 7.83357 18.0516 7.39891 17.4318 7.09304C16.812 6.78717 16.1077 6.63423 15.3189 6.63423C14.5059 6.63423 13.7936 6.80327 13.1818 7.14134C12.5701 7.47135 12.0952 7.94224 11.7571 8.55398C11.4271 9.16572 11.2621 9.89418 11.2621 10.7393H7C7 9.16974 7.35819 7.8054 8.07457 6.64631C8.79096 5.48722 9.77699 4.58973 11.0327 3.95384C12.2964 3.31795 13.7453 3 15.3793 3C17.0374 3 18.4943 3.3099 19.75 3.92969C21.0057 4.54948 21.9796 5.39867 22.6719 6.47727C23.3722 7.55587 23.7223 8.7874 23.7223 10.1719C23.7223 11.0975 23.5452 12.0071 23.1911 12.9006C22.8369 13.794 22.2131 14.7841 21.3196 15.8707C20.4342 16.9574 19.1906 18.2734 17.5888 19.8189L13.3267 24.1534V24.3224H24.0966V28.0653H7.14489Z" fill="white"/>
</svg>
