<svg width="32" height="32" viewBox="0 0 32 32" fill="none" xmlns="http://www.w3.org/2000/svg">
<path d="M16.0675 28.4034C14.3288 28.4034 12.7834 28.1056 11.4311 27.5099C10.0869 26.9143 9.02438 26.0852 8.24361 25.0227C7.46283 23.9602 7.0483 22.7327 7 21.3402H11.5398C11.58 22.0083 11.8014 22.5919 12.2038 23.0909C12.6063 23.5819 13.1416 23.9643 13.8097 24.2379C14.4777 24.5116 15.2263 24.6484 16.0554 24.6484C16.9408 24.6484 17.7256 24.4955 18.4098 24.1896C19.094 23.8757 19.6293 23.4411 20.0156 22.8857C20.402 22.3303 20.5911 21.6903 20.5831 20.9659C20.5911 20.2173 20.398 19.5573 20.0036 18.9858C19.6091 18.4143 19.0376 17.9676 18.2891 17.6456C17.5485 17.3236 16.6551 17.1626 15.6087 17.1626H13.4233V13.7095H15.6087C16.4699 13.7095 17.2225 13.5606 17.8665 13.2628C18.5185 12.965 19.0296 12.5464 19.3999 12.0071C19.7701 11.4598 19.9512 10.8279 19.9432 10.1115C19.9512 9.41122 19.7943 8.8035 19.4723 8.28835C19.1584 7.76515 18.7116 7.35866 18.1321 7.06889C17.5606 6.77912 16.8885 6.63423 16.1158 6.63423C15.3591 6.63423 14.6589 6.77107 14.0149 7.04474C13.371 7.31842 12.8518 7.70881 12.4574 8.21591C12.063 8.71496 11.8537 9.31061 11.8295 10.0028H7.51918C7.55137 8.61837 7.94981 7.40294 8.71449 6.35653C9.48722 5.30208 10.5175 4.48106 11.8054 3.89347C13.0933 3.29782 14.5381 3 16.1399 3C17.79 3 19.2228 3.3099 20.4382 3.92969C21.6617 4.54143 22.6075 5.36648 23.2756 6.40483C23.9437 7.44318 24.2777 8.5902 24.2777 9.84588C24.2857 11.2384 23.8752 12.4055 23.0462 13.3473C22.2251 14.2891 21.1465 14.9048 19.8104 15.1946V15.3878C21.549 15.6293 22.8812 16.2732 23.8068 17.3196C24.7405 18.358 25.2034 19.6499 25.1953 21.1953C25.1953 22.5798 24.8009 23.8194 24.0121 24.9141C23.2313 26.0007 22.1527 26.8539 20.7763 27.4737C19.4079 28.0935 17.8383 28.4034 16.0675 28.4034Z" fill="white"/>
</svg>
