<svg width="50" height="50" viewBox="0 0 50 50" fill="none" xmlns="http://www.w3.org/2000/svg">
<path d="M37 4C34.239 4 32 6.239 32 9C32 11.761 34.239 14 37 14C39.761 14 42 11.761 42 9C42 6.239 39.761 4 37 4ZM37 6C38.654 6 40 7.346 40 9C40 10.654 38.654 12 37 12C35.346 12 34 10.654 34 9C34 7.346 35.346 6 37 6ZM20.7188 8.24219C19.8646 8.21584 19.0172 8.46609 18.3047 8.96484L11.0098 14.0723C9.70377 14.9853 9.25675 16.7498 9.96875 18.1758C10.3848 19.0068 11.1382 19.6204 12.0352 19.8594C12.9352 20.0964 13.892 19.9398 14.666 19.4238L21.1152 15.123L24.2969 16.3945L19.0605 22.2129C18.1375 23.2369 17.687 24.5595 17.791 25.9355C17.813 26.2315 17.8724 26.5178 17.9434 26.7988L9.08203 40.9805C8.73703 41.5315 8.58852 42.1498 8.60352 42.7598L5.76953 39.3594C5.41553 38.9354 4.78637 38.8775 4.35938 39.2305C3.93538 39.5845 3.87942 40.2156 4.23242 40.6406L7.86328 45H3V47H10H12H16C16.553 47 17 46.553 17 46C17 45.447 16.553 45 16 45H13.9941C14.1081 44.892 14.2243 44.7871 14.3223 44.6621L23.6777 32.7559L26.623 35.168L23.4492 39.3984C22.7522 40.3274 22.583 41.5312 22.998 42.6172C23.412 43.7032 24.3414 44.4878 25.4824 44.7168C25.6984 44.7598 25.9188 44.7812 26.1348 44.7812C27.0788 44.7812 27.9986 44.382 28.6426 43.668L34.0273 37.6836C34.9293 36.6816 35.3827 35.39 35.3027 34.043C35.2227 32.696 34.6185 31.4652 33.6035 30.5762L29.2852 26.7988L32.0586 22.1777L36.9902 24.916C37.7432 25.335 38.5722 25.5488 39.4102 25.5488C39.8782 25.5488 40.3486 25.4826 40.8086 25.3496C42.0986 24.9756 43.1626 24.1195 43.8066 22.9395L47.0371 17.0176C47.7671 15.6826 47.3617 14.0383 46.0977 13.1953C44.7837 12.3163 43.0304 12.6387 42.1094 13.9277L38.7676 18.6055L32.5918 14.1934C32.5588 14.1584 32.532 14.1199 32.498 14.0859L30.2734 11.8594C29.1214 10.7074 27.6738 9.88719 26.0918 9.49219L21.5703 8.36133C21.2886 8.29008 21.0035 8.25097 20.7188 8.24219ZM20.6562 10.2441C20.7988 10.2483 20.9422 10.2677 21.084 10.3027L25.6074 11.4336C26.8374 11.7416 27.9604 12.3764 28.8574 13.2734L31.084 15.5C32.06 16.476 32.2452 17.9821 31.5352 19.1641L27.1406 26.4863C26.8936 26.9003 26.9778 27.4349 27.3418 27.7539L32.2891 32.082C32.8971 32.614 33.2606 33.3522 33.3086 34.1602C33.3576 34.9682 33.084 35.7437 32.543 36.3457L27.1582 42.3301C26.8382 42.6861 26.349 42.8499 25.877 42.7559C25.407 42.6619 25.0382 42.3503 24.8672 41.9023C24.6962 41.4543 24.7638 40.9807 25.0508 40.5977L28.8008 35.5996C29.1218 35.1706 29.0478 34.5666 28.6328 34.2266L20.8789 27.8828C20.2369 27.3578 19.8501 26.6112 19.7871 25.7852C19.7241 24.9602 19.9948 24.1677 20.5488 23.5527L26.7422 16.6699C26.9612 16.4269 27.0477 16.0924 26.9727 15.7734C26.8977 15.4544 26.6731 15.1923 26.3691 15.0703L21.3691 13.0703C21.2511 13.0223 21.126 13 21 13C20.806 13 20.6123 13.057 20.4453 13.168L13.5566 17.7598C13.2556 17.9598 12.9018 18.0207 12.5508 17.9277C12.2008 17.8347 11.9188 17.6062 11.7578 17.2832C11.4808 16.7272 11.6492 16.0659 12.1562 15.7109L19.4512 10.6035C19.8074 10.3545 20.2286 10.2316 20.6562 10.2441ZM44.3184 14.7227C44.5436 14.6814 44.7833 14.7238 44.9883 14.8613C45.3853 15.1243 45.5122 15.6415 45.2832 16.0605L42.0527 21.9824C41.6667 22.6904 41.0289 23.2047 40.2539 23.4277C39.4799 23.6547 38.6669 23.559 37.9629 23.168L33.0898 20.4629L33.252 20.1934C33.731 19.3944 33.9531 18.505 33.9531 17.623L38.4199 20.8145C38.8699 21.1365 39.4935 21.032 39.8145 20.582L43.7363 15.0918C43.8813 14.8903 44.0931 14.7639 44.3184 14.7227ZM19.0273 28.8438C19.2083 29.0498 19.3943 29.2517 19.6113 29.4297L22.1289 31.4883L12.752 43.4277C12.535 43.7017 12.223 43.8657 11.873 43.8867C11.516 43.9017 11.1943 43.7802 10.9473 43.5332C10.5483 43.1342 10.4773 42.521 10.7773 42.043L19.0273 28.8438Z" fill="white"/>
</svg>
