<svg width="150" height="60" viewBox="0 0 150 60" fill="none" xmlns="http://www.w3.org/2000/svg">
<path d="M17.0019 17.4348C17.7287 17.4348 18.3101 18.0208 18.3101 18.7534C18.3101 19.4859 17.7287 20.0719 17.0019 20.0719H16.9293C16.2752 20.0719 15.6938 19.4859 15.6938 18.8266C15.6938 18.4603 15.8391 18.0941 16.0572 17.8743C16.2752 17.5813 16.6386 17.4348 17.0019 17.4348ZM17.0019 15.75C15.3304 15.75 13.9496 17.2151 14.0223 18.8999C14.0949 20.4382 15.3304 21.6835 16.8566 21.7567C16.9293 21.7567 16.9293 21.7567 17.0019 21.7567C18.6734 21.7567 19.9816 20.3649 19.9816 18.7534C19.9816 17.1418 18.6008 15.75 17.0019 15.75Z" fill="#FF4F1F"/>
<path d="M14.9675 36.9202C16.639 36.9202 18.0198 38.312 18.0198 39.9968C18.0198 41.6816 16.639 43.0734 14.9675 43.0734H11.6972C10.0256 43.0734 8.64483 41.6816 8.64483 39.9968C8.64483 38.312 10.0256 36.9202 11.6972 36.9202H14.9675ZM14.9675 34.8691H11.6972C8.93553 34.8691 6.68262 37.14 6.68262 39.9236C6.68262 42.7072 8.93553 44.978 11.6972 44.978H14.9675C17.7291 44.978 19.982 42.7072 19.982 39.9236C19.982 37.14 17.7291 34.8691 14.9675 34.8691Z" fill="#FF4F1F"/>
<path d="M14.968 25.0535C16.6395 25.0535 18.0204 26.4453 18.0204 28.1301C18.0204 29.8149 16.6395 31.2067 14.968 31.2067H7.26454C5.59302 31.2067 4.21221 29.8149 4.21221 28.1301C4.21221 26.4453 5.59302 25.0535 7.26454 25.0535H14.968ZM14.968 23.0757H7.26454C4.50291 23.0757 2.25 25.3465 2.25 28.1301C2.25 30.9137 4.50291 33.1845 7.26454 33.1845H14.968C17.7297 33.1845 19.9826 30.9137 19.9826 28.1301C19.9826 25.3465 17.7297 23.0757 14.968 23.0757Z" fill="#FF4F1F"/>
<path d="M144.038 23.3682H143.311V23.0752H145.056V23.3682H144.329V25.2728H144.038V23.3682ZM146.364 25.2728L145.782 23.3682V25.2728H145.419V23.0752H145.928L146.509 24.9065L147.09 23.0752H147.599V25.2728H147.308V23.3682L146.727 25.2728H146.364ZM59.009 44.9777V42.7802H48.9799V34.9421H57.9915V32.8178H48.9799V25.2728H59.009V23.0752H46.7997V44.9777H59.009ZM95.0555 44.9777V42.7802H85.0264V34.9421H94.0381V32.8178H85.0264V25.2728H95.0555V23.0752H82.8462V44.9777H95.0555ZM121.582 44.9777V35.8944L128.922 23.0752H126.524L120.564 33.5503L114.532 23.0752H112.061L119.401 35.8944V44.9777H121.582ZM78.3404 44.9777V23.0752H76.1601V40.9489L65.4043 23.0752H63.2241V44.9777H65.4043V27.1041L76.1601 44.9777H78.3404ZM35.3171 35.6014H40.5497V37.3595C40.5497 41.6814 37.8607 43.1464 35.3171 43.1464C32.7735 43.1464 30.0845 41.6081 30.0845 37.3595V30.84C30.0845 26.5181 32.7735 25.053 35.3171 25.053C38.0787 25.053 39.9683 26.7379 40.4043 29.5215H42.5845C42.0758 25.4926 39.2415 22.8555 35.3171 22.8555C30.884 22.8555 27.9043 26.0786 27.9043 30.84V37.4327C27.9043 42.1941 30.884 45.4173 35.3171 45.4173C39.7502 45.4173 42.7299 42.1941 42.7299 37.4327V33.5503H35.3171V35.6014ZM97.7445 38.385C97.8171 41.5349 99.852 45.344 104.794 45.344C108.791 45.344 111.262 43.0732 111.262 39.3373C111.262 35.9677 109.009 34.1364 106.901 33.5503L103.122 32.5248C101.306 32.012 100.288 30.6935 100.288 28.7889C100.288 26.5181 101.887 24.9798 104.358 24.9798C106.683 24.9798 108.282 26.2983 108.791 28.8622H110.971C110.535 25.8588 108.646 22.8555 104.358 22.8555C100.651 22.8555 98.1078 25.2728 98.1078 28.7889C98.1078 31.719 99.7067 33.9899 102.396 34.7224L106.029 35.7479C107.919 36.2607 109.009 37.5792 109.009 39.4105C109.009 41.9011 107.483 43.2197 104.721 43.2197C101.96 43.2197 100.07 41.3884 99.852 38.4583L97.7445 38.385ZM129.867 38.385C129.939 41.5349 131.974 45.344 136.916 45.344C140.913 45.344 143.384 43.0732 143.384 39.3373C143.384 35.9677 141.131 34.1364 139.024 33.5503L135.244 32.5248C133.428 32.012 132.41 30.6935 132.41 28.7889C132.41 26.5181 134.009 24.9798 136.48 24.9798C138.806 24.9798 140.404 26.2983 140.913 28.8622H143.093C142.657 25.8588 140.768 22.8555 136.48 22.8555C132.774 22.8555 130.23 25.2728 130.23 28.7889C130.23 31.719 131.829 33.9899 134.518 34.7224L138.151 35.7479C140.041 36.2607 141.131 37.5792 141.131 39.4105C141.131 41.9011 139.605 43.2197 136.843 43.2197C134.082 43.2197 132.192 41.3884 131.974 38.4583L129.867 38.385Z" fill="#FF4F1F"/>
</svg>
