<svg width="142" height="47" viewBox="0 0 142 47" fill="none" xmlns="http://www.w3.org/2000/svg">
<g clip-path="url(#clip0_6588_41895)">
<path d="M51.9195 46.3725C51.9902 46.5128 51.8874 46.6779 51.7295 46.6779H23.6768C10.5438 46.6779 0 36.327 0 23.339C0 10.3509 10.5438 0 23.6768 0C36.8081 0 47.3519 10.3509 47.3519 23.339C47.3519 26.5488 46.7078 29.5971 45.5408 32.368C45.482 32.5074 45.3437 32.5975 45.1915 32.5975H34.4841C34.295 32.5975 34.1879 32.3804 34.3061 32.2333C36.241 29.828 37.3892 26.7365 37.3892 23.339C37.3892 15.5599 31.3732 9.38583 23.6765 9.38583C15.9781 9.38583 9.96187 15.5599 9.96187 23.339C9.96187 31.118 16.6055 37.2921 24.3039 37.2921H47.0574C47.2374 37.2921 47.4022 37.3931 47.4828 37.5535L51.9195 46.3725Z" fill="#E6005C"/>
<path d="M56.6558 31.3203H61.0641L63.2466 39.0314C63.3764 39.5183 63.5022 40.0055 63.6249 40.4919C63.747 40.9788 63.8518 41.4231 63.9382 41.8237C64.0387 42.2965 64.1327 42.7473 64.219 43.1769H64.2625C64.3488 42.7473 64.4426 42.2965 64.5434 41.8237C64.63 41.4231 64.7271 40.9791 64.835 40.4919C64.9432 40.0055 65.0691 39.5186 65.213 39.0314L67.3956 31.3203H71.8689V46.6778H68.9516V37.8715C68.9516 37.5565 68.955 37.2163 68.9624 36.851C68.9695 36.486 68.9874 36.1391 69.0164 35.8094C69.0306 35.4374 69.0522 35.065 69.0811 34.6927H69.038C68.9658 35.0507 68.8937 35.4015 68.8218 35.7451C68.7497 36.0457 68.6739 36.3607 68.5949 36.6901C68.5157 37.0198 68.4401 37.3272 68.368 37.6138L65.71 46.6778H62.7062L60.113 37.6138C60.0264 37.3272 59.9471 37.0198 59.8753 36.6901C59.8031 36.3607 59.7313 36.0457 59.6591 35.7451C59.587 35.4015 59.5149 35.0507 59.443 34.6927H59.3996C59.4138 35.0653 59.4353 35.4377 59.4646 35.8094C59.4788 36.1391 59.4933 36.486 59.5078 36.851C59.522 37.2166 59.5294 37.5565 59.5294 37.8715V46.6778H56.6553V31.3203H56.6558Z" fill="#E6005C"/>
<path d="M78.7846 47C77.8624 47 77.0448 46.8498 76.3317 46.5489C75.6185 46.2483 75.017 45.8364 74.5271 45.3137C74.0372 44.7912 73.6663 44.1718 73.4144 43.4557C73.1619 42.7401 73.0361 41.9737 73.0361 41.1574C73.0361 40.3413 73.1693 39.5788 73.436 38.87C73.7024 38.161 74.0767 37.549 74.5598 37.0335C75.0423 36.5178 75.6185 36.1099 76.2885 35.809C76.9585 35.5081 77.6966 35.3579 78.5034 35.3579C79.3966 35.3579 80.1816 35.5188 80.8589 35.8412C81.536 36.1633 82.1048 36.6183 82.566 37.2054C83.027 37.7926 83.3763 38.4907 83.6143 39.2997C83.852 40.109 83.9707 41.0072 83.9707 41.9952H75.9318C76.0468 42.8544 76.3385 43.5274 76.8071 44.0143C77.2751 44.5013 77.9272 44.7446 78.7627 44.7446C79.3387 44.7446 79.7999 44.6232 80.1458 44.3796C80.4914 44.1363 80.7433 43.8071 80.9021 43.3916H83.798C83.6969 43.8785 83.5132 44.3404 83.2468 44.777C82.9801 45.214 82.6342 45.5971 82.2096 45.9262C81.7845 46.2556 81.2838 46.517 80.7078 46.7101C80.1313 46.9032 79.4903 47 78.7846 47ZM78.5466 37.6136C77.7687 37.6136 77.1777 37.825 76.7747 38.2473C76.3711 38.6696 76.1048 39.246 75.9752 39.9763H80.9024C80.8592 39.2751 80.6249 38.7058 80.2 38.2688C79.7749 37.8321 79.2239 37.6136 78.5466 37.6136Z" fill="#E6005C"/>
<path d="M84.0352 35.6591H85.5693V32.2227H88.4434V35.6591H90.3451V37.5922H88.4434V43.4343C88.4434 43.8498 88.5439 44.1363 88.7459 44.2935C88.9475 44.4513 89.2139 44.5298 89.5453 44.5298H90.1071C90.2076 44.5298 90.3087 44.5227 90.4095 44.5081V46.6562C90.2653 46.6706 90.1071 46.6777 89.9341 46.6777C89.7754 46.6918 89.5808 46.6991 89.3508 46.6991C89.1202 46.6991 88.8609 46.6991 88.5729 46.6991C88.2125 46.6991 87.8561 46.6599 87.5034 46.5811C87.1501 46.5024 86.8297 46.3629 86.5417 46.162C86.2535 45.9615 86.0195 45.6894 85.8394 45.3459C85.6591 45.0023 85.5693 44.5727 85.5693 44.057V37.5919H84.0352V35.6591Z" fill="#E6005C"/>
<path d="M94.2567 37.4204H94.3214C94.6526 36.7907 95.0272 36.3178 95.4452 36.0028C95.8627 35.6881 96.3961 35.5303 97.0442 35.5303C97.3466 35.5303 97.5769 35.5588 97.7357 35.6161V38.1719H97.6709C96.7056 38.0719 95.913 38.2794 95.2939 38.7948C94.6742 39.3106 94.3646 40.1481 94.3646 41.308V46.6778H91.4258V35.659H94.2567V37.4204Z" fill="#E6005C"/>
<path d="M98.5781 31.3203H101.517V33.9407H98.5781V31.3203ZM98.5781 35.659H101.517V46.6778H98.5781V35.659Z" fill="#E6005C"/>
<path d="M108.13 47C107.251 47 106.462 46.8498 105.763 46.5489C105.064 46.2483 104.47 45.8364 103.981 45.3137C103.491 44.7912 103.113 44.1752 102.846 43.4664C102.579 42.7576 102.446 41.9952 102.446 41.1788C102.446 40.3627 102.576 39.6003 102.835 38.8915C103.095 38.1824 103.465 37.567 103.948 37.0443C104.431 36.5218 105.01 36.1099 105.688 35.809C106.365 35.5084 107.128 35.3579 107.978 35.3579C108.699 35.3579 109.347 35.4584 109.923 35.6585C110.499 35.8592 111 36.1347 111.425 36.4853C111.85 36.8365 112.195 37.2588 112.462 37.7528C112.729 38.2471 112.912 38.7944 113.013 39.3959H110.139C110.038 38.9093 109.811 38.5045 109.458 38.1821C109.105 37.8603 108.655 37.6989 108.108 37.6989C107.214 37.6989 106.544 38.0102 106.098 38.6332C105.651 39.2562 105.428 40.1045 105.428 41.1783C105.428 42.2238 105.64 43.0653 106.066 43.7021C106.49 44.3392 107.157 44.6579 108.064 44.6579C108.67 44.6579 109.167 44.5041 109.555 44.1961C109.944 43.8881 110.189 43.4193 110.29 42.7889H113.121C113.078 43.3764 112.93 43.924 112.678 44.4321C112.425 44.9405 112.087 45.3848 111.662 45.7639C111.237 46.1436 110.725 46.4445 110.128 46.6661C109.531 46.8888 108.864 47 108.13 47Z" fill="#E6005C"/>
<path d="M73.2817 26.6135L70.7575 23.8218C72.1448 22.1865 72.804 20.0471 72.804 18.0026C72.804 13.8897 70.1162 9.3916 64.2394 9.3916C58.3626 9.3916 55.6748 13.89 55.6748 18.0026C55.6748 22.1151 58.3393 26.6135 64.2394 26.6135C66.0087 26.6135 67.4849 26.2068 68.688 25.5293L69.6803 26.6135H73.2817ZM64.2394 23.6041C60.7956 23.6041 59.001 20.8237 59.001 18.0023C59.001 15.1809 60.7644 12.5435 64.2394 12.5435C67.8567 12.5435 69.4778 15.1812 69.4778 18.0023C69.4778 19.2178 69.1935 20.4251 68.5738 21.4063L67.448 20.1612H63.7745L66.5256 23.1669C65.8809 23.4452 65.1226 23.6041 64.2394 23.6041Z" fill="#E6005C"/>
<path d="M81.3816 25.6815V24.3926H81.3166C80.9417 24.8939 80.5134 25.284 80.0306 25.5635C79.5478 25.8424 78.9176 25.9824 78.1398 25.9824C76.9004 25.9824 75.9498 25.6248 75.287 24.9083C74.6241 24.1925 74.293 23.2257 74.293 22.0085V14.6621H77.2105V21.5142C77.2105 22.1586 77.3582 22.6529 77.6535 22.9964C77.9486 23.34 78.4132 23.5119 79.0477 23.5119C79.7392 23.5119 80.2828 23.2793 80.6793 22.8138C81.0755 22.3489 81.2737 21.7505 81.2737 21.0202V14.6621H84.2128V25.6815H81.3816Z" fill="#E6005C"/>
<path d="M92.6622 25.6819C92.5759 25.5675 92.5034 25.3956 92.4461 25.1661C92.3884 24.9375 92.3453 24.7012 92.3163 24.4573H92.2731C92.1289 24.6721 91.9667 24.8692 91.7869 25.0481C91.6066 25.2274 91.3905 25.381 91.1385 25.51C90.8864 25.639 90.5876 25.7428 90.2417 25.8213C89.896 25.9001 89.4851 25.9396 89.01 25.9396C87.8717 25.9396 86.9422 25.6531 86.2222 25.0803C85.5017 24.5079 85.1416 23.67 85.1416 22.5672C85.1416 21.9656 85.2566 21.4575 85.4875 21.042C85.7175 20.6268 86.0348 20.2832 86.4383 20.0111C86.8416 19.7393 87.3136 19.5279 87.8541 19.3774C88.3943 19.2272 88.9742 19.109 89.5936 19.0229C90.5154 18.8941 91.1928 18.7581 91.625 18.6147C92.0573 18.4716 92.2734 18.1924 92.2734 17.7769C92.2734 17.3763 92.1183 17.0573 91.8088 16.8211C91.4989 16.5851 91.0343 16.4665 90.4149 16.4665C89.7234 16.4665 89.2048 16.5921 88.8589 16.8425C88.5132 17.0935 88.3184 17.4836 88.2753 18.0134H85.6605C85.6747 17.5268 85.7826 17.065 85.9845 16.628C86.1861 16.1913 86.4815 15.8083 86.8706 15.4785C87.2597 15.1494 87.7493 14.8846 88.3403 14.6839C88.9307 14.4835 89.6294 14.3833 90.4365 14.3833C92.0931 14.3833 93.2853 14.7378 94.0132 15.4467C94.7405 16.1555 95.1046 17.1542 95.1046 18.4431V24.0494C95.1046 24.8802 95.2344 25.3886 95.4937 25.5746V25.6819H92.6622ZM89.7231 23.899C90.1408 23.899 90.512 23.8383 90.8361 23.7163C91.1601 23.5947 91.4339 23.4372 91.6574 23.2438C91.8806 23.0504 92.0499 22.8286 92.1652 22.5779C92.2802 22.3275 92.3382 22.0661 92.3382 21.7937V20.1398C92.0789 20.2979 91.7656 20.423 91.3981 20.5158C91.0306 20.6096 90.6597 20.6985 90.2851 20.7843C89.5072 20.9562 88.9307 21.1569 88.5564 21.3858C88.1815 21.615 87.9944 21.9874 87.9944 22.5028C87.9944 23.0185 88.1529 23.3804 88.4698 23.5879C88.7865 23.7954 89.2045 23.899 89.7231 23.899Z" fill="#E6005C"/>
<path d="M99.4053 16.1657H99.4701C99.8447 15.5644 100.295 15.113 100.821 14.8124C101.347 14.5118 101.991 14.3613 102.755 14.3613C103.331 14.3613 103.854 14.4655 104.322 14.6727C104.79 14.8804 105.19 15.1667 105.521 15.5319C105.853 15.8972 106.112 16.3302 106.299 16.8313C106.487 17.3329 106.58 17.8842 106.58 18.4852V25.6811H103.641V18.9148C103.641 18.3133 103.475 17.8266 103.144 17.454C102.813 17.0819 102.337 16.8956 101.718 16.8956C101.07 16.8956 100.533 17.1285 100.108 17.5937C99.6828 18.0589 99.4704 18.6712 99.4704 19.4302V25.6811H96.5312V14.6622H99.4056V16.1657H99.4053Z" fill="#E6005C"/>
<path d="M107.099 14.6624H108.633V11.2256H111.507V14.6624H113.409V16.5957H111.507V22.4381C111.507 22.8536 111.608 23.1401 111.81 23.2973C112.012 23.4551 112.278 23.5336 112.61 23.5336H113.171C113.272 23.5336 113.373 23.5265 113.474 23.5118V25.66C113.33 25.6744 113.171 25.6815 112.998 25.6815C112.84 25.6956 112.645 25.7029 112.415 25.7029C112.184 25.7029 111.925 25.7029 111.637 25.7029C111.277 25.7029 110.92 25.6637 110.567 25.5849C110.214 25.5062 109.893 25.3667 109.605 25.1657C109.317 24.9653 109.083 24.6932 108.903 24.3497C108.723 24.0061 108.633 23.5765 108.633 23.0608V16.5957H107.099V14.6624Z" fill="#E6005C"/>
<path d="M121.491 25.6815V24.3926H121.426C121.051 24.8939 120.623 25.284 120.14 25.5635C119.657 25.8424 119.027 25.9824 118.249 25.9824C117.01 25.9824 116.059 25.6248 115.396 24.9083C114.733 24.1925 114.402 23.2257 114.402 22.0085V14.6621H117.32V21.5142C117.32 22.1586 117.468 22.6529 117.763 22.9964C118.058 23.34 118.523 23.5119 119.157 23.5119C119.849 23.5119 120.392 23.2793 120.789 22.8138C121.185 22.3489 121.383 21.7505 121.383 21.0202V14.6621H124.322V25.6815H121.491Z" fill="#E6005C"/>
<path d="M125.792 14.6622H128.623V16.1442H128.688C128.991 15.6432 129.408 15.2209 129.942 14.8771C130.474 14.5335 131.13 14.3613 131.908 14.3613C132.614 14.3613 133.234 14.5369 133.767 14.8878C134.299 15.2387 134.703 15.7075 134.977 16.2947H135.02C135.395 15.6931 135.866 15.2206 136.436 14.8771C137.005 14.5335 137.642 14.3613 138.348 14.3613C139.515 14.3613 140.416 14.7085 141.05 15.4029C141.684 16.0976 142.001 17.0537 142.001 18.2706V25.6813H139.062V18.7649C139.062 18.1351 138.914 17.6623 138.619 17.3473C138.323 17.0325 137.902 16.8748 137.354 16.8748C136.735 16.8748 136.249 17.0932 135.896 17.5299C135.542 17.9669 135.366 18.5501 135.366 19.2803V25.6813H132.427V18.7649C132.427 18.1351 132.279 17.6623 131.984 17.3473C131.688 17.0325 131.267 16.8748 130.719 16.8748C130.114 16.8748 129.631 17.0932 129.271 17.5299C128.911 17.9669 128.731 18.5501 128.731 19.2803V25.6813H125.792L125.792 14.6622Z" fill="#E6005C"/>
</g>
<defs>
<clipPath id="clip0_6588_41895">
<rect width="142" height="47" fill="white"/>
</clipPath>
</defs>
</svg>
