<svg width="50" height="50" viewBox="0 0 50 50" fill="none" xmlns="http://www.w3.org/2000/svg">
<path d="M27 2C25.4167 2 24.1019 2.62976 23.252 3.58594C22.402 4.54212 22 5.77778 22 7C22 8.22222 22.402 9.45788 23.252 10.4141C24.1019 11.3702 25.4167 12 27 12C28.5833 12 29.8981 11.3702 30.748 10.4141C31.598 9.45788 32 8.22222 32 7C32 5.77778 31.598 4.54212 30.748 3.58594C29.8981 2.62976 28.5833 2 27 2ZM27 4C28.0833 4 28.7686 4.37024 29.252 4.91406C29.7353 5.45788 30 6.22222 30 7C30 7.77778 29.7353 8.54212 29.252 9.08594C28.7686 9.62976 28.0833 10 27 10C25.9167 10 25.2314 9.62976 24.748 9.08594C24.2647 8.54212 24 7.77778 24 7C24 6.22222 24.2647 5.45788 24.748 4.91406C25.2314 4.37024 25.9167 4 27 4ZM23.1992 13C23.1357 12.9992 23.0723 13.0044 23.0098 13.0156C23.0065 13.0163 23.0033 13.0169 23 13.0176C21.958 13.0611 21.0071 13.4232 20.2188 13.9863C20.2095 13.9927 20.2004 13.9992 20.1914 14.0059L14.1914 18.6055L14.2461 18.5684C13.7327 18.9106 13.4349 19.3939 13.2051 19.8535C13.1953 19.8734 13.1862 19.8936 13.1777 19.9141L10.3867 26.5918C10.1131 27.0575 10 27.5272 10 28C10 29.6455 11.3545 31 13 31C13.6722 31 14.3107 30.7488 14.7812 30.3535C15.2495 29.9602 15.5691 29.4553 15.8105 28.9141L15.8145 28.9082L18.3008 23.4551L19.3789 22.6758C18.7616 25.232 18.1309 27.752 18.1309 27.752C18.1101 27.833 18.0996 27.9163 18.0996 28C18.0996 28.0778 18 28.4333 18 29C18 29.0248 18.0036 29.0494 18.0039 29.0742L16.5664 36.168L11.9141 42.082L11.9922 41.9922C11.3036 42.6807 11 43.6095 11 44.5C11 46.4238 12.5762 48 14.5 48C15.7209 48 16.7928 47.3652 17.3926 46.4102L17.4004 46.4004L22.3926 39.9102C22.4722 39.806 22.5306 39.6872 22.5645 39.5605L23.4727 36.209L25.1035 37.6445L26.9297 45.0391C26.9358 45.0654 26.943 45.0914 26.9512 45.1172C26.9868 45.2242 26.9458 45.495 27.1973 46.0195C27.7716 47.2916 29.0731 48 30.4004 48C32.3242 48 33.9004 46.4238 33.9004 44.5C33.9004 43.9333 33.7604 43.5202 33.6699 43.1582L31.6699 35.1582C31.6385 35.0321 31.5827 34.9134 31.5059 34.8086L27.0898 28.7949C27.1939 28.4085 27.7095 26.4923 28.3105 24.25L29.8574 25.9688C29.9839 26.1098 30.1478 26.2121 30.3301 26.2637L36.0293 27.8633C36.4894 28.0443 36.8227 28 37 28C38.6455 28 40 26.6455 40 25C40 23.6556 39.1213 22.622 38.0938 22.1816C38.0594 22.1667 38.0241 22.1536 37.9883 22.1426L33.3203 20.7422L29.5195 15.3262C29.4515 15.2271 29.3661 15.1411 29.2676 15.0723C28.4609 13.8329 27.0699 13 25.5 13H23.1992ZM23.1992 15H25.5C26.8386 15 28 16.1614 28 17.5C28 17.7333 27.9516 17.8836 27.8516 18.1836C27.8377 18.2251 27.8266 18.2675 27.8184 18.3105C27.8154 18.3235 27.8084 18.3525 27.7988 18.3906C27.7797 18.4668 27.7508 18.583 27.7129 18.7285C27.6371 19.0195 27.5275 19.432 27.3965 19.9258C27.1344 20.9133 26.7835 22.2234 26.4336 23.5293C25.7338 26.141 25.0352 28.7402 25.0352 28.7402C24.996 28.885 24.9899 29.0366 25.0173 29.184C25.0447 29.3314 25.1048 29.4708 25.1934 29.5918L29.7773 35.834L31.7305 43.6426C31.84 44.0806 31.9004 44.2667 31.9004 44.5C31.9004 45.3762 31.2766 46 30.4004 46C29.7337 46 29.2434 45.7102 29.0137 45.1934C29.0075 45.1795 29.001 45.1659 28.9941 45.1523C29.0678 45.2997 29.0107 44.9975 28.8711 44.5605L26.9707 36.8613C26.9219 36.6631 26.8135 36.4845 26.6602 36.3496L21.707 31.9922C21.7024 31.9876 21.7019 31.9851 21.6973 31.9805C21.1546 31.4385 20.6045 30.9313 20.457 30.6855C20.4489 30.6717 20.4404 30.658 20.4316 30.6445C20.1739 30.2579 20 29.6333 20 29C20 28.814 20.0543 28.5382 20.0801 28.2031C20.0932 28.1517 21.1688 23.9178 21.877 20.8262C21.9746 20.7049 22.0426 20.5624 22.0754 20.4102C22.1083 20.258 22.1052 20.1002 22.0663 19.9494C22.0274 19.7986 21.9538 19.6589 21.8514 19.5416C21.7491 19.4242 21.6207 19.3324 21.4766 19.2734C21.2481 19.1528 20.9818 19.1253 20.7335 19.1967C20.4852 19.2681 20.2741 19.4327 20.1445 19.6562L16.9141 21.9902C16.7737 22.0915 16.662 22.2274 16.5898 22.3848L13.9902 28.0859C13.9889 28.0885 13.9876 28.0911 13.9863 28.0938C13.8282 28.4495 13.6486 28.6925 13.4941 28.8223C13.3397 28.9521 13.2278 29 13 29C12.4455 29 12 28.5545 12 28C12 27.9222 12.075 27.6413 12.1328 27.5547C12.1681 27.5011 12.1982 27.4442 12.2227 27.3848L15.002 20.7363C15.1654 20.4133 15.2708 20.2889 15.3555 20.2324C15.3735 20.22 15.3911 20.207 15.4082 20.1934L21.3809 15.6133L21.3848 15.6113C21.9443 15.2126 22.523 15 23.1992 15ZM29.6914 19.0566L31.8809 22.1738C32.0097 22.3582 32.1968 22.4937 32.4121 22.5586L37.3125 24.0293C37.6805 24.1913 38 24.5488 38 25C38 25.5545 37.5545 26 37 26C36.8 26 36.5903 25.9269 36.748 26.0059C36.6911 25.9775 36.6316 25.9546 36.5703 25.9375L31.1484 24.416L28.9258 21.9453C29.0595 21.4439 29.2184 20.853 29.3281 20.4395C29.4596 19.9442 29.5692 19.5293 29.6465 19.2324C29.6657 19.1587 29.6761 19.1153 29.6914 19.0566ZM19.3535 32.4902C19.6805 32.8393 20.0208 33.1341 20.293 33.4062C20.3081 33.4217 20.3237 33.4367 20.3398 33.4512L21.8008 34.7363L20.6875 38.8477L15.8066 45.1895C15.7793 45.2261 15.7545 45.2646 15.7324 45.3047C15.5156 45.6841 15.0296 46 14.5 46C13.6238 46 13 45.3762 13 44.5C13 43.9905 13.0948 43.7177 13.4062 43.4062C13.4347 43.3786 13.4614 43.3492 13.4863 43.3184L18.2852 37.2188C18.3822 37.096 18.4491 36.9522 18.4805 36.7988L19.3535 32.4902Z" fill="white"/>
</svg>
