<svg width="51" height="51" viewBox="0 0 51 51" fill="none" xmlns="http://www.w3.org/2000/svg">
<g clip-path="url(#clip0_6315_34386)">
<path d="M44.9503 12.4858C43.0733 9.77068 39.318 9.08529 36.6029 10.9623C33.8877 12.8393 33.2023 16.5945 35.0794 19.3097C36.9564 22.0248 40.7116 22.7102 43.4267 20.8332C46.1419 18.9562 46.8273 15.201 44.9503 12.4858ZM43.3051 13.6231C44.569 15.4514 44.1177 17.9241 42.2894 19.1881C40.4611 20.452 37.9884 20.0007 36.7245 18.1724C35.4606 16.3441 35.9119 13.8714 37.7402 12.6074C39.5685 11.3435 42.0412 11.7948 43.3051 13.6231ZM31.8755 16.4338C30.7382 14.7886 28.6719 13.9567 26.7007 14.3886C26.6856 14.3943 26.6723 14.375 26.6572 14.3807L12.9291 17.1088L12.9034 17.1266C9.42173 17.7574 7.66957 21.8654 9.70428 24.8087L14.2891 31.4408L5.11933 33.0691L5.09362 33.0868C2.3483 33.5601 1.00705 36.8474 2.63082 39.1963C3.48381 40.4301 5.00966 41.0849 6.49762 40.778C6.52134 40.7711 6.54308 40.7751 6.5668 40.7682L21.7099 38.1636C24.5314 37.6425 26.0187 34.3397 24.3704 31.9555L21.3139 27.5342L31.045 25.7837L39.5038 38.0195C40.3368 39.2245 41.9183 39.7125 43.3017 39.117C43.318 39.12 43.3289 39.122 43.3452 39.125C45.0255 38.3338 45.5232 36.1756 44.4926 34.6847L31.8755 16.4338ZM30.2304 17.5711L42.8474 35.822C43.1828 36.3072 43.0131 37.0371 42.4907 37.2843C42.0105 37.469 41.4444 37.3096 41.1489 36.8822L32.3348 24.1323C32.1095 23.8132 31.7177 23.6518 31.331 23.7245L19.4394 25.8668C19.1078 25.9298 18.831 26.1544 18.7008 26.4676C18.5739 26.7785 18.6102 27.1333 18.798 27.4119L22.7253 33.0928C23.5805 34.3299 22.864 35.9175 21.3733 36.1929L6.16098 38.8073C6.13825 38.8088 6.11231 38.8125 6.0918 38.8172C5.50026 38.9507 4.66026 38.6148 4.27598 38.059C3.403 36.7962 4.07281 35.2647 5.45597 35.0398C5.46263 35.0494 5.46707 35.0558 5.47374 35.0655L16.1813 33.1339C16.5184 33.0718 16.7994 32.8395 16.9251 32.5199C17.0508 32.2003 17.0069 31.8413 16.805 31.563L11.3494 23.6714C10.0922 21.8528 11.1287 19.4504 13.2657 19.0795L27.0808 16.3673C27.0904 16.3606 27.0968 16.3562 27.1065 16.3495C28.2723 16.085 29.5573 16.5975 30.2304 17.5711Z" fill="white"/>
</g>
<defs>
<clipPath id="clip0_6315_34386">
<rect width="50" height="50" fill="white" transform="translate(50.1484 0.152344) rotate(90)"/>
</clipPath>
</defs>
</svg>
