<svg width="24" height="25" viewBox="0 0 24 25" fill="none" xmlns="http://www.w3.org/2000/svg">
<mask id="mask0_946_4457" style="mask-type:alpha" maskUnits="userSpaceOnUse" x="0" y="0" width="24" height="25">
<rect y="0.5" width="24" height="24" fill="#D9D9D9"/>
</mask>
<g mask="url(#mask0_946_4457)">
<path d="M12.0017 22C10.6877 22 9.45267 21.7507 8.2965 21.252C7.14033 20.7533 6.13467 20.0766 5.2795 19.2218C4.42433 18.3669 3.74725 17.3617 3.24825 16.206C2.74942 15.0503 2.5 13.8156 2.5 12.5017C2.5 11.1877 2.74933 9.95267 3.248 8.7965C3.74667 7.64033 4.42342 6.63467 5.27825 5.7795C6.13308 4.92433 7.13833 4.24725 8.294 3.74825C9.44967 3.24942 10.6844 3 11.9983 3C13.3123 3 14.5473 3.24933 15.7035 3.748C16.8597 4.24667 17.8653 4.92342 18.7205 5.77825C19.5757 6.63308 20.2528 7.63833 20.7518 8.794C21.2506 9.94967 21.5 11.1844 21.5 12.4983C21.5 13.8123 21.2507 15.0473 20.752 16.2035C20.2533 17.3597 19.5766 18.3653 18.7218 19.2205C17.8669 20.0757 16.8617 20.7528 15.706 21.2518C14.5503 21.7506 13.3156 22 12.0017 22Z" fill="#262626"/>
<path d="M10.6002 16.8L17.3002 10L16.2002 9L10.6002 14.6L7.7002 11.8L6.7002 12.9L10.6002 16.8Z" fill="white"/>
</g>
</svg>
