<svg width="50" height="50" viewBox="0 0 50 50" fill="none" xmlns="http://www.w3.org/2000/svg">
<path fill-rule="evenodd" clip-rule="evenodd" d="M19 31.8691C17.4342 31.8691 15.8838 32.1724 14.4372 32.7618C12.9907 33.3511 11.6763 34.2149 10.5691 35.3038C9.46195 36.3928 8.5837 37.6856 7.98451 39.1083C7.38532 40.5311 7.07692 42.0561 7.07692 43.5961V47.0007H4V43.5961C4 41.6586 4.38799 39.7402 5.14181 37.9502C5.89563 36.1603 7.00052 34.5339 8.3934 33.1639C9.78628 31.7939 11.4399 30.7072 13.2597 29.9658C15.0796 29.2244 17.0302 28.8428 19 28.8428C20.9698 28.8428 22.9204 29.2244 24.7403 29.9658C26.5601 30.7072 28.2137 31.7939 29.6066 33.1639C30.9995 34.5339 32.1044 36.1603 32.8582 37.9502C33.612 39.7402 34 41.6586 34 43.5961V47.0007H30.9231V43.5961C30.9231 42.0561 30.6147 40.5311 30.0155 39.1083C29.4163 37.6856 28.538 36.3928 27.4309 35.3038C26.3237 34.2149 25.0093 33.3511 23.5628 32.7618C22.1162 32.1724 20.5658 31.8691 19 31.8691Z" fill="white"/>
<path fill-rule="evenodd" clip-rule="evenodd" d="M12.9756 15.5019C14.6782 13.7993 16.9875 12.8428 19.3954 12.8428C21.8032 12.8428 24.1125 13.7993 25.8151 15.5019C27.5178 17.2046 28.4743 19.5138 28.4743 21.9217C28.4743 24.3296 27.5178 26.6389 25.8151 28.3415C24.1125 30.0441 21.8032 31.0007 19.3954 31.0007C16.9875 31.0007 14.6782 30.0441 12.9756 28.3415C11.2729 26.6389 10.3164 24.3296 10.3164 21.9217C10.3164 19.5138 11.2729 17.2046 12.9756 15.5019ZM19.3954 15.8691C17.7901 15.8691 16.2506 16.5068 15.1155 17.6419C13.9804 18.777 13.3427 20.3165 13.3427 21.9217C13.3427 23.527 13.9804 25.0665 15.1155 26.2016C16.2506 27.3367 17.7901 27.9744 19.3954 27.9744C21.0006 27.9744 22.5401 27.3367 23.6752 26.2016C24.8103 25.0665 25.448 23.527 25.448 21.9217C25.448 20.3165 24.8103 18.777 23.6752 17.6419C22.5401 16.5068 21.0006 15.8691 19.3954 15.8691Z" fill="white"/>
<path d="M41 17.3333C41.4243 17.3333 41.8313 17.1577 42.1314 16.8452C42.4314 16.5326 42.6 16.1087 42.6 15.6667V5.66667C42.6 5.22464 42.4314 4.80072 42.1314 4.48816C41.8313 4.1756 41.4243 4 41 4C40.5757 4 40.1687 4.1756 39.8686 4.48816C39.5686 4.80072 39.4 5.22464 39.4 5.66667V15.6667C39.4 16.1087 39.5686 16.5326 39.8686 16.8452C40.1687 17.1577 40.5757 17.3333 41 17.3333ZM41 24C41.3956 24 41.7822 23.8778 42.1111 23.6489C42.44 23.42 42.6964 23.0946 42.8478 22.7139C42.9991 22.3332 43.0387 21.9144 42.9616 21.5102C42.8844 21.1061 42.6939 20.7349 42.4142 20.4435C42.1345 20.1522 41.7781 19.9537 41.3902 19.8734C41.0022 19.793 40.6001 19.8342 40.2346 19.9919C39.8692 20.1496 39.5568 20.4166 39.3371 20.7592C39.1173 21.1018 39 21.5046 39 21.9167C39 22.4692 39.2107 22.9991 39.5858 23.3898C39.9609 23.7805 40.4696 24 41 24Z" fill="white"/>
<path d="M26.049 6.10113L25.7639 9.11858ZM32.1993 9.35748L29.8641 11.2895ZM34.2461 16.0088L31.2286 15.7237Z" fill="white"/>
<path fill-rule="evenodd" clip-rule="evenodd" d="M35.2552 16.1045C35.2027 16.66 34.7098 17.0678 34.1543 17.0153L31.1369 16.7302C30.5814 16.6777 30.1736 16.1849 30.2261 15.6294C30.2786 15.0739 30.7714 14.6661 31.3269 14.7186L34.3444 15.0037C34.8999 15.0562 35.3077 15.549 35.2552 16.1045ZM29.0889 11.9342C28.7333 11.5043 28.7934 10.8675 29.2233 10.5118L31.5585 8.57977C31.9884 8.22409 32.6253 8.28426 32.981 8.71417C33.3366 9.14408 33.2765 9.78093 32.8466 10.1366L30.5114 12.0686C30.0815 12.4243 29.4446 12.3641 29.0889 11.9342ZM25.6722 10.1251C25.1167 10.0726 24.7089 9.57976 24.7614 9.02426L25.0465 6.00681C25.099 5.45131 25.5918 5.04354 26.1473 5.09602C26.7028 5.14851 27.1106 5.64137 27.0581 6.19687L26.773 9.21433C26.7205 9.76983 26.2277 10.1776 25.6722 10.1251Z" fill="white"/>
</svg>
