<svg width="201" height="137" viewBox="0 0 201 137" fill="none" xmlns="http://www.w3.org/2000/svg">
<rect width="200.578" height="136.067" fill="white"/>
<path d="M93.7148 116.734L105.657 110.001L109.468 99.0755L114.93 104.157L127.5 69L140.212 89.4204L152 37.5L161.3 99.0755L167.398 90.1826L172.226 93.6127L181.246 73.5403" stroke="#A6DCA5" stroke-width="1.81245" stroke-linecap="round" stroke-linejoin="round"/>
<path d="M28.8692 84.9313C27.4595 84.9313 26.204 84.689 25.1027 84.2044C24.0077 83.7136 23.1424 83.0402 22.5068 82.1843C21.8774 81.3221 21.5533 80.3278 21.5345 79.2013H25.6502C25.6754 79.6733 25.8296 80.0887 26.1128 80.4474C26.4023 80.7998 26.7862 81.0736 27.2644 81.2687C27.7427 81.4637 28.2808 81.5613 28.8787 81.5613C29.5017 81.5613 30.0523 81.4512 30.5306 81.2309C31.0089 81.0106 31.3834 80.7054 31.654 80.3152C31.9246 79.925 32.0599 79.4751 32.0599 78.9653C32.0599 78.4493 31.9151 77.993 31.6257 77.5966C31.3425 77.1938 30.9334 76.8791 30.3985 76.6526C29.8698 76.426 29.2405 76.3127 28.5105 76.3127H26.7075V73.3109H28.5105C29.1272 73.3109 29.6716 73.2039 30.1436 72.9899C30.6219 72.7759 30.9932 72.4802 31.2575 72.1026C31.5218 71.7187 31.654 71.2719 31.654 70.7621C31.654 70.2775 31.5375 69.8527 31.3047 69.4877C31.0781 69.1164 30.7572 68.8269 30.3418 68.6193C29.9328 68.4116 29.4545 68.3078 28.907 68.3078C28.3532 68.3078 27.8466 68.4084 27.3872 68.6098C26.9278 68.8049 26.5596 69.085 26.2827 69.45C26.0058 69.815 25.8579 70.2429 25.839 70.7338H21.9215C21.9404 69.6199 22.2582 68.6382 22.8749 67.7886C23.4917 66.939 24.3224 66.275 25.367 65.7968C26.418 65.3122 27.6043 65.0699 28.9259 65.0699C30.26 65.0699 31.4274 65.3122 32.428 65.7968C33.4287 66.2813 34.2059 66.9358 34.7597 67.7602C35.3198 68.5784 35.5967 69.4972 35.5904 70.5167C35.5967 71.5991 35.26 72.5022 34.5803 73.2259C33.9069 73.9496 33.029 74.409 31.9466 74.6041V74.7552C33.3689 74.9377 34.4513 75.4317 35.1939 76.2372C35.9428 77.0365 36.3141 78.0371 36.3078 79.2391C36.3141 80.3404 35.9963 81.319 35.3544 82.1749C34.7188 83.0308 33.8409 83.7041 32.7207 84.195C31.6005 84.6859 30.3167 84.9313 28.8692 84.9313ZM39.246 84.667V81.7218L46.1276 75.3499C46.7129 74.7835 47.2037 74.2737 47.6002 73.8206C48.003 73.3675 48.3082 72.9238 48.5159 72.4896C48.7236 72.0491 48.8274 71.5739 48.8274 71.0642C48.8274 70.4978 48.6984 70.0101 48.4404 69.601C48.1823 69.1857 47.8299 68.8679 47.3831 68.6476C46.9363 68.421 46.4297 68.3078 45.8633 68.3078C45.2717 68.3078 44.7557 68.4273 44.3152 68.6665C43.8746 68.9056 43.5348 69.2486 43.2956 69.6954C43.0565 70.1422 42.9369 70.674 42.9369 71.2907H39.0572C39.0572 70.0258 39.3435 68.9276 39.9162 67.9962C40.4889 67.0648 41.2913 66.3443 42.3233 65.8345C43.3554 65.3248 44.5449 65.0699 45.8916 65.0699C47.2761 65.0699 48.4813 65.3153 49.5071 65.8062C50.5391 66.2908 51.3415 66.9642 51.9142 67.8263C52.4869 68.6885 52.7732 69.6765 52.7732 70.7904C52.7732 71.5204 52.6285 72.241 52.339 72.9522C52.0558 73.6633 51.5492 74.4531 50.8192 75.3216C50.0892 76.1837 49.0602 77.219 47.7324 78.4273L44.9099 81.1931V81.3253H53.0281V84.667H39.246ZM63.0509 84.9313C61.7167 84.9313 60.5273 84.6859 59.4826 84.195C58.4442 83.7041 57.6198 83.0276 57.0094 82.1654C56.3989 81.3033 56.0811 80.3152 56.0559 79.2013H60.0207C60.0647 79.9502 60.3794 80.5575 60.9647 81.0232C61.5499 81.4889 62.2453 81.7218 63.0509 81.7218C63.6928 81.7218 64.2592 81.5802 64.75 81.297C65.2472 81.0075 65.6342 80.6079 65.9111 80.0981C66.1943 79.5821 66.3359 78.9905 66.3359 78.3234C66.3359 77.6438 66.1912 77.0459 65.9017 76.5299C65.6185 76.0138 65.2252 75.611 64.7217 75.3216C64.2183 75.0321 63.6424 74.8842 62.9942 74.8779C62.4278 74.8779 61.8772 74.9943 61.3423 75.2272C60.8136 75.46 60.4014 75.7778 60.1056 76.1806L56.4713 75.5292L57.387 65.3342H69.2056V68.6759H60.757L60.2567 73.5185H60.3699C60.7098 73.0403 61.2227 72.6438 61.9086 72.3291C62.5946 72.0145 63.3624 71.8571 64.212 71.8571C65.3762 71.8571 66.4146 72.1309 67.3271 72.6784C68.2396 73.2259 68.9602 73.978 69.4888 74.9345C70.0175 75.8848 70.2786 76.9798 70.2723 78.2196C70.2786 79.5223 69.9766 80.6802 69.3661 81.6934C68.762 82.7004 67.9155 83.4933 66.8268 84.0723C65.7444 84.645 64.4857 84.9313 63.0509 84.9313ZM76.8047 80.4946L76.8141 75.6708H77.3994L82.0438 70.1674H86.6599L80.4202 77.455H79.4667L76.8047 80.4946ZM73.1609 84.667V65.3342H77.1823V84.667H73.1609ZM82.2232 84.667L77.9564 78.3517L80.6373 75.5104L86.9336 84.667H82.2232Z" fill="#1E1B39"/>
<path d="M61.1369 98.6411C60.6578 99.1209 60.1995 99.5805 59.7408 100.04C59.3482 100.433 58.9556 100.825 58.5629 101.216C58.4345 101.344 58.2796 101.383 58.1049 101.332C57.9303 101.28 57.8263 101.157 57.7878 100.981C57.7506 100.811 57.8156 100.671 57.9348 100.551C58.4793 100.007 59.0234 99.4625 59.5671 98.9179C59.9701 98.515 60.3735 98.1123 60.7771 97.7099C60.9984 97.4902 61.2546 97.489 61.475 97.7065C61.7813 98.0085 62.0855 98.3128 62.3877 98.6194C62.4219 98.6538 62.4434 98.7007 62.4676 98.7369L65.0128 96.1895C64.9766 96.1872 64.9417 96.1834 64.9066 96.1832C64.6121 96.1832 64.3176 96.1861 64.0231 96.1813C63.8286 96.1784 63.682 96.0839 63.602 95.907C63.5257 95.7381 63.5511 95.5741 63.67 95.43C63.7127 95.3766 63.767 95.3337 63.8289 95.3046C63.8907 95.2756 63.9584 95.2611 64.0268 95.2624C64.7317 95.2608 65.4384 95.2594 66.1443 95.263C66.4109 95.2644 66.6082 95.4669 66.6091 95.7331C66.6113 96.4353 66.6113 97.1375 66.6091 97.8397C66.6091 98.1065 66.4 98.3154 66.1467 98.3131C65.8935 98.3108 65.6982 98.1115 65.6937 97.844C65.6894 97.5572 65.6926 97.2702 65.6926 96.9832V96.8643L65.6514 96.8376C65.6257 96.8779 65.5971 96.9163 65.5657 96.9524C64.6645 97.8553 63.7626 98.7575 62.86 99.6591C62.6251 99.8935 62.3711 99.894 62.1372 99.6611C61.8298 99.3552 61.5231 99.0482 61.2168 98.7403C61.1905 98.7138 61.1695 98.6812 61.1369 98.6411Z" fill="#05C168"/>
<path d="M22.7322 100.467V96.4059H23.5402V100.467H22.7322ZM21.1073 98.8388V98.0339H25.1681V98.8388H21.1073ZM28.879 95.3487V101.5H27.9479V96.2798H27.9119L26.4401 97.2409V96.3519L27.9749 95.3487H28.879ZM32.6215 101.584C32.191 101.584 31.8105 101.51 31.4801 101.362C31.1517 101.214 30.8944 101.009 30.7082 100.749C30.522 100.489 30.4299 100.192 30.4319 99.86C30.4299 99.5997 30.4829 99.3604 30.5911 99.1422C30.7012 98.9219 30.8504 98.7387 31.0386 98.5925C31.2268 98.4444 31.4371 98.3502 31.6694 98.3102V98.2742C31.363 98.2001 31.1177 98.0359 30.9335 97.7816C30.7493 97.5273 30.6581 97.2349 30.6602 96.9045C30.6581 96.5901 30.7412 96.3098 30.9094 96.0635C31.0797 95.8152 31.3129 95.62 31.6093 95.4778C31.9056 95.3356 32.243 95.2646 32.6215 95.2646C32.9959 95.2646 33.3303 95.3366 33.6247 95.4808C33.921 95.623 34.1543 95.8182 34.3245 96.0665C34.4947 96.3128 34.5808 96.5921 34.5828 96.9045C34.5808 97.2349 34.4867 97.5273 34.3005 97.7816C34.1143 98.0359 33.872 98.2001 33.5736 98.2742V98.3102C33.8039 98.3502 34.0111 98.4444 34.1954 98.5925C34.3816 98.7387 34.5298 98.9219 34.6399 99.1422C34.752 99.3604 34.8091 99.5997 34.8111 99.86C34.8091 100.192 34.715 100.489 34.5288 100.749C34.3425 101.009 34.0842 101.214 33.7538 101.362C33.4255 101.51 33.048 101.584 32.6215 101.584ZM32.6215 100.824C32.8758 100.824 33.0961 100.782 33.2823 100.698C33.4685 100.612 33.6127 100.493 33.7148 100.341C33.8169 100.186 33.869 100.006 33.871 99.8C33.869 99.5857 33.8129 99.3965 33.7028 99.2323C33.5947 99.0681 33.4475 98.9389 33.2613 98.8448C33.075 98.7507 32.8618 98.7037 32.6215 98.7037C32.3792 98.7037 32.1639 98.7507 31.9757 98.8448C31.7875 98.9389 31.6393 99.0681 31.5312 99.2323C31.4231 99.3965 31.37 99.5857 31.372 99.8C31.37 100.006 31.4191 100.186 31.5192 100.341C31.6213 100.493 31.7665 100.612 31.9547 100.698C32.1429 100.782 32.3652 100.824 32.6215 100.824ZM32.6215 97.9618C32.8257 97.9618 33.007 97.9207 33.1651 97.8386C33.3233 97.7565 33.4475 97.6424 33.5376 97.4962C33.6297 97.35 33.6768 97.1788 33.6788 96.9826C33.6768 96.7904 33.6307 96.6222 33.5406 96.478C33.4525 96.3338 33.3293 96.2227 33.1711 96.1446C33.013 96.0645 32.8297 96.0245 32.6215 96.0245C32.4092 96.0245 32.223 96.0645 32.0628 96.1446C31.9046 96.2227 31.7815 96.3338 31.6934 96.478C31.6053 96.6222 31.5622 96.7904 31.5642 96.9826C31.5622 97.1788 31.6063 97.35 31.6964 97.4962C31.7865 97.6424 31.9106 97.7565 32.0688 97.8386C32.229 97.9207 32.4132 97.9618 32.6215 97.9618ZM36.3091 101.557C36.1449 101.557 36.0038 101.499 35.8856 101.383C35.7675 101.265 35.7084 101.123 35.7084 100.956C35.7084 100.792 35.7675 100.652 35.8856 100.536C36.0038 100.418 36.1449 100.359 36.3091 100.359C36.4733 100.359 36.6145 100.418 36.7326 100.536C36.8508 100.652 36.9099 100.792 36.9099 100.956C36.9099 101.066 36.8818 101.168 36.8258 101.26C36.7717 101.35 36.6996 101.422 36.6095 101.476C36.5194 101.53 36.4193 101.557 36.3091 101.557ZM40.0193 101.584C39.6068 101.584 39.2384 101.513 38.914 101.371C38.5916 101.229 38.3363 101.031 38.1481 100.779C37.9619 100.525 37.8617 100.23 37.8477 99.8961H38.7909C38.8029 100.078 38.8639 100.236 38.9741 100.371C39.0862 100.503 39.2324 100.605 39.4126 100.677C39.5928 100.749 39.793 100.785 40.0133 100.785C40.2556 100.785 40.4699 100.743 40.6561 100.659C40.8443 100.575 40.9915 100.458 41.0976 100.308C41.2037 100.155 41.2568 99.9802 41.2568 99.7819C41.2568 99.5757 41.2037 99.3945 41.0976 99.2383C40.9935 99.0801 40.8403 98.956 40.6381 98.8659C40.4378 98.7757 40.1955 98.7307 39.9112 98.7307H39.3916V97.9738H39.9112C40.1395 97.9738 40.3397 97.9327 40.5119 97.8506C40.6861 97.7685 40.8223 97.6544 40.9204 97.5082C41.0185 97.3601 41.0676 97.1869 41.0676 96.9886C41.0676 96.7984 41.0245 96.6332 40.9384 96.493C40.8543 96.3509 40.7342 96.2397 40.578 96.1596C40.4238 96.0795 40.2416 96.0395 40.0313 96.0395C39.8311 96.0395 39.6439 96.0765 39.4697 96.1506C39.2975 96.2227 39.1573 96.3268 39.0492 96.463C38.941 96.5971 38.883 96.7583 38.875 96.9466H37.9769C37.9869 96.6142 38.085 96.3218 38.2712 96.0695C38.4595 95.8172 38.7078 95.62 39.0161 95.4778C39.3245 95.3356 39.6669 95.2646 40.0433 95.2646C40.4378 95.2646 40.7782 95.3417 41.0646 95.4958C41.3529 95.648 41.5752 95.8513 41.7314 96.1056C41.8895 96.3599 41.9676 96.6382 41.9656 96.9406C41.9676 97.285 41.8715 97.5773 41.6773 97.8176C41.4851 98.0579 41.2288 98.2191 40.9084 98.3012V98.3492C41.3169 98.4113 41.6332 98.5735 41.8575 98.8358C42.0838 99.0981 42.1959 99.4235 42.1939 99.812C42.1959 100.15 42.1018 100.454 41.9116 100.722C41.7234 100.99 41.466 101.202 41.1397 101.356C40.8133 101.508 40.4398 101.584 40.0193 101.584ZM43.2001 100.299V99.5477L45.8583 95.3487H46.45V96.454H46.0745L44.1733 99.4636V99.5116H47.8166V100.299H43.2001ZM46.1166 101.5V100.07L46.1226 99.7279V95.3487H47.0027V101.5H46.1166ZM52.0742 100.347V100.022C52.0742 99.79 52.1223 99.5777 52.2184 99.3855C52.3165 99.1912 52.4587 99.0361 52.6449 98.9199C52.8331 98.8018 53.0604 98.7427 53.3267 98.7427C53.599 98.7427 53.8273 98.8008 54.0115 98.9169C54.1957 99.0331 54.3349 99.1882 54.429 99.3825C54.5251 99.5767 54.5732 99.79 54.5732 100.022V100.347C54.5732 100.579 54.5251 100.792 54.429 100.986C54.3329 101.179 54.1917 101.334 54.0055 101.452C53.8213 101.568 53.595 101.626 53.3267 101.626C53.0564 101.626 52.8281 101.568 52.6419 101.452C52.4557 101.334 52.3145 101.179 52.2184 100.986C52.1223 100.792 52.0742 100.579 52.0742 100.347ZM52.774 100.022V100.347C52.774 100.519 52.8151 100.675 52.8972 100.815C52.9793 100.955 53.1225 101.025 53.3267 101.025C53.5289 101.025 53.6701 100.955 53.7502 100.815C53.8303 100.675 53.8703 100.519 53.8703 100.347V100.022C53.8703 99.85 53.8313 99.6938 53.7532 99.5537C53.6771 99.4135 53.5349 99.3434 53.3267 99.3434C53.1265 99.3434 52.9843 99.4135 52.9002 99.5537C52.8161 99.6938 52.774 99.85 52.774 100.022ZM48.9805 96.8264V96.502C48.9805 96.2698 49.0286 96.0565 49.1247 95.8623C49.2228 95.668 49.365 95.5129 49.5512 95.3967C49.7394 95.2806 49.9667 95.2225 50.233 95.2225C50.5053 95.2225 50.7336 95.2806 50.9178 95.3967C51.102 95.5129 51.2412 95.668 51.3353 95.8623C51.4294 96.0565 51.4765 96.2698 51.4765 96.502V96.8264C51.4765 97.0587 51.4284 97.272 51.3323 97.4662C51.2382 97.6584 51.098 97.8136 50.9118 97.9317C50.7276 98.0479 50.5013 98.106 50.233 98.106C49.9607 98.106 49.7314 98.0479 49.5452 97.9317C49.361 97.8136 49.2208 97.6584 49.1247 97.4662C49.0286 97.272 48.9805 97.0587 48.9805 96.8264ZM49.6834 96.502V96.8264C49.6834 96.9986 49.7234 97.1548 49.8035 97.295C49.8856 97.4351 50.0288 97.5052 50.233 97.5052C50.4332 97.5052 50.5734 97.4351 50.6535 97.295C50.7356 97.1548 50.7767 96.9986 50.7767 96.8264V96.502C50.7767 96.3298 50.7376 96.1736 50.6595 96.0335C50.5814 95.8933 50.4393 95.8232 50.233 95.8232C50.0328 95.8232 49.8906 95.8933 49.8065 96.0335C49.7244 96.1736 49.6834 96.3298 49.6834 96.502ZM49.2659 101.5L53.4949 95.3487H54.2128L49.9837 101.5H49.2659Z" fill="#05C168"/>
<path d="M20.5424 35.8858V34.5071H27.0379V35.8858H24.6166V42.416H22.9637V35.8858H20.5424ZM29.8966 42.5319C29.2967 42.5319 28.7779 42.4044 28.3403 42.1496C27.9052 41.8921 27.5692 41.5342 27.3323 41.076C27.0955 40.6152 26.9771 40.0809 26.9771 39.4734C26.9771 38.8606 27.0955 38.3251 27.3323 37.8669C27.5692 37.406 27.9052 37.0482 28.3403 36.7933C28.7779 36.5359 29.2967 36.4071 29.8966 36.4071C30.4964 36.4071 31.0139 36.5359 31.449 36.7933C31.8866 37.0482 32.2239 37.406 32.4608 37.8669C32.6976 38.3251 32.816 38.8606 32.816 39.4734C32.816 40.0809 32.6976 40.6152 32.4608 41.076C32.2239 41.5342 31.8866 41.8921 31.449 42.1496C31.0139 42.4044 30.4964 42.5319 29.8966 42.5319ZM29.9043 41.2575C30.1772 41.2575 30.405 41.1803 30.5878 41.0258C30.7706 40.8687 30.9083 40.6551 31.001 40.3847C31.0963 40.1144 31.1439 39.8068 31.1439 39.4618C31.1439 39.1168 31.0963 38.8091 31.001 38.5388C30.9083 38.2685 30.7706 38.0548 30.5878 37.8978C30.405 37.7407 30.1772 37.6622 29.9043 37.6622C29.6288 37.6622 29.3971 37.7407 29.2092 37.8978C29.0238 38.0548 28.8835 38.2685 28.7882 38.5388C28.6955 38.8091 28.6492 39.1168 28.6492 39.4618C28.6492 39.8068 28.6955 40.1144 28.7882 40.3847C28.8835 40.6551 29.0238 40.8687 29.2092 41.0258C29.3971 41.1803 29.6288 41.2575 29.9043 41.2575ZM37.0408 36.4844V37.7201H33.4687V36.4844H37.0408ZM34.2796 35.0632H35.9247V40.5933C35.9247 40.7452 35.9479 40.8636 35.9943 40.9486C36.0406 41.0309 36.105 41.0889 36.1873 41.1223C36.2723 41.1558 36.3701 41.1725 36.4808 41.1725C36.5581 41.1725 36.6353 41.1661 36.7125 41.1532C36.7898 41.1378 36.849 41.1262 36.8902 41.1185L37.1489 42.3426C37.0665 42.3684 36.9507 42.398 36.8014 42.4315C36.652 42.4675 36.4705 42.4894 36.2569 42.4971C35.8604 42.5126 35.5128 42.4598 35.2142 42.3388C34.9181 42.2178 34.6877 42.0298 34.5229 41.775C34.3582 41.5201 34.2771 41.1983 34.2796 40.8095V35.0632ZM39.8039 42.528C39.4254 42.528 39.0882 42.4624 38.7921 42.3311C38.496 42.1972 38.2617 42.0002 38.0893 41.7402C37.9193 41.4776 37.8344 41.1506 37.8344 40.7593C37.8344 40.4298 37.8949 40.153 38.0159 39.929C38.1369 39.7051 38.3017 39.5249 38.5102 39.3884C38.7187 39.252 38.9556 39.149 39.2207 39.0795C39.4885 39.01 39.7691 38.961 40.0626 38.9327C40.4076 38.8967 40.6856 38.8632 40.8967 38.8323C41.1079 38.7988 41.261 38.7499 41.3563 38.6856C41.4516 38.6212 41.4992 38.5259 41.4992 38.3998V38.3766C41.4992 38.132 41.4219 37.9428 41.2675 37.8089C41.1156 37.6751 40.8993 37.6081 40.6187 37.6081C40.3226 37.6081 40.0871 37.6738 39.912 37.8051C39.7369 37.9338 39.6211 38.096 39.5644 38.2917L38.0429 38.1681C38.1201 37.8077 38.272 37.4961 38.4986 37.2335C38.7252 36.9684 39.0174 36.765 39.3752 36.6234C39.7356 36.4792 40.1527 36.4071 40.6264 36.4071C40.956 36.4071 41.2713 36.4457 41.5726 36.523C41.8763 36.6002 42.1454 36.7199 42.3797 36.8821C42.6165 37.0443 42.8032 37.2529 42.9396 37.5077C43.0761 37.76 43.1443 38.0625 43.1443 38.4152V42.416H41.5841V41.5935H41.5378C41.4425 41.7788 41.3151 41.9423 41.1555 42.0839C40.9959 42.2229 40.8041 42.3323 40.5801 42.4122C40.3561 42.4894 40.0974 42.528 39.8039 42.528ZM40.275 41.3927C40.517 41.3927 40.7307 41.345 40.9161 41.2498C41.1014 41.1519 41.2469 41.0206 41.3524 40.8559C41.458 40.6911 41.5108 40.5044 41.5108 40.2959V39.6664C41.4593 39.6999 41.3885 39.7308 41.2984 39.7591C41.2108 39.7849 41.1117 39.8093 41.001 39.8325C40.8903 39.8531 40.7796 39.8724 40.6689 39.8904C40.5582 39.9059 40.4578 39.92 40.3677 39.9329C40.1746 39.9612 40.006 40.0063 39.8618 40.0681C39.7176 40.1299 39.6056 40.2135 39.5258 40.3191C39.446 40.4221 39.4061 40.5508 39.4061 40.7053C39.4061 40.9292 39.4872 41.1004 39.6494 41.2189C39.8142 41.3347 40.0227 41.3927 40.275 41.3927ZM46.0657 34.5071V42.416H44.4206V34.5071H46.0657ZM55.4304 36.4844L53.3567 42.416H51.503L49.4293 36.4844H51.1671L52.399 40.7284H52.4608L53.6888 36.4844H55.4304ZM56.2723 42.416V36.4844H57.9174V42.416H56.2723ZM57.0987 35.7197C56.8541 35.7197 56.6443 35.6386 56.4693 35.4764C56.2968 35.3117 56.2105 35.1147 56.2105 34.8856C56.2105 34.659 56.2968 34.4647 56.4693 34.3025C56.6443 34.1377 56.8541 34.0553 57.0987 34.0553C57.3433 34.0553 57.5518 34.1377 57.7243 34.3025C57.8994 34.4647 57.9869 34.659 57.9869 34.8856C57.9869 35.1147 57.8994 35.3117 57.7243 35.4764C57.5518 35.6386 57.3433 35.7197 57.0987 35.7197ZM64.1706 38.1758L62.6645 38.2685C62.6387 38.1398 62.5834 38.0239 62.4984 37.9209C62.4135 37.8154 62.3015 37.7317 62.1624 37.6699C62.026 37.6056 61.8625 37.5734 61.672 37.5734C61.4171 37.5734 61.2022 37.6274 61.0271 37.7356C60.852 37.8411 60.7645 37.9827 60.7645 38.1604C60.7645 38.302 60.8211 38.4217 60.9344 38.5195C61.0477 38.6173 61.2421 38.6959 61.5175 38.7551L62.5911 38.9713C63.1678 39.0898 63.5977 39.2803 63.8809 39.5429C64.1641 39.8055 64.3057 40.1505 64.3057 40.5778C64.3057 40.9666 64.1912 41.3077 63.962 41.6012C63.7355 41.8947 63.4239 42.1238 63.0275 42.2886C62.6336 42.4508 62.1792 42.5319 61.6643 42.5319C60.8791 42.5319 60.2535 42.3684 59.7875 42.0414C59.3241 41.7119 59.0524 41.2639 58.9726 40.6975L60.5907 40.6126C60.6396 40.852 60.7581 41.0348 60.946 41.1609C61.1339 41.2845 61.3746 41.3463 61.6681 41.3463C61.9565 41.3463 62.1882 41.291 62.3633 41.1803C62.5409 41.067 62.631 40.9215 62.6336 40.7439C62.631 40.5946 62.5679 40.4723 62.4444 40.377C62.3208 40.2792 62.1303 40.2045 61.8728 40.153L60.8456 39.9484C60.2663 39.8325 59.8351 39.6317 59.5519 39.3459C59.2713 39.0602 59.131 38.6959 59.131 38.253C59.131 37.872 59.2339 37.5438 59.4399 37.2683C59.6484 36.9928 59.9406 36.7804 60.3165 36.6311C60.695 36.4818 61.1378 36.4071 61.645 36.4071C62.3941 36.4071 62.9837 36.5655 63.4137 36.8821C63.8462 37.1988 64.0985 37.63 64.1706 38.1758ZM65.3416 42.416V36.4844H66.9867V42.416H65.3416ZM66.168 35.7197C65.9235 35.7197 65.7136 35.6386 65.5386 35.4764C65.3661 35.3117 65.2798 35.1147 65.2798 34.8856C65.2798 34.659 65.3661 34.4647 65.5386 34.3025C65.7136 34.1377 65.9235 34.0553 66.168 34.0553C66.4126 34.0553 66.6212 34.1377 66.7936 34.3025C66.9687 34.4647 67.0562 34.659 67.0562 34.8856C67.0562 35.1147 66.9687 35.3117 66.7936 35.4764C66.6212 35.6386 66.4126 35.7197 66.168 35.7197ZM71.4596 36.4844V37.7201H67.8875V36.4844H71.4596ZM68.6985 35.0632H70.3436V40.5933C70.3436 40.7452 70.3667 40.8636 70.4131 40.9486C70.4594 41.0309 70.5238 41.0889 70.6062 41.1223C70.6911 41.1558 70.789 41.1725 70.8997 41.1725C70.9769 41.1725 71.0541 41.1661 71.1314 41.1532C71.2086 41.1378 71.2678 41.1262 71.309 41.1185L71.5677 42.3426C71.4854 42.3684 71.3695 42.398 71.2202 42.4315C71.0709 42.4675 70.8894 42.4894 70.6757 42.4971C70.2792 42.5126 69.9316 42.4598 69.633 42.3388C69.3369 42.2178 69.1065 42.0298 68.9417 41.775C68.777 41.5201 68.6959 41.1983 68.6985 40.8095V35.0632ZM77.3922 38.1758L75.8861 38.2685C75.8604 38.1398 75.805 38.0239 75.7201 37.9209C75.6351 37.8154 75.5231 37.7317 75.3841 37.6699C75.2477 37.6056 75.0842 37.5734 74.8937 37.5734C74.6388 37.5734 74.4238 37.6274 74.2488 37.7356C74.0737 37.8411 73.9862 37.9827 73.9862 38.1604C73.9862 38.302 74.0428 38.4217 74.1561 38.5195C74.2694 38.6173 74.4637 38.6959 74.7392 38.7551L75.8128 38.9713C76.3895 39.0898 76.8194 39.2803 77.1026 39.5429C77.3858 39.8055 77.5274 40.1505 77.5274 40.5778C77.5274 40.9666 77.4128 41.3077 77.1837 41.6012C76.9571 41.8947 76.6456 42.1238 76.2491 42.2886C75.8552 42.4508 75.4008 42.5319 74.8859 42.5319C74.1007 42.5319 73.4751 42.3684 73.0091 42.0414C72.5457 41.7119 72.2741 41.2639 72.1943 40.6975L73.8124 40.6126C73.8613 40.852 73.9797 41.0348 74.1677 41.1609C74.3556 41.2845 74.5963 41.3463 74.8898 41.3463C75.1782 41.3463 75.4099 41.291 75.5849 41.1803C75.7626 41.067 75.8527 40.9215 75.8552 40.7439C75.8527 40.5946 75.7896 40.4723 75.666 40.377C75.5424 40.2792 75.3519 40.2045 75.0945 40.153L74.0673 39.9484C73.488 39.8325 73.0568 39.6317 72.7736 39.3459C72.4929 39.0602 72.3526 38.6959 72.3526 38.253C72.3526 37.872 72.4556 37.5438 72.6616 37.2683C72.8701 36.9928 73.1623 36.7804 73.5382 36.6311C73.9166 36.4818 74.3595 36.4071 74.8666 36.4071C75.6158 36.4071 76.2054 36.5655 76.6353 36.8821C77.0678 37.1988 77.3201 37.63 77.3922 38.1758Z" fill="#1E1B39"/>
</svg>
