<svg width="201" height="137" viewBox="0 0 201 137" fill="none" xmlns="http://www.w3.org/2000/svg">
<rect width="200.578" height="136.067" fill="white"/>
<path d="M92.957 110L103.374 99.8371L107.821 88.4035L114.427 104.538L118.873 96.9152L123.574 49.021L135.643 95.899L144.408 80.273L161.178 110L166.386 102.505L169.562 90.0551L179.345 80.273" stroke="#A6DCA5" stroke-width="1.81245" stroke-linecap="round" stroke-linejoin="round"/>
<path d="M59.1564 98.6411C58.6773 99.1209 58.2191 99.5805 57.7604 100.04C57.3677 100.433 56.9751 100.825 56.5825 101.216C56.454 101.344 56.2991 101.383 56.1244 101.332C55.9498 101.28 55.8458 101.157 55.8073 100.981C55.7702 100.811 55.8352 100.671 55.9543 100.551C56.4989 100.007 57.043 99.4625 57.5866 98.9179C57.9897 98.515 58.393 98.1123 58.7967 97.7099C59.018 97.4902 59.2742 97.489 59.4946 97.7065C59.8008 98.0085 60.105 98.3128 60.4072 98.6194C60.4414 98.6538 60.4629 98.7007 60.4872 98.7369L63.0323 96.1895C62.9961 96.1872 62.9612 96.1834 62.9261 96.1832C62.6316 96.1832 62.3371 96.1861 62.0427 96.1813C61.8481 96.1784 61.7015 96.0839 61.6216 95.907C61.5452 95.7381 61.5706 95.5741 61.6895 95.43C61.7322 95.3766 61.7865 95.3337 61.8484 95.3046C61.9103 95.2756 61.978 95.2611 62.0463 95.2624C62.7512 95.2608 63.458 95.2594 64.1638 95.263C64.4304 95.2644 64.6277 95.4669 64.6286 95.7331C64.6309 96.4353 64.6309 97.1375 64.6286 97.8397C64.6286 98.1065 64.4195 98.3154 64.1663 98.3131C63.913 98.3108 63.7178 98.1115 63.7132 97.844C63.7089 97.5572 63.7121 97.2702 63.7121 96.9832V96.8643L63.6709 96.8376C63.6453 96.8779 63.6166 96.9163 63.5853 96.9524C62.684 97.8553 61.7821 98.7575 60.8795 99.6591C60.6446 99.8935 60.3907 99.894 60.1567 99.6611C59.8494 99.3552 59.5426 99.0482 59.2363 98.7403C59.2101 98.7138 59.189 98.6812 59.1564 98.6411Z" fill="#05C168"/>
<path d="M22.5642 100.467V96.4059H23.3722V100.467H22.5642ZM20.9393 98.8388V98.0339H25.0001V98.8388H20.9393ZM26.1295 101.5V100.827L28.211 98.6706C28.4332 98.4363 28.6164 98.2311 28.7606 98.0549C28.9068 97.8767 29.0159 97.7075 29.088 97.5473C29.1601 97.3871 29.1961 97.2169 29.1961 97.0367C29.1961 96.8324 29.1481 96.6562 29.052 96.508C28.9558 96.3579 28.8247 96.2427 28.6585 96.1626C28.4923 96.0805 28.3051 96.0395 28.0968 96.0395C27.8766 96.0395 27.6843 96.0845 27.5201 96.1746C27.3559 96.2648 27.2298 96.3919 27.1417 96.5561C27.0536 96.7203 27.0095 96.9125 27.0095 97.1328H26.1235C26.1235 96.7583 26.2096 96.431 26.3818 96.1506C26.554 95.8703 26.7903 95.653 27.0906 95.4988C27.391 95.3427 27.7324 95.2646 28.1148 95.2646C28.5013 95.2646 28.8417 95.3417 29.1361 95.4958C29.4324 95.648 29.6637 95.8563 29.8299 96.1206C29.9961 96.3829 30.0792 96.6792 30.0792 97.0096C30.0792 97.2379 30.0361 97.4612 29.95 97.6794C29.8659 97.8977 29.7188 98.141 29.5085 98.4093C29.2983 98.6756 29.0059 98.999 28.6315 99.3795L27.409 100.659V100.704H30.1783V101.5H26.1295ZM33.6505 95.3487V101.5H32.7193V96.2798H32.6833L31.2115 97.2409V96.3519L32.7464 95.3487H33.6505ZM35.563 101.557C35.3988 101.557 35.2576 101.499 35.1395 101.383C35.0213 101.265 34.9623 101.123 34.9623 100.956C34.9623 100.792 35.0213 100.652 35.1395 100.536C35.2576 100.418 35.3988 100.359 35.563 100.359C35.7272 100.359 35.8683 100.418 35.9865 100.536C36.1046 100.652 36.1637 100.792 36.1637 100.956C36.1637 101.066 36.1357 101.168 36.0796 101.26C36.0255 101.35 35.9534 101.422 35.8633 101.476C35.7732 101.53 35.6731 101.557 35.563 101.557ZM39.2732 101.602C38.7986 101.6 38.3931 101.475 38.0567 101.227C37.7203 100.978 37.463 100.617 37.2848 100.142C37.1066 99.6678 37.0175 99.0961 37.0175 98.4273C37.0175 97.7605 37.1066 97.1909 37.2848 96.7183C37.465 96.2457 37.7233 95.8853 38.0597 95.637C38.3981 95.3887 38.8026 95.2646 39.2732 95.2646C39.7437 95.2646 40.1472 95.3897 40.4836 95.64C40.82 95.8883 41.0773 96.2487 41.2555 96.7213C41.4357 97.1919 41.5258 97.7605 41.5258 98.4273C41.5258 99.0981 41.4367 99.6708 41.2585 100.145C41.0803 100.618 40.823 100.979 40.4866 101.23C40.1502 101.478 39.7457 101.602 39.2732 101.602ZM39.2732 100.8C39.6897 100.8 40.015 100.597 40.2493 100.19C40.4856 99.784 40.6037 99.1963 40.6037 98.4273C40.6037 97.9167 40.5497 97.4852 40.4416 97.1328C40.3354 96.7784 40.1822 96.51 39.982 96.3278C39.7838 96.1436 39.5475 96.0515 39.2732 96.0515C38.8587 96.0515 38.5333 96.2557 38.297 96.6642C38.0607 97.0727 37.9416 97.6604 37.9396 98.4273C37.9396 98.9399 37.9926 99.3735 38.0988 99.7279C38.2069 100.08 38.3601 100.348 38.5583 100.53C38.7565 100.71 38.9948 100.8 39.2732 100.8ZM44.9252 95.3487V101.5H43.994V96.2798H43.958L42.4862 97.2409V96.3519L44.0211 95.3487H44.9252ZM49.8 100.347V100.022C49.8 99.79 49.848 99.5777 49.9441 99.3855C50.0423 99.1912 50.1844 99.0361 50.3707 98.9199C50.5589 98.8018 50.7861 98.7427 51.0525 98.7427C51.3248 98.7427 51.5531 98.8008 51.7373 98.9169C51.9215 99.0331 52.0607 99.1882 52.1548 99.3825C52.2509 99.5767 52.299 99.79 52.299 100.022V100.347C52.299 100.579 52.2509 100.792 52.1548 100.986C52.0587 101.179 51.9175 101.334 51.7313 101.452C51.5471 101.568 51.3208 101.626 51.0525 101.626C50.7821 101.626 50.5539 101.568 50.3676 101.452C50.1814 101.334 50.0403 101.179 49.9441 100.986C49.848 100.792 49.8 100.579 49.8 100.347ZM50.4998 100.022V100.347C50.4998 100.519 50.5409 100.675 50.623 100.815C50.7051 100.955 50.8482 101.025 51.0525 101.025C51.2547 101.025 51.3959 100.955 51.476 100.815C51.5561 100.675 51.5961 100.519 51.5961 100.347V100.022C51.5961 99.85 51.5571 99.6938 51.479 99.5537C51.4029 99.4135 51.2607 99.3434 51.0525 99.3434C50.8522 99.3434 50.7101 99.4135 50.626 99.5537C50.5419 99.6938 50.4998 99.85 50.4998 100.022ZM46.7063 96.8264V96.502C46.7063 96.2698 46.7543 96.0565 46.8505 95.8623C46.9486 95.668 47.0907 95.5129 47.277 95.3967C47.4652 95.2806 47.6925 95.2225 47.9588 95.2225C48.2311 95.2225 48.4594 95.2806 48.6436 95.3967C48.8278 95.5129 48.967 95.668 49.0611 95.8623C49.1552 96.0565 49.2023 96.2698 49.2023 96.502V96.8264C49.2023 97.0587 49.1542 97.272 49.0581 97.4662C48.964 97.6584 48.8238 97.8136 48.6376 97.9317C48.4534 98.0479 48.2271 98.106 47.9588 98.106C47.6864 98.106 47.4572 98.0479 47.271 97.9317C47.0867 97.8136 46.9466 97.6584 46.8505 97.4662C46.7543 97.272 46.7063 97.0587 46.7063 96.8264ZM47.4091 96.502V96.8264C47.4091 96.9986 47.4492 97.1548 47.5293 97.295C47.6114 97.4351 47.7545 97.5052 47.9588 97.5052C48.159 97.5052 48.2992 97.4351 48.3793 97.295C48.4614 97.1548 48.5024 96.9986 48.5024 96.8264V96.502C48.5024 96.3298 48.4634 96.1736 48.3853 96.0335C48.3072 95.8933 48.165 95.8232 47.9588 95.8232C47.7585 95.8232 47.6164 95.8933 47.5323 96.0335C47.4502 96.1736 47.4091 96.3298 47.4091 96.502ZM46.9916 101.5L51.2207 95.3487H51.9385L47.7095 101.5H46.9916Z" fill="#05C168"/>
<path d="M28.9789 84.9318C27.9846 84.9255 27.0249 84.7587 26.0998 84.4315C25.181 84.1042 24.3565 83.5725 23.6265 82.8362C22.8965 82.0998 22.3175 81.1244 21.8896 79.9098C21.4679 78.6952 21.2571 77.2037 21.2571 75.4353C21.2634 73.8117 21.4491 72.3611 21.8141 71.0836C22.1854 69.7997 22.714 68.711 23.4 67.8174C24.0922 66.9237 24.9198 66.2441 25.8826 65.7784C26.8455 65.3064 27.9248 65.0704 29.1205 65.0704C30.4106 65.0704 31.5497 65.3221 32.5377 65.8256C33.5258 66.3227 34.3187 66.9993 34.9166 67.8551C35.5207 68.711 35.8857 69.6707 36.0116 70.7343H31.9808C31.8234 70.0609 31.4931 69.5323 30.9896 69.1484C30.4861 68.7645 29.8631 68.5726 29.1205 68.5726C27.8619 68.5726 26.9053 69.1201 26.2508 70.2151C25.6026 71.3101 25.2722 72.7985 25.2596 74.6801H25.3918C25.6813 74.1075 26.0714 73.6197 26.5623 73.217C27.0595 72.8079 27.6227 72.4964 28.252 72.2824C28.8877 72.0622 29.5579 71.952 30.2627 71.952C31.4081 71.952 32.4276 72.2226 33.3212 72.7638C34.2149 73.2988 34.9197 74.0351 35.4358 74.9728C35.9518 75.9105 36.2098 76.9835 36.2098 78.1918C36.2098 79.5007 35.9046 80.665 35.2942 81.6845C34.69 82.704 33.8436 83.5032 32.7548 84.0822C31.6724 84.6549 30.4138 84.9381 28.9789 84.9318ZM28.96 81.7223C29.5894 81.7223 30.1526 81.5712 30.6498 81.2691C31.1469 80.9671 31.5371 80.558 31.8203 80.042C32.1035 79.5259 32.2451 78.9469 32.2451 78.305C32.2451 77.6631 32.1035 77.0873 31.8203 76.5775C31.5434 76.0678 31.1595 75.6619 30.6686 75.3598C30.1778 75.0577 29.6177 74.9067 28.9884 74.9067C28.5164 74.9067 28.079 74.9948 27.6762 75.171C27.2797 75.3472 26.9305 75.5927 26.6284 75.9073C26.3326 76.222 26.0998 76.587 25.9298 77.0023C25.7599 77.4114 25.675 77.8488 25.675 78.3145C25.675 78.9375 25.8166 79.507 26.0998 80.0231C26.3892 80.5391 26.7794 80.9513 27.2703 81.2597C27.7675 81.5681 28.3307 81.7223 28.96 81.7223ZM38.8152 81.2691V78.0502L46.8863 65.3347H49.6616V69.7903H48.0191L42.931 77.8425V77.9935H54.4004V81.2691H38.8152ZM48.0946 84.6675V80.2874L48.1701 78.862V65.3347H52.0027V84.6675H48.0946ZM64.2697 84.9318C62.8601 84.9318 61.6046 84.6895 60.5032 84.2049C59.4082 83.7141 58.5429 83.0407 57.9073 82.1848C57.278 81.3226 56.9539 80.3283 56.935 79.2018H61.0508C61.0759 79.6738 61.2301 80.0892 61.5133 80.4479C61.8028 80.8003 62.1867 81.074 62.665 81.2691C63.1433 81.4642 63.6813 81.5618 64.2792 81.5618C64.9022 81.5618 65.4529 81.4516 65.9312 81.2314C66.4094 81.0111 66.7839 80.7059 67.0545 80.3157C67.3251 79.9255 67.4604 79.4756 67.4604 78.9658C67.4604 78.4498 67.3157 77.9935 67.0262 77.597C66.743 77.1943 66.3339 76.8796 65.799 76.6531C65.2704 76.4265 64.641 76.3132 63.911 76.3132H62.108V73.3114H63.911C64.5278 73.3114 65.0721 73.2044 65.5441 72.9904C66.0224 72.7764 66.3937 72.4807 66.658 72.1031C66.9223 71.7192 67.0545 71.2724 67.0545 70.7626C67.0545 70.278 66.9381 69.8532 66.7052 69.4882C66.4787 69.1169 66.1577 68.8274 65.7424 68.6198C65.3333 68.4121 64.855 68.3082 64.3075 68.3082C63.7537 68.3082 63.2471 68.4089 62.7877 68.6103C62.3283 68.8054 61.9601 69.0855 61.6832 69.4505C61.4063 69.8155 61.2584 70.2434 61.2396 70.7343H57.322C57.3409 69.6204 57.6587 68.6386 58.2754 67.7891C58.8922 66.9395 59.7229 66.2755 60.7676 65.7972C61.8185 65.3127 63.0048 65.0704 64.3264 65.0704C65.6605 65.0704 66.8279 65.3127 67.8286 65.7972C68.8292 66.2818 69.6064 66.9363 70.1602 67.7607C70.7203 68.5789 70.9972 69.4977 70.9909 70.5172C70.9972 71.5996 70.6605 72.5027 69.9808 73.2264C69.3075 73.9501 68.4296 74.4095 67.3471 74.6046V74.7557C68.7694 74.9382 69.8518 75.4322 70.5944 76.2377C71.3433 77.0369 71.7146 78.0376 71.7083 79.2396C71.7146 80.3409 71.3968 81.3195 70.7549 82.1754C70.1193 83.0312 69.2414 83.7046 68.1212 84.1955C67.001 84.6864 65.7172 84.9318 64.2697 84.9318Z" fill="#1E1B39"/>
<path d="M27.6578 37.2755H25.9663C25.9354 37.0567 25.8723 36.8623 25.7771 36.6924C25.6818 36.5199 25.5595 36.3732 25.4102 36.2522C25.2609 36.1312 25.0884 36.0385 24.8927 35.9741C24.6997 35.9098 24.4898 35.8776 24.2633 35.8776C23.8539 35.8776 23.4974 35.9793 23.1936 36.1827C22.8898 36.3835 22.6542 36.677 22.4869 37.0631C22.3195 37.4467 22.2359 37.9127 22.2359 38.4611C22.2359 39.0249 22.3195 39.4986 22.4869 39.8822C22.6568 40.2658 22.8936 40.5555 23.1974 40.7511C23.5012 40.9468 23.8527 41.0446 24.2517 41.0446C24.4757 41.0446 24.6829 41.015 24.8734 40.9558C25.0665 40.8966 25.2377 40.8103 25.3871 40.697C25.5364 40.5812 25.66 40.4409 25.7578 40.2761C25.8582 40.1113 25.9277 39.9234 25.9663 39.7123L27.6578 39.72C27.614 40.083 27.5046 40.4332 27.3295 40.7704C27.157 41.1051 26.924 41.405 26.6305 41.6702C26.3396 41.9328 25.9921 42.1413 25.5879 42.2958C25.1862 42.4477 24.7318 42.5237 24.2247 42.5237C23.5193 42.5237 22.8885 42.364 22.3324 42.0448C21.7789 41.7256 21.3412 41.2634 21.0194 40.6584C20.7002 40.0534 20.5406 39.321 20.5406 38.4611C20.5406 37.5986 20.7027 36.8649 21.0271 36.2599C21.3515 35.6549 21.7918 35.1941 22.3479 34.8774C22.9039 34.5582 23.5296 34.3985 24.2247 34.3985C24.6829 34.3985 25.1077 34.4629 25.499 34.5916C25.8929 34.7203 26.2418 34.9083 26.5456 35.1554C26.8494 35.4 27.0965 35.6999 27.287 36.0552C27.4801 36.4105 27.6037 36.8173 27.6578 37.2755ZM30.471 34.5067V42.4155H28.8259V34.5067H30.471ZM31.7889 42.4155V36.4839H33.434V42.4155H31.7889ZM32.6153 35.7193C32.3707 35.7193 32.1609 35.6382 31.9858 35.476C31.8133 35.3112 31.7271 35.1142 31.7271 34.8851C31.7271 34.6586 31.8133 34.4642 31.9858 34.302C32.1609 34.1372 32.3707 34.0548 32.6153 34.0548C32.8599 34.0548 33.0684 34.1372 33.2409 34.302C33.416 34.4642 33.5035 34.6586 33.5035 34.8851C33.5035 35.1142 33.416 35.3112 33.2409 35.476C33.0684 35.6382 32.8599 35.7193 32.6153 35.7193ZM37.4319 42.5314C36.8243 42.5314 36.3016 42.4027 35.864 42.1452C35.4289 41.8852 35.0942 41.5248 34.8599 41.0639C34.6282 40.6031 34.5124 40.0727 34.5124 39.4729C34.5124 38.8653 34.6295 38.3324 34.8638 37.8741C35.1006 37.4133 35.4366 37.0541 35.8717 36.7967C36.3068 36.5367 36.8243 36.4066 37.4241 36.4066C37.9416 36.4066 38.3947 36.5006 38.7835 36.6886C39.1722 36.8765 39.4799 37.1404 39.7064 37.4802C39.933 37.82 40.0578 38.2191 40.081 38.6774H38.5286C38.4848 38.3813 38.369 38.1431 38.181 37.9629C37.9957 37.7801 37.7524 37.6887 37.4512 37.6887C37.1963 37.6887 36.9736 37.7583 36.7831 37.8973C36.5951 38.0337 36.4484 38.2333 36.3428 38.4959C36.2373 38.7584 36.1845 39.0764 36.1845 39.4497C36.1845 39.8282 36.236 40.15 36.339 40.4151C36.4445 40.6803 36.5926 40.8824 36.7831 41.0214C36.9736 41.1605 37.1963 41.23 37.4512 41.23C37.6391 41.23 37.8077 41.1914 37.9571 41.1141C38.1089 41.0369 38.2338 40.9249 38.3316 40.7781C38.432 40.6288 38.4977 40.4499 38.5286 40.2414H40.081C40.0553 40.6945 39.9317 41.0935 39.7103 41.4385C39.4915 41.7809 39.189 42.0487 38.8028 42.2417C38.4166 42.4348 37.9596 42.5314 37.4319 42.5314ZM42.6249 40.7086L42.6288 38.7353H42.8682L44.7682 36.4839H46.6566L44.104 39.4651H43.714L42.6249 40.7086ZM41.1343 42.4155V34.5067H42.7794V42.4155H41.1343ZM44.8416 42.4155L43.0961 39.832L44.1928 38.6696L46.7686 42.4155H44.8416ZM52.399 38.1753L50.893 38.268C50.8672 38.1393 50.8119 38.0234 50.7269 37.9204C50.6419 37.8149 50.5299 37.7312 50.3909 37.6694C50.2545 37.6051 50.091 37.5729 49.9005 37.5729C49.6456 37.5729 49.4306 37.627 49.2556 37.7351C49.0805 37.8406 48.993 37.9822 48.993 38.1599C48.993 38.3015 49.0496 38.4212 49.1629 38.519C49.2762 38.6169 49.4705 38.6954 49.746 38.7546L50.8196 38.9708C51.3963 39.0893 51.8262 39.2798 52.1094 39.5424C52.3926 39.805 52.5342 40.15 52.5342 40.5773C52.5342 40.9661 52.4196 41.3072 52.1905 41.6007C51.9639 41.8942 51.6524 42.1233 51.256 42.2881C50.8621 42.4503 50.4077 42.5314 49.8928 42.5314C49.1075 42.5314 48.4819 42.3679 48.0159 42.0409C47.5525 41.7114 47.2809 41.2634 47.2011 40.697L48.8192 40.6121C48.8681 40.8515 48.9865 41.0343 49.1745 41.1605C49.3624 41.284 49.6031 41.3458 49.8966 41.3458C50.185 41.3458 50.4167 41.2905 50.5917 41.1798C50.7694 41.0665 50.8595 40.921 50.8621 40.7434C50.8595 40.5941 50.7964 40.4718 50.6728 40.3765C50.5493 40.2787 50.3587 40.204 50.1013 40.1525L49.0741 39.9479C48.4948 39.832 48.0636 39.6312 47.7804 39.3454C47.4998 39.0597 47.3595 38.6954 47.3595 38.2526C47.3595 37.8715 47.4624 37.5433 47.6684 37.2678C47.8769 36.9923 48.1691 36.7799 48.545 36.6306C48.9235 36.4813 49.3663 36.4066 49.8735 36.4066C50.6226 36.4066 51.2122 36.565 51.6421 36.8816C52.0746 37.1983 52.3269 37.6295 52.399 38.1753Z" fill="#1E1B39"/>
</svg>
