<svg width="50" height="50" viewBox="0 0 50 50" fill="none" xmlns="http://www.w3.org/2000/svg">
<g clip-path="url(#clip0_6357_40920)">
<path d="M18.5183 14.5068C27.8937 14.5068 35.4936 22.1067 35.4936 31.4821C35.4936 40.8576 27.8937 48.4575 18.5183 48.4575C9.14282 48.4575 1.54297 40.8576 1.54297 31.4821C1.54297 22.1067 9.14282 14.5068 18.5183 14.5068ZM18.5183 17.9019C14.9166 17.9019 11.4624 19.3327 8.91559 21.8795C6.3688 24.4263 4.93803 27.8804 4.93803 31.4821C4.93803 35.0839 6.3688 38.538 8.91559 41.0848C11.4624 43.6316 14.9166 45.0624 18.5183 45.0624C22.12 45.0624 25.5742 43.6316 28.121 41.0848C30.6678 38.538 32.0985 35.0839 32.0985 31.4821C32.0985 27.8804 30.6678 24.4263 28.121 21.8795C25.5742 19.3327 22.12 17.9019 18.5183 17.9019ZM15.4084 37.3301C17.4471 34.2729 21.5365 32.1832 25.7209 33.2306C25.9404 33.2815 26.1477 33.3756 26.3305 33.5075C26.5132 33.6393 26.668 33.8062 26.7856 33.9984C26.9032 34.1907 26.9813 34.4045 27.0154 34.6272C27.0496 34.85 27.039 35.0773 26.9843 35.296C26.9297 35.5146 26.832 35.7202 26.6971 35.9007C26.5621 36.0812 26.3926 36.233 26.1983 36.3473C26.0041 36.4616 25.789 36.5361 25.5657 36.5664C25.3424 36.5967 25.1153 36.5822 24.8976 36.5238C22.2919 35.872 19.5894 37.1791 18.2331 39.2144C17.9832 39.589 17.5948 39.849 17.1532 39.9371C16.7117 40.0253 16.2532 39.9345 15.8786 39.6846C15.504 39.4347 15.2441 39.0463 15.1559 38.6048C15.0677 38.1632 15.1585 37.7047 15.4084 37.3301ZM14.2745 24.692C14.9498 24.692 15.5974 24.9603 16.075 25.4378C16.5525 25.9153 16.8207 26.563 16.8207 27.2383C16.8207 27.9136 16.5525 28.5613 16.075 29.0388C15.5974 29.5163 14.9498 29.7846 14.2745 29.7846C13.5991 29.7846 12.9515 29.5163 12.4739 29.0388C11.9964 28.5613 11.7282 27.9136 11.7282 27.2383C11.7282 26.563 11.9964 25.9153 12.4739 25.4378C12.9515 24.9603 13.5991 24.692 14.2745 24.692ZM24.4596 22.9945C25.135 22.9945 25.7826 23.2628 26.2601 23.7403C26.7377 24.2178 27.0059 24.8655 27.0059 25.5408C27.0059 26.2161 26.7377 26.8638 26.2601 27.3413C25.7826 27.8188 25.135 28.0871 24.4596 28.0871C23.7843 28.0871 23.1367 27.8188 22.6591 27.3413C22.1816 26.8638 21.9133 26.2161 21.9133 25.5408C21.9133 24.8655 22.1816 24.2178 22.6591 23.7403C23.1367 23.2628 23.7843 22.9945 24.4596 22.9945Z" fill="white"/>
<path d="M42.1184 11.0627L42.1184 11.0626L42.1146 11.065L42.092 11.0792C40.7673 11.9112 38.9632 13.0441 38.5086 15.7784C38.4784 15.9603 38.4842 16.1464 38.5259 16.3261C38.5676 16.5058 38.6443 16.6755 38.7515 16.8255C38.8588 16.9756 38.9946 17.103 39.1511 17.2006C39.3076 17.2982 39.4818 17.3639 39.6637 17.3942C39.8457 17.4244 40.0318 17.4186 40.2115 17.3769C40.3911 17.3352 40.5608 17.2585 40.7109 17.1513C40.8609 17.044 40.9883 16.9083 41.0859 16.7517C41.1835 16.5952 41.2493 16.421 41.2795 16.2391C41.4035 15.4937 41.6769 15.0024 42.0579 14.5988C42.4566 14.1762 42.9826 13.8371 43.6628 13.4112L43.6757 13.4031L43.6882 13.3942L43.712 13.3772L43.7154 13.375C45.0506 12.5384 46.8679 11.3999 47.3277 8.63385C47.8928 5.23497 45.0951 2.45377 42.227 1.97692C39.3589 1.50006 35.8117 3.22638 35.2466 6.62525C35.2164 6.80719 35.2223 6.99331 35.2639 7.17298C35.3056 7.35265 35.3823 7.52234 35.4895 7.67239C35.5968 7.82243 35.7326 7.94987 35.8891 8.04744C36.0456 8.14502 36.2198 8.21081 36.4017 8.24105C36.5837 8.2713 36.7698 8.26542 36.9495 8.22374C37.1291 8.18206 37.2988 8.1054 37.4489 7.99814C37.5989 7.89088 37.7264 7.75512 37.8239 7.5986C37.9215 7.44208 37.9873 7.26788 38.0175 7.08594C38.2692 5.57252 40.0468 4.46194 41.7663 4.74783C43.4858 5.03372 44.8085 6.65973 44.5568 8.17316C44.4309 8.93034 44.1544 9.4296 43.7718 9.838C43.3722 10.2645 42.847 10.6053 42.1714 11.03L42.1184 11.0627ZM38.8168 22.4884C39.3077 22.57 39.8109 22.4533 40.2157 22.1639C40.6206 21.8745 40.8939 21.4361 40.9755 20.9452C41.0571 20.4543 40.9404 19.9511 40.6509 19.5462C40.3615 19.1414 39.9232 18.8681 39.4322 18.7865C38.9413 18.7049 38.4381 18.8216 38.0333 19.111C37.6284 19.4004 37.3552 19.8388 37.2735 20.3297C37.1919 20.8206 37.3087 21.3238 37.5981 21.7287C37.8875 22.1335 38.3259 22.4068 38.8168 22.4884Z" fill="white" stroke="white"/>
</g>
<defs>
<clipPath id="clip0_6357_40920">
<rect width="50" height="50" fill="white"/>
</clipPath>
</defs>
</svg>
