<svg width="50" height="50" viewBox="0 0 50 50" fill="none" xmlns="http://www.w3.org/2000/svg">
<g clip-path="url(#clip0_6357_40931)">
<path opacity="0.4" d="M14.0651 18.0577L19.3307 12.8304C19.5948 12.5672 19.9509 12.4203 20.3215 12.4214C20.6922 12.4225 21.0474 12.5716 21.31 12.8363L26.352 17.9255C26.4841 18.0586 26.5888 18.217 26.6599 18.3914C26.731 18.5658 26.767 18.7528 26.766 18.9415C26.765 19.1301 26.7269 19.3167 26.6539 19.4903C26.5809 19.664 26.4746 19.8212 26.341 19.9528L21.0752 25.1178L14.0651 18.0577ZM39.048 32.7378C39.3095 32.4709 39.456 32.1101 39.4554 31.7342C39.4548 31.3584 39.3073 30.998 39.045 30.7319L34.003 25.6427C33.8713 25.5097 33.7148 25.4045 33.5427 25.3331C33.3705 25.2617 33.186 25.2256 33 25.2269C32.8139 25.2282 32.6299 25.2668 32.4587 25.3405C32.2875 25.4142 32.1325 25.5216 32.0026 25.6563L26.8813 30.9848L33.8862 38.0503L39.048 32.7378Z" fill="white"/>
<path d="M7.31112 44.7629C8.74329 46.2372 10.4516 47.4079 12.3361 48.2066C14.2207 49.0053 16.2436 49.416 18.2868 49.4146L18.3449 49.4145C20.3787 49.4168 22.3928 49.0108 24.2706 48.2201C26.1483 47.4295 27.8523 46.2698 29.2839 44.8083L34.8809 39.0559L40.0585 33.7327C40.5802 33.1974 40.8712 32.475 40.8681 31.7233C40.865 30.9716 40.568 30.2517 40.042 29.7208L34.9965 24.6316C34.7353 24.3669 34.4249 24.1571 34.0831 24.0145C33.7414 23.8719 33.3751 23.7991 33.0054 23.8005L32.9896 23.8005C32.6172 23.8031 32.2491 23.8805 31.9065 24.0281C31.5639 24.1758 31.2538 24.3908 30.994 24.6607L20.3055 35.7735C19.7836 36.2978 19.0801 36.5957 18.3446 36.6037C17.6091 36.6118 16.8994 36.3295 16.3663 35.8167C16.1028 35.5586 15.8932 35.2495 15.7499 34.9079C15.6066 34.5663 15.5324 34.1991 15.5319 33.828C15.5277 33.4331 15.6006 33.0412 15.7464 32.6748C15.8921 32.3084 16.1079 31.9747 16.3812 31.6928L27.3146 20.969C27.5817 20.7059 27.7943 20.3917 27.9403 20.0447C28.0862 19.6977 28.1625 19.3248 28.1647 18.9477C28.167 18.5705 28.095 18.1967 27.9532 17.848C27.8113 17.4992 27.6024 17.1825 27.3384 16.9162L22.2929 11.827C21.7669 11.2997 21.0572 11.0026 20.3167 10.9997C19.5762 10.9968 18.8643 11.2884 18.3343 11.8116L7.48713 22.5778C1.44065 28.7222 1.36236 38.6703 7.31112 44.7629ZM33.0097 26.6494L38.0534 31.7368L33.8762 36.0324L28.8554 30.9681L33.0097 26.6494ZM20.3096 13.8448L25.3586 18.9322L21.0794 23.1301L16.0603 18.0623L20.3096 13.8448ZM9.46947 24.6093L14.0523 20.0606L19.0591 25.1071L14.4182 29.6613L14.4007 29.6773C13.8624 30.2279 13.4372 30.8809 13.1495 31.5986C12.8619 32.3163 12.7175 33.0845 12.7247 33.8589C12.729 34.6072 12.8817 35.347 13.1738 36.0345C13.4659 36.722 13.8915 37.3431 14.4252 37.8612C15.4948 38.8874 16.9178 39.451 18.3917 39.4322C19.8656 39.4134 21.2741 38.8136 22.3177 37.7605L26.8949 33.009L31.9105 38.0591L27.2858 42.8053C26.115 44.0001 24.7215 44.948 23.186 45.5941C21.6506 46.2402 20.0036 46.5716 18.3406 46.5692L18.2931 46.5693C16.6215 46.5703 14.9664 46.2342 13.4247 45.5806C11.8829 44.9271 10.4854 43.9691 9.3138 42.7628C4.44423 37.7783 4.51994 29.6281 9.46946 24.6057L9.46947 24.6093Z" fill="white"/>
<path d="M32.5241 2.61911L32.0317 7.8314ZM43.1479 8.24406L39.1142 11.5814ZM46.6836 19.7334L41.4713 19.2409Z" fill="white"/>
<path fill-rule="evenodd" clip-rule="evenodd" d="M48.422 19.8973C48.3313 20.8569 47.4799 21.5613 46.5204 21.4706L41.3081 20.9781C40.3485 20.8875 39.6442 20.0361 39.7348 19.0765C39.8255 18.117 40.6768 17.4126 41.6364 17.5033L46.8487 17.9957C47.8083 18.0864 48.5126 18.9378 48.422 19.8973ZM37.7705 12.6936C37.1561 11.951 37.2601 10.8509 38.0027 10.2365L42.0364 6.89921C42.779 6.28481 43.8791 6.38875 44.4935 7.13137C45.1079 7.87398 45.004 8.97407 44.2614 9.58847L40.2276 12.9258C39.485 13.5402 38.3849 13.4362 37.7705 12.6936ZM31.8684 9.56861C30.9089 9.47795 30.2045 8.62658 30.2952 7.66702L30.7876 2.45473C30.8783 1.49517 31.7297 0.79079 32.6892 0.881452C33.6488 0.972114 34.3532 1.82348 34.2625 2.78304L33.77 7.99533C33.6794 8.95489 32.828 9.65927 31.8684 9.56861Z" fill="white"/>
</g>
<defs>
<clipPath id="clip0_6357_40931">
<rect width="50" height="50" fill="white"/>
</clipPath>
</defs>
</svg>
