<svg width="50" height="50" viewBox="0 0 50 50" fill="none" xmlns="http://www.w3.org/2000/svg">
<path fill-rule="evenodd" clip-rule="evenodd" d="M30.4548 2.52149C31.6987 2.52075 32.9245 2.81968 34.0285 3.393C34.6723 3.72735 35.2636 4.14928 35.7865 4.64484C37.1748 3.32983 39.0516 2.52149 41.1166 2.52149C45.3976 2.52149 48.8682 5.9921 48.8682 10.2732C48.8682 14.0057 46.6824 17.4124 44.1421 19.9778C41.5898 22.5554 38.4671 24.5012 36.1755 25.2627C35.9224 25.3468 35.6489 25.3468 35.3959 25.2627C33.1042 24.5012 29.9816 22.5554 27.4293 19.9778C24.8889 17.4124 22.7031 14.0057 22.7031 10.2732C22.7031 5.9924 26.1733 2.52196 30.4539 2.52149M32.889 5.58706C32.1374 5.19668 31.3027 4.99318 30.4557 4.99378L30.4548 4.99378C27.5392 4.99378 25.1754 7.35751 25.1754 10.2732C25.1754 13.0561 26.8397 15.8688 29.186 18.2383C31.3621 20.4358 33.9433 22.0661 35.7857 22.7763C37.6281 22.0661 40.2093 20.4358 42.3853 18.2383C44.7317 15.8688 46.3959 13.0561 46.3959 10.2732C46.3959 7.35751 44.0322 4.99378 41.1166 4.99378C39.3321 4.99378 37.7535 5.87816 36.7965 7.23768C36.5648 7.56681 36.1874 7.76254 35.7849 7.76228C35.3824 7.76203 35.0052 7.56583 34.774 7.23641C34.2873 6.54318 33.6407 5.97743 32.889 5.58706Z" fill="white"/>
<path d="M18.7516 30.8008L17.6331 30.6149C17.6061 30.7773 17.6148 30.9436 17.6586 31.1023C17.7024 31.261 17.7802 31.4082 17.8866 31.5338C17.9931 31.6594 18.1256 31.7603 18.275 31.8295C18.4243 31.8986 18.587 31.9345 18.7516 31.9344V30.8008ZM2.12577 30.8008V29.6673C1.82512 29.6673 1.53679 29.7867 1.3242 29.9993C1.11162 30.2119 0.992188 30.5002 0.992188 30.8008H2.12577ZM5.14864 47.0488H22.3186V44.7816H5.14864V47.0488ZM24.1323 29.6673H18.7516V31.9344H24.1323V29.6673ZM19.87 30.9867L21.0883 23.6789L18.8513 23.3056L17.6331 30.6149L19.87 30.9867ZM18.4795 20.5986H18.1561V22.8658H18.478L18.4795 20.5986ZM13.4389 23.1227L9.63761 28.8254L11.5239 30.0829L15.3252 24.3803L13.4389 23.1227ZM8.06572 29.6673H2.12577V31.9344H8.06572V29.6673ZM0.992188 30.8008V42.8923H3.25934V30.8008H0.992188ZM26.3949 43.7085L28.2086 34.6399L25.9868 34.194L24.1731 43.2626L26.3949 43.707V43.7085ZM9.63761 28.8254C9.46516 29.0843 9.23145 29.2951 8.95723 29.4419C8.68302 29.5888 8.37678 29.6657 8.06572 29.6657V31.9329C9.45624 31.9329 10.7531 31.2392 11.5239 30.0829L9.63761 28.8254ZM21.0883 23.6789C21.1512 23.3001 21.131 22.9106 21.0289 22.5404C20.9268 22.1702 20.7453 21.8267 20.4971 21.5337C20.2488 21.2408 19.9397 21.0054 19.5913 20.8439C19.2429 20.6824 18.8635 20.5987 18.4795 20.5986L18.478 22.8658C18.5328 22.8659 18.5884 22.878 18.6381 22.9011C18.6877 22.9242 18.7318 22.9579 18.7672 22.9997C18.8025 23.0415 18.8284 23.0906 18.8429 23.1434C18.8574 23.1962 18.8603 23.2516 18.8513 23.3056L21.0883 23.6789ZM24.1323 31.9329C25.3263 31.9329 26.2181 33.0242 25.9853 34.1925L28.2086 34.6384C28.3289 34.0355 28.314 33.4118 28.1648 32.8154C28.0157 32.219 27.7361 31.663 27.3462 31.1877C26.9563 30.7124 26.4658 30.3294 25.91 30.0665C25.3543 29.8036 24.7471 29.6672 24.1323 29.6673V31.9344V31.9329ZM22.3186 47.0488C23.2794 47.049 24.2106 46.7148 24.9538 46.1058C25.697 45.4968 26.2062 44.6491 26.3949 43.707L24.1731 43.2611C24.0874 43.6898 23.8558 44.0754 23.5176 44.3524C23.1794 44.6294 22.7557 44.7821 22.3186 44.7816V47.0488ZM18.1561 20.5986C17.223 20.5987 16.3044 20.8276 15.4818 21.2679C14.6591 21.7082 13.9579 22.3448 13.4404 23.1212L15.3252 24.3803C15.6358 23.9142 16.0568 23.5306 16.5506 23.2664C17.0445 23.0022 17.596 22.8656 18.1561 22.8658V20.5986ZM5.14864 44.7816C4.10575 44.7816 3.25934 43.9352 3.25934 42.8923H0.992188C0.992188 43.9947 1.4301 45.0519 2.20958 45.8314C2.98907 46.6109 4.04628 47.0488 5.14864 47.0488V44.7816Z" fill="white"/>
<path fill-rule="evenodd" clip-rule="evenodd" d="M7.26562 45.9152V30.8008H9.07935V45.9152H7.26562Z" fill="white"/>
</svg>
